<svg width="174" height="145" viewBox="0 0 174 145" fill="none" xmlns="http://www.w3.org/2000/svg">
<path d="M132.724 142.5C132.171 142.5 131.724 142.948 131.724 143.5C131.724 144.052 132.171 144.5 132.724 144.5L132.724 142.5ZM8.20698 0.292717C7.81645 -0.0978069 7.18328 -0.0978041 6.79276 0.29272L0.428821 6.6567C0.038298 7.04723 0.0382998 7.68039 0.428826 8.07092C0.819351 8.46144 1.45252 8.46144 1.84304 8.07091L7.49988 2.41404L13.1567 8.07088C13.5473 8.4614 14.1804 8.4614 14.571 8.07087C14.9615 7.68035 14.9615 7.04718 14.571 6.65666L8.20698 0.292717ZM134.83 144.443C135.381 144.413 135.804 143.941 135.774 143.39C135.744 142.838 135.273 142.416 134.722 142.446L134.83 144.443ZM138.689 142.017C138.143 142.106 137.773 142.619 137.861 143.164C137.949 143.709 138.463 144.08 139.008 143.992L138.689 142.017ZM143.116 143.108C143.649 142.964 143.965 142.415 143.821 141.882C143.678 141.349 143.129 141.033 142.596 141.177L143.116 143.108ZM146.4 139.944C145.883 140.14 145.624 140.718 145.82 141.234C146.016 141.75 146.594 142.01 147.11 141.813L146.4 139.944ZM150.954 140.133C151.449 139.887 151.651 139.287 151.405 138.792C151.16 138.298 150.559 138.096 150.065 138.341L150.954 140.133ZM153.56 136.39C153.091 136.682 152.948 137.299 153.24 137.768C153.532 138.236 154.149 138.379 154.618 138.087L153.56 136.39ZM158.067 135.697C158.505 135.361 158.588 134.734 158.252 134.295C157.916 133.857 157.288 133.774 156.85 134.11L158.067 135.697ZM159.9 131.524C159.497 131.902 159.476 132.535 159.854 132.938C160.231 133.341 160.864 133.362 161.267 132.984L159.9 131.524ZM164.185 129.961C164.548 129.545 164.505 128.913 164.088 128.551C163.672 128.188 163.04 128.231 162.677 128.648L164.185 129.961ZM165.137 125.503C164.821 125.956 164.931 126.579 165.384 126.896C165.837 127.212 166.46 127.102 166.776 126.649L165.137 125.503ZM168.991 123.071C169.255 122.585 169.075 121.978 168.589 121.715C168.104 121.451 167.497 121.631 167.234 122.117L168.991 123.071ZM168.919 118.513C168.716 119.026 168.968 119.607 169.482 119.81C169.995 120.013 170.576 119.761 170.779 119.247L168.919 118.513ZM172.076 115.225C172.211 114.69 171.886 114.146 171.35 114.012C170.815 113.877 170.271 114.202 170.136 114.737L172.076 115.225ZM170.838 110.842C170.778 111.391 171.175 111.885 171.724 111.945C172.273 112.005 172.767 111.608 172.827 111.059L170.838 110.842ZM172.985 106.824C172.966 106.272 172.504 105.84 171.952 105.859C171.4 105.878 170.968 106.341 170.987 106.893L172.985 106.824ZM170.564 102.961C170.663 103.504 171.183 103.865 171.726 103.766C172.27 103.668 172.63 103.147 172.532 102.604L170.564 102.961ZM171.483 98.5074C171.309 97.9833 170.743 97.6996 170.219 97.8737C169.695 98.0478 169.411 98.6138 169.585 99.138L171.483 98.5074ZM168.085 95.4699C168.327 95.9663 168.926 96.1723 169.422 95.9302C169.918 95.688 170.125 95.0893 169.882 94.5929L168.085 95.4699ZM167.797 90.9155C167.496 90.4522 166.877 90.3205 166.413 90.6212C165.95 90.9219 165.819 91.5412 166.119 92.0045L167.797 90.9155ZM163.763 88.7819C164.113 89.2098 164.743 89.2736 165.171 88.9245C165.598 88.5753 165.662 87.9454 165.313 87.5175L163.763 88.7819ZM162.512 84.4069C162.124 84.0141 161.491 84.0105 161.098 84.3988C160.705 84.7871 160.702 85.4203 161.09 85.813L162.512 84.4069ZM158.149 83.0821C158.569 83.4412 159.2 83.392 159.559 82.9723C159.918 82.5527 159.869 81.9214 159.449 81.5624L158.149 83.0821ZM156.177 78.9675C155.732 78.64 155.106 78.7351 154.778 79.1798C154.451 79.6245 154.546 80.2505 154.991 80.578L156.177 78.9675ZM151.656 78.2866C152.121 78.5851 152.74 78.4503 153.038 77.9856C153.337 77.5209 153.202 76.9022 152.737 76.6038L151.656 78.2866ZM149.198 74.4703C148.718 74.1981 148.107 74.367 147.835 74.8476C147.563 75.3282 147.732 75.9384 148.213 76.2106L149.198 74.4703ZM144.655 74.3122C145.149 74.5604 145.75 74.3617 145.998 73.8683C146.246 73.375 146.048 72.7738 145.554 72.5256L144.655 74.3122ZM141.841 70.7581C141.337 70.5309 140.745 70.7549 140.518 71.2583C140.291 71.7617 140.515 72.3539 141.018 72.5811L141.841 70.7581ZM137.401 71.0279C137.912 71.2368 138.496 70.9917 138.705 70.4804C138.914 69.9692 138.669 69.3854 138.158 69.1765L137.401 71.0279ZM134.432 67.7255C133.915 67.5333 133.339 67.7971 133.147 68.3149C132.955 68.8326 133.219 69.4082 133.736 69.6004L134.432 67.7255ZM130.026 68.2851C130.549 68.4622 131.117 68.1817 131.294 67.6586C131.471 67.1354 131.191 66.5678 130.668 66.3907L130.026 68.2851ZM126.865 65.1593C126.338 64.9958 125.778 65.291 125.614 65.8185C125.451 66.346 125.746 66.9062 126.274 67.0697L126.865 65.1593ZM122.489 65.9459C123.021 66.0971 123.574 65.7891 123.725 65.2579C123.876 64.7267 123.568 64.1735 123.037 64.0223L122.489 65.9459ZM119.193 62.971C118.659 62.8306 118.113 63.1498 117.972 63.6839C117.832 64.2181 118.151 64.7649 118.685 64.9053L119.193 62.971ZM114.854 63.9355C115.391 64.0664 115.932 63.7375 116.063 63.201C116.194 62.6644 115.865 62.1234 115.328 61.9925L114.854 63.9355ZM111.448 61.0782C110.909 60.9555 110.373 61.2927 110.25 61.8312C110.128 62.3697 110.465 62.9056 111.003 63.0282L111.448 61.0782ZM107.144 62.1766C107.684 62.2922 108.215 61.9481 108.331 61.408C108.447 60.868 108.102 60.3365 107.562 60.2209L107.144 62.1766ZM103.666 59.4098C103.125 59.3001 102.597 59.6499 102.487 60.1912C102.378 60.7325 102.727 61.2602 103.269 61.3699L103.666 59.4098ZM99.3839 60.6009C99.9261 60.7059 100.451 60.3514 100.556 59.8092C100.661 59.267 100.306 58.7423 99.764 58.6373L99.3839 60.6009ZM95.8587 57.8955C95.3158 57.7941 94.7935 58.1521 94.6922 58.695C94.5908 59.2379 94.9488 59.7601 95.4917 59.8615L95.8587 57.8955ZM91.5921 59.1435C92.1355 59.2423 92.6561 58.882 92.7549 58.3386C92.8538 57.7952 92.4934 57.2746 91.9501 57.1758L91.5921 59.1435ZM88.0438 56.471C87.5002 56.3736 86.9805 56.7353 86.883 57.2789C86.7856 57.8225 87.1473 58.3422 87.6909 58.4397L88.0438 56.471ZM83.7841 57.7411C84.3277 57.8382 84.8473 57.4763 84.9444 56.9326C85.0416 56.3889 84.6797 55.8694 84.136 55.7723L83.7841 57.7411ZM80.2285 55.0713C79.685 54.9732 79.1649 55.3343 79.0668 55.8778C78.9688 56.4214 79.3299 56.9414 79.8734 57.0395L80.2285 55.0713ZM75.9677 56.3278C76.5108 56.428 77.0323 56.0689 77.1325 55.5258C77.2326 54.9826 76.8735 54.4611 76.3304 54.361L75.9677 56.3278ZM72.4385 53.6317C71.896 53.5282 71.3723 53.884 71.2688 54.4265C71.1653 54.969 71.5211 55.4927 72.0636 55.5962L72.4385 53.6317ZM68.1538 54.8334C68.6953 54.9416 69.2221 54.5903 69.3304 54.0487C69.4386 53.5072 69.0873 52.9804 68.5458 52.8721L68.1538 54.8334ZM64.6699 52.0753C64.1296 51.9609 63.5988 52.3061 63.4844 52.8464C63.3699 53.3867 63.7152 53.9175 64.2555 54.0319L64.6699 52.0753ZM60.3737 53.1815C60.9123 53.3037 61.448 52.9662 61.5702 52.4276C61.6924 51.889 61.3549 51.3533 60.8163 51.2311L60.3737 53.1815ZM56.9654 50.3223C56.4291 50.1905 55.8875 50.5184 55.7557 51.0547C55.6239 51.5911 55.9518 52.1327 56.4882 52.2645L56.9654 50.3223ZM52.6182 51.2704C53.1515 51.4137 53.7001 51.0976 53.8435 50.5642C53.9868 50.0309 53.6707 49.4823 53.1373 49.3389L52.6182 51.2704ZM49.3447 48.2684C48.8152 48.1113 48.2587 48.4132 48.1016 48.9426C47.9445 49.4721 48.2464 50.0287 48.7758 50.1858L49.3447 48.2684ZM44.9679 48.9939C45.4923 49.1672 46.0579 48.8825 46.2311 48.3581C46.4044 47.8337 46.1197 47.2681 45.5953 47.0949L44.9679 48.9939ZM41.8844 45.7956C41.3666 45.6034 40.7911 45.8673 40.5989 46.3851C40.4067 46.9028 40.6706 47.4784 41.1883 47.6706L41.8844 45.7956ZM37.4511 46.1936C37.9602 46.4079 38.5465 46.1689 38.7608 45.6599C38.975 45.1508 38.7361 44.5645 38.227 44.3502L37.4511 46.1936ZM34.6524 42.7415C34.1548 42.5019 33.5572 42.7111 33.3176 43.2087C33.078 43.7064 33.2872 44.304 33.7848 44.5435L34.6524 42.7415ZM30.2098 42.6948C30.6926 42.9631 31.3014 42.7892 31.5697 42.3065C31.838 41.8238 31.6642 41.2149 31.1814 40.9466L30.2098 42.6948ZM27.8405 38.9424C27.377 38.642 26.7578 38.7743 26.4575 39.2377C26.1571 39.7012 26.2893 40.3204 26.7528 40.6208L27.8405 38.9424ZM23.4478 38.2965C23.8867 38.6318 24.5143 38.5478 24.8496 38.109C25.1848 37.6701 25.1009 37.0425 24.662 36.7072L23.4478 38.2965ZM21.6842 34.2242C21.2761 33.8521 20.6436 33.8813 20.2715 34.2895C19.8994 34.6976 19.9286 35.3301 20.3368 35.7022L21.6842 34.2242ZM17.4671 32.8277C17.8381 33.2369 18.4705 33.2679 18.8796 32.897C19.2888 32.5261 19.3198 31.8937 18.9489 31.4845L17.4671 32.8277ZM16.4991 28.4935C16.1713 28.049 15.5453 27.9544 15.1008 28.2822C14.6563 28.61 14.5617 29.2361 14.8895 29.6805L16.4991 28.4935ZM12.6482 26.288C12.9284 26.7639 13.5414 26.9225 14.0173 26.6423C14.4932 26.362 14.6518 25.7491 14.3716 25.2731L12.6482 26.288ZM12.5866 21.8538C12.3561 21.352 11.7623 21.132 11.2605 21.3625C10.7586 21.5931 10.5386 22.1868 10.7692 22.6887L12.5866 21.8538ZM9.25898 18.9275C9.44008 19.4493 10.0098 19.7254 10.5316 19.5444C11.0533 19.3633 11.3295 18.7935 11.1484 18.2717L9.25898 18.9275ZM10.046 14.5609C9.91206 14.0251 9.36916 13.6993 8.83335 13.8332C8.29755 13.9671 7.97174 14.51 8.10564 15.0458L10.046 14.5609ZM7.28489 11.0734C7.3751 11.6182 7.88993 11.9868 8.43479 11.8966C8.97966 11.8064 9.34824 11.2915 9.25803 10.7467L7.28489 11.0734ZM8.76093 6.86252C8.71018 6.31257 8.22322 5.90788 7.67328 5.95863C7.12333 6.00937 6.71864 6.49633 6.76939 7.04628L8.76093 6.86252ZM6.52988 3.06299C6.54612 3.61503 7.0068 4.04939 7.55885 4.03315C8.11089 4.01692 8.54525 3.55623 8.52901 3.00419L6.52988 3.06299ZM132.724 144.5C133.428 144.5 134.13 144.481 134.83 144.443L134.722 142.446C134.058 142.482 133.392 142.5 132.724 142.5L132.724 144.5ZM139.008 143.992C140.396 143.767 141.767 143.471 143.116 143.108L142.596 141.177C141.312 141.523 140.008 141.804 138.689 142.017L139.008 143.992ZM147.11 141.813C148.421 141.315 149.705 140.753 150.954 140.133L150.065 138.341C148.873 138.933 147.649 139.469 146.4 139.944L147.11 141.813ZM154.618 138.087C155.809 137.344 156.961 136.546 158.067 135.697L156.85 134.11C155.795 134.92 154.696 135.681 153.56 136.39L154.618 138.087ZM161.267 132.984C162.295 132.022 163.269 131.013 164.185 129.961L162.677 128.648C161.806 129.647 160.879 130.608 159.9 131.524L161.267 132.984ZM166.776 126.649C167.585 125.493 168.325 124.299 168.991 123.071L167.234 122.117C166.604 123.277 165.903 124.408 165.137 125.503L166.776 126.649ZM170.779 119.247C171.298 117.933 171.732 116.591 172.076 115.225L170.136 114.737C169.815 116.017 169.407 117.277 168.919 118.513L170.779 119.247ZM172.827 111.059C172.979 109.661 173.035 108.248 172.985 106.824L170.987 106.893C171.032 108.219 170.981 109.537 170.838 110.842L172.827 111.059ZM172.532 102.604C172.284 101.239 171.936 99.8718 171.483 98.5074L169.585 99.138C170.009 100.413 170.333 101.689 170.564 102.961L172.532 102.604ZM169.882 94.5929C169.28 93.3584 168.586 92.1313 167.797 90.9155L166.119 92.0045C166.865 93.1538 167.519 94.3102 168.085 95.4699L169.882 94.5929ZM165.313 87.5175C164.457 86.4681 163.524 85.4304 162.512 84.4069L161.09 85.813C162.059 86.7929 162.949 87.7834 163.763 88.7819L165.313 87.5175ZM159.449 81.5624C158.423 80.6841 157.332 79.8186 156.177 78.9675L154.991 80.578C156.109 81.4013 157.161 82.2366 158.149 83.0821L159.449 81.5624ZM152.737 76.6038C151.61 75.8799 150.431 75.1683 149.198 74.4703L148.213 76.2106C149.414 76.891 150.562 77.5834 151.656 78.2866L152.737 76.6038ZM145.554 72.5256C144.932 72.2127 144.298 71.9029 143.653 71.5964L142.795 73.4032C143.427 73.7033 144.047 74.0063 144.655 74.3122L145.554 72.5256ZM143.653 71.5964C143.052 71.3116 142.448 71.0322 141.841 70.7581L141.018 72.5811C141.615 72.8501 142.207 73.1241 142.795 73.4032L143.653 71.5964ZM138.158 69.1765C136.928 68.6743 135.686 68.1911 134.432 67.7255L133.736 69.6004C134.971 70.0588 136.193 70.5342 137.401 71.0279L138.158 69.1765ZM130.668 66.3907C129.41 65.9649 128.142 65.5548 126.865 65.1593L126.274 67.0697C127.535 67.4604 128.786 67.8651 130.026 68.2851L130.668 66.3907ZM123.037 64.0223C121.763 63.6596 120.481 63.3096 119.193 62.971L118.685 64.9053C119.961 65.2406 121.229 65.5871 122.489 65.9459L123.037 64.0223ZM115.328 61.9925C114.039 61.6781 112.745 61.3737 111.448 61.0782L111.003 63.0282C112.292 63.3217 113.576 63.6237 114.854 63.9355L115.328 61.9925ZM107.562 60.2209C106.266 59.9434 104.967 59.6734 103.666 59.4098L103.269 61.3699C104.563 61.6323 105.855 61.9008 107.144 62.1766L107.562 60.2209ZM99.764 58.6373C98.4625 58.3854 97.1603 58.1385 95.8587 57.8955L95.4917 59.8615C96.7896 60.1038 98.0874 60.3499 99.3839 60.6009L99.764 58.6373ZM91.9501 57.1758C90.646 56.9385 89.3435 56.704 88.0438 56.471L87.6909 58.4397C88.9896 58.6725 90.2903 58.9067 91.5921 59.1435L91.9501 57.1758ZM84.136 55.7723C82.8291 55.5387 81.5263 55.3054 80.2285 55.0713L79.8734 57.0395C81.1728 57.274 82.4769 57.5074 83.7841 57.7411L84.136 55.7723ZM76.3304 54.361C75.0261 54.1205 73.7285 53.8778 72.4385 53.6317L72.0636 55.5962C73.3584 55.8433 74.6602 56.0867 75.9677 56.3278L76.3304 54.361ZM68.5458 52.8721C67.244 52.6119 65.9516 52.3468 64.6699 52.0753L64.2555 54.0319C65.5455 54.3051 66.8454 54.5718 68.1538 54.8334L68.5458 52.8721ZM60.8163 51.2311C59.5194 50.9368 58.2353 50.6343 56.9654 50.3223L56.4882 52.2645C57.7706 52.5796 59.0663 52.8848 60.3737 53.1815L60.8163 51.2311ZM53.1373 49.3389C51.8558 48.9945 50.5911 48.6382 49.3447 48.2684L48.7758 50.1858C50.04 50.5608 51.3213 50.9218 52.6182 51.2704L53.1373 49.3389ZM45.5953 47.0949C44.3359 46.6788 43.0984 46.2463 41.8844 45.7956L41.1883 47.6706C42.4267 48.1303 43.6872 48.5708 44.9679 48.9939L45.5953 47.0949ZM38.227 44.3502C37.0068 43.8366 35.8146 43.3011 34.6524 42.7415L33.7848 44.5435C34.9792 45.1186 36.2021 45.6679 37.4511 46.1936L38.227 44.3502ZM31.1814 40.9466C30.032 40.3077 28.9176 39.6404 27.8405 38.9424L26.7528 40.6208C27.87 41.3448 29.0233 42.0353 30.2098 42.6948L31.1814 40.9466ZM24.662 36.7072C23.6264 35.916 22.633 35.0892 21.6842 34.2242L20.3368 35.7022C21.3303 36.608 22.3683 37.4718 23.4478 38.2965L24.662 36.7072ZM18.9489 31.4845C18.0841 30.5305 17.2667 29.5345 16.4991 28.4935L14.8895 29.6805C15.698 30.7769 16.5582 31.825 17.4671 32.8277L18.9489 31.4845ZM14.3716 25.2731C13.7276 24.1795 13.1318 23.0406 12.5866 21.8538L10.7692 22.6887C11.3425 23.9369 11.9697 25.1358 12.6482 26.288L14.3716 25.2731ZM11.1484 18.2717C10.7347 17.0798 10.3665 15.8436 10.046 14.5609L8.10564 15.0458C8.44027 16.3848 8.82531 17.6781 9.25898 18.9275L11.1484 18.2717ZM9.25803 10.7467C9.0505 9.49321 8.88425 8.19905 8.76093 6.86252L6.76939 7.04628C6.89697 8.42895 7.06924 9.77083 7.28489 11.0734L9.25803 10.7467ZM8.52901 3.00419C8.50964 2.3456 8.49987 1.67754 8.49987 0.999823L6.49987 0.999828C6.49987 1.69676 6.50992 2.38443 6.52988 3.06299L8.52901 3.00419Z" fill="#361252" fill-opacity="0.3"/>
</svg>
