<svg width="32" height="32" viewBox="0 0 32 32" fill="none" xmlns="http://www.w3.org/2000/svg">
<path d="M8.60655 29.0074L8.91557 28.0563L8.60655 29.0074ZM4.32629 24.7271L5.27735 24.4181L4.32629 24.7271ZM27.6737 24.7271L26.7227 24.4181L27.6737 24.7271ZM23.3934 29.0074L23.0844 28.0563L23.3934 29.0074ZM23.3934 10.9933L23.0844 11.9443L23.3934 10.9933ZM27.6737 15.2735L26.7227 15.5826L27.6737 15.2735ZM8.60655 10.9933L8.91557 11.9443L8.60655 10.9933ZM4.32629 15.2735L5.27735 15.5826L4.32629 15.2735ZM13.3333 11.667H18.6667V9.66699H13.3333V11.667ZM18.6667 28.3337H13.3333V30.3337H18.6667V28.3337ZM13.3333 28.3337C10.7738 28.3337 9.73118 28.3213 8.91557 28.0563L8.29754 29.9584C9.49036 30.346 10.9295 30.3337 13.3333 30.3337V28.3337ZM3 20.0003C3 22.4042 2.98766 23.8433 3.37523 25.0361L5.27735 24.4181C5.01234 23.6025 5 22.5599 5 20.0003H3ZM8.91557 28.0563C7.19042 27.4958 5.83788 26.1432 5.27735 24.4181L3.37523 25.0361C4.1336 27.3701 5.96351 29.2001 8.29754 29.9584L8.91557 28.0563ZM27 20.0003C27 22.5599 26.9877 23.6025 26.7227 24.4181L28.6248 25.0361C29.0123 23.8433 29 22.4042 29 20.0003H27ZM18.6667 30.3337C21.0705 30.3337 22.5096 30.346 23.7025 29.9584L23.0844 28.0563C22.2688 28.3213 21.2262 28.3337 18.6667 28.3337V30.3337ZM26.7227 24.4181C26.1621 26.1432 24.8096 27.4958 23.0844 28.0563L23.7025 29.9584C26.0365 29.2001 27.8664 27.3701 28.6248 25.0361L26.7227 24.4181ZM29 20.0003C29 17.5964 29.0123 16.1573 28.6248 14.9645L26.7227 15.5826C26.9877 16.3982 27 17.4408 27 20.0003H29ZM23.0844 11.9443C24.8096 12.5049 26.1621 13.8574 26.7227 15.5826L28.6248 14.9645C27.8664 12.6305 26.0365 10.8006 23.7025 10.0422L23.0844 11.9443ZM5 20.0003C5 17.4408 5.01234 16.3982 5.27735 15.5826L3.37523 14.9645C2.98766 16.1573 3 17.5964 3 20.0003H5ZM8.29754 10.0422C5.96351 10.8006 4.1336 12.6305 3.37523 14.9645L5.27735 15.5826C5.83788 13.8574 7.19042 12.5049 8.91557 11.9443L8.29754 10.0422ZM21.6667 9.33366V10.667H23.6667V9.33366H21.6667ZM10.3333 10.667V9.33366H8.33333V10.667H10.3333ZM16 3.66699C19.1296 3.66699 21.6667 6.20405 21.6667 9.33366H23.6667C23.6667 5.09948 20.2342 1.66699 16 1.66699V3.66699ZM16 1.66699C11.7658 1.66699 8.33333 5.09948 8.33333 9.33366H10.3333C10.3333 6.20405 12.8704 3.66699 16 3.66699V1.66699ZM12.3333 20.0003C12.3333 22.0254 13.975 23.667 16 23.667V21.667C15.0795 21.667 14.3333 20.9208 14.3333 20.0003H12.3333ZM16 23.667C18.025 23.667 19.6667 22.0254 19.6667 20.0003H17.6667C17.6667 20.9208 16.9205 21.667 16 21.667V23.667ZM19.6667 20.0003C19.6667 17.9753 18.025 16.3337 16 16.3337V18.3337C16.9205 18.3337 17.6667 19.0798 17.6667 20.0003H19.6667ZM16 16.3337C13.975 16.3337 12.3333 17.9753 12.3333 20.0003H14.3333C14.3333 19.0798 15.0795 18.3337 16 18.3337V16.3337ZM13.3333 9.66699C11.4514 9.66699 10.1704 9.6635 9.16721 9.83251L9.49946 11.8047C10.2963 11.6705 11.3709 11.667 13.3333 11.667V9.66699ZM9.16721 9.83251C8.86362 9.88365 8.57677 9.9515 8.29754 10.0422L8.91557 11.9443C9.08913 11.8879 9.27913 11.8418 9.49946 11.8047L9.16721 9.83251ZM8.33333 10.667V10.8186H10.3333V10.667H8.33333ZM18.6667 11.667C20.6291 11.667 21.7037 11.6705 22.5005 11.8047L22.8328 9.83251C21.8296 9.6635 20.5486 9.66699 18.6667 9.66699V11.667ZM22.5005 11.8047C22.7209 11.8418 22.9109 11.8879 23.0844 11.9443L23.7025 10.0422C23.4232 9.9515 23.1364 9.88365 22.8328 9.83251L22.5005 11.8047ZM21.6667 10.667V10.8186H23.6667V10.667H21.6667Z" fill="#3B1F52" fill-opacity="0.6"/>
</svg>
