<svg width="42" height="42" viewBox="0 0 42 42" fill="none" xmlns="http://www.w3.org/2000/svg">
<path d="M14.2647 35.9052L13.8694 36.5449L14.2647 35.9052ZM13.5667 35.505L13.8435 34.8058L13.5667 35.505ZM12.1432 35.5345L12.3318 36.2624L12.1432 35.5345ZM12.8061 35.39L12.864 36.1398L12.8061 35.39ZM6.15727 29.5486L5.42932 29.3599L6.15727 29.5486ZM6.30166 28.885L7.05146 28.9426L6.30166 28.885ZM5.78527 27.4278L5.14656 27.8247H5.14656L5.78527 27.4278ZM6.18543 28.1223L5.4868 28.4005L6.18543 28.1223ZM5.47939 33.5457L6.21629 33.3957L5.47939 33.5457ZM8.14606 36.2123L8.29603 35.4754L8.14606 36.2123ZM14.1916 23.1389C13.7762 23.1389 13.4396 23.4756 13.4396 23.8909C13.4396 24.3062 13.7762 24.6429 14.1916 24.6429V23.1389ZM27.8582 24.6429C28.2735 24.6429 28.6102 24.3062 28.6102 23.8909C28.6102 23.4756 28.2735 23.1389 27.8582 23.1389V24.6429ZM14.1916 16.3055C13.7762 16.3055 13.4396 16.6422 13.4396 17.0575C13.4396 17.4729 13.7762 17.8095 14.1916 17.8095V16.3055ZM27.8582 17.8095C28.2735 17.8095 28.6102 17.4729 28.6102 17.0575C28.6102 16.6422 28.2735 16.3055 27.8582 16.3055V17.8095ZM9.4266 9.16913C15.8044 2.79134 26.1448 2.79134 32.5226 9.16913L33.5861 8.10564C26.621 1.14051 15.3282 1.14051 8.36311 8.10564L9.4266 9.16913ZM32.5226 9.16913C38.9004 15.5469 38.9004 25.8873 32.5226 32.2651L33.5861 33.3286C40.5512 26.3635 40.5512 15.0708 33.5861 8.10564L32.5226 9.16913ZM6.42398 27.0309C4.47975 23.9023 4.24794 20.4298 5.00169 17.2226C5.75803 14.0044 7.49933 11.0964 9.4266 9.16913L8.36311 8.10564C6.24438 10.2244 4.35998 13.3792 3.53758 16.8785C2.71258 20.3889 2.94897 24.2885 5.14656 27.8247L6.42398 27.0309ZM32.5226 32.2651C30.6803 34.1074 27.7761 35.8472 24.534 36.6228C21.3024 37.3959 17.7909 37.2002 14.6601 35.2655L13.8694 36.5449C17.4178 38.7377 21.3607 38.9283 24.8839 38.0855C28.3966 37.2452 31.5477 35.367 33.5861 33.3286L32.5226 32.2651ZM14.6601 35.2655C14.3228 35.057 14.063 34.8927 13.8435 34.8058L13.2898 36.2041C13.3514 36.2285 13.4633 36.2939 13.8694 36.5449L14.6601 35.2655ZM12.3318 36.2624C12.7042 36.1659 12.7963 36.145 12.864 36.1398L12.7481 34.6403C12.5145 34.6583 12.2651 34.726 11.9545 34.8065L12.3318 36.2624ZM13.8435 34.8058C13.4685 34.6573 13.1503 34.6092 12.7481 34.6403L12.864 36.1398C13.0381 36.1264 13.1274 36.1398 13.2898 36.2041L13.8435 34.8058ZM6.88522 29.7372C6.96575 29.4265 7.03348 29.1769 7.05146 28.9426L5.55186 28.8275C5.54665 28.8955 5.52584 28.9875 5.42932 29.3599L6.88522 29.7372ZM5.14656 27.8247C5.39719 28.228 5.46218 28.3387 5.4868 28.4005L6.88406 27.8441C6.79649 27.6242 6.6321 27.3657 6.42398 27.0309L5.14656 27.8247ZM7.05146 28.9426C7.08234 28.5401 7.03342 28.2191 6.88406 27.8441L5.4868 28.4005C5.55128 28.5624 5.5652 28.6537 5.55186 28.8275L7.05146 28.9426ZM5.42932 29.3599C5.15354 30.4239 4.93678 31.2586 4.81144 31.9233C4.68675 32.5845 4.63409 33.1629 4.7425 33.6956L6.21629 33.3957C6.16718 33.1544 6.17499 32.8086 6.28939 32.202C6.40313 31.5988 6.60407 30.8219 6.88522 29.7372L5.42932 29.3599ZM11.9545 34.8065C10.8698 35.0877 10.0929 35.2886 9.48974 35.4023C8.88309 35.5167 8.53734 35.5245 8.29603 35.4754L7.99609 36.9492C8.52878 37.0576 9.10722 37.005 9.76844 36.8803C10.4331 36.7549 11.2678 36.5382 12.3318 36.2624L11.9545 34.8065ZM4.7425 33.6956C5.07607 35.3347 6.35703 36.6157 7.99609 36.9492L8.29603 35.4754C7.24832 35.2622 6.42951 34.4434 6.21629 33.3957L4.7425 33.6956ZM14.1916 24.6429H27.8582V23.1389H14.1916V24.6429ZM14.1916 17.8095H27.8582V16.3055H14.1916V17.8095Z" fill="url(#paint0_linear_6063_129519)"/>
<defs>
<linearGradient id="paint0_linear_6063_129519" x1="17.7535" y1="1.95911" x2="6.55136" y2="25.5967" gradientUnits="userSpaceOnUse">
<stop stop-color="#CF68FF"/>
<stop offset="0.403099" stop-color="#A24EE4"/>
<stop offset="1" stop-color="#4C32EC"/>
</linearGradient>
</defs>
</svg>
