<svg width="20" height="20" viewBox="0 0 20 20" fill="none" xmlns="http://www.w3.org/2000/svg">
<path d="M13.9648 12.0711C13.6719 11.7782 13.1971 11.7782 12.9042 12.0711C12.6113 12.364 12.6113 12.8389 12.9042 13.1318L13.9648 12.0711ZM16.4397 16.6673C16.7326 16.9602 17.2075 16.9602 17.5004 16.6673C17.7933 16.3744 17.7933 15.8995 17.5004 15.6066L16.4397 16.6673ZM12.9042 15.6066C12.6113 15.8995 12.6113 16.3744 12.9042 16.6673C13.1971 16.9602 13.6719 16.9602 13.9648 16.6673L12.9042 15.6066ZM17.5004 13.1318C17.7933 12.8389 17.7933 12.364 17.5004 12.0711C17.2075 11.7782 16.7326 11.7782 16.4397 12.0711L17.5004 13.1318ZM11.6667 11.5837C12.0809 11.5837 12.4167 11.2479 12.4167 10.8337C12.4167 10.4194 12.0809 10.0837 11.6667 10.0837V11.5837ZM11.6667 18.2503C12.0809 18.2503 12.4167 17.9145 12.4167 17.5003C12.4167 17.0861 12.0809 16.7503 11.6667 16.7503V18.2503ZM11.75 5.00033C11.75 6.42706 10.5934 7.58366 9.16671 7.58366V9.08366C11.4219 9.08366 13.25 7.25549 13.25 5.00033H11.75ZM9.16671 7.58366C7.73997 7.58366 6.58337 6.42706 6.58337 5.00033H5.08337C5.08337 7.25549 6.91154 9.08366 9.16671 9.08366V7.58366ZM6.58337 5.00033C6.58337 3.57359 7.73997 2.41699 9.16671 2.41699V0.916992C6.91154 0.916992 5.08337 2.74516 5.08337 5.00033H6.58337ZM9.16671 2.41699C10.5934 2.41699 11.75 3.57359 11.75 5.00033H13.25C13.25 2.74516 11.4219 0.916992 9.16671 0.916992V2.41699ZM12.9042 13.1318L16.4397 16.6673L17.5004 15.6066L13.9648 12.0711L12.9042 13.1318ZM13.9648 16.6673L17.5004 13.1318L16.4397 12.0711L12.9042 15.6066L13.9648 16.6673ZM6.66671 11.5837H11.6667V10.0837H6.66671V11.5837ZM11.6667 16.7503H6.66671V18.2503H11.6667V16.7503ZM6.66671 16.7503C5.23997 16.7503 4.08337 15.5937 4.08337 14.167H2.58337C2.58337 16.4222 4.41154 18.2503 6.66671 18.2503V16.7503ZM6.66671 10.0837C4.41154 10.0837 2.58337 11.9118 2.58337 14.167H4.08337C4.08337 12.7403 5.23997 11.5837 6.66671 11.5837V10.0837Z" fill="#8327D8"/>
</svg>
