<svg width="35" height="34" viewBox="0 0 35 34" fill="none" xmlns="http://www.w3.org/2000/svg">
<path d="M23.7341 26.5523C22.4834 27.8297 21.1036 27.6306 19.7884 27.0283C18.39 26.4139 17.1117 26.375 15.635 27.0283C13.7959 27.8637 12.8199 27.6209 11.7123 26.5523C5.4592 19.7766 6.38217 9.45518 13.4891 9.06661C15.2127 9.16375 16.4195 10.0696 17.4348 10.1449C18.9438 9.82189 20.3883 8.89661 22.0035 9.01804C23.944 9.18318 25.3954 9.98946 26.3645 11.4393C22.3727 13.965 23.3187 19.5022 26.9852 21.0564C26.2515 23.0843 25.31 25.0879 23.7318 26.5693L23.7341 26.5523ZM17.2963 8.99375C17.1094 5.98233 19.4284 3.50519 22.0958 3.26233C22.4627 6.73518 19.0961 9.33375 17.2963 8.99375Z" fill="#263449" fill-opacity="0.85"/>
</svg>
