<svg width="35" height="34" viewBox="0 0 35 34" fill="none" xmlns="http://www.w3.org/2000/svg">
<path d="M28.6346 17.2617C28.6346 16.496 28.5668 15.769 28.4504 15.0614H17.4974V19.4329H23.7688C23.4877 20.8675 22.6638 22.0791 21.4425 22.903V25.8109H25.1839C27.3745 23.785 28.6346 20.7996 28.6346 17.2617Z" fill="#4285F4"/>
<path d="M17.4971 28.6314C20.6376 28.6314 23.2643 27.5846 25.1835 25.8108L21.4421 22.9029C20.3952 23.6008 19.0673 24.0273 17.4971 24.0273C14.4632 24.0273 11.8945 21.9821 10.9737 19.2196H7.11594V22.2147C9.02544 26.0143 12.9511 28.6314 17.4971 28.6314Z" fill="#34A853"/>
<path d="M10.9738 19.2199C10.7315 18.522 10.6055 17.7756 10.6055 17.0002C10.6055 16.2248 10.7412 15.4784 10.9738 14.7805V11.7854H7.11605C6.32123 13.3557 5.86566 15.1198 5.86566 17.0002C5.86566 18.8806 6.32123 20.6447 7.11605 22.215L10.9738 19.2199Z" fill="#FBBC05"/>
<path d="M17.4971 9.97255C19.2127 9.97255 20.7442 10.5638 21.9558 11.7173L25.2708 8.4023C23.2643 6.52187 20.6376 5.36841 17.4971 5.36841C12.9511 5.36841 9.02544 7.9855 7.11594 11.7851L10.9737 14.7802C11.8945 12.0178 14.4632 9.97255 17.4971 9.97255Z" fill="#EA4335"/>
</svg>
