<svg width="19" height="19" viewBox="0 0 19 19" fill="none" xmlns="http://www.w3.org/2000/svg">
<path d="M15.2923 14.2316C14.9994 13.9387 14.5246 13.9387 14.2317 14.2316C13.9388 14.5245 13.9388 14.9994 14.2317 15.2923L15.2923 14.2316ZM17.4697 18.5303C17.7626 18.8232 18.2374 18.8232 18.5303 18.5303C18.8232 18.2374 18.8232 17.7626 18.5303 17.4697L17.4697 18.5303ZM14.2317 15.2923L17.4697 18.5303L18.5303 17.4697L15.2923 14.2316L14.2317 15.2923ZM8.28573 14.8214C4.67614 14.8214 1.75 11.8953 1.75 8.2857H0.25C0.25 12.7237 3.84772 16.3214 8.28573 16.3214V14.8214ZM14.8215 8.2857C14.8215 11.8953 11.8953 14.8214 8.28573 14.8214V16.3214C12.7237 16.3214 16.3215 12.7237 16.3215 8.2857H14.8215ZM8.28573 1.75C11.8953 1.75 14.8215 4.67614 14.8215 8.2857H16.3215C16.3215 3.8477 12.7237 0.25 8.28573 0.25V1.75ZM8.28573 0.25C3.84772 0.25 0.25 3.8477 0.25 8.2857H1.75C1.75 4.67614 4.67614 1.75 8.28573 1.75V0.25Z" fill="url(#paint0_linear_6604_136898)"/>
<defs>
<linearGradient id="paint0_linear_6604_136898" x1="7.90909" y1="0.166666" x2="2.33039" y2="11.9234" gradientUnits="userSpaceOnUse">
<stop stop-color="#CF68FF"/>
<stop offset="0.403099" stop-color="#A24EE4"/>
<stop offset="1" stop-color="#4C32EC"/>
</linearGradient>
</defs>
</svg>
