<svg width="29" height="28" viewBox="0 0 29 28" fill="none" xmlns="http://www.w3.org/2000/svg">
<path d="M9.94494 24.372L9.55066 25.01L9.94494 24.372ZM9.4682 24.0987L9.74433 23.4014L9.4682 24.0987ZM8.49606 24.1188L8.68423 24.8448L8.49606 24.1188ZM8.94878 24.0202L9.00656 24.768L8.94878 24.0202ZM4.40813 20.0309L3.68212 19.8427L4.40813 20.0309ZM4.50674 19.5778L5.25454 19.6351L4.50674 19.5778ZM4.15408 18.5826L3.51707 18.9784L4.15408 18.5826ZM4.42736 19.0569L3.73059 19.3344L4.42736 19.0569ZM3.94519 22.7606L4.68012 22.6111L3.94519 22.7606ZM5.76633 24.5818L5.9159 23.8468L5.76633 24.5818ZM9.89496 15.4171C9.48075 15.4171 9.14496 15.7529 9.14496 16.1671C9.14496 16.5813 9.48075 16.9171 9.89496 16.9171V15.4171ZM19.2283 16.9171C19.6425 16.9171 19.9783 16.5813 19.9783 16.1671C19.9783 15.7529 19.6425 15.4171 19.2283 15.4171V16.9171ZM9.89496 10.7504C9.48075 10.7504 9.14496 11.0862 9.14496 11.5004C9.14496 11.9147 9.48075 12.2504 9.89496 12.2504V10.7504ZM19.2283 12.2504C19.6425 12.2504 19.9783 11.9147 19.9783 11.5004C19.9783 11.0862 19.6425 10.7504 19.2283 10.7504V12.2504ZM6.80803 6.28043C11.0713 2.0172 17.9833 2.0172 22.2465 6.28043L23.3072 5.21977C18.4582 0.370755 10.5964 0.370755 5.74737 5.21977L6.80803 6.28043ZM22.2465 6.28043C26.5098 10.5436 26.5098 17.4557 22.2465 21.7189L23.3072 22.7796C28.1562 17.9306 28.1562 10.0688 23.3072 5.21977L22.2465 6.28043ZM4.79109 18.1867C3.50315 16.1142 3.34556 13.8099 3.84912 11.6673C4.35526 9.51365 5.52195 7.56651 6.80803 6.28043L5.74737 5.21977C4.27033 6.6968 2.96093 8.89014 2.3889 11.3241C1.81429 13.7691 1.97645 16.4994 3.51707 18.9784L4.79109 18.1867ZM22.2465 21.7189C21.0192 22.9463 19.0747 24.1126 16.9031 24.6321C14.742 25.1491 12.4117 25.0147 10.3392 23.734L9.55066 25.01C12.0396 26.5481 14.8002 26.6775 17.2521 26.091C19.6935 25.5069 21.8843 24.2025 23.3072 22.7796L22.2465 21.7189ZM10.3392 23.734C10.1197 23.5983 9.91899 23.4705 9.74433 23.4014L9.19207 24.796C9.18623 24.7937 9.20275 24.7997 9.26977 24.8388C9.33483 24.8767 9.42029 24.9294 9.55066 25.01L10.3392 23.734ZM8.68423 24.8448C8.94821 24.7764 8.98638 24.7695 9.00656 24.768L8.891 23.2724C8.70535 23.2868 8.51031 23.3403 8.30788 23.3928L8.68423 24.8448ZM9.74433 23.4014C9.45482 23.2867 9.20146 23.2484 8.891 23.2724L9.00656 24.768C9.06342 24.7636 9.08854 24.7661 9.10141 24.7681C9.11428 24.77 9.13904 24.775 9.19207 24.796L9.74433 23.4014ZM5.13414 20.2191C5.18663 20.0166 5.24025 19.8214 5.25454 19.6351L3.75893 19.5204C3.75738 19.5407 3.75055 19.5787 3.68212 19.8427L5.13414 20.2191ZM3.51707 18.9784C3.59755 19.108 3.65012 19.1927 3.68793 19.2572C3.72677 19.3235 3.73283 19.34 3.73059 19.3344L5.12414 18.7794C5.05443 18.6043 4.92653 18.4046 4.79109 18.1867L3.51707 18.9784ZM5.25454 19.6351C5.27839 19.3243 5.23948 19.069 5.12414 18.7794L3.73059 19.3344C3.75145 19.3867 3.7566 19.4118 3.75865 19.4253C3.7607 19.4387 3.76325 19.4642 3.75893 19.5204L5.25454 19.6351ZM3.68212 19.8427C3.49462 20.5661 3.34411 21.1452 3.25668 21.6088C3.16991 22.069 3.1269 22.5006 3.21025 22.9102L4.68012 22.6111C4.65591 22.4921 4.65419 22.2925 4.7307 21.8868C4.80655 21.4846 4.94129 20.9631 5.13414 20.2191L3.68212 19.8427ZM8.30788 23.3928C7.56385 23.5857 7.04239 23.7204 6.64015 23.7963C6.23443 23.8728 6.03489 23.871 5.9159 23.8468L5.61676 25.3167C6.02635 25.4001 6.45797 25.357 6.91811 25.2703C7.38173 25.1828 7.96084 25.0323 8.68423 24.8448L8.30788 23.3928ZM3.21025 22.9102C3.45698 24.1225 4.40444 25.07 5.61676 25.3167L5.9159 23.8468C5.29335 23.7201 4.80682 23.2336 4.68012 22.6111L3.21025 22.9102ZM9.89496 16.9171H19.2283V15.4171H9.89496V16.9171ZM9.89496 12.2504H19.2283V10.7504H9.89496V12.2504Z" fill="url(#paint0_linear_4001_42984)"/>
<defs>
<linearGradient id="paint0_linear_4001_42984" x1="14.5477" y1="2.33301" x2="14.5477" y2="25.6642" gradientUnits="userSpaceOnUse">
<stop stop-color="#D89DF4"/>
<stop offset="0.520833" stop-color="#B35CF8"/>
<stop offset="1" stop-color="#8229F4"/>
</linearGradient>
</defs>
</svg>
