<svg width="29" height="28" viewBox="0 0 29 28" fill="none" xmlns="http://www.w3.org/2000/svg">
<path d="M9.94491 24.3725L9.55063 25.0105L9.94491 24.3725ZM9.46817 24.0992L9.7443 23.4019L9.46817 24.0992ZM8.49603 24.1193L8.6842 24.8453L8.49603 24.1193ZM8.94875 24.0207L9.00653 24.7685L8.94875 24.0207ZM4.4081 20.0314L3.68209 19.8432L4.4081 20.0314ZM4.50671 19.5783L5.25451 19.6356L4.50671 19.5783ZM4.15405 18.5831L3.51704 18.9789L4.15405 18.5831ZM4.42733 19.0573L3.73055 19.3348L4.42733 19.0573ZM3.94516 22.7611L4.68009 22.6115L3.94516 22.7611ZM5.7663 24.5823L5.91587 23.8473L5.7663 24.5823ZM9.89493 15.4176C9.48072 15.4176 9.14493 15.7534 9.14493 16.1676C9.14493 16.5818 9.48072 16.9176 9.89493 16.9176V15.4176ZM19.2283 16.9176C19.6425 16.9176 19.9783 16.5818 19.9783 16.1676C19.9783 15.7534 19.6425 15.4176 19.2283 15.4176V16.9176ZM9.89493 10.7509C9.48072 10.7509 9.14493 11.0867 9.14493 11.5009C9.14493 11.9151 9.48072 12.2509 9.89493 12.2509V10.7509ZM19.2283 12.2509C19.6425 12.2509 19.9783 11.9151 19.9783 11.5009C19.9783 11.0867 19.6425 10.7509 19.2283 10.7509V12.2509ZM6.808 6.28091C11.0712 2.01769 17.9833 2.01769 22.2465 6.28091L23.3072 5.22025C18.4581 0.371243 10.5964 0.371243 5.74734 5.22025L6.808 6.28091ZM22.2465 6.28091C26.5097 10.5441 26.5097 17.4562 22.2465 21.7194L23.3072 22.7801C28.1562 17.9311 28.1562 10.0693 23.3072 5.22025L22.2465 6.28091ZM4.79106 18.1872C3.50312 16.1147 3.34553 13.8104 3.84909 11.6678C4.35523 9.51413 5.52192 7.567 6.808 6.28091L5.74734 5.22025C4.2703 6.69729 2.9609 8.89063 2.38887 11.3246C1.81426 13.7696 1.97642 16.4999 3.51704 18.9789L4.79106 18.1872ZM22.2465 21.7194C21.0192 22.9467 19.0746 24.1131 16.9031 24.6326C14.742 25.1496 12.4117 25.0152 10.3392 23.7345L9.55063 25.0105C12.0396 26.5486 14.8001 26.678 17.252 26.0915C19.6935 25.5074 21.8842 24.203 23.3072 22.7801L22.2465 21.7194ZM10.3392 23.7345C10.1197 23.5988 9.91896 23.471 9.7443 23.4019L9.19204 24.7965C9.1862 24.7942 9.20272 24.8002 9.26974 24.8393C9.3348 24.8772 9.42025 24.9299 9.55063 25.0105L10.3392 23.7345ZM8.6842 24.8453C8.94818 24.7769 8.98635 24.77 9.00653 24.7685L8.89097 23.2729C8.70531 23.2873 8.51028 23.3408 8.30785 23.3933L8.6842 24.8453ZM9.7443 23.4019C9.45479 23.2872 9.20143 23.2489 8.89097 23.2729L9.00653 24.7685C9.06339 24.7641 9.08851 24.7666 9.10138 24.7686C9.11425 24.7705 9.13901 24.7755 9.19204 24.7965L9.7443 23.4019ZM5.13411 20.2196C5.1866 20.017 5.24022 19.8218 5.25451 19.6356L3.7589 19.5209C3.75735 19.5412 3.75052 19.5792 3.68209 19.8432L5.13411 20.2196ZM3.51704 18.9789C3.59752 19.1084 3.65009 19.1931 3.6879 19.2577C3.72674 19.324 3.7328 19.3405 3.73055 19.3348L5.1241 18.7799C5.0544 18.6048 4.9265 18.4051 4.79106 18.1872L3.51704 18.9789ZM5.25451 19.6356C5.27836 19.3248 5.23945 19.0695 5.1241 18.7799L3.73055 19.3348C3.75142 19.3872 3.75657 19.4123 3.75862 19.4257C3.76067 19.4392 3.76322 19.4647 3.7589 19.5209L5.25451 19.6356ZM3.68209 19.8432C3.49459 20.5666 3.34407 21.1457 3.25665 21.6093C3.16988 22.0695 3.12687 22.5011 3.21022 22.9107L4.68009 22.6115C4.65588 22.4926 4.65416 22.293 4.73067 21.8873C4.80652 21.4851 4.94126 20.9636 5.13411 20.2196L3.68209 19.8432ZM8.30785 23.3933C7.56382 23.5862 7.04236 23.7209 6.64012 23.7967C6.2344 23.8732 6.03486 23.8715 5.91587 23.8473L5.61673 25.3172C6.02632 25.4005 6.45793 25.3575 6.91808 25.2708C7.3817 25.1833 7.96081 25.0328 8.6842 24.8453L8.30785 23.3933ZM3.21022 22.9107C3.45695 24.123 4.40441 25.0705 5.61673 25.3172L5.91587 23.8473C5.29332 23.7206 4.80679 23.2341 4.68009 22.6115L3.21022 22.9107ZM9.89493 16.9176H19.2283V15.4176H9.89493V16.9176ZM9.89493 12.2509H19.2283V10.7509H9.89493V12.2509Z" fill="#3B1F52" fill-opacity="0.6"/>
</svg>
