<svg width="29" height="28" viewBox="0 0 29 28" fill="none" xmlns="http://www.w3.org/2000/svg">
<path d="M18.4167 6.99967C18.4167 9.16279 16.6631 10.9163 14.5 10.9163V12.4163C17.4916 12.4163 19.9167 9.99122 19.9167 6.99967H18.4167ZM14.5 10.9163C12.3369 10.9163 10.5833 9.16279 10.5833 6.99967H9.08334C9.08334 9.99122 11.5085 12.4163 14.5 12.4163V10.9163ZM10.5833 6.99967C10.5833 4.83656 12.3369 3.08301 14.5 3.08301V1.58301C11.5085 1.58301 9.08334 4.00813 9.08334 6.99967H10.5833ZM14.5 3.08301C16.6631 3.08301 18.4167 4.83656 18.4167 6.99967H19.9167C19.9167 4.00813 17.4916 1.58301 14.5 1.58301V3.08301ZM11 15.9163H18V14.4163H11V15.9163ZM18 23.7497H11V25.2497H18V23.7497ZM11 23.7497C8.83689 23.7497 7.08334 21.9961 7.08334 19.833H5.58334C5.58334 22.8245 8.00847 25.2497 11 25.2497V23.7497ZM21.9167 19.833C21.9167 21.9961 20.1631 23.7497 18 23.7497V25.2497C20.9916 25.2497 23.4167 22.8245 23.4167 19.833H21.9167ZM18 15.9163C20.1631 15.9163 21.9167 17.6699 21.9167 19.833H23.4167C23.4167 16.8415 20.9916 14.4163 18 14.4163V15.9163ZM11 14.4163C8.00847 14.4163 5.58334 16.8415 5.58334 19.833H7.08334C7.08334 17.6699 8.83689 15.9163 11 15.9163V14.4163Z" fill="url(#paint0_linear_4001_42619)"/>
<defs>
<linearGradient id="paint0_linear_4001_42619" x1="14.5238" y1="2.33301" x2="14.5238" y2="24.4997" gradientUnits="userSpaceOnUse">
<stop stop-color="#D89DF4"/>
<stop offset="0.520833" stop-color="#B35CF8"/>
<stop offset="1" stop-color="#8229F4"/>
</linearGradient>
</defs>
</svg>
