<svg width="29" height="28" viewBox="0 0 29 28" fill="none" xmlns="http://www.w3.org/2000/svg">
<path d="M18.4167 7.00016C18.4167 9.16328 16.6631 10.9168 14.5 10.9168V12.4168C17.4916 12.4168 19.9167 9.9917 19.9167 7.00016H18.4167ZM14.5 10.9168C12.3369 10.9168 10.5833 9.16328 10.5833 7.00016H9.08334C9.08334 9.9917 11.5085 12.4168 14.5 12.4168V10.9168ZM10.5833 7.00016C10.5833 4.83705 12.3369 3.0835 14.5 3.0835V1.5835C11.5085 1.5835 9.08334 4.00862 9.08334 7.00016H10.5833ZM14.5 3.0835C16.6631 3.0835 18.4167 4.83705 18.4167 7.00016H19.9167C19.9167 4.00862 17.4916 1.5835 14.5 1.5835V3.0835ZM11 15.9168H18V14.4168H11V15.9168ZM18 23.7502H11V25.2502H18V23.7502ZM11 23.7502C8.83689 23.7502 7.08334 21.9966 7.08334 19.8335H5.58334C5.58334 22.825 8.00847 25.2502 11 25.2502V23.7502ZM21.9167 19.8335C21.9167 21.9966 20.1631 23.7502 18 23.7502V25.2502C20.9916 25.2502 23.4167 22.825 23.4167 19.8335H21.9167ZM18 15.9168C20.1631 15.9168 21.9167 17.6704 21.9167 19.8335H23.4167C23.4167 16.842 20.9916 14.4168 18 14.4168V15.9168ZM11 14.4168C8.00847 14.4168 5.58334 16.842 5.58334 19.8335H7.08334C7.08334 17.6704 8.83689 15.9168 11 15.9168V14.4168Z" fill="#3B1F52" fill-opacity="0.6"/>
</svg>
