<svg width="29" height="28" viewBox="0 0 29 28" fill="none" xmlns="http://www.w3.org/2000/svg">
<path d="M9.83334 13.9997H9.08334H9.83334ZM19.1667 13.9997L19.9167 13.9997L19.1667 13.9997ZM14.5 18.6663L14.5 19.4163L14.5 18.6663ZM16.9143 25.4162L17.0688 26.1502L16.9143 25.4162ZM12.0857 25.4162L11.9313 26.1502L12.0857 25.4162ZM3.69505 9.59107L3.00074 9.30748L3.69505 9.59107ZM3.08346 16.414L2.34953 16.5684L3.08346 16.414ZM12.0857 2.58312L11.9313 1.84919L12.0857 2.58312ZM16.9143 2.58312L17.0688 1.84919L16.9143 2.58312ZM25.211 9.63316L25.4287 10.3509L25.211 9.63316ZM3.78764 9.63274L3.56994 10.3505L3.78764 9.63274ZM24.6119 9.87764C25.1305 11.1485 25.4167 12.5397 25.4167 13.9997H26.9167C26.9167 12.3421 26.5915 10.7586 26.0007 9.31088L24.6119 9.87764ZM25.4167 13.9997C25.4167 14.7752 25.3359 15.531 25.1826 16.2595L26.6505 16.5684C26.825 15.739 26.9167 14.8796 26.9167 13.9997H25.4167ZM25.1826 16.2595C24.2957 20.4744 20.9748 23.7954 16.7599 24.6823L17.0688 26.1502C21.8656 25.1408 25.6411 21.3652 26.6505 16.5684L25.1826 16.2595ZM16.7599 24.6823C16.0314 24.8356 15.2755 24.9163 14.5 24.9163V26.4163C15.3799 26.4163 16.2393 26.3247 17.0688 26.1502L16.7599 24.6823ZM14.5 24.9163C13.7245 24.9163 12.9686 24.8356 12.2401 24.6823L11.9313 26.1502C12.7607 26.3247 13.6201 26.4163 14.5 26.4163V24.9163ZM3.58334 13.9997C3.58334 12.5386 3.86997 11.1463 4.38937 9.87465L3.00074 9.30748C2.40906 10.7561 2.08334 12.3408 2.08334 13.9997H3.58334ZM12.2401 24.6823C8.02524 23.7954 4.70428 20.4744 3.81738 16.2595L2.34953 16.5684C3.35887 21.3652 7.13446 25.1408 11.9313 26.1502L12.2401 24.6823ZM3.81738 16.2595C3.66409 15.531 3.58334 14.7752 3.58334 13.9997H2.08334C2.08334 14.8796 2.17499 15.739 2.34953 16.5684L3.81738 16.2595ZM4.38937 9.87465C5.74101 6.56536 8.67072 4.06813 12.2401 3.31705L11.9313 1.84919C7.86723 2.70435 4.53763 5.54462 3.00074 9.30748L4.38937 9.87465ZM12.2401 3.31705C12.9686 3.16376 13.7245 3.08301 14.5 3.08301V1.58301C13.6201 1.58301 12.7607 1.67466 11.9313 1.84919L12.2401 3.31705ZM14.5 3.08301C15.2755 3.08301 16.0314 3.16376 16.7599 3.31705L17.0688 1.84919C16.2393 1.67466 15.3799 1.58301 14.5 1.58301V3.08301ZM16.7599 3.31705C20.3304 4.06835 23.2608 6.56687 24.6119 9.87764L26.0007 9.31088C24.4644 5.54632 21.134 2.70461 17.0688 1.84919L16.7599 3.31705ZM16.1998 2.81111C16.5221 3.82107 17.7165 7.70993 18.2065 11.2864L19.6926 11.0828C19.184 7.37036 17.9552 3.37802 17.6288 2.35514L16.1998 2.81111ZM18.2065 11.2864C18.3379 12.2454 18.4167 13.169 18.4167 13.9997L19.9167 13.9997C19.9167 13.0802 19.8299 12.0852 19.6926 11.0828L18.2065 11.2864ZM24.9933 8.91545C23.7109 9.3044 21.301 9.98793 18.8134 10.447L19.0857 11.9221C21.6523 11.4484 24.1226 10.747 25.4287 10.3509L24.9933 8.91545ZM18.8134 10.447C17.3049 10.7254 15.7937 10.9163 14.5 10.9163L14.5 12.4163C15.9233 12.4163 17.535 12.2083 19.0857 11.9221L18.8134 10.447ZM18.4167 13.9997C18.4167 15.2298 18.2441 16.6573 17.9873 18.0933L19.4639 18.3573C19.7283 16.8784 19.9167 15.3541 19.9167 13.9997L18.4167 13.9997ZM17.9873 18.0933C17.4245 21.2412 16.4794 24.3121 16.1998 25.1882L17.6288 25.6442C17.9147 24.7484 18.8835 21.6032 19.4639 18.3573L17.9873 18.0933ZM25.6886 15.6995C24.8124 15.979 21.7415 16.9241 18.5936 17.487L18.8576 18.9636C22.1035 18.3832 25.2487 17.4143 26.1446 17.1285L25.6886 15.6995ZM18.5936 17.487C17.1576 17.7437 15.7301 17.9163 14.5 17.9163L14.5 19.4163C15.8544 19.4163 17.3788 19.228 18.8576 18.9636L18.5936 17.487ZM14.5 17.9163C13.2699 17.9163 11.8424 17.7437 10.4064 17.487L10.1424 18.9636C11.6213 19.228 13.1456 19.4163 14.5 19.4163L14.5 17.9163ZM10.4064 17.487C7.25852 16.9241 4.18762 15.979 3.31144 15.6995L2.85547 17.1285C3.75133 17.4143 6.89649 18.3832 10.1424 18.9636L10.4064 17.487ZM9.08334 13.9997C9.08334 15.3541 9.27171 16.8784 9.53613 18.3573L11.0127 18.0933C10.756 16.6573 10.5833 15.2298 10.5833 13.9997L9.08334 13.9997ZM9.53613 18.3573C10.1165 21.6032 11.0853 24.7484 11.3712 25.6442L12.8002 25.1882C12.5206 24.3121 11.5756 21.2412 11.0127 18.0933L9.53613 18.3573ZM11.3712 2.35514C11.0448 3.37801 9.81598 7.37036 9.3074 11.0828L10.7935 11.2864C11.2835 7.70993 12.478 3.82106 12.8002 2.8111L11.3712 2.35514ZM9.3074 11.0828C9.17008 12.0852 9.08334 13.0802 9.08334 13.9997L10.5833 13.9997C10.5833 13.169 10.6621 12.2454 10.7935 11.2864L9.3074 11.0828ZM14.5 10.9163C13.2063 10.9163 11.6951 10.7254 10.1866 10.447L9.91434 11.9221C11.465 12.2083 13.0767 12.4163 14.5 12.4163L14.5 10.9163ZM10.1866 10.447C7.69812 9.98777 5.28737 9.30391 4.00534 8.91504L3.56994 10.3505C4.87566 10.7465 7.34682 11.4483 9.91434 11.9221L10.1866 10.447ZM24.9606 8.92864C24.9695 8.92404 24.9809 8.91921 24.9933 8.91545L25.4287 10.3509C25.5074 10.327 25.5815 10.2964 25.6519 10.2599L24.9606 8.92864ZM3.30376 10.2309C3.38566 10.281 3.47438 10.3215 3.56994 10.3505L4.00534 8.91504C4.03532 8.92413 4.06292 8.9369 4.08635 8.95123L3.30376 10.2309Z" fill="#3B1F52" fill-opacity="0.6"/>
</svg>
