<svg width="29" height="28" viewBox="0 0 29 28" fill="none" xmlns="http://www.w3.org/2000/svg">
<path d="M9.83334 14.0002H9.08334H9.83334ZM19.1667 14.0002L19.9167 14.0002L19.1667 14.0002ZM14.5 18.6668L14.5 19.4168L14.5 18.6668ZM16.9143 25.4167L17.0688 26.1506L16.9143 25.4167ZM12.0857 25.4167L11.9313 26.1506L12.0857 25.4167ZM3.69505 9.59156L3.00074 9.30797L3.69505 9.59156ZM3.08346 16.4145L2.34953 16.5689L3.08346 16.4145ZM12.0857 2.58361L11.9313 1.84968L12.0857 2.58361ZM16.9143 2.58361L17.0688 1.84968L16.9143 2.58361ZM25.211 9.63365L25.4287 10.3514L25.211 9.63365ZM3.78764 9.63323L3.56994 10.3509L3.78764 9.63323ZM24.6119 9.87813C25.1305 11.149 25.4167 12.5402 25.4167 14.0002H26.9167C26.9167 12.3426 26.5915 10.7591 26.0007 9.31137L24.6119 9.87813ZM25.4167 14.0002C25.4167 14.7757 25.3359 15.5315 25.1826 16.26L26.6505 16.5689C26.825 15.7394 26.9167 14.8801 26.9167 14.0002H25.4167ZM25.1826 16.26C24.2957 20.4749 20.9748 23.7959 16.7599 24.6828L17.0688 26.1506C21.8656 25.1413 25.6411 21.3657 26.6505 16.5689L25.1826 16.26ZM16.7599 24.6828C16.0314 24.8361 15.2755 24.9168 14.5 24.9168V26.4168C15.3799 26.4168 16.2393 26.3252 17.0688 26.1506L16.7599 24.6828ZM14.5 24.9168C13.7245 24.9168 12.9686 24.8361 12.2401 24.6828L11.9313 26.1506C12.7607 26.3252 13.6201 26.4168 14.5 26.4168V24.9168ZM3.58334 14.0002C3.58334 12.5391 3.86997 11.1468 4.38937 9.87514L3.00074 9.30797C2.40906 10.7566 2.08334 12.3413 2.08334 14.0002H3.58334ZM12.2401 24.6828C8.02524 23.7959 4.70428 20.4749 3.81738 16.26L2.34953 16.5689C3.35887 21.3657 7.13446 25.1413 11.9313 26.1506L12.2401 24.6828ZM3.81738 16.26C3.66409 15.5315 3.58334 14.7757 3.58334 14.0002H2.08334C2.08334 14.8801 2.17499 15.7394 2.34953 16.5689L3.81738 16.26ZM4.38937 9.87514C5.74101 6.56585 8.67072 4.06861 12.2401 3.31754L11.9313 1.84968C7.86723 2.70484 4.53763 5.5451 3.00074 9.30797L4.38937 9.87514ZM12.2401 3.31754C12.9686 3.16425 13.7245 3.0835 14.5 3.0835V1.5835C13.6201 1.5835 12.7607 1.67515 11.9313 1.84968L12.2401 3.31754ZM14.5 3.0835C15.2755 3.0835 16.0314 3.16425 16.7599 3.31754L17.0688 1.84968C16.2393 1.67515 15.3799 1.5835 14.5 1.5835V3.0835ZM16.7599 3.31754C20.3304 4.06884 23.2608 6.56736 24.6119 9.87813L26.0007 9.31137C24.4644 5.54681 21.134 2.7051 17.0688 1.84968L16.7599 3.31754ZM16.1998 2.81159C16.5221 3.82155 17.7165 7.71042 18.2065 11.2869L19.6926 11.0833C19.184 7.37085 17.9552 3.3785 17.6288 2.35563L16.1998 2.81159ZM18.2065 11.2869C18.3379 12.2459 18.4167 13.1694 18.4167 14.0002L19.9167 14.0002C19.9167 13.0807 19.8299 12.0857 19.6926 11.0833L18.2065 11.2869ZM24.9933 8.91594C23.7109 9.30489 21.301 9.98842 18.8134 10.4475L19.0857 11.9226C21.6523 11.4489 24.1226 10.7475 25.4287 10.3514L24.9933 8.91594ZM18.8134 10.4475C17.3049 10.7259 15.7937 10.9168 14.5 10.9168L14.5 12.4168C15.9233 12.4168 17.535 12.2088 19.0857 11.9226L18.8134 10.4475ZM18.4167 14.0002C18.4167 15.2303 18.2441 16.6577 17.9873 18.0938L19.4639 18.3578C19.7283 16.8789 19.9167 15.3546 19.9167 14.0002L18.4167 14.0002ZM17.9873 18.0938C17.4245 21.2417 16.4794 24.3126 16.1998 25.1887L17.6288 25.6447C17.9147 24.7488 18.8835 21.6037 19.4639 18.3578L17.9873 18.0938ZM25.6886 15.7C24.8124 15.9795 21.7415 16.9246 18.5936 17.4875L18.8576 18.964C22.1035 18.3837 25.2487 17.4148 26.1446 17.129L25.6886 15.7ZM18.5936 17.4875C17.1576 17.7442 15.7301 17.9168 14.5 17.9168L14.5 19.4168C15.8544 19.4168 17.3788 19.2285 18.8576 18.964L18.5936 17.4875ZM14.5 17.9168C13.2699 17.9168 11.8424 17.7442 10.4064 17.4875L10.1424 18.964C11.6213 19.2285 13.1456 19.4168 14.5 19.4168L14.5 17.9168ZM10.4064 17.4875C7.25852 16.9246 4.18762 15.9795 3.31144 15.7L2.85547 17.129C3.75133 17.4148 6.89649 18.3837 10.1424 18.964L10.4064 17.4875ZM9.08334 14.0002C9.08334 15.3546 9.27171 16.8789 9.53613 18.3578L11.0127 18.0938C10.756 16.6577 10.5833 15.2303 10.5833 14.0002L9.08334 14.0002ZM9.53613 18.3578C10.1165 21.6037 11.0853 24.7488 11.3712 25.6447L12.8002 25.1887C12.5206 24.3126 11.5756 21.2417 11.0127 18.0938L9.53613 18.3578ZM11.3712 2.35562C11.0448 3.3785 9.81598 7.37085 9.3074 11.0833L10.7935 11.2869C11.2835 7.71042 12.478 3.82155 12.8002 2.81159L11.3712 2.35562ZM9.3074 11.0833C9.17008 12.0857 9.08334 13.0807 9.08334 14.0002L10.5833 14.0002C10.5833 13.1694 10.6621 12.2459 10.7935 11.2869L9.3074 11.0833ZM14.5 10.9168C13.2063 10.9168 11.6951 10.7259 10.1866 10.4475L9.91434 11.9226C11.465 12.2088 13.0767 12.4168 14.5 12.4168L14.5 10.9168ZM10.1866 10.4475C7.69812 9.98826 5.28737 9.3044 4.00534 8.91552L3.56994 10.3509C4.87566 10.747 7.34682 11.4488 9.91434 11.9226L10.1866 10.4475ZM24.9606 8.92913C24.9695 8.92452 24.9809 8.9197 24.9933 8.91594L25.4287 10.3514C25.5074 10.3275 25.5815 10.2969 25.6519 10.2604L24.9606 8.92913ZM3.30376 10.2314C3.38566 10.2815 3.47438 10.322 3.56994 10.3509L4.00534 8.91552C4.03532 8.92462 4.06292 8.93739 4.08635 8.95172L3.30376 10.2314Z" fill="#8327D8"/>
</svg>
