<svg width="29" height="28" viewBox="0 0 29 28" fill="none" xmlns="http://www.w3.org/2000/svg">
<path d="M5.32331 18.0521L6.0366 17.8203L5.32331 18.0521ZM4.15395 11.5571L4.87526 11.7626L4.15395 11.5571ZM9.03693 6.62273L8.5961 6.01597L9.03693 6.62273ZM4.27324 11.19L4.97755 11.4477L4.27324 11.19ZM8.50725 24.2209L8.08895 24.8434L8.50725 24.2209ZM8.19494 23.994L7.73215 24.5842L8.19494 23.994ZM24.7681 18.0521L24.0548 17.8203L24.7681 18.0521ZM21.8965 23.994L22.3593 24.5842L21.8965 23.994ZM21.5842 24.2209L22.0025 24.8434L21.5842 24.2209ZM21.0545 6.62273L21.4953 6.01597L21.0545 6.62273ZM25.8182 11.19L25.1139 11.4477V11.4477L25.8182 11.19ZM25.9375 11.5571L25.2162 11.7626L25.9375 11.5571ZM15.2387 3.50354L15.2112 4.25304L15.2387 3.50354ZM14.8527 3.50354L14.8802 4.25304L14.8527 3.50354ZM14.2957 22.2641C14.2957 22.6783 14.6315 23.0141 15.0457 23.0141C15.4599 23.0141 15.7957 22.6783 15.7957 22.2641H14.2957ZM15.7957 20.1581C15.7957 19.7439 15.4599 19.4081 15.0457 19.4081C14.6315 19.4081 14.2957 19.7439 14.2957 20.1581H15.7957ZM19.2577 24.9879L19.3479 25.7324L19.2577 24.9879ZM6.0366 17.8203C5.49525 16.1542 5.10862 14.961 4.90563 13.9916C4.70626 13.0395 4.70097 12.3744 4.87526 11.7626L3.43264 11.3516C3.16735 12.283 3.21043 13.2148 3.43748 14.2991C3.66091 15.3661 4.07874 16.6488 4.61001 18.2839L6.0366 17.8203ZM8.5961 6.01597C7.2052 7.02651 6.11324 7.81861 5.30529 8.55053C4.4843 9.29426 3.90173 10.0228 3.56892 10.9322L4.97755 11.4477C5.1962 10.8503 5.5914 10.3153 6.31236 9.66221C7.04635 8.99728 8.06051 8.2592 9.47777 7.2295L8.5961 6.01597ZM4.87526 11.7626C4.90549 11.6564 4.93962 11.5514 4.97755 11.4477L3.56892 10.9322C3.51838 11.0703 3.47292 11.2102 3.43264 11.3516L4.87526 11.7626ZM4.61001 18.2839C5.14129 19.919 5.55718 21.2022 6.00361 22.1968C6.45724 23.2075 6.97011 23.9867 7.73215 24.5842L8.65773 23.4038C8.15707 23.0112 7.77043 22.4701 7.37208 21.5826C6.96651 20.679 6.57795 19.4864 6.0366 17.8203L4.61001 18.2839ZM8.92554 23.5984C8.83392 23.5368 8.74459 23.4719 8.65773 23.4038L7.73215 24.5842C7.84788 24.6749 7.96689 24.7614 8.08895 24.8434L8.92554 23.5984ZM24.0548 17.8203C23.5135 19.4864 23.1249 20.679 22.7193 21.5826C22.321 22.4701 21.9343 23.0112 21.4337 23.4038L22.3593 24.5842C23.1213 23.9867 23.6342 23.2075 24.0878 22.1968C24.5342 21.2022 24.9501 19.919 25.4814 18.2839L24.0548 17.8203ZM21.4337 23.4038C21.3468 23.4719 21.2575 23.5368 21.1659 23.5984L22.0025 24.8434C22.1245 24.7614 22.2435 24.6749 22.3593 24.5842L21.4337 23.4038ZM20.6136 7.2295C22.0309 8.2592 23.0451 8.99728 23.7791 9.66221C24.5 10.3153 24.8952 10.8503 25.1139 11.4477L26.5225 10.9322C26.1897 10.0228 25.6071 9.29426 24.7861 8.55053C23.9782 7.81861 22.8862 7.02651 21.4953 6.01597L20.6136 7.2295ZM25.4814 18.2839C26.0127 16.6488 26.4305 15.3661 26.6539 14.2991C26.881 13.2148 26.9241 12.283 26.6588 11.3516L25.2162 11.7626C25.3905 12.3744 25.3852 13.0395 25.1858 13.9916C24.9828 14.961 24.5962 16.1542 24.0548 17.8203L25.4814 18.2839ZM25.1139 11.4477C25.1518 11.5514 25.1859 11.6564 25.2162 11.7626L26.6588 11.3516C26.6185 11.2102 26.573 11.0703 26.5225 10.9322L25.1139 11.4477ZM21.4953 6.01597C20.1044 5.00543 19.0137 4.21168 18.0679 3.66945C17.1069 3.11847 16.234 2.78954 15.2662 2.75404L15.2112 4.25304C15.847 4.27636 16.4779 4.48691 17.3218 4.97075C18.181 5.46335 19.1964 6.19979 20.6136 7.2295L21.4953 6.01597ZM9.47777 7.2295C10.895 6.19979 11.9104 5.46335 12.7696 4.97075C13.6135 4.48691 14.2444 4.27636 14.8802 4.25304L14.8252 2.75404C13.8575 2.78954 12.9845 3.11847 12.0235 3.66945C11.0778 4.21168 9.98699 5.00543 8.5961 6.01597L9.47777 7.2295ZM15.2662 2.75404C15.1193 2.74865 14.9722 2.74865 14.8252 2.75404L14.8802 4.25304C14.9905 4.24899 15.1009 4.24899 15.2112 4.25304L15.2662 2.75404ZM18.5077 20.1581V24.3701H20.0077V20.1581H18.5077ZM11.5837 24.3701V20.1581H10.0837V24.3701H11.5837ZM15.0457 16.6961C16.9577 16.6961 18.5077 18.2461 18.5077 20.1581H20.0077C20.0077 17.4177 17.7861 15.1961 15.0457 15.1961V16.6961ZM15.0457 15.1961C12.3053 15.1961 10.0837 17.4177 10.0837 20.1581H11.5837C11.5837 18.2461 13.1337 16.6961 15.0457 16.6961V15.1961ZM15.7957 22.2641V20.1581H14.2957V22.2641H15.7957ZM15.0457 25.8658C16.8422 25.8658 18.236 25.8671 19.3479 25.7324L19.1675 24.2433C18.1667 24.3646 16.8795 24.3658 15.0457 24.3658V25.8658ZM19.3479 25.7324C20.3819 25.6072 21.2358 25.3586 22.0025 24.8434L21.1659 23.5984C20.6618 23.9371 20.0611 24.1351 19.1675 24.2433L19.3479 25.7324ZM18.5077 24.3701V24.9879H20.0077V24.3701H18.5077ZM15.0457 24.3658C13.212 24.3658 11.9248 24.3646 10.9239 24.2433L10.7435 25.7324C11.8554 25.8671 13.2493 25.8658 15.0457 25.8658V24.3658ZM10.9239 24.2433C10.0303 24.1351 9.42966 23.9371 8.92554 23.5984L8.08895 24.8434C8.85563 25.3586 9.70952 25.6072 10.7435 25.7324L10.9239 24.2433ZM10.0837 24.3701V24.9879H11.5837V24.3701H10.0837Z" fill="#3B1F52" fill-opacity="0.6"/>
</svg>
