<svg width="29" height="28" viewBox="0 0 29 28" fill="none" xmlns="http://www.w3.org/2000/svg">
<path d="M10.7656 21.7869L10.2252 22.307L10.2252 22.307L10.7656 21.7869ZM10.7564 21.7774L10.2189 22.3005L10.7564 21.7774ZM9.92676 21.4244L9.9309 20.6744L9.92676 21.4244ZM19.0732 21.4244L19.0691 20.6744L19.0732 21.4244ZM18.2344 21.7869L17.694 21.2668L18.2344 21.7869ZM18.2436 21.7774L18.7811 22.3005L18.2436 21.7774ZM17.8623 22.1736L18.4026 22.6937L17.8623 22.1736ZM11.1377 22.1736L11.6781 21.6535H11.6781L11.1377 22.1736ZM14.5 24.6354V25.3854V24.6354ZM4.00034 15.654L3.25038 15.6621L4.00034 15.654ZM9.77038 21.4241L9.76229 22.174L9.77038 21.4241ZM24.9997 15.654L25.7496 15.6621L24.9997 15.654ZM19.2296 21.4241L19.2377 22.174L19.2296 21.4241ZM21.9623 3.04704L21.6028 3.7053L21.9623 3.04704ZM24.2865 5.37121L23.6282 5.73064L24.2865 5.37121ZM7.03771 3.04704L7.39715 3.7053L7.03771 3.04704ZM4.71354 5.37121L5.3718 5.73064L4.71354 5.37121ZM6.64802 20.4787L6.23798 21.1067L6.64802 20.4787ZM22.352 20.4787L22.762 21.1067L22.352 20.4787ZM18.4167 9.3335C18.4167 11.4966 16.6631 13.2502 14.5 13.2502V14.7502C17.4915 14.7502 19.9167 12.325 19.9167 9.3335H18.4167ZM14.5 13.2502C12.3369 13.2502 10.5833 11.4966 10.5833 9.3335H9.08333C9.08333 12.325 11.5085 14.7502 14.5 14.7502V13.2502ZM10.5833 9.3335C10.5833 7.17038 12.3369 5.41683 14.5 5.41683V3.91683C11.5085 3.91683 9.08333 6.34195 9.08333 9.3335H10.5833ZM14.5 5.41683C16.6631 5.41683 18.4167 7.17038 18.4167 9.3335H19.9167C19.9167 6.34195 17.4915 3.91683 14.5 3.91683V5.41683ZM13.5455 3.0835H15.4545V1.5835H13.5455V3.0835ZM24.25 11.879V15.5109H25.75V11.879H24.25ZM4.75 15.5109V11.8789H3.25V15.5109H4.75ZM17.694 21.2668L17.3219 21.6535L18.4026 22.6937L18.7748 22.307L17.694 21.2668ZM11.6781 21.6535L11.306 21.2668L10.2252 22.307L10.5974 22.6937L11.6781 21.6535ZM11.306 21.2668C11.302 21.2627 11.2979 21.2585 11.2939 21.2543L10.2189 22.3005C10.2194 22.3009 10.2199 22.3015 10.2252 22.307L11.306 21.2668ZM9.91349 22.1744C9.92101 22.1744 9.92194 22.1744 9.92261 22.1744L9.9309 20.6744C9.92512 20.6744 9.91935 20.6744 9.91349 20.6744V22.1744ZM11.2939 21.2543C10.9356 20.8862 10.4446 20.6773 9.9309 20.6744L9.92261 22.1744C10.0343 22.175 10.141 22.2204 10.2189 22.3005L11.2939 21.2543ZM19.0865 20.6744C19.0806 20.6744 19.0749 20.6744 19.0691 20.6744L19.0774 22.1744C19.0781 22.1744 19.079 22.1744 19.0865 22.1744V20.6744ZM18.7748 22.307C18.7798 22.3018 18.7806 22.301 18.7811 22.3005L17.7061 21.2543C17.7021 21.2584 17.6983 21.2624 17.694 21.2668L18.7748 22.307ZM19.0691 20.6744C18.5554 20.6773 18.0644 20.8862 17.7061 21.2543L18.7811 22.3005C18.859 22.2204 18.9657 22.175 19.0774 22.1744L19.0691 20.6744ZM17.3219 21.6535C16.5171 22.4897 15.9654 23.0604 15.4959 23.4316C15.0434 23.7893 14.7593 23.8854 14.5 23.8854V25.3854C15.2334 25.3854 15.8406 25.0712 16.4261 24.6083C16.9946 24.1589 17.6278 23.4987 18.4026 22.6937L17.3219 21.6535ZM10.5974 22.6937C11.3722 23.4987 12.0054 24.1589 12.5739 24.6083C13.1594 25.0712 13.7666 25.3854 14.5 25.3854V23.8854C14.2407 23.8854 13.9566 23.7893 13.5041 23.4316C13.0346 23.0604 12.4829 22.4897 11.6781 21.6535L10.5974 22.6937ZM3.25 15.5109C3.25 15.5834 3.24999 15.6256 3.25038 15.6621L4.7503 15.6459C4.75001 15.6195 4.75 15.5873 4.75 15.5109H3.25ZM9.91349 20.6744C9.83708 20.6744 9.80488 20.6744 9.77847 20.6741L9.76229 22.174C9.79883 22.1744 9.84105 22.1744 9.91349 22.1744V20.6744ZM24.25 15.5109C24.25 15.5873 24.25 15.6195 24.2497 15.6459L25.7496 15.6621C25.75 15.6256 25.75 15.5834 25.75 15.5109H24.25ZM19.0865 22.1744C19.1589 22.1744 19.2012 22.1744 19.2377 22.174L19.2215 20.6741C19.1951 20.6744 19.1629 20.6744 19.0865 20.6744V22.1744ZM15.4545 3.0835C17.2014 3.0835 18.4636 3.08415 19.4539 3.16989C20.4347 3.25481 21.0783 3.41888 21.6028 3.7053L22.3217 2.38878C21.5395 1.96165 20.6629 1.76896 19.5833 1.67548C18.5133 1.58284 17.1751 1.5835 15.4545 1.5835V3.0835ZM25.75 11.879C25.75 10.1584 25.7507 8.8202 25.658 7.75017C25.5645 6.67056 25.3718 5.794 24.9447 5.01177L23.6282 5.73064C23.9146 6.25517 24.0787 6.89882 24.1636 7.87956C24.2493 8.86988 24.25 10.1321 24.25 11.879H25.75ZM21.6028 3.7053C22.4581 4.17232 23.1612 4.87535 23.6282 5.73064L24.9447 5.01177C24.3399 3.90409 23.4294 2.99362 22.3217 2.38878L21.6028 3.7053ZM13.5455 1.5835C11.8249 1.5835 10.4867 1.58284 9.41667 1.67548C8.33706 1.76896 7.4605 1.96165 6.67827 2.38878L7.39715 3.7053C7.92167 3.41888 8.56532 3.25481 9.54606 3.16989C10.5364 3.08415 11.7986 3.0835 13.5455 3.0835V1.5835ZM4.75 11.8789C4.75 10.1321 4.75066 8.86987 4.8364 7.87955C4.92131 6.89882 5.08539 6.25517 5.3718 5.73064L4.05528 5.01177C3.62815 5.794 3.43546 6.67056 3.34199 7.75017C3.24934 8.8202 3.25 10.1584 3.25 11.8789H4.75ZM6.67827 2.38878C5.5706 2.99361 4.66012 3.90409 4.05528 5.01177L5.3718 5.73064C5.83883 4.87535 6.54185 4.17232 7.39715 3.7053L6.67827 2.38878ZM11 18.2502H18V16.7502H11V18.2502ZM11 16.7502C8.69827 16.7502 6.73364 18.1855 5.94885 20.2073L7.34719 20.7501C7.91551 19.286 9.33771 18.2502 11 18.2502V16.7502ZM3.25038 15.6621C3.275 17.9434 4.45899 19.9451 6.23798 21.1067L7.05806 19.8507C5.68126 18.9517 4.76929 17.4061 4.7503 15.6459L3.25038 15.6621ZM6.23798 21.1067C7.25335 21.7697 8.46358 22.16 9.76229 22.174L9.77847 20.6741C8.77384 20.6633 7.84126 20.3621 7.05806 19.8507L6.23798 21.1067ZM18 18.2502C19.6623 18.2502 21.0845 19.286 21.6528 20.7501L23.0512 20.2073C22.2664 18.1855 20.3017 16.7502 18 16.7502V18.2502ZM24.2497 15.6459C24.2307 17.4061 23.3187 18.9517 21.9419 19.8507L22.762 21.1067C24.541 19.9451 25.725 17.9434 25.7496 15.6621L24.2497 15.6459ZM21.9419 19.8507C21.1587 20.3621 20.2262 20.6633 19.2215 20.6741L19.2377 22.174C20.5364 22.16 21.7467 21.7697 22.762 21.1067L21.9419 19.8507Z" fill="#3B1F52" fill-opacity="0.6"/>
</svg>
