<svg width="29" height="28" viewBox="0 0 29 28" fill="none" xmlns="http://www.w3.org/2000/svg">
<path d="M10.7656 21.7864L10.2252 22.3066L10.2252 22.3066L10.7656 21.7864ZM10.7564 21.7769L10.2189 22.3L10.7564 21.7769ZM9.92676 21.4239L9.9309 20.6739L9.92676 21.4239ZM19.0732 21.4239L19.0691 20.6739L19.0732 21.4239ZM18.2344 21.7864L17.694 21.2663L18.2344 21.7864ZM18.2436 21.7769L18.7811 22.3L18.2436 21.7769ZM17.8623 22.1731L18.4026 22.6932L17.8623 22.1731ZM11.1377 22.1731L11.6781 21.653H11.6781L11.1377 22.1731ZM14.5 24.6349V25.3849V24.6349ZM4.00034 15.6535L3.25038 15.6616L4.00034 15.6535ZM9.77038 21.4236L9.76229 22.1735L9.77038 21.4236ZM24.9997 15.6535L25.7496 15.6616L24.9997 15.6535ZM19.2296 21.4236L19.2377 22.1735L19.2296 21.4236ZM21.9623 3.04655L21.6028 3.70481L21.9623 3.04655ZM24.2865 5.37072L23.6282 5.73016L24.2865 5.37072ZM7.03771 3.04655L7.39715 3.70481L7.03771 3.04655ZM4.71354 5.37072L5.3718 5.73016L4.71354 5.37072ZM6.64802 20.4782L6.23798 21.1062L6.64802 20.4782ZM22.352 20.4782L22.762 21.1062L22.352 20.4782ZM18.4167 9.33301C18.4167 11.4961 16.6631 13.2497 14.5 13.2497V14.7497C17.4915 14.7497 19.9167 12.3245 19.9167 9.33301H18.4167ZM14.5 13.2497C12.3369 13.2497 10.5833 11.4961 10.5833 9.33301H9.08333C9.08333 12.3245 11.5085 14.7497 14.5 14.7497V13.2497ZM10.5833 9.33301C10.5833 7.16989 12.3369 5.41634 14.5 5.41634V3.91634C11.5085 3.91634 9.08333 6.34146 9.08333 9.33301H10.5833ZM14.5 5.41634C16.6631 5.41634 18.4167 7.16989 18.4167 9.33301H19.9167C19.9167 6.34146 17.4915 3.91634 14.5 3.91634V5.41634ZM13.5455 3.08301H15.4545V1.58301H13.5455V3.08301ZM24.25 11.8785V15.5104H25.75V11.8785H24.25ZM4.75 15.5104V11.8785H3.25V15.5104H4.75ZM17.694 21.2663L17.3219 21.653L18.4026 22.6932L18.7748 22.3065L17.694 21.2663ZM11.6781 21.653L11.306 21.2663L10.2252 22.3066L10.5974 22.6932L11.6781 21.653ZM11.306 21.2663C11.302 21.2622 11.2979 21.258 11.2939 21.2538L10.2189 22.3C10.2194 22.3004 10.2199 22.301 10.2252 22.3066L11.306 21.2663ZM9.91349 22.1739C9.92101 22.1739 9.92194 22.1739 9.92261 22.1739L9.9309 20.6739C9.92512 20.6739 9.91935 20.6739 9.91349 20.6739V22.1739ZM11.2939 21.2538C10.9356 20.8857 10.4446 20.6768 9.9309 20.6739L9.92261 22.1739C10.0343 22.1745 10.141 22.22 10.2189 22.3L11.2939 21.2538ZM19.0865 20.6739C19.0806 20.6739 19.0749 20.6739 19.0691 20.6739L19.0774 22.1739C19.0781 22.1739 19.079 22.1739 19.0865 22.1739V20.6739ZM18.7748 22.3065C18.7798 22.3013 18.7806 22.3005 18.7811 22.3L17.7061 21.2538C17.7021 21.2579 17.6983 21.2619 17.694 21.2663L18.7748 22.3065ZM19.0691 20.6739C18.5554 20.6768 18.0644 20.8857 17.7061 21.2538L18.7811 22.3C18.859 22.22 18.9657 22.1745 19.0774 22.1739L19.0691 20.6739ZM17.3219 21.653C16.5171 22.4892 15.9654 23.0599 15.4959 23.4311C15.0434 23.7888 14.7593 23.8849 14.5 23.8849V25.3849C15.2334 25.3849 15.8406 25.0707 16.4261 24.6078C16.9946 24.1584 17.6278 23.4982 18.4026 22.6932L17.3219 21.653ZM10.5974 22.6932C11.3722 23.4982 12.0054 24.1584 12.5739 24.6078C13.1594 25.0707 13.7666 25.3849 14.5 25.3849V23.8849C14.2407 23.8849 13.9566 23.7888 13.5041 23.4311C13.0346 23.0599 12.4829 22.4892 11.6781 21.653L10.5974 22.6932ZM3.25 15.5104C3.25 15.5829 3.24999 15.6251 3.25038 15.6616L4.7503 15.6454C4.75001 15.619 4.75 15.5868 4.75 15.5104H3.25ZM9.91349 20.6739C9.83708 20.6739 9.80488 20.6739 9.77847 20.6736L9.76229 22.1735C9.79883 22.1739 9.84105 22.1739 9.91349 22.1739V20.6739ZM24.25 15.5104C24.25 15.5868 24.25 15.619 24.2497 15.6454L25.7496 15.6616C25.75 15.6251 25.75 15.5829 25.75 15.5104H24.25ZM19.0865 22.1739C19.1589 22.1739 19.2012 22.1739 19.2377 22.1735L19.2215 20.6736C19.1951 20.6739 19.1629 20.6739 19.0865 20.6739V22.1739ZM15.4545 3.08301C17.2014 3.08301 18.4636 3.08366 19.4539 3.16941C20.4347 3.25432 21.0783 3.41839 21.6028 3.70481L22.3217 2.38829C21.5395 1.96116 20.6629 1.76847 19.5833 1.675C18.5133 1.58235 17.1751 1.58301 15.4545 1.58301V3.08301ZM25.75 11.8785C25.75 10.158 25.7507 8.81971 25.658 7.74968C25.5645 6.67007 25.3718 5.79351 24.9447 5.01128L23.6282 5.73016C23.9146 6.25468 24.0787 6.89833 24.1636 7.87907C24.2493 8.86939 24.25 10.1316 24.25 11.8785H25.75ZM21.6028 3.70481C22.4581 4.17183 23.1612 4.87486 23.6282 5.73016L24.9447 5.01128C24.3399 3.90361 23.4294 2.99313 22.3217 2.38829L21.6028 3.70481ZM13.5455 1.58301C11.8249 1.58301 10.4867 1.58235 9.41667 1.675C8.33706 1.76847 7.4605 1.96116 6.67827 2.38829L7.39715 3.70481C7.92167 3.41839 8.56532 3.25432 9.54606 3.16941C10.5364 3.08366 11.7986 3.08301 13.5455 3.08301V1.58301ZM4.75 11.8785C4.75 10.1316 4.75066 8.86939 4.8364 7.87907C4.92131 6.89833 5.08539 6.25468 5.3718 5.73016L4.05528 5.01128C3.62815 5.79351 3.43546 6.67007 3.34199 7.74968C3.24934 8.81971 3.25 10.1579 3.25 11.8785H4.75ZM6.67827 2.38829C5.5706 2.99313 4.66012 3.90361 4.05528 5.01128L5.3718 5.73016C5.83883 4.87486 6.54185 4.17183 7.39715 3.70481L6.67827 2.38829ZM11 18.2497H18V16.7497H11V18.2497ZM11 16.7497C8.69827 16.7497 6.73364 18.185 5.94885 20.2068L7.34719 20.7496C7.91551 19.2855 9.33771 18.2497 11 18.2497V16.7497ZM3.25038 15.6616C3.275 17.9429 4.45899 19.9446 6.23798 21.1062L7.05806 19.8502C5.68126 18.9512 4.76929 17.4057 4.7503 15.6454L3.25038 15.6616ZM6.23798 21.1062C7.25335 21.7692 8.46358 22.1595 9.76229 22.1735L9.77847 20.6736C8.77384 20.6628 7.84126 20.3616 7.05806 19.8502L6.23798 21.1062ZM18 18.2497C19.6623 18.2497 21.0845 19.2855 21.6528 20.7496L23.0512 20.2068C22.2664 18.185 20.3017 16.7497 18 16.7497V18.2497ZM24.2497 15.6454C24.2307 17.4057 23.3187 18.9512 21.9419 19.8502L22.762 21.1062C24.541 19.9446 25.725 17.9429 25.7496 15.6616L24.2497 15.6454ZM21.9419 19.8502C21.1587 20.3616 20.2262 20.6628 19.2215 20.6736L19.2377 22.1735C20.5364 22.1595 21.7467 21.7692 22.762 21.1062L21.9419 19.8502Z" fill="#8327D8"/>
</svg>
