<svg width="49" height="48" viewBox="0 0 49 48" fill="none" xmlns="http://www.w3.org/2000/svg">
<circle cx="24.5" cy="24" r="24" fill="url(#paint0_linear_676_14996)"/>
<path d="M34.5833 21.6668C34.5833 21.2526 34.2475 20.9168 33.8333 20.9168C33.4191 20.9168 33.0833 21.2526 33.0833 21.6668H34.5833ZM15.9167 21.6668C15.9167 21.2526 15.5809 20.9168 15.1667 20.9168C14.7524 20.9168 14.4167 21.2526 14.4167 21.6668H15.9167ZM21.9848 34.9392C21.5829 35.0397 21.3386 35.4469 21.439 35.8487C21.5395 36.2506 21.9467 36.4949 22.3486 36.3944L21.9848 34.9392ZM23.0852 35.4372L22.9033 34.7096L23.0852 35.4372ZM25.9148 35.4372L26.0967 34.7096H26.0967L25.9148 35.4372ZM26.6514 36.3944C27.0533 36.4949 27.4605 36.2506 27.5609 35.8487C27.6614 35.4469 27.4171 35.0397 27.0152 34.9392L26.6514 36.3944ZM22.5128 20.9553C22.1199 21.0863 21.9075 21.511 22.0385 21.904C22.1695 22.297 22.5942 22.5093 22.9872 22.3783L22.5128 20.9553ZM23.0243 21.5754L22.7871 20.8639L23.0243 21.5754ZM25.9757 21.5754L25.7385 22.2869L25.7385 22.2869L25.9757 21.5754ZM26.0128 22.3783C26.4058 22.5093 26.8305 22.297 26.9615 21.904C27.0925 21.511 26.8801 21.0863 26.4872 20.9553L26.0128 22.3783ZM21.9848 16.8559C21.5829 16.9564 21.3386 17.3636 21.439 17.7654C21.5395 18.1672 21.9467 18.4116 22.3486 18.3111L21.9848 16.8559ZM23.0852 17.3539L22.9033 16.6263L23.0852 17.3539ZM25.9148 17.3539L26.0967 16.6263L25.9148 17.3539ZM26.6514 18.3111C27.0533 18.4116 27.4605 18.1672 27.5609 17.7654C27.6614 17.3636 27.4171 16.9564 27.0152 16.8559L26.6514 18.3111ZM24.5 35.263V36.013V35.263ZM28.4167 17.0002V21.6668H29.9167V17.0002H28.4167ZM20.5833 21.6668V17.0002H19.0833V21.6668H20.5833ZM24.5 25.5835C22.3369 25.5835 20.5833 23.8299 20.5833 21.6668H19.0833C19.0833 24.6584 21.5084 27.0835 24.5 27.0835V25.5835ZM28.4167 21.6668C28.4167 23.8299 26.6631 25.5835 24.5 25.5835V27.0835C27.4915 27.0835 29.9167 24.6584 29.9167 21.6668H28.4167ZM24.5 13.0835C26.6631 13.0835 28.4167 14.837 28.4167 17.0002H29.9167C29.9167 14.0086 27.4915 11.5835 24.5 11.5835V13.0835ZM24.5 11.5835C21.5084 11.5835 19.0833 14.0086 19.0833 17.0002H20.5833C20.5833 14.837 22.3369 13.0835 24.5 13.0835V11.5835ZM33.0833 21.6668C33.0833 26.4073 29.2404 30.2502 24.5 30.2502V31.7502C30.0689 31.7502 34.5833 27.2357 34.5833 21.6668H33.0833ZM24.5 30.2502C19.7595 30.2502 15.9167 26.4073 15.9167 21.6668H14.4167C14.4167 27.2357 18.9311 31.7502 24.5 31.7502V30.2502ZM23.75 32.1668V34.5002H25.25V32.1668H23.75ZM22.3486 36.3944L23.2671 36.1648L22.9033 34.7096L21.9848 34.9392L22.3486 36.3944ZM25.7329 36.1648L26.6514 36.3944L27.0152 34.9392L26.0967 34.7096L25.7329 36.1648ZM22.9872 22.3783L23.2614 22.2869L22.7871 20.8639L22.5128 20.9553L22.9872 22.3783ZM25.7385 22.2869L26.0128 22.3783L26.4872 20.9553L26.2129 20.8639L25.7385 22.2869ZM23.2614 22.2869C24.0654 22.0189 24.9346 22.0189 25.7385 22.2869L26.2129 20.8639C25.101 20.4933 23.8989 20.4933 22.7871 20.8639L23.2614 22.2869ZM22.3486 18.3111L23.2671 18.0815L22.9033 16.6263L21.9848 16.8559L22.3486 18.3111ZM25.7329 18.0815L26.6514 18.3111L27.0152 16.8559L26.0967 16.6263L25.7329 18.0815ZM23.2671 18.0815C24.0766 17.8791 24.9234 17.8791 25.7329 18.0815L26.0967 16.6263C25.0484 16.3642 23.9516 16.3642 22.9033 16.6263L23.2671 18.0815ZM25.25 32.1668V31.0002H23.75V32.1668H25.25ZM23.2671 36.1648C23.6718 36.0636 24.0859 36.013 24.5 36.013V34.513C23.9637 34.513 23.4275 34.5785 22.9033 34.7096L23.2671 36.1648ZM24.5 36.013C24.9141 36.013 25.3281 36.0636 25.7329 36.1648L26.0967 34.7096C25.5725 34.5785 25.0363 34.513 24.5 34.513V36.013ZM23.75 34.5002V35.263H25.25V34.5002H23.75Z" fill="white"/>
<defs>
<linearGradient id="paint0_linear_676_14996" x1="24.57" y1="0" x2="24.57" y2="48" gradientUnits="userSpaceOnUse">
<stop stop-color="#D89DF4"/>
<stop offset="0.520833" stop-color="#B35CF8"/>
<stop offset="1" stop-color="#8229F4"/>
</linearGradient>
</defs>
</svg>
