<svg width="29" height="28" viewBox="0 0 29 28" fill="none" xmlns="http://www.w3.org/2000/svg">
<path d="M7.42055 6.28375L7.23819 7.01125L7.42055 6.28375ZM11.3575 4.01073L10.6363 3.80491L11.3575 4.01073ZM4.27812 11.7266L4.81697 11.2049L4.27812 11.7266ZM4.27812 16.2726L3.73927 15.751H3.73927L4.27812 16.2726ZM7.42055 21.7155L7.6029 22.443L7.42055 21.7155ZM11.3575 23.9885L10.6363 24.1943L11.3575 23.9885ZM17.6424 23.9885L18.3636 24.1943L17.6424 23.9885ZM21.5794 21.7155L21.7617 20.988L21.5794 21.7155ZM24.7218 16.2726L24.1829 16.7943L24.7218 16.2726ZM24.7218 11.7266L24.1829 11.2049L24.7218 11.7266ZM21.5794 6.28375L21.397 5.55626L21.5794 6.28375ZM17.6424 4.01073L18.3636 3.80491L17.6424 4.01073ZM7.23819 7.01125C9.34148 7.53846 11.4837 6.30166 12.0787 4.21656L10.6363 3.80491C10.2634 5.11159 8.92097 5.88665 7.6029 5.55626L7.23819 7.01125ZM4.81697 11.2049C3.05502 9.38496 4.78108 6.39534 7.23819 7.01125L7.6029 5.55626C3.68199 4.57343 0.927665 9.34408 3.73927 12.2483L4.81697 11.2049ZM4.81697 16.7943C6.32519 15.2364 6.32519 12.7628 4.81697 11.2049L3.73927 12.2483C4.68443 13.2246 4.68443 14.7747 3.73927 15.751L4.81697 16.7943ZM7.23819 20.988C4.78108 21.6039 3.05502 18.6143 4.81697 16.7943L3.73927 15.751C0.927664 18.6552 3.68199 23.4258 7.6029 22.443L7.23819 20.988ZM12.0787 23.7827C11.4837 21.6976 9.34148 20.4608 7.23819 20.988L7.6029 22.443C8.92097 22.1126 10.2634 22.8876 10.6363 24.1943L12.0787 23.7827ZM16.9212 23.7827C16.226 26.2185 12.7739 26.2185 12.0787 23.7827L10.6363 24.1943C11.7456 28.0813 17.2543 28.0813 18.3636 24.1943L16.9212 23.7827ZM21.7617 20.988C19.6584 20.4608 17.5162 21.6976 16.9212 23.7827L18.3636 24.1943C18.7365 22.8876 20.0789 22.1126 21.397 22.443L21.7617 20.988ZM24.1829 16.7943C25.9449 18.6143 24.2188 21.6039 21.7617 20.988L21.397 22.443C25.3179 23.4258 28.0722 18.6552 25.2606 15.751L24.1829 16.7943ZM24.1829 11.2049C22.6747 12.7628 22.6747 15.2364 24.1829 16.7943L25.2606 15.751C24.3155 14.7747 24.3155 13.2246 25.2606 12.2483L24.1829 11.2049ZM21.7617 7.01125C24.2188 6.39534 25.9449 9.38495 24.1829 11.2049L25.2606 12.2483C28.0722 9.34408 25.3179 4.57343 21.397 5.55626L21.7617 7.01125ZM16.9212 4.21656C17.5162 6.30166 19.6584 7.53846 21.7617 7.01125L21.397 5.55626C20.0789 5.88665 18.7365 5.11159 18.3636 3.80491L16.9212 4.21656ZM18.3636 3.80491C17.2543 -0.0821064 11.7456 -0.082105 10.6363 3.80491L12.0787 4.21656C12.7739 1.78068 16.226 1.78068 16.9212 4.21656L18.3636 3.80491ZM10.25 13.9996C10.25 16.3468 12.1527 18.2496 14.5 18.2496V16.7496C12.9812 16.7496 11.75 15.5184 11.75 13.9996H10.25ZM14.5 18.2496C16.8472 18.2496 18.75 16.3468 18.75 13.9996H17.25C17.25 15.5184 16.0187 16.7496 14.5 16.7496V18.2496ZM18.75 13.9996C18.75 11.6524 16.8472 9.74961 14.5 9.74961V11.2496C16.0187 11.2496 17.25 12.4808 17.25 13.9996H18.75ZM14.5 9.74961C12.1527 9.74961 10.25 11.6524 10.25 13.9996H11.75C11.75 12.4808 12.9812 11.2496 14.5 11.2496V9.74961Z" fill="#8327D8"/>
</svg>
