<svg width="29" height="28" viewBox="0 0 29 28" fill="none" xmlns="http://www.w3.org/2000/svg">
<path d="M7.42055 6.28424L7.23819 7.01173L7.42055 6.28424ZM11.3575 4.01122L10.6363 3.8054L11.3575 4.01122ZM4.27812 11.7271L4.81697 11.2054L4.27812 11.7271ZM4.27812 16.2731L3.73927 15.7515H3.73927L4.27812 16.2731ZM7.42055 21.716L7.6029 22.4435L7.42055 21.716ZM11.3575 23.989L10.6363 24.1948L11.3575 23.989ZM17.6424 23.989L18.3636 24.1948L17.6424 23.989ZM21.5794 21.716L21.7617 20.9885L21.5794 21.716ZM24.7218 16.2731L24.1829 16.7948L24.7218 16.2731ZM24.7218 11.7271L24.1829 11.2054L24.7218 11.7271ZM21.5794 6.28424L21.397 5.55675L21.5794 6.28424ZM17.6424 4.01122L18.3636 3.8054L17.6424 4.01122ZM7.23819 7.01173C9.34148 7.53895 11.4837 6.30215 12.0787 4.21704L10.6363 3.8054C10.2634 5.11207 8.92097 5.88714 7.6029 5.55675L7.23819 7.01173ZM4.81697 11.2054C3.05502 9.38544 4.78108 6.39583 7.23819 7.01173L7.6029 5.55675C3.68199 4.57392 0.927665 9.34456 3.73927 12.2488L4.81697 11.2054ZM4.81697 16.7948C6.32519 15.2369 6.32519 12.7633 4.81697 11.2054L3.73927 12.2488C4.68443 13.225 4.68443 14.7752 3.73927 15.7515L4.81697 16.7948ZM7.23819 20.9885C4.78108 21.6044 3.05502 18.6148 4.81697 16.7948L3.73927 15.7515C0.927664 18.6556 3.68199 23.4263 7.6029 22.4435L7.23819 20.9885ZM12.0787 23.7832C11.4837 21.6981 9.34148 20.4613 7.23819 20.9885L7.6029 22.4435C8.92097 22.1131 10.2634 22.8881 10.6363 24.1948L12.0787 23.7832ZM16.9212 23.7832C16.226 26.219 12.7739 26.219 12.0787 23.7832L10.6363 24.1948C11.7456 28.0818 17.2543 28.0818 18.3636 24.1948L16.9212 23.7832ZM21.7617 20.9885C19.6584 20.4613 17.5162 21.6981 16.9212 23.7832L18.3636 24.1948C18.7365 22.8881 20.0789 22.1131 21.397 22.4435L21.7617 20.9885ZM24.1829 16.7948C25.9449 18.6148 24.2188 21.6044 21.7617 20.9885L21.397 22.4435C25.3179 23.4263 28.0722 18.6556 25.2606 15.7515L24.1829 16.7948ZM24.1829 11.2054C22.6747 12.7633 22.6747 15.2369 24.1829 16.7948L25.2606 15.7515C24.3155 14.7752 24.3155 13.225 25.2606 12.2488L24.1829 11.2054ZM21.7617 7.01173C24.2188 6.39583 25.9449 9.38544 24.1829 11.2054L25.2606 12.2488C28.0722 9.34456 25.3179 4.57392 21.397 5.55675L21.7617 7.01173ZM16.9212 4.21704C17.5162 6.30215 19.6584 7.53895 21.7617 7.01173L21.397 5.55675C20.0789 5.88714 18.7365 5.11207 18.3636 3.8054L16.9212 4.21704ZM18.3636 3.8054C17.2543 -0.0816181 11.7456 -0.0816168 10.6363 3.8054L12.0787 4.21704C12.7739 1.78117 16.226 1.78117 16.9212 4.21704L18.3636 3.8054ZM10.25 14.0001C10.25 16.3473 12.1527 18.2501 14.5 18.2501V16.7501C12.9812 16.7501 11.75 15.5189 11.75 14.0001H10.25ZM14.5 18.2501C16.8472 18.2501 18.75 16.3473 18.75 14.0001H17.25C17.25 15.5189 16.0187 16.7501 14.5 16.7501V18.2501ZM18.75 14.0001C18.75 11.6529 16.8472 9.7501 14.5 9.7501V11.2501C16.0187 11.2501 17.25 12.4813 17.25 14.0001H18.75ZM14.5 9.7501C12.1527 9.7501 10.25 11.6529 10.25 14.0001H11.75C11.75 12.4813 12.9812 11.2501 14.5 11.2501V9.7501Z" fill="#3B1F52" fill-opacity="0.6"/>
</svg>
