<svg width="20" height="22" viewBox="0 0 20 22" fill="none" xmlns="http://www.w3.org/2000/svg">
<path d="M16.8889 15L16.2314 14.6392L16.8889 15ZM3.11091 15L2.45339 15.3608L3.11091 15ZM1.02511 7.20867L0.276063 7.24648L1.02511 7.20867ZM15.2549 17.2795L15.822 17.7703L15.2549 17.2795ZM4.74493 17.2795L5.31201 16.7886L4.74493 17.2795ZM18.9828 6.6369L19.7323 6.66561L18.9828 6.6369ZM9.24976 15C9.24976 15.4142 9.58554 15.75 9.99976 15.75C10.414 15.75 10.7498 15.4142 10.7498 15H9.24976ZM18.2334 6.60819C18.1543 8.67293 17.7516 11.8686 16.2314 14.6392L17.5464 15.3608C19.2297 12.2931 19.6495 8.82667 19.7323 6.66561L18.2334 6.60819ZM16.2314 14.6392C15.8424 15.348 15.3039 16.0768 14.6878 16.7886L15.822 17.7703C16.4807 17.0092 17.0901 16.1923 17.5464 15.3608L16.2314 14.6392ZM5.31201 16.7886C4.69593 16.0768 4.15736 15.348 3.76842 14.6392L2.45339 15.3608C2.90968 16.1923 3.51908 17.0092 4.17784 17.7703L5.31201 16.7886ZM3.76842 14.6392C2.28993 11.9448 1.86961 9.06159 1.77415 7.17085L0.276063 7.24648C0.377586 9.25749 0.824239 12.3918 2.45339 15.3608L3.76842 14.6392ZM3.17053 5.83333H3.47939V4.33333H3.17053V5.83333ZM16.2287 5.25H16.8181V3.75H16.2287V5.25ZM13.7287 2.75C13.7287 4.13071 14.848 5.25 16.2287 5.25V3.75C15.6764 3.75 15.2287 3.30228 15.2287 2.75H13.7287ZM3.47939 5.83333C5.02119 5.83333 6.27106 4.58346 6.27106 3.04167H4.77106C4.77106 3.75503 4.19276 4.33333 3.47939 4.33333V5.83333ZM7.56273 0.25C6.02093 0.25 4.77106 1.49987 4.77106 3.04167H6.27106C6.27106 2.3283 6.84936 1.75 7.56273 1.75V0.25ZM1.77415 7.17085C1.73784 6.45149 2.33039 5.83333 3.17053 5.83333V4.33333C1.59447 4.33333 0.190555 5.55273 0.276063 7.24648L1.77415 7.17085ZM14.6878 16.7886C13.6777 17.9557 12.9956 18.7373 12.2986 19.2479C11.651 19.7223 10.9887 19.9607 9.9999 19.9607V21.4607C11.2962 21.4607 12.2714 21.1273 13.1851 20.4579C14.0493 19.8248 14.8522 18.8908 15.822 17.7703L14.6878 16.7886ZM4.17784 17.7703C5.14764 18.8908 5.95049 19.8248 6.81473 20.4579C7.72842 21.1273 8.7036 21.4607 9.9999 21.4607V19.9607C9.01109 19.9607 8.34875 19.7223 7.7012 19.2479C7.00421 18.7373 6.32213 17.9557 5.31201 16.7886L4.17784 17.7703ZM12.7287 1.75C13.281 1.75 13.7287 2.19772 13.7287 2.75H15.2287C15.2287 1.36929 14.1094 0.25 12.7287 0.25V1.75ZM19.7323 6.66561C19.7968 4.97999 18.4029 3.75 16.8181 3.75V5.25C17.6557 5.25 18.2615 5.8731 18.2334 6.60819L19.7323 6.66561ZM7.56273 1.75H12.7287V0.25H7.56273V1.75ZM9.24976 11V15H10.7498V11H9.24976ZM7.24976 9C7.24976 10.5188 8.48097 11.75 9.99976 11.75V10.25C9.3094 10.25 8.74976 9.69036 8.74976 9H7.24976ZM9.99976 11.75C11.5185 11.75 12.7498 10.5188 12.7498 9H11.2498C11.2498 9.69036 10.6901 10.25 9.99976 10.25V11.75ZM12.7498 9C12.7498 7.48122 11.5185 6.25 9.99976 6.25V7.75C10.6901 7.75 11.2498 8.30964 11.2498 9H12.7498ZM9.99976 6.25C8.48097 6.25 7.24976 7.48122 7.24976 9H8.74976C8.74976 8.30964 9.3094 7.75 9.99976 7.75V6.25Z" fill="url(#paint0_linear_5549_2780)"/>
<defs>
<linearGradient id="paint0_linear_5549_2780" x1="8.32248" y1="0.0337875" x2="1.4812" y2="13.1722" gradientUnits="userSpaceOnUse">
<stop stop-color="#CF68FF"/>
<stop offset="0.403099" stop-color="#A24EE4"/>
<stop offset="1" stop-color="#4C32EC"/>
</linearGradient>
</defs>
</svg>
