<svg width="29" height="29" viewBox="0 0 29 29" fill="none" xmlns="http://www.w3.org/2000/svg">
<path d="M10.1502 2.86646L9.50656 2.14241L9.50656 2.14241L10.1502 2.86646ZM18.8499 2.86646L19.4935 2.14241V2.14241L18.8499 2.86646ZM18.5712 2.61875L17.9276 3.3428L18.5712 2.61875ZM10.4288 2.61875L11.0724 3.3428V3.3428L10.4288 2.61875ZM4.24556 26.1832L4.81498 25.3994L4.24556 26.1832ZM2.81678 24.7544L3.60051 24.185L2.81678 24.7544ZM26.1832 24.7544L25.3995 24.185L26.1832 24.7544ZM24.7545 26.1832L24.185 25.3994L24.7545 26.1832ZM26.4479 9.3138V15.7916H28.3854V9.3138H26.4479ZM15.7917 26.4478H13.2083V28.3853H15.7917V26.4478ZM2.55209 15.7916V9.3138H0.614594V15.7916H2.55209ZM17.9276 3.3428L18.2063 3.59052L19.4935 2.14241L19.2148 1.89469L17.9276 3.3428ZM10.7938 3.59052L11.0724 3.3428L9.78524 1.89469L9.50656 2.14241L10.7938 3.59052ZM6.73055 5.13535C8.22843 5.13535 9.67423 4.58566 10.7938 3.59052L9.50656 2.14241C8.74169 2.8223 7.75391 3.19785 6.73055 3.19785V5.13535ZM18.2063 3.59052C19.3258 4.58566 20.7716 5.13535 22.2695 5.13535V3.19785C21.2461 3.19785 20.2583 2.8223 19.4935 2.14241L18.2063 3.59052ZM19.2148 1.89469C16.5259 -0.495374 12.4741 -0.495375 9.78524 1.89469L11.0724 3.3428C13.0272 1.60526 15.9728 1.60526 17.9276 3.3428L19.2148 1.89469ZM13.2083 26.4478C10.7651 26.4478 9.01042 26.4465 7.65165 26.2993C6.31102 26.1541 5.47115 25.8762 4.81498 25.3994L3.67615 26.9669C4.71765 27.7236 5.93747 28.0624 7.44296 28.2255C8.93031 28.3867 10.8082 28.3853 13.2083 28.3853V26.4478ZM0.614594 15.7916C0.614594 18.1917 0.613264 20.0696 0.774409 21.557C0.937518 23.0625 1.27635 24.2823 2.03304 25.3238L3.60051 24.185C3.12377 23.5288 2.84589 22.6889 2.70064 21.3483C2.55342 19.9895 2.55209 18.2349 2.55209 15.7916H0.614594ZM4.81498 25.3994C4.34894 25.0608 3.93911 24.651 3.60051 24.185L2.03304 25.3238C2.49114 25.9543 3.04563 26.5088 3.67615 26.9669L4.81498 25.3994ZM26.4479 15.7916C26.4479 18.2349 26.4466 19.9895 26.2994 21.3483C26.1541 22.6889 25.8762 23.5288 25.3995 24.185L26.967 25.3238C27.7237 24.2823 28.0625 23.0625 28.2256 21.557C28.3868 20.0696 28.3854 18.1917 28.3854 15.7916H26.4479ZM15.7917 28.3853C18.1918 28.3853 20.0697 28.3867 21.5571 28.2255C23.0625 28.0624 24.2824 27.7236 25.3239 26.9669L24.185 25.3994C23.5289 25.8762 22.689 26.1541 21.3484 26.2993C19.9896 26.4465 18.235 26.4478 15.7917 26.4478V28.3853ZM25.3995 24.185C25.0609 24.651 24.6511 25.0608 24.185 25.3994L25.3239 26.9669C25.9544 26.5088 26.5089 25.9543 26.967 25.3238L25.3995 24.185ZM28.3854 9.3138C28.3854 5.93606 25.6472 3.19785 22.2695 3.19785V5.13535C24.5772 5.13535 26.4479 7.00611 26.4479 9.3138H28.3854ZM2.55209 9.3138C2.55209 7.00611 4.42285 5.13535 6.73055 5.13535V3.19785C3.3528 3.19785 0.614594 5.93606 0.614594 9.3138H2.55209ZM8.36459 15.7916C8.36459 19.1801 11.1115 21.927 14.5 21.927V19.9895C12.1816 19.9895 10.3021 18.11 10.3021 15.7916H8.36459ZM14.5 21.927C17.8885 21.927 20.6354 19.1801 20.6354 15.7916H18.6979C18.6979 18.11 16.8185 19.9895 14.5 19.9895V21.927ZM20.6354 15.7916C20.6354 12.4031 17.8885 9.65618 14.5 9.65618V11.5937C16.8185 11.5937 18.6979 13.4732 18.6979 15.7916H20.6354ZM14.5 9.65618C11.1115 9.65618 8.36459 12.4031 8.36459 15.7916H10.3021C10.3021 13.4732 12.1816 11.5937 14.5 11.5937V9.65618Z" fill="url(#paint0_linear_6023_79551)"/>
<defs>
<linearGradient id="paint0_linear_6023_79551" x1="12.0825" y1="-0.220564" x2="3.32983" y2="17.8663" gradientUnits="userSpaceOnUse">
<stop stop-color="#CF68FF"/>
<stop offset="0.403099" stop-color="#A24EE4"/>
<stop offset="1" stop-color="#4C32EC"/>
</linearGradient>
</defs>
</svg>
