<svg width="25" height="25" viewBox="0 0 25 25" fill="none" xmlns="http://www.w3.org/2000/svg">
<g clip-path="url(#clip0_6009_130287)">
<circle cx="12.5" cy="12.5" r="12.5" fill="#F0F4FC"/>
<path fill-rule="evenodd" clip-rule="evenodd" d="M17.454 8.77349C17.793 8.43449 17.793 7.88487 17.454 7.54587C17.1151 7.20688 16.5654 7.20688 16.2264 7.54587L12.5 11.2723L8.77349 7.54587C8.43449 7.20688 7.88487 7.20688 7.54587 7.54587C7.20688 7.88487 7.20688 8.43449 7.54587 8.77349L11.2723 12.5L7.54587 16.2264C7.20688 16.5654 7.20688 17.1151 7.54587 17.454C7.88487 17.793 8.43449 17.793 8.77349 17.454L12.5 13.7276L16.2264 17.454C16.5654 17.793 17.1151 17.793 17.454 17.454C17.793 17.1151 17.793 16.5654 17.454 16.2264L13.7276 12.5L17.454 8.77349Z" fill="#263449"/>
</g>
<defs>
<clipPath id="clip0_6009_130287">
<rect width="25" height="25" fill="white"/>
</clipPath>
</defs>
</svg>
