<svg width="19" height="18" viewBox="0 0 19 18" fill="none" xmlns="http://www.w3.org/2000/svg">
<path d="M4.90517 6.26717L5.38928 6.39223L4.90517 6.26717ZM7.13874 4.16492L7.23292 4.65597L7.13874 4.16492ZM8.4564 9.72888L8.31533 9.24919L8.4564 9.72888ZM9.16271 10.4352L8.68302 10.2941L9.16271 10.4352ZM12.6244 13.9864L12.7495 14.4705L12.6244 13.9864ZM14.7267 11.7529L15.2177 11.847L14.7267 11.7529ZM15.8465 5.91395L15.3554 5.81978L15.8465 5.91395ZM12.9776 3.04511L12.8835 2.55406L12.9776 3.04511ZM5.79441 12.3901C5.59915 12.5853 5.59915 12.9019 5.79441 13.0972C5.98968 13.2925 6.30626 13.2925 6.50152 13.0972L5.79441 12.3901ZM7.40407 12.1946C7.59933 11.9994 7.59933 11.6828 7.40407 11.4875C7.20881 11.2923 6.89222 11.2923 6.69696 11.4875L7.40407 12.1946ZM6.24569 14.6464C6.05043 14.8417 6.05043 15.1583 6.24569 15.3536C6.44095 15.5488 6.75753 15.5488 6.95279 15.3536L6.24569 14.6464ZM7.85534 14.451C8.0506 14.2557 8.0506 13.9392 7.85534 13.7439C7.66008 13.5486 7.3435 13.5486 7.14823 13.7439L7.85534 14.451ZM3.53805 11.9388C3.34279 12.1341 3.34279 12.4507 3.53805 12.6459C3.73331 12.8412 4.04989 12.8412 4.24515 12.6459L3.53805 11.9388ZM5.1477 11.7434C5.34296 11.5481 5.34296 11.2315 5.1477 11.0363C4.95244 10.841 4.63586 10.841 4.44059 11.0363L5.1477 11.7434ZM15.3554 5.81978L14.2356 11.6587L15.2177 11.847L16.3375 6.00813L15.3554 5.81978ZM7.23292 4.65597L13.0718 3.53616L12.8835 2.55406L7.04457 3.67387L7.23292 4.65597ZM5.38928 6.39223C5.61795 5.50704 6.33811 4.82758 7.23292 4.65597L7.04457 3.67387C5.76713 3.91886 4.74561 4.88577 4.42107 6.14211L5.38928 6.39223ZM8.31533 9.24919C6.57493 9.761 4.93222 8.16155 5.38928 6.39223L4.42107 6.14211C3.77311 8.65042 6.09928 10.9432 8.59746 10.2086L8.31533 9.24919ZM9.6424 10.5763C9.88108 9.7646 9.12698 9.01051 8.31533 9.24919L8.59746 10.2086C8.61473 10.2035 8.62602 10.2047 8.63427 10.207C8.64417 10.2097 8.65548 10.2158 8.66563 10.226C8.67579 10.2361 8.68187 10.2474 8.68459 10.2573C8.68686 10.2656 8.6881 10.2769 8.68302 10.2941L9.6424 10.5763ZM12.4994 13.5023C10.73 13.9594 9.13059 12.3167 9.6424 10.5763L8.68302 10.2941C7.94837 12.7923 10.2412 15.1185 12.7495 14.4705L12.4994 13.5023ZM14.2356 11.6587C14.064 12.5535 13.3846 13.2737 12.4994 13.5023L12.7495 14.4705C14.0058 14.146 14.9728 13.1245 15.2177 11.847L14.2356 11.6587ZM16.3375 6.00813C16.7304 3.95963 14.932 2.16119 12.8835 2.55406L13.0718 3.53616C14.4262 3.27642 15.6152 4.46544 15.3554 5.81978L16.3375 6.00813ZM6.50152 13.0972L7.40407 12.1946L6.69696 11.4875L5.79441 12.3901L6.50152 13.0972ZM6.95279 15.3536L7.85534 14.451L7.14823 13.7439L6.24569 14.6464L6.95279 15.3536ZM4.24515 12.6459L5.1477 11.7434L4.44059 11.0363L3.53805 11.9388L4.24515 12.6459Z" fill="#8327D8"/>
</svg>
