<svg width="24" height="24" viewBox="0 0 24 24" fill="none" xmlns="http://www.w3.org/2000/svg">
<path d="M18.8889 16L18.2314 15.6392L18.8889 16ZM5.11091 16L4.45339 16.3608L5.11091 16ZM3.02511 8.20867L2.27606 8.24648L3.02511 8.20867ZM17.2549 18.2795L17.822 18.7703L17.2549 18.2795ZM6.74493 18.2795L7.31201 17.7886L6.74493 18.2795ZM20.9828 7.6369L21.7323 7.66561L20.9828 7.6369ZM11.2498 16C11.2498 16.4142 11.5855 16.75 11.9998 16.75C12.414 16.75 12.7498 16.4142 12.7498 16H11.2498ZM20.2334 7.60819C20.1543 9.67293 19.7516 12.8686 18.2314 15.6392L19.5464 16.3608C21.2297 13.2931 21.6495 9.82667 21.7323 7.66561L20.2334 7.60819ZM18.2314 15.6392C17.8424 16.348 17.3039 17.0768 16.6878 17.7886L17.822 18.7703C18.4807 18.0092 19.0901 17.1923 19.5464 16.3608L18.2314 15.6392ZM7.31201 17.7886C6.69593 17.0768 6.15736 16.348 5.76842 15.6392L4.45339 16.3608C4.90968 17.1923 5.51908 18.0092 6.17784 18.7703L7.31201 17.7886ZM5.76842 15.6392C4.28993 12.9448 3.86961 10.0616 3.77415 8.17085L2.27606 8.24648C2.37759 10.2575 2.82424 13.3918 4.45339 16.3608L5.76842 15.6392ZM5.17053 6.83333H5.47939V5.33333H5.17053V6.83333ZM18.2287 6.25H18.8181V4.75H18.2287V6.25ZM15.7287 3.75C15.7287 5.13071 16.848 6.25 18.2287 6.25V4.75C17.6764 4.75 17.2287 4.30228 17.2287 3.75H15.7287ZM5.47939 6.83333C7.02119 6.83333 8.27106 5.58346 8.27106 4.04167H6.77106C6.77106 4.75503 6.19276 5.33333 5.47939 5.33333V6.83333ZM9.56273 1.25C8.02093 1.25 6.77106 2.49987 6.77106 4.04167H8.27106C8.27106 3.3283 8.84936 2.75 9.56273 2.75V1.25ZM3.77415 8.17085C3.73784 7.45149 4.33039 6.83333 5.17053 6.83333V5.33333C3.59447 5.33333 2.19056 6.55273 2.27606 8.24648L3.77415 8.17085ZM16.6878 17.7886C15.6777 18.9557 14.9956 19.7373 14.2986 20.2479C13.651 20.7223 12.9887 20.9607 11.9999 20.9607V22.4607C13.2962 22.4607 14.2714 22.1273 15.1851 21.4579C16.0493 20.8248 16.8522 19.8908 17.822 18.7703L16.6878 17.7886ZM6.17784 18.7703C7.14764 19.8908 7.95049 20.8248 8.81473 21.4579C9.72842 22.1273 10.7036 22.4607 11.9999 22.4607V20.9607C11.0111 20.9607 10.3487 20.7223 9.7012 20.2479C9.00421 19.7373 8.32213 18.9557 7.31201 17.7886L6.17784 18.7703ZM14.7287 2.75C15.281 2.75 15.7287 3.19772 15.7287 3.75H17.2287C17.2287 2.36929 16.1094 1.25 14.7287 1.25V2.75ZM21.7323 7.66561C21.7968 5.97999 20.4029 4.75 18.8181 4.75V6.25C19.6557 6.25 20.2615 6.8731 20.2334 7.60819L21.7323 7.66561ZM9.56273 2.75H14.7287V1.25H9.56273V2.75ZM11.2498 12V16H12.7498V12H11.2498ZM9.24976 10C9.24976 11.5188 10.481 12.75 11.9998 12.75V11.25C11.3094 11.25 10.7498 10.6904 10.7498 10H9.24976ZM11.9998 12.75C13.5185 12.75 14.7498 11.5188 14.7498 10H13.2498C13.2498 10.6904 12.6901 11.25 11.9998 11.25V12.75ZM14.7498 10C14.7498 8.48122 13.5185 7.25 11.9998 7.25V8.75C12.6901 8.75 13.2498 9.30964 13.2498 10H14.7498ZM11.9998 7.25C10.481 7.25 9.24976 8.48122 9.24976 10H10.7498C10.7498 9.30964 11.3094 8.75 11.9998 8.75V7.25Z" fill="#361252" fill-opacity="0.8"/>
</svg>
