<svg width="68" height="20" viewBox="0 0 68 20" fill="none" xmlns="http://www.w3.org/2000/svg">
<mask id="mask0_2109_20463" style="mask-type:alpha" maskUnits="userSpaceOnUse" x="0" y="0" width="20" height="20">
<rect x="0.131592" y="0.131836" width="19.7368" height="19.7368" rx="7" fill="#C4C4C4"/>
</mask>
<g mask="url(#mask0_2109_20463)">
<g filter="url(#filter0_f_2109_20463)">
<path d="M19.6873 4.2327C19.468 4.37524 19.1555 4.50682 19.024 4.65485C18.9746 4.70419 18.9472 4.75901 18.9582 4.81384V5.37853L18.7937 5.93225L18.6292 6.4805L18.4483 7.08356L18.0755 8.31711L17.7137 9.53421L17.4395 10.4498C17.4395 10.5923 17.4341 10.7349 17.4231 10.8719C17.3847 11.3982 17.2751 11.9026 17.0996 12.3741C16.9955 12.6647 16.8694 12.9443 16.7159 13.2074C16.661 13.3116 16.5952 13.4158 16.5295 13.5145C16.3102 13.8599 16.047 14.1778 15.7564 14.4574C15.5317 14.6822 15.2849 14.8906 15.0163 15.066C15.0163 15.066 15.0163 15.066 15.0108 15.066C14.967 15.1044 14.9176 15.1373 14.8628 15.1647C14.6928 15.2798 14.5119 15.3785 14.3255 15.4662C14.1994 15.532 14.0733 15.5868 13.9417 15.6362C13.9143 15.6526 13.8814 15.6636 13.854 15.6745C13.5415 15.8226 13.1797 15.9212 12.8179 15.9706C12.7959 15.9761 12.7795 15.9761 12.7575 15.9816C12.5382 16.0199 12.3244 16.0528 12.1051 16.0693C12.0065 16.0802 11.9023 16.0857 11.8036 16.0857L11.4143 16.0638L9.53936 15.9651C9.53936 15.9596 9.53387 15.9651 9.53387 15.9651L8.5909 15.9158C8.51962 15.9158 8.44287 15.9158 8.3716 15.9103C8.07555 15.8993 7.79046 15.8664 7.50537 15.8061C7.49989 15.8061 7.49989 15.8061 7.49989 15.8061C6.97906 15.7074 6.48016 15.532 6.01415 15.2963C5.75648 15.1647 5.50429 15.0166 5.26854 14.8467C5.16986 14.7754 5.07666 14.6987 4.98346 14.6164C4.7203 14.3971 4.48455 14.1614 4.26526 13.9202C4.23236 13.8873 4.20495 13.8544 4.17754 13.8215C4.14464 13.7886 4.11175 13.7502 4.08434 13.7173C3.876 13.4542 3.70057 13.1855 3.55802 12.9004C3.42645 12.6482 3.32228 12.3796 3.24004 12.0835C3.20715 11.9794 3.17974 11.8807 3.15781 11.771C3.15232 11.7656 3.14684 11.7546 3.14684 11.7436C3.09202 11.5189 3.04268 11.2831 3.01526 11.0474C2.98237 10.8664 2.96592 10.6855 2.96592 10.4991C2.95496 10.4278 2.95496 10.3511 2.95496 10.2798L4.0021 8.66251L5.02732 7.08356L5.49332 6.36537L5.91547 5.71844L6.05801 5.49366V4.92897C6.06898 4.80287 6.07446 4.67129 6.06898 4.55068C6.06349 4.16691 5.98674 3.7941 5.86065 3.43774C5.74003 3.05946 5.57008 2.7031 5.39464 2.37415C5.18631 1.99586 4.96701 1.65595 4.78609 1.34894C4.51745 0.899377 4.33105 0.532054 4.38039 0.274379C4.77512 0.181178 5.19179 0.131836 5.61394 0.131836H14.3858C16.6775 0.131836 18.6512 1.55727 19.468 3.56384C19.5558 3.77766 19.6325 4.00243 19.6873 4.2327Z" fill="#304FFE"/>
</g>
<g filter="url(#filter1_f_2109_20463)">
<path d="M19.8683 5.61426V5.76229L19.1118 6.20088L18.6293 6.48048L18.0975 6.7875L17.0339 7.40701L15.9922 8.01008L14.9287 8.62411L14.5065 8.87082C14.5065 9.13398 14.4407 9.3752 14.3201 9.5945C14.1502 9.91248 13.8651 10.1756 13.5032 10.4004C13.1359 10.6252 12.6863 10.8061 12.182 10.9377C12.182 10.9377 12.182 10.9322 12.1765 10.9377C10.2247 11.4421 7.56027 11.2118 6.26641 10.2469C5.90457 9.97827 5.65238 9.64932 5.54273 9.27104C5.50984 9.14494 5.49339 9.00788 5.49339 8.87082V4.92896C5.49887 4.84672 5.44405 4.76448 5.34537 4.68225C5.04931 4.4465 4.35305 4.22172 3.57454 3.99694C2.96599 3.82699 2.31358 3.65703 1.76534 3.49256C1.33223 3.36098 0.964903 3.22941 0.745605 3.10331C0.844289 2.91142 0.95942 2.71954 1.08003 2.53862C1.84757 1.41472 3.02081 0.586877 4.38046 0.274379C4.77519 0.181178 5.19186 0.131836 5.614 0.131836H11.535C14.4791 0.647184 17.1929 1.84783 19.4681 3.56383C19.5558 3.77765 19.6326 4.00243 19.6874 4.23269C19.7861 4.59453 19.8464 4.96733 19.8628 5.35659C19.8683 5.43882 19.8683 5.52654 19.8683 5.61426Z" fill="#4928F4"/>
</g>
<g filter="url(#filter2_f_2109_20463)">
<path d="M19.8683 5.61448V8.03223L19.7477 8.40504L19.3365 9.68245L18.9089 10.9982L18.6841 11.7L18.4757 12.3524L18.2729 12.9719L18.0755 13.5859L17.9714 13.9094L17.8343 14.337C17.8343 14.7537 17.8233 15.121 17.7959 15.4335C17.7904 15.4664 17.785 15.4993 17.785 15.5322C17.7521 15.8228 17.7082 16.0695 17.6369 16.2778C17.6315 16.3107 17.6205 16.3436 17.6095 16.371C17.467 16.7658 17.2532 17.0179 16.9352 17.1824C16.8584 17.2263 16.7707 17.2592 16.6775 17.2921C16.3869 17.3907 16.0196 17.4401 15.5701 17.4675C15.2411 17.4894 14.8628 17.4949 14.4352 17.4949H14.0569L13.4045 17.4675L13.2894 17.462L12.0997 17.4127L10.8935 17.3633L6.91878 17.1989L5.88808 17.155H5.74554C5.31791 17.1495 4.95059 17.1221 4.63261 17.0783C4.17208 17.007 3.81572 16.8864 3.54708 16.7054C3.16331 16.4587 2.93853 16.0969 2.80696 15.5925C2.77406 15.4719 2.74665 15.3458 2.7302 15.2087C2.67538 14.8908 2.64797 14.5234 2.63152 14.1123C2.63152 14.03 2.63152 13.9478 2.62604 13.8601C2.62055 13.8546 2.62604 13.8546 2.62604 13.8546V13.5366C2.62055 13.3776 2.62055 13.2131 2.62055 13.0432L2.64797 12.1605L2.66441 11.53L2.68634 10.7954V10.6912L2.72472 9.34254L2.7631 7.99386L2.80147 6.72741L2.83437 5.4829L2.84533 5.15395C2.84533 4.984 2.26968 4.88532 1.62823 4.80308C1.11837 4.73729 0.55916 4.67698 0.224731 4.60023C0.252144 4.47413 0.279556 4.34804 0.31245 4.22742C0.411134 3.83269 0.55916 3.45988 0.745562 3.10352C0.844246 2.91164 0.959377 2.71975 1.07999 2.53883C2.2642 2.018 3.49774 1.6123 4.78611 1.34915C5.91549 1.1134 7.09422 0.987305 8.31132 0.987305C12.3464 0.987305 16.0744 2.35243 19.024 4.65505C19.3091 4.87435 19.5887 5.1101 19.8628 5.3568C19.8683 5.43904 19.8683 5.52676 19.8683 5.61448Z" fill="#6200EA"/>
</g>
<g filter="url(#filter3_f_2109_20463)">
<path d="M19.8683 6.91394V9.40296L19.5668 9.9841L18.9912 11.108L18.6841 11.7001L18.4045 12.2429L18.2839 12.4786C18.2839 12.6486 18.2839 12.813 18.273 12.972C18.273 13.2078 18.262 13.4325 18.2455 13.6409C18.2236 13.8876 18.1907 14.1124 18.1578 14.3207C18.0756 14.7538 17.9605 15.1266 17.796 15.4336C17.7741 15.472 17.7521 15.5104 17.7302 15.5433C17.6699 15.642 17.5986 15.7352 17.5219 15.8229C17.4232 15.9435 17.3135 16.0477 17.1874 16.1354C17.001 16.2779 16.7817 16.3931 16.5295 16.4808C16.217 16.5959 15.8552 16.6727 15.4276 16.7165C15.148 16.7439 14.841 16.7604 14.5065 16.7604L14.2763 16.7713L13.1359 16.8371H13.1304L11.9188 16.9084L10.6853 16.9797L8.98572 17.0784L6.91884 17.199L6.61731 17.2154C6.33771 17.2154 6.07455 17.199 5.82236 17.1661C5.79494 17.1606 5.77301 17.1551 5.7456 17.1551C5.3728 17.0948 5.03289 16.9961 4.72587 16.8591C4.35306 16.6946 4.0296 16.4753 3.75548 16.2121C3.51425 15.9764 3.30592 15.7078 3.13596 15.4062C3.09759 15.3349 3.05921 15.2692 3.02632 15.1924C2.86184 14.8689 2.73026 14.5071 2.63158 14.1124C2.61513 14.0466 2.59869 13.9753 2.58772 13.904C2.55483 13.7779 2.52741 13.6464 2.51097 13.5093C2.45066 13.1584 2.41777 12.7856 2.40132 12.3964V12.3909C2.39584 12.2319 2.39035 12.0784 2.39035 11.9139L2.12171 11.2725L2.08334 11.1738L2.05044 11.0915L1.63926 10.1102L1.57347 9.9512L1.17874 9.00274L0.740142 7.94463C0.740142 7.94463 0.740142 7.94463 0.734659 7.94463L0.290582 6.87556L0.131592 6.48631V5.6146C0.131592 5.26921 0.164486 4.9293 0.224793 4.60035C0.252205 4.47426 0.279617 4.34816 0.312512 4.22755C0.778519 3.95891 1.26646 3.7122 1.76536 3.4929C2.9057 2.98303 4.12829 2.60475 5.39473 2.37449C6.33771 2.20453 7.31906 2.11133 8.31138 2.11133C12.319 2.11133 15.9539 3.56417 18.7938 5.93258C18.9034 6.0203 19.0076 6.10802 19.1118 6.20122C19.3694 6.426 19.6216 6.66175 19.8683 6.91394Z" fill="#673AB7"/>
</g>
<g filter="url(#filter4_f_2109_20463)">
<path d="M19.8683 8.54723V11.3652L19.5558 12.0176L18.9637 13.2512L18.9583 13.2676C18.9583 13.5034 18.9473 13.7172 18.9309 13.9091C18.876 14.5395 18.7225 14.9397 18.4703 15.1865C18.2894 15.3729 18.0646 15.477 17.785 15.5319C17.7686 15.5373 17.7466 15.5373 17.7302 15.5428C17.6425 15.5593 17.5493 15.5702 17.4506 15.5702C17.1107 15.6031 16.7105 15.5812 16.2499 15.5483C16.2006 15.5483 16.1458 15.5428 16.091 15.5373C15.7565 15.5154 15.4002 15.4935 15.0054 15.477C14.7916 15.4715 14.5668 15.4661 14.3366 15.4661H14.3256L13.7719 15.5099H13.7664L12.5219 15.5976L11.1019 15.7073L10.8936 15.7237L9.23243 15.8444L8.37169 15.9101L7.52191 15.9704C7.37388 15.9704 7.23134 15.9704 7.0888 15.965C7.0888 15.965 7.08332 15.9595 7.08332 15.965C6.4638 15.954 5.91008 15.9156 5.41666 15.8224C4.96161 15.7457 4.5614 15.6251 4.22149 15.4441C3.87061 15.2742 3.58004 15.033 3.3443 14.7259C3.11952 14.4244 2.95504 14.0461 2.85088 13.5911C2.85088 13.5856 2.85088 13.5856 2.85088 13.5856C2.77412 13.2183 2.73026 12.7906 2.73026 12.3082L2.64803 12.1602L2.16009 11.2884L2.08882 11.1678L2.05044 11.0911L1.54058 10.1865L1.28838 9.73144L0.970404 9.16675L0.422161 8.18539L0.131592 7.67004V5.65251C0.614046 5.33452 1.11295 5.05492 1.6283 4.80273C2.25329 4.48475 2.90022 4.21611 3.57456 3.99681C4.30921 3.75558 5.07675 3.5637 5.86073 3.4376C6.65569 3.30602 7.47257 3.24023 8.31138 3.24023C12.0394 3.24023 15.4605 4.57247 18.0975 6.78737C18.2181 6.88057 18.3333 6.98474 18.4484 7.08342C18.9089 7.4946 19.3475 7.93868 19.7477 8.40469C19.7916 8.45403 19.8355 8.49789 19.8683 8.54723Z" fill="#8E24AA"/>
</g>
<g filter="url(#filter5_f_2109_20463)">
<path d="M19.8683 10.3895V14.3533C19.7368 14.2765 19.5558 14.1833 19.3311 14.0846C19.2105 14.0243 19.0734 13.964 18.9309 13.9092C18.7225 13.816 18.4977 13.7283 18.2455 13.6405C18.1907 13.6186 18.1359 13.6022 18.0756 13.5857C17.9769 13.5473 17.8727 13.5144 17.7686 13.4816C17.4451 13.3829 17.0888 13.2897 16.716 13.2074C16.5734 13.18 16.4254 13.1526 16.2774 13.1307C15.8004 13.0484 15.2905 12.9991 14.7587 12.9936C14.7149 12.9881 14.6655 12.9881 14.6217 12.9881L13.2127 12.9991L11.2938 13.0101H11.2883L7.182 13.043C5.87718 13.043 5.07675 13.3555 4.59429 13.4816C4.59429 13.4816 4.58881 13.4815 4.58881 13.487C4.07894 13.6186 3.91995 13.5364 3.87609 12.6427C3.86513 12.396 3.85965 12.078 3.85965 11.6888L3.55263 11.453L3.01535 11.0473L2.68641 10.7952L2.62062 10.7458L1.71053 10.055L1.57347 9.95086L1.28838 9.73156L0.762072 9.33683L0.131592 8.85437V6.99034C0.186416 6.94649 0.235758 6.90811 0.290582 6.87521C1.08553 6.32697 1.93531 5.86096 2.83443 5.48267C3.63487 5.14276 4.47916 4.87412 5.34539 4.68224C5.58113 4.6329 5.82236 4.58356 6.06907 4.55066C6.79823 4.42456 7.54932 4.36426 8.31138 4.36426C11.6063 4.36426 14.6326 5.51009 17.0339 7.40701C17.3958 7.6921 17.7466 7.99363 18.0756 8.31709C18.5252 8.74472 18.9473 9.19977 19.3366 9.68222C19.4133 9.7809 19.4901 9.87959 19.5668 9.98375C19.671 10.1153 19.7697 10.2524 19.8683 10.3895Z" fill="#C2185B"/>
</g>
<g filter="url(#filter6_f_2109_20463)">
<path d="M19.8683 12.5874V14.3857C19.8683 14.742 19.8355 15.0929 19.7697 15.4328C19.671 15.9372 19.501 16.4197 19.2708 16.8692C19.1501 16.8966 19.0131 16.8966 18.8596 16.8747C18.5142 16.8144 18.1085 16.6335 17.6699 16.3977C17.648 16.3922 17.626 16.3813 17.6096 16.3703C17.4725 16.299 17.33 16.2223 17.1874 16.1346C16.8969 15.9756 16.5899 15.8001 16.2828 15.6357C16.217 15.6028 16.1513 15.5699 16.091 15.537C15.7401 15.3561 15.3782 15.1916 15.0164 15.0655C15.0164 15.0655 15.0164 15.0655 15.0109 15.0655C14.9342 15.0381 14.8519 15.0107 14.7697 14.9887C14.4572 14.901 14.1392 14.8462 13.8322 14.8462L13.2291 14.6708L10.5592 13.8977C10.5592 13.8977 10.5592 13.8977 10.5537 13.8977L8.91445 13.4208H8.90897L8.19625 13.2124C6.13485 13.2124 4.86841 14.0896 4.25438 13.7552C4.01315 13.6291 3.87061 13.3111 3.82127 12.6861C3.80482 12.5107 3.79934 12.3133 3.79934 12.083L3.15789 11.7705L3.13048 11.7596H3.125L2.66448 11.5293L2.16009 11.2881L2.12171 11.2716L2.02851 11.2223L0.953957 10.7015L0.131592 10.3013V8.42078C0.224793 8.33855 0.323477 8.26179 0.422161 8.18504C0.526327 8.1028 0.630493 8.02605 0.734659 7.94381C0.740142 7.94381 0.740142 7.94381 0.740142 7.94381C1.38707 7.4778 2.07237 7.06662 2.80154 6.72671C3.65131 6.32101 4.55591 6.00851 5.49341 5.80566C5.63047 5.77277 5.77301 5.73987 5.91556 5.71794C6.69406 5.56992 7.4945 5.49316 8.31138 5.49316C11.2006 5.49316 13.8541 6.43066 15.9923 8.0096C16.6118 8.47013 17.1874 8.97999 17.7138 9.53372C18.1469 9.98876 18.5471 10.4822 18.9089 10.9975C18.9363 11.0359 18.9637 11.0743 18.9912 11.1072C19.194 11.4032 19.3804 11.7048 19.5558 12.0173C19.671 12.2037 19.7697 12.3955 19.8683 12.5874Z" fill="#D81B60"/>
</g>
<g filter="url(#filter7_f_2109_20463)">
<path d="M19.7697 15.4329C19.671 15.9373 19.501 16.4198 19.2708 16.8693C19.1666 17.0722 19.0515 17.2641 18.9254 17.4505C18.8486 17.5656 18.7664 17.6753 18.6841 17.7794C18.4868 17.7027 18.1962 17.593 17.8398 17.4724C17.8398 17.4724 17.8398 17.4724 17.8398 17.4669C17.5712 17.3737 17.2642 17.275 16.9352 17.1818C16.842 17.1544 16.7488 17.127 16.6502 17.0996C16.2609 16.9954 15.8552 16.9022 15.4605 16.8474C15.1315 16.7926 14.8081 16.7597 14.5065 16.7597L14.2543 16.6884H14.2489L12.9221 16.3046L12.1052 16.0689L11.1951 15.8057H11.1897L10.8936 15.7235L7.31358 14.6928L6.28288 14.3968L5.51534 14.2158L4.26535 13.9198L4.11184 13.8814C4.11184 13.8814 4.11184 13.8814 4.10635 13.8814L2.85088 13.5908C2.85088 13.5854 2.85088 13.5854 2.85088 13.5854L2.6261 13.536L2.51097 13.5086L1.5954 13.2948L1.49123 13.2674L0.71273 12.6259L0.131592 12.138V9.90116C0.334442 9.7038 0.542774 9.5174 0.762071 9.33647C0.827861 9.27617 0.899132 9.22134 0.970404 9.16652C1.03619 9.11169 1.10746 9.05687 1.17874 9.00205C1.67764 8.62376 2.20395 8.28385 2.76316 7.99328C3.47588 7.60951 4.23245 7.30249 5.0274 7.08319C5.18091 7.03385 5.33442 6.98999 5.49341 6.9571C6.39253 6.73232 7.33551 6.61719 8.31138 6.61719C10.762 6.61719 13.0427 7.35732 14.9287 8.62376C15.8662 9.25424 16.7105 10.0108 17.4232 10.8716C17.785 11.3047 18.114 11.7597 18.4045 12.2422C18.4319 12.2805 18.4539 12.3134 18.4758 12.3518C18.6512 12.6424 18.8157 12.9439 18.9637 13.2509C19.1008 13.5251 19.2214 13.7992 19.3311 14.0843C19.5065 14.5229 19.649 14.9724 19.7697 15.4329Z" fill="#F50057"/>
</g>
<g filter="url(#filter8_f_2109_20463)">
<path d="M18.9254 17.451C18.8486 17.5661 18.7664 17.6758 18.6841 17.7799C18.4429 18.0815 18.1798 18.3556 17.8837 18.5968C17.626 18.8106 17.3519 19.0025 17.0613 19.167C16.9517 19.1396 16.842 19.1067 16.7269 19.0628C16.3651 18.9367 15.9868 18.7284 15.6359 18.5091C15.1096 18.1747 14.6546 17.8128 14.4517 17.6483C14.3749 17.5826 14.3366 17.5497 14.3366 17.5497L13.4046 17.4674L13.2894 17.4565L12.0833 17.3523L10.8333 17.2426L8.98572 17.0782L6.0581 16.8205L6.04714 16.815L5.01644 16.3161L3.97478 15.8117L3.13596 15.406L2.95504 15.3183L2.73026 15.2087L1.95176 14.8304L0.915579 14.3315L0.592116 14.1725L0.131592 14.0299V11.5793C0.389266 11.2723 0.663388 10.9817 0.953956 10.7021C1.14036 10.5267 1.33773 10.3512 1.54058 10.1868C1.57347 10.1593 1.60637 10.1319 1.63926 10.11C1.66119 10.0826 1.6886 10.0661 1.71053 10.0552C2.034 9.79202 2.37391 9.55627 2.72478 9.34246C3.13048 9.08478 3.55811 8.85452 4.00219 8.66264C4.47916 8.44882 4.97806 8.2679 5.49341 8.13084C6.38705 7.87865 7.33551 7.74707 8.31138 7.74707C10.5482 7.74707 12.6151 8.42689 14.3201 9.59465C15.4111 10.3403 16.3541 11.2832 17.0997 12.3742C17.3464 12.7251 17.5657 13.0979 17.7686 13.4817C17.8398 13.6242 17.9111 13.7668 17.9714 13.9093C18.0372 14.0464 18.0975 14.1834 18.1578 14.3205C18.273 14.6056 18.3771 14.8907 18.4703 15.1867C18.6458 15.735 18.7773 16.2942 18.8596 16.8753C18.887 17.0672 18.9089 17.2591 18.9254 17.451Z" fill="#FF1744"/>
</g>
<g filter="url(#filter9_f_2109_20463)">
<path d="M17.8892 18.4544C17.8892 18.4982 17.8892 18.5476 17.8837 18.5969C17.626 18.8107 17.3519 19.0026 17.0613 19.1671C16.9407 19.2329 16.8201 19.2987 16.694 19.3535C16.5679 19.4138 16.4418 19.4686 16.3102 19.518C16.1238 19.4193 15.8717 19.2987 15.603 19.1835C15.2247 19.0136 14.8135 18.8601 14.4956 18.8107C14.4188 18.7943 14.3475 18.7888 14.2817 18.7888L13.3826 18.6737H13.3717L12.2533 18.5257L11.1239 18.3776L10.5976 18.3118L6.45284 17.7746C6.1842 17.7746 5.89911 17.7581 5.60306 17.7197C5.24122 17.6868 4.86293 17.632 4.48464 17.5553C4.11184 17.4895 3.73355 17.4018 3.37171 17.3086C2.99342 17.2208 2.62062 17.1167 2.27522 17.018C1.87501 16.8974 1.5022 16.7822 1.1897 16.6781C0.932027 16.5958 0.71273 16.5191 0.542774 16.4588C0.44409 16.223 0.361854 15.9763 0.301547 15.7241C0.186416 15.2965 0.131592 14.8469 0.131592 14.3864V13.4709C0.30703 13.1803 0.498915 12.8952 0.71273 12.6266C1.10198 12.1112 1.54606 11.6397 2.02851 11.2231C2.04496 11.2011 2.06689 11.1847 2.08334 11.1737L2.08882 11.1682C2.25878 11.0147 2.43421 10.8777 2.62062 10.7461C2.64255 10.7242 2.66448 10.7077 2.68641 10.6913C2.77412 10.6255 2.86733 10.5597 2.96601 10.4994C3.75 9.96758 4.61622 9.55091 5.54275 9.27131C6.41994 9.00815 7.34647 8.87109 8.31138 8.87109C10.2247 8.87109 12.012 9.43578 13.5032 10.4007C14.6052 11.1079 15.5537 12.0399 16.2774 13.1309C16.3651 13.257 16.4473 13.3831 16.5295 13.5147C16.9078 14.1562 17.2203 14.8469 17.4506 15.5706C17.478 15.6529 17.4999 15.7351 17.5219 15.8228C17.5657 15.9708 17.6041 16.1243 17.637 16.2779C17.648 16.3162 17.6589 16.3546 17.6699 16.3985C17.7466 16.7439 17.8015 17.1057 17.8398 17.4675C17.8398 17.473 17.8398 17.473 17.8398 17.473C17.8727 17.7965 17.8892 18.1254 17.8892 18.4544Z" fill="#FF5722"/>
</g>
<g filter="url(#filter10_f_2109_20463)">
<path d="M16.7598 18.4539C16.7598 18.6458 16.7488 18.8541 16.7269 19.0625C16.7159 19.1611 16.7049 19.2598 16.694 19.353C16.5679 19.4133 16.4418 19.4682 16.3102 19.5175C16.0635 19.6107 15.8113 19.6875 15.5536 19.7423C15.3782 19.7807 15.1973 19.8136 15.0164 19.83H15.0109C14.8409 19.7258 14.6436 19.5997 14.4407 19.4572C14.0734 19.1995 13.6896 18.909 13.3826 18.6732C13.3771 18.6677 13.3771 18.6677 13.3716 18.6622C13.0482 18.4155 12.8179 18.2291 12.8179 18.2291L12.2368 18.2511L11.1184 18.2894L10.5975 18.3114L8.50323 18.3881L6.73241 18.4539C6.61727 18.4594 6.48021 18.4594 6.31026 18.4539H6.30478C6.07451 18.4484 5.80039 18.432 5.49886 18.4046C5.14798 18.3772 4.76421 18.3443 4.37496 18.3059C3.99667 18.262 3.6129 18.2182 3.24558 18.1743C2.83988 18.1304 2.45611 18.0811 2.12716 18.0372C1.86949 18.0044 1.64471 17.9769 1.46379 17.955C1.31028 17.7796 1.17322 17.5987 1.04164 17.4013C0.844274 17.1052 0.674319 16.7927 0.542741 16.4583C0.444057 16.2226 0.36182 15.9759 0.301514 15.7237C0.460504 15.2357 0.668836 14.7752 0.915546 14.3311C1.11291 13.9693 1.34318 13.6239 1.59537 13.2949C1.84208 12.9715 2.11072 12.6699 2.40128 12.3958V12.3903C2.48352 12.3081 2.56576 12.2314 2.64799 12.1601C2.8015 12.0175 2.96049 11.886 3.12497 11.7599H3.13045C3.13593 11.7489 3.14141 11.7489 3.1469 11.7434C3.27847 11.6392 3.41553 11.546 3.55259 11.4528C4.36399 10.8991 5.27956 10.4879 6.2664 10.2467C6.91881 10.0877 7.60411 10 8.31135 10C9.70388 10 11.0197 10.3344 12.1765 10.9375H12.1819C13.1743 11.4474 14.0514 12.1491 14.7587 12.9934C15.1479 13.443 15.4824 13.9364 15.7565 14.4572C15.9484 14.8081 16.1128 15.1754 16.2499 15.5482C16.2609 15.5811 16.2718 15.6085 16.2828 15.6359C16.376 15.9101 16.4582 16.1951 16.5295 16.4802C16.5788 16.6831 16.6172 16.8914 16.6501 17.0998C16.6611 17.1655 16.6721 17.2258 16.6775 17.2916C16.7324 17.6699 16.7598 18.0592 16.7598 18.4539Z" fill="#FF6F00"/>
</g>
<g filter="url(#filter11_f_2109_20463)">
<path d="M15.6359 18.4534V18.5083C15.6359 18.6947 15.6194 18.9304 15.603 19.1826C15.5865 19.369 15.5701 19.5609 15.5536 19.7418C15.3782 19.7802 15.1973 19.8131 15.0163 19.8295H15.0109C14.8025 19.8569 14.5997 19.8679 14.3859 19.8679H13.4264L13.2181 19.8076L12.1381 19.4786L11.0416 19.1497L8.50321 18.3876L7.40673 18.0587C7.40673 18.0587 6.95169 18.2396 6.31024 18.4534H6.30476C6.05805 18.5357 5.78941 18.6234 5.50432 18.7111C5.14797 18.8153 4.76968 18.9194 4.39687 19.0017C4.0131 19.0894 3.63482 19.1552 3.29491 19.1826C3.19074 19.1936 3.08657 19.199 2.99337 19.199C2.68636 19.0291 2.3903 18.8262 2.12167 18.6015C1.88592 18.4041 1.66662 18.1903 1.46377 17.9545C1.31027 17.7791 1.1732 17.5982 1.04163 17.4008C1.08 17.1541 1.12386 16.9129 1.18965 16.6771C1.35412 16.0247 1.6118 15.3997 1.95171 14.8295C2.13811 14.5061 2.34644 14.1936 2.58767 13.903C2.59315 13.8866 2.6096 13.8701 2.62605 13.8592C2.62057 13.8537 2.62605 13.8537 2.62605 13.8537C2.69732 13.7605 2.77407 13.6728 2.85083 13.5905C2.85083 13.585 2.85083 13.585 2.85083 13.585C3.07561 13.3438 3.30587 13.1135 3.55806 12.8997C3.64578 12.8285 3.72802 12.7572 3.82122 12.6859C3.83767 12.6695 3.85411 12.6585 3.87604 12.6421C5.10959 11.6991 6.65015 11.1289 8.31133 11.1289C10.1973 11.1289 11.9133 11.8361 13.2126 12.9984C13.8376 13.5631 14.3694 14.2374 14.7696 14.9885C14.8025 15.0434 14.8354 15.1037 14.8628 15.164C14.9122 15.2627 14.9615 15.3668 15.0054 15.4765C15.1863 15.8712 15.3288 16.2879 15.4275 16.7155C15.4385 16.7594 15.4495 16.8032 15.4604 16.8471C15.5043 17.0499 15.5427 17.2583 15.5701 17.4666C15.6139 17.7901 15.6359 18.119 15.6359 18.4534Z" fill="#FF9800"/>
</g>
<g filter="url(#filter12_f_2109_20463)">
<path d="M14.5065 18.4536C14.5065 18.5632 14.501 18.6838 14.4955 18.8099C14.4846 19.0128 14.4681 19.2321 14.4407 19.4568C14.4297 19.5939 14.4078 19.731 14.3859 19.868H11.3815L10.8004 19.7748L8.53065 19.413L8.20718 19.3636L7.46705 19.243C7.14359 19.243 6.44184 19.3856 5.70171 19.5226C5.31246 19.5939 4.91772 19.6707 4.56136 19.72C4.51751 19.7255 4.47365 19.731 4.43527 19.7364H4.42979C4.04602 19.6542 3.67321 19.5281 3.32234 19.3636C3.21269 19.3143 3.10304 19.2595 2.99339 19.1992C2.68637 19.0292 2.39032 18.8264 2.12168 18.6016C2.1162 18.5358 2.11072 18.481 2.11072 18.4536C2.11072 18.311 2.1162 18.174 2.12717 18.0369C2.1491 17.686 2.19844 17.3461 2.27519 17.0172C2.3958 16.5183 2.57124 16.0358 2.80699 15.5917C2.85085 15.4985 2.90019 15.4053 2.95501 15.3176C2.97694 15.2737 3.00435 15.2354 3.02628 15.1915C3.12497 15.0325 3.23462 14.879 3.34426 14.7255C3.57453 14.424 3.8322 14.1389 4.10632 13.8812C4.11181 13.8812 4.11181 13.8812 4.11181 13.8812C4.13374 13.8593 4.15566 13.8374 4.17759 13.8209C4.20501 13.799 4.22694 13.7716 4.25435 13.7551C4.364 13.6564 4.47365 13.5687 4.58878 13.4865C4.58878 13.481 4.59426 13.481 4.59426 13.481C5.63044 12.708 6.91333 12.2529 8.31135 12.2529C9.39687 12.2529 10.4056 12.5271 11.2883 13.0095H11.2938C12.0504 13.4262 12.7083 13.9909 13.2291 14.6707C13.4319 14.9338 13.6129 15.2134 13.7664 15.5095H13.7719C13.7993 15.5643 13.8267 15.6191 13.8541 15.674C14.0186 15.9974 14.1501 16.3373 14.2488 16.6882H14.2543C14.2598 16.7156 14.2708 16.743 14.2762 16.7705C14.342 17.0062 14.3968 17.2474 14.4352 17.4941C14.4407 17.5435 14.4462 17.5983 14.4517 17.6476C14.49 17.9108 14.5065 18.1794 14.5065 18.4536Z" fill="#FFC107"/>
</g>
<g filter="url(#filter13_f_2109_20463)">
<path d="M13.3826 18.3938C13.3826 18.4815 13.3826 18.5747 13.3716 18.6624V18.6679C13.3716 18.6734 13.3716 18.6734 13.3716 18.6734C13.3607 19.0681 13.3059 19.4573 13.2181 19.8082C13.2181 19.8301 13.2127 19.8466 13.2017 19.8685H10.6414L8.53066 19.4135L8.25105 19.3532L8.2072 19.3641L5.8662 19.8466L5.76203 19.8685H5.61401C5.26313 19.8685 4.91774 19.8356 4.58331 19.7698C4.53397 19.7589 4.48462 19.7479 4.43528 19.7369H4.4298C4.04603 19.6547 3.67322 19.5286 3.32235 19.3641C3.31138 19.3038 3.30042 19.2435 3.29494 19.1832C3.25656 18.9475 3.24011 18.7008 3.24011 18.4541C3.24011 18.3609 3.24011 18.2677 3.24559 18.1745C3.26204 17.8784 3.3059 17.5878 3.37169 17.3082C3.41555 17.0999 3.47586 16.897 3.54713 16.7052C3.60743 16.5352 3.67871 16.3707 3.75546 16.2117C3.82125 16.0747 3.898 15.9431 3.97476 15.8115C4.05151 15.6854 4.13375 15.5648 4.22147 15.4442C4.44076 15.1427 4.69844 14.8631 4.98353 14.6164C5.148 14.4738 5.32892 14.3368 5.51532 14.2161C6.31576 13.6898 7.27518 13.3828 8.31136 13.3828C8.51421 13.3828 8.71158 13.3938 8.90346 13.4212H8.91443C9.50105 13.487 10.0493 13.6515 10.5537 13.8982C10.5592 13.8982 10.5592 13.8982 10.5592 13.8982C11.3541 14.2874 12.0285 14.874 12.5219 15.5977C12.6041 15.7183 12.6863 15.8499 12.7576 15.9815C12.8179 16.0856 12.8727 16.1953 12.9221 16.3049C12.9988 16.4749 13.0701 16.6558 13.1304 16.8367H13.1359C13.1962 17.0396 13.251 17.2424 13.2894 17.4563V17.4617C13.3497 17.7633 13.3826 18.0758 13.3826 18.3938Z" fill="#FFD54F"/>
</g>
<g filter="url(#filter14_f_2109_20463)">
<path d="M12.2532 18.5089V18.5253C12.2532 18.8488 12.2149 19.1668 12.1381 19.4793C12.1107 19.6108 12.0723 19.7424 12.023 19.8685H9.56684L8.31136 19.5231L7.05589 19.8685H5.61401C5.26313 19.8685 4.91774 19.8356 4.58331 19.7698C4.57235 19.7534 4.56686 19.7369 4.56138 19.7205C4.48463 19.4848 4.42432 19.249 4.39691 19.0023C4.37498 18.8433 4.36401 18.6788 4.36401 18.5089C4.36401 18.4431 4.36401 18.3718 4.37498 18.306C4.38046 18.0484 4.41884 17.7962 4.48463 17.5549C4.51752 17.3905 4.56686 17.2315 4.63265 17.078C4.65458 17.0012 4.68748 16.9299 4.72585 16.8587C4.80809 16.6723 4.90677 16.4913 5.01642 16.3159C5.13704 16.1405 5.26861 15.976 5.41664 15.8225C5.59208 15.6251 5.78945 15.4442 6.01423 15.2962C6.398 15.0166 6.83659 14.8082 7.31356 14.6931C7.63154 14.6054 7.96597 14.5615 8.31136 14.5615C9.40785 14.5615 10.3892 15.0001 11.1019 15.7074C11.1293 15.7348 11.1622 15.7677 11.1896 15.806H11.1951C11.2719 15.8883 11.3431 15.9705 11.4144 16.0637C11.6173 16.3214 11.7872 16.601 11.9188 16.908C11.9846 17.0505 12.0394 17.1986 12.0833 17.3521C12.0888 17.374 12.0942 17.3905 12.0997 17.4124C12.1765 17.681 12.2258 17.9606 12.2368 18.2512C12.2478 18.3334 12.2532 18.4212 12.2532 18.5089Z" fill="#FFE082"/>
</g>
<g filter="url(#filter15_f_2109_20463)">
<path d="M11.1293 18.5084C11.1293 18.7332 11.1019 18.947 11.0416 19.1498C10.9868 19.3691 10.9046 19.5775 10.8004 19.7748C10.784 19.8077 10.7456 19.868 10.7456 19.868H5.87718C5.8717 19.8626 5.86621 19.8516 5.86621 19.8461C5.80042 19.7419 5.7456 19.6378 5.70174 19.5226C5.59209 19.2705 5.5263 18.9963 5.50437 18.7112C5.49341 18.6455 5.49341 18.5742 5.49341 18.5084C5.49341 18.4755 5.49341 18.4371 5.49889 18.4042C5.50437 18.163 5.53727 17.9327 5.60306 17.7189C5.65788 17.5216 5.72915 17.3406 5.82235 17.1652C5.82235 17.1652 5.82784 17.1597 5.82784 17.1542C5.89363 17.0391 5.9649 16.924 6.04713 16.8143C6.31577 16.4525 6.67213 16.1564 7.08331 15.9646C7.0888 15.9646 7.0888 15.9646 7.0888 15.9646C7.22037 15.8988 7.35743 15.8439 7.49998 15.8056C7.49998 15.8056 7.49998 15.8056 7.50546 15.8056C7.75765 15.7288 8.03177 15.6904 8.31138 15.6904C8.63484 15.6904 8.94734 15.7398 9.23243 15.8439C9.33659 15.8713 9.43528 15.9152 9.53396 15.9646C9.53396 15.9646 9.53396 15.9646 9.53944 15.9646C10.0109 16.1893 10.4111 16.5402 10.6853 16.9788C10.7401 17.061 10.7894 17.1488 10.8333 17.242C10.8552 17.2803 10.8772 17.3242 10.8936 17.3626C11.0197 17.6477 11.0965 17.9602 11.1184 18.2891C11.1239 18.3165 11.1239 18.3439 11.1239 18.3768C11.1293 18.4207 11.1293 18.4645 11.1293 18.5084Z" fill="#FFECB3"/>
</g>
<path d="M13.2894 2.87305H6.7105C4.57236 2.87305 2.8728 4.5726 2.8728 6.71075V13.2897C2.8728 15.4278 4.57236 17.1274 6.7105 17.1274H13.2894C15.4276 17.1274 17.1271 15.4278 17.1271 13.2897V6.71075C17.1271 4.5726 15.4276 2.87305 13.2894 2.87305Z" stroke="white" stroke-width="1.5" stroke-miterlimit="10" stroke-linecap="round" stroke-linejoin="round"/>
<path d="M13.8567 6.36995C14.2326 6.36995 14.5373 6.06524 14.5373 5.68937C14.5373 5.31349 14.2326 5.00879 13.8567 5.00879C13.4809 5.00879 13.1761 5.31349 13.1761 5.68937C13.1761 6.06524 13.4809 6.36995 13.8567 6.36995Z" fill="white"/>
<path d="M9.99991 13.2899C11.8166 13.2899 13.2894 11.8171 13.2894 10.0004C13.2894 8.18368 11.8166 6.71094 9.99991 6.71094C8.18319 6.71094 6.71045 8.18368 6.71045 10.0004C6.71045 11.8171 8.18319 13.2899 9.99991 13.2899Z" stroke="white" stroke-width="1.5" stroke-miterlimit="10" stroke-linecap="round" stroke-linejoin="round"/>
</g>
<path d="M39.0819 20H28.9181C26.2021 20 24 17.798 24 15.0814V4.9179C24 2.20199 26.2021 0 28.9181 0H39.0819C41.7979 0 44 2.20199 44 4.9179V15.0814C44.0007 17.798 41.7986 20 39.0819 20Z" fill="black"/>
<path d="M32.2742 8.48126V7.86401C32.0637 7.83013 31.8511 7.81161 31.638 7.8086C29.5751 7.8044 27.7494 9.16443 27.1298 11.1663C26.5102 13.1681 27.2414 15.3481 28.9342 16.5468C27.158 14.6123 27.2594 11.5787 29.1602 9.77115C30.0073 8.96648 31.1157 8.50731 32.2742 8.48126Z" fill="#25F4EE"/>
<path d="M32.3885 15.4698C33.5416 15.4684 34.4893 14.5439 34.5403 13.3712V2.90823H36.4184C36.38 2.68973 36.3618 2.46805 36.3639 2.24609H33.7952V12.6985C33.7525 13.8769 32.802 14.8105 31.6435 14.8126C31.2975 14.8098 30.9563 14.7228 30.6496 14.5601C30.8485 14.8404 31.1097 15.069 31.4119 15.2271C31.7141 15.3852 32.0487 15.4684 32.3885 15.4698ZM39.9259 6.45807V5.8766C39.2346 5.8766 38.5584 5.66898 37.9829 5.2797C38.4874 5.87707 39.1695 6.29076 39.9259 6.45807Z" fill="#25F4EE"/>
<path d="M38.2106 5.41209C37.6127 4.78893 37.2833 3.98768 37.2839 3.1582H36.5613C36.6543 3.61687 36.8486 4.05332 37.1321 4.44087C37.4157 4.82841 37.7827 5.15889 38.2106 5.41209ZM31.524 10.2883C30.2691 10.2943 29.2567 11.2307 29.2632 12.3799C29.2653 12.7572 29.3793 13.1268 29.5931 13.4493C29.8068 13.7718 30.1123 14.035 30.4768 14.2108C29.7425 13.2824 29.9691 11.9842 30.983 11.3112C31.3703 11.0542 31.8366 10.9162 32.3149 10.9168C32.5422 10.9195 32.7681 10.952 32.9852 11.0132V8.49066C32.7637 8.46006 32.5393 8.4441 32.3149 8.44277H32.1943V10.3608C31.9757 10.3063 31.7499 10.2823 31.524 10.2883Z" fill="#FE2C55"/>
<path d="M39.6135 6.8418V8.76596C38.4085 8.76358 37.2348 8.37143 36.2586 7.64509V12.7003C36.2534 15.223 34.2628 17.2652 31.8087 17.2652C30.8974 17.267 30.0079 16.9779 29.2632 16.4379C30.9332 18.284 33.7429 18.3894 35.5395 16.6728C35.9864 16.2457 36.3429 15.7286 36.5867 15.1536C36.8304 14.5786 36.9563 13.9581 36.9563 13.3308V8.28959C37.9359 9.01081 39.1109 9.39774 40.3158 9.39578V6.91919C40.0796 6.91786 39.8446 6.8925 39.6135 6.8418Z" fill="#FE2C55"/>
<path d="M36.2765 12.6688V7.4658C37.3005 8.2087 38.5294 8.607 39.7895 8.60433V6.62392C39.0451 6.4647 38.372 6.06514 37.8715 5.48539C37.4718 5.22374 37.129 4.88245 36.864 4.48234C36.599 4.08223 36.4174 3.63169 36.3301 3.1582H34.4807V13.4063C34.4325 14.5923 33.4443 15.5138 32.2722 15.4657C31.9515 15.4526 31.638 15.366 31.3552 15.2126C31.0723 15.0591 30.8276 14.8428 30.6393 14.5799C29.6015 14.0271 29.2031 12.7279 29.7495 11.6779C29.9288 11.3332 30.1974 11.0443 30.5265 10.8422C30.8556 10.6401 31.2329 10.5323 31.6179 10.5305C31.8304 10.5326 32.0414 10.5655 32.2444 10.6294V8.61944C29.683 8.66338 27.6414 10.8299 27.6849 13.4215C27.7045 14.5951 28.1581 15.7186 28.9561 16.5706C29.7425 17.1081 30.6739 17.3865 31.6227 17.3678C34.1895 17.3672 36.2711 15.2652 36.2765 12.6688Z" fill="white"/>
<path d="M68 14.913V14.9139C67.988 15.3579 67.9843 15.8044 67.9094 16.2457C67.83 16.7125 67.7164 17.1677 67.4998 17.5914C67.207 18.1648 66.8049 18.6491 66.2972 19.0447C65.9328 19.3287 65.5346 19.5542 65.0939 19.6964C64.4512 19.9036 63.7882 19.983 63.1155 19.9869C62.6958 19.9895 62.2764 20 61.8565 19.9983C58.8075 19.9854 55.7584 20.0203 52.7093 19.9794C52.3047 19.974 51.9067 19.9246 51.5096 19.8521C50.7485 19.7129 50.0758 19.3884 49.5003 18.8754C48.8296 18.2776 48.3771 17.546 48.1728 16.6631C48.0392 16.086 48.0057 15.5005 48 14.9129V14.7957C48 14.7503 48.0173 4.81219 48.0189 4.68083C48.0234 4.31999 48.05 3.96187 48.1177 3.60682C48.2 3.17416 48.3164 2.75257 48.5237 2.36115C48.7426 1.94761 49.0169 1.57577 49.356 1.25084C49.8756 0.753006 50.4752 0.400948 51.1732 0.214717C51.8037 0.0465577 52.4468 0.00932711 53.0947 0.00991006C53.0958 0.0097546 53.0982 0.00318675 53.0984 0H62.9047C62.9049 0.0033422 62.905 0.00668444 62.9053 0.00991006C63.273 0.0166333 63.6412 0.013874 64.007 0.059188C64.4078 0.108971 64.8047 0.183938 65.184 0.323921C65.7815 0.54474 66.3006 0.888676 66.744 1.34784C67.2464 1.86806 67.6005 2.46969 67.7884 3.17027C67.9561 3.79534 67.9925 4.43285 67.9934 5.07486" fill="#FFFC00"/>
<path d="M57.9072 16.8424C57.949 16.8424 57.9888 16.8409 58.0191 16.8395C58.0432 16.8415 58.068 16.8424 58.0929 16.8424C58.9703 16.8424 59.557 16.4321 60.0748 16.0698C60.4459 15.8106 60.7959 15.5658 61.2059 15.4983C61.4072 15.4653 61.6075 15.4485 61.8011 15.4485C62.1498 15.4485 62.4254 15.502 62.6266 15.541C62.7504 15.5648 62.8572 15.5854 62.9397 15.5854C63.0261 15.5854 63.1311 15.5664 63.1749 15.4186C63.2096 15.302 63.2345 15.1891 63.2585 15.0803C63.3185 14.8085 63.3621 14.6426 63.465 14.6269C64.5655 14.4589 65.2158 14.2115 65.3453 13.9119C65.3589 13.8804 65.3664 13.8487 65.3681 13.8174C65.3732 13.7281 65.3094 13.6497 65.2204 13.6351C64.3464 13.4928 63.5693 13.0359 62.9106 12.2767C62.4002 11.689 62.1496 11.1274 62.1227 11.0654C62.1216 11.0626 62.1202 11.0597 62.1188 11.057C61.9918 10.8022 61.9665 10.582 62.0435 10.4027C62.1853 10.0719 62.6549 9.92453 62.9656 9.82702C63.0429 9.80284 63.116 9.77994 63.1742 9.75708C63.4497 9.64947 63.9026 9.42211 63.8423 9.10829C63.7983 8.87945 63.4923 8.72009 63.245 8.72009C63.1763 8.72009 63.1155 8.732 63.0643 8.75579C62.7848 8.88529 62.5334 8.95093 62.3171 8.95093C62.0482 8.95093 61.9184 8.84967 61.887 8.82089C61.8947 8.67901 61.9042 8.529 61.9133 8.38712C61.9133 8.38697 61.9135 8.38527 61.9135 8.38527C61.9766 7.39213 62.0554 6.1562 61.7357 5.44745C60.7791 3.32592 58.7503 3.16095 58.1515 3.16095C58.1355 3.16095 57.8905 3.15855 57.8905 3.15855C57.8794 3.15836 57.8674 3.1582 57.855 3.1582C57.2545 3.1582 55.2215 3.32337 54.2642 5.44618C53.9446 6.15539 54.0234 7.39237 54.0867 8.38654L54.0897 8.43412C54.0984 8.56912 54.1064 8.69688 54.1132 8.82073C54.0836 8.84766 53.9648 8.94049 53.723 8.94989C53.5168 8.94208 53.2799 8.87675 53.0191 8.75595C52.9385 8.7185 52.8492 8.71073 52.7886 8.71073C52.6969 8.71073 52.6037 8.72837 52.526 8.76043L52.5218 8.76202C52.3005 8.83973 52.1555 8.99503 52.1524 9.15819C52.1496 9.31028 52.2639 9.53761 52.8259 9.75716C52.8835 9.77971 52.957 9.80277 53.0345 9.8271C53.3455 9.92473 53.8148 10.072 53.9566 10.4026C54.0336 10.5819 54.0083 10.802 53.8813 11.0568C53.8799 11.0595 53.8786 11.0624 53.8773 11.0653C53.8382 11.156 52.8916 13.2908 50.7796 13.635C50.6906 13.6496 50.6268 13.728 50.6318 13.8172C50.6337 13.8492 50.6415 13.8812 50.6552 13.9125C50.7839 14.2105 51.4341 14.4575 52.5349 14.6257C52.6382 14.6415 52.6818 14.8067 52.7413 15.0771C52.7659 15.1887 52.791 15.2982 52.8252 15.4132C52.8572 15.5214 52.9285 15.5743 53.0429 15.5743H53.0602C53.1347 15.5743 53.2402 15.5609 53.3733 15.5352C53.606 15.4904 53.867 15.4487 54.1989 15.4487C54.3924 15.4487 54.5926 15.4655 54.7942 15.4984C55.2038 15.5659 55.5537 15.8103 55.9242 16.0693C56.4429 16.4321 57.0298 16.8424 57.9072 16.8424Z" fill="white"/>
<path d="M57.8583 3.49909C57.3062 3.49909 55.4052 3.64555 54.5094 5.62908C54.2144 6.28224 54.29 7.4654 54.3507 8.41585C54.3601 8.56668 54.3695 8.71288 54.3772 8.85247L54.3804 8.91248L54.3398 8.95717C54.3234 8.97513 54.1701 9.13339 53.829 9.1464L53.8235 9.1467L53.8178 9.14659C53.5923 9.1381 53.3384 9.06893 53.0625 8.94133C53.0219 8.92255 52.9678 8.91338 52.9106 8.91338C52.8454 8.91338 52.7761 8.92549 52.719 8.94925L52.7104 8.95265C52.5657 9.0027 52.4635 9.09707 52.4619 9.18246C52.4611 9.23074 52.4977 9.40465 53.0103 9.60467C53.0604 9.62421 53.1264 9.64499 53.2029 9.66879C53.5365 9.77342 54.0405 9.93131 54.2102 10.3261C54.3057 10.5485 54.2795 10.8109 54.1325 11.106C54.072 11.2455 53.1197 13.364 50.9767 13.7127C50.9771 13.7228 50.9797 13.7337 50.9855 13.7467C51.0218 13.8312 51.2527 14.1231 52.6893 14.342C52.9141 14.376 52.9691 14.6248 53.033 14.9141C53.056 15.0177 53.0795 15.1223 53.1117 15.2303C53.1216 15.2629 53.1234 15.2647 53.1588 15.2647C53.1637 15.2647 53.1694 15.2647 53.1757 15.2647C53.2394 15.2647 53.3361 15.2517 53.4482 15.2299C53.6523 15.1907 53.9312 15.1425 54.2877 15.1425C54.4867 15.1425 54.6917 15.1596 54.8973 15.1935C55.3369 15.2657 55.6945 15.5154 56.0731 15.7798C56.5816 16.1346 57.1071 16.5018 57.909 16.5018C57.944 16.5018 57.9782 16.5006 58.0124 16.4989L58.0214 16.4985L58.0305 16.4992C58.0502 16.5009 58.07 16.5018 58.0902 16.5018C58.892 16.5018 59.4178 16.1347 59.926 15.7798C60.3047 15.5154 60.6624 15.2657 61.102 15.1935C61.3074 15.1597 61.5126 15.1425 61.7114 15.1425C62.0679 15.1425 62.3471 15.1964 62.5508 15.2357C62.6629 15.2574 62.7599 15.2759 62.8235 15.2759C62.8755 15.2759 62.8765 15.2729 62.8875 15.2358C62.9197 15.1277 62.9433 15.0207 62.9662 14.9173C63.0302 14.6277 63.0853 14.3775 63.31 14.3434C64.7465 14.1243 64.9774 13.8319 65.0138 13.7476C65.0195 13.7344 65.0221 13.7231 65.0227 13.713C62.8798 13.3646 61.9276 11.246 61.8669 11.106C61.7196 10.8111 61.6935 10.5487 61.7893 10.3261C61.959 9.93153 62.4629 9.77342 62.7963 9.66898C62.873 9.64503 62.939 9.62421 62.9891 9.60467C63.4221 9.43573 63.5552 9.26555 63.5355 9.16243C63.5125 9.04351 63.3038 8.92259 63.1216 8.92259C63.0806 8.92259 63.0447 8.92911 63.0182 8.94137C62.7223 9.07832 62.4522 9.14776 62.2153 9.14776C61.8429 9.14776 61.6772 8.97663 61.6594 8.9571L61.619 8.91252L61.6223 8.85281C61.6298 8.71329 61.6391 8.56713 61.6489 8.4166C61.7093 7.46593 61.7849 6.28356 61.4901 5.63037C60.5975 3.65411 58.7058 3.50177 58.1474 3.50177C58.1336 3.50177 57.8908 3.49932 57.8908 3.49932C57.8809 3.49925 57.8699 3.49909 57.8583 3.49909ZM57.8583 3.1582H57.8589C57.8717 3.1582 57.8836 3.1582 57.895 3.15835C57.9857 3.15926 58.1349 3.16069 58.1483 3.16084C58.4755 3.16084 59.13 3.20648 59.8331 3.51297C60.2351 3.6881 60.5967 3.92489 60.9078 4.21679C61.2787 4.56458 61.5809 4.99339 61.8058 5.49149C62.1351 6.2208 62.0569 7.44922 61.9941 8.43641L61.9939 8.43795C61.9872 8.54367 61.9801 8.65407 61.9737 8.76164C62.022 8.78356 62.1003 8.80668 62.2158 8.80668C62.4015 8.80668 62.6224 8.74803 62.8722 8.63246C62.9456 8.59867 63.0295 8.58158 63.122 8.58158C63.2707 8.58158 63.4275 8.6248 63.5634 8.70375C63.7345 8.80295 63.845 8.94314 63.875 9.09858C63.8948 9.20139 63.8938 9.40462 63.6653 9.61071C63.5395 9.72416 63.3549 9.82879 63.1165 9.92184C63.0539 9.94617 62.9797 9.9694 62.901 9.99403C62.6282 10.0797 62.2152 10.2091 62.1075 10.4594C62.0529 10.5863 62.0764 10.7534 62.1771 10.9552C62.1797 10.9607 62.1823 10.9661 62.1848 10.9718C62.2099 11.0298 62.4447 11.5551 62.9263 12.109C63.2 12.4241 63.5015 12.6873 63.8218 12.8918C64.2128 13.1413 64.6359 13.3045 65.0792 13.3766C65.2533 13.4048 65.3776 13.558 65.3679 13.7321C65.3649 13.7822 65.353 13.8322 65.3323 13.8806C65.3322 13.8809 65.332 13.8812 65.3318 13.8815C65.2614 14.0441 65.0982 14.1822 64.8329 14.3041C64.5087 14.4528 64.0239 14.5779 63.3919 14.6758C63.36 14.7357 63.3268 14.8865 63.3039 14.9897C63.2798 15.0993 63.2548 15.2121 63.2191 15.3319C63.1805 15.4617 63.0806 15.6168 62.8238 15.6168C62.7265 15.6168 62.6146 15.5951 62.485 15.5703C62.2953 15.5335 62.0358 15.4834 61.7119 15.4834C61.5323 15.4834 61.3462 15.499 61.1589 15.5297C60.7978 15.5891 60.4865 15.8063 60.1263 16.0578C59.5991 16.4258 59.0023 16.8424 58.0906 16.8424C58.0657 16.8424 58.0408 16.8416 58.0162 16.8399C57.986 16.8413 57.9487 16.8424 57.9093 16.8424C56.9973 16.8424 56.4007 16.4257 55.8741 16.0579L55.8732 16.0572C55.513 15.806 55.202 15.5891 54.841 15.5297C54.6538 15.499 54.4677 15.4834 54.2881 15.4834C53.9786 15.4834 53.7336 15.5223 53.5149 15.5645C53.3721 15.5922 53.2612 15.6056 53.176 15.6056L53.1677 15.6057H53.1591C52.9713 15.6057 52.8333 15.5039 52.7806 15.3258C52.7457 15.2085 52.7207 15.0984 52.6961 14.9869C52.6746 14.8902 52.6403 14.7351 52.6084 14.6745C51.976 14.5765 51.4913 14.4516 51.1671 14.3029C50.9024 14.1817 50.7394 14.0437 50.6686 13.8818C50.6473 13.8332 50.6349 13.7829 50.6321 13.7317C50.6222 13.5579 50.7467 13.4045 50.9208 13.3762C52.8909 13.0556 53.7785 11.0564 53.8152 10.9714C53.8175 10.9659 53.8202 10.9603 53.823 10.9549C53.9237 10.753 53.947 10.5862 53.8924 10.459C53.7849 10.2089 53.3722 10.0795 53.0991 9.99388C53.02 9.96929 52.9455 9.9459 52.8835 9.92169C52.6146 9.81683 52.4225 9.70308 52.2957 9.57389C52.1443 9.41989 52.1149 9.27234 52.1167 9.17578C52.1213 8.94216 52.3022 8.73456 52.5898 8.63291C52.687 8.59323 52.7978 8.5723 52.9106 8.5723C52.9874 8.5723 53.1011 8.58271 53.2088 8.63235C53.4393 8.73886 53.6457 8.7971 53.823 8.8054C53.9172 8.80068 53.9833 8.7805 54.0261 8.76123C54.0208 8.6701 54.0148 8.57649 54.0087 8.47888L54.0061 8.43708C53.943 7.44926 53.8645 6.21989 54.194 5.49006C54.4198 4.99018 54.7231 4.56028 55.0955 4.21173C55.4078 3.91965 55.7706 3.68289 56.1741 3.50788C56.8762 3.20365 57.5307 3.1582 57.8583 3.1582Z" fill="#020202"/>
<defs>
<filter id="filter0_f_2109_20463" x="-7.04504" y="-9.86816" width="36.7324" height="35.9541" filterUnits="userSpaceOnUse" color-interpolation-filters="sRGB">
<feFlood flood-opacity="0" result="BackgroundImageFix"/>
<feBlend mode="normal" in="SourceGraphic" in2="BackgroundImageFix" result="shape"/>
<feGaussianBlur stdDeviation="5" result="effect1_foregroundBlur_2109_20463"/>
</filter>
<filter id="filter1_f_2109_20463" x="-9.25439" y="-9.86816" width="39.1227" height="31.0654" filterUnits="userSpaceOnUse" color-interpolation-filters="sRGB">
<feFlood flood-opacity="0" result="BackgroundImageFix"/>
<feBlend mode="normal" in="SourceGraphic" in2="BackgroundImageFix" result="shape"/>
<feGaussianBlur stdDeviation="5" result="effect1_foregroundBlur_2109_20463"/>
</filter>
<filter id="filter2_f_2109_20463" x="-9.77527" y="-9.0127" width="39.6436" height="36.5078" filterUnits="userSpaceOnUse" color-interpolation-filters="sRGB">
<feFlood flood-opacity="0" result="BackgroundImageFix"/>
<feBlend mode="normal" in="SourceGraphic" in2="BackgroundImageFix" result="shape"/>
<feGaussianBlur stdDeviation="5" result="effect1_foregroundBlur_2109_20463"/>
</filter>
<filter id="filter3_f_2109_20463" x="-9.86841" y="-7.88867" width="39.7368" height="35.1045" filterUnits="userSpaceOnUse" color-interpolation-filters="sRGB">
<feFlood flood-opacity="0" result="BackgroundImageFix"/>
<feBlend mode="normal" in="SourceGraphic" in2="BackgroundImageFix" result="shape"/>
<feGaussianBlur stdDeviation="5" result="effect1_foregroundBlur_2109_20463"/>
</filter>
<filter id="filter4_f_2109_20463" x="-9.86841" y="-6.75977" width="39.7368" height="32.7305" filterUnits="userSpaceOnUse" color-interpolation-filters="sRGB">
<feFlood flood-opacity="0" result="BackgroundImageFix"/>
<feBlend mode="normal" in="SourceGraphic" in2="BackgroundImageFix" result="shape"/>
<feGaussianBlur stdDeviation="5" result="effect1_foregroundBlur_2109_20463"/>
</filter>
<filter id="filter5_f_2109_20463" x="-9.86841" y="-5.63574" width="39.7368" height="29.9893" filterUnits="userSpaceOnUse" color-interpolation-filters="sRGB">
<feFlood flood-opacity="0" result="BackgroundImageFix"/>
<feBlend mode="normal" in="SourceGraphic" in2="BackgroundImageFix" result="shape"/>
<feGaussianBlur stdDeviation="5" result="effect1_foregroundBlur_2109_20463"/>
</filter>
<filter id="filter6_f_2109_20463" x="-9.86841" y="-4.50684" width="39.7368" height="31.3975" filterUnits="userSpaceOnUse" color-interpolation-filters="sRGB">
<feFlood flood-opacity="0" result="BackgroundImageFix"/>
<feBlend mode="normal" in="SourceGraphic" in2="BackgroundImageFix" result="shape"/>
<feGaussianBlur stdDeviation="5" result="effect1_foregroundBlur_2109_20463"/>
</filter>
<filter id="filter7_f_2109_20463" x="-9.86841" y="-3.38281" width="39.6381" height="31.1621" filterUnits="userSpaceOnUse" color-interpolation-filters="sRGB">
<feFlood flood-opacity="0" result="BackgroundImageFix"/>
<feBlend mode="normal" in="SourceGraphic" in2="BackgroundImageFix" result="shape"/>
<feGaussianBlur stdDeviation="5" result="effect1_foregroundBlur_2109_20463"/>
</filter>
<filter id="filter8_f_2109_20463" x="-9.86841" y="-2.25293" width="38.7938" height="31.4199" filterUnits="userSpaceOnUse" color-interpolation-filters="sRGB">
<feFlood flood-opacity="0" result="BackgroundImageFix"/>
<feBlend mode="normal" in="SourceGraphic" in2="BackgroundImageFix" result="shape"/>
<feGaussianBlur stdDeviation="5" result="effect1_foregroundBlur_2109_20463"/>
</filter>
<filter id="filter9_f_2109_20463" x="-9.86841" y="-1.12891" width="37.7576" height="30.6465" filterUnits="userSpaceOnUse" color-interpolation-filters="sRGB">
<feFlood flood-opacity="0" result="BackgroundImageFix"/>
<feBlend mode="normal" in="SourceGraphic" in2="BackgroundImageFix" result="shape"/>
<feGaussianBlur stdDeviation="5" result="effect1_foregroundBlur_2109_20463"/>
</filter>
<filter id="filter10_f_2109_20463" x="-9.69849" y="0" width="36.4583" height="29.8301" filterUnits="userSpaceOnUse" color-interpolation-filters="sRGB">
<feFlood flood-opacity="0" result="BackgroundImageFix"/>
<feBlend mode="normal" in="SourceGraphic" in2="BackgroundImageFix" result="shape"/>
<feGaussianBlur stdDeviation="5" result="effect1_foregroundBlur_2109_20463"/>
</filter>
<filter id="filter11_f_2109_20463" x="-8.95837" y="1.12891" width="34.5942" height="28.7393" filterUnits="userSpaceOnUse" color-interpolation-filters="sRGB">
<feFlood flood-opacity="0" result="BackgroundImageFix"/>
<feBlend mode="normal" in="SourceGraphic" in2="BackgroundImageFix" result="shape"/>
<feGaussianBlur stdDeviation="5" result="effect1_foregroundBlur_2109_20463"/>
</filter>
<filter id="filter12_f_2109_20463" x="-7.88928" y="2.25293" width="32.3958" height="27.6152" filterUnits="userSpaceOnUse" color-interpolation-filters="sRGB">
<feFlood flood-opacity="0" result="BackgroundImageFix"/>
<feBlend mode="normal" in="SourceGraphic" in2="BackgroundImageFix" result="shape"/>
<feGaussianBlur stdDeviation="5" result="effect1_foregroundBlur_2109_20463"/>
</filter>
<filter id="filter13_f_2109_20463" x="-6.75989" y="3.38281" width="30.1425" height="26.4854" filterUnits="userSpaceOnUse" color-interpolation-filters="sRGB">
<feFlood flood-opacity="0" result="BackgroundImageFix"/>
<feBlend mode="normal" in="SourceGraphic" in2="BackgroundImageFix" result="shape"/>
<feGaussianBlur stdDeviation="5" result="effect1_foregroundBlur_2109_20463"/>
</filter>
<filter id="filter14_f_2109_20463" x="-5.63599" y="4.56152" width="27.8892" height="25.3066" filterUnits="userSpaceOnUse" color-interpolation-filters="sRGB">
<feFlood flood-opacity="0" result="BackgroundImageFix"/>
<feBlend mode="normal" in="SourceGraphic" in2="BackgroundImageFix" result="shape"/>
<feGaussianBlur stdDeviation="5" result="effect1_foregroundBlur_2109_20463"/>
</filter>
<filter id="filter15_f_2109_20463" x="-4.50659" y="5.69043" width="25.6359" height="24.1777" filterUnits="userSpaceOnUse" color-interpolation-filters="sRGB">
<feFlood flood-opacity="0" result="BackgroundImageFix"/>
<feBlend mode="normal" in="SourceGraphic" in2="BackgroundImageFix" result="shape"/>
<feGaussianBlur stdDeviation="5" result="effect1_foregroundBlur_2109_20463"/>
</filter>
</defs>
</svg>
