<svg width="111" height="42" viewBox="0 0 111 42" fill="none" xmlns="http://www.w3.org/2000/svg">
<mask id="mask0_2118_19765" style="mask-type:alpha" maskUnits="userSpaceOnUse" x="5" y="6" width="30" height="30">
<rect x="4.20959" y="11.9287" width="25.6578" height="25.6578" rx="7" transform="rotate(-15 4.20959 11.9287)" fill="#C4C4C4"/>
</mask>
<g mask="url(#mask0_2118_19765)">
<g filter="url(#filter0_f_2118_19765)">
<path d="M30.1457 10.4991C29.9183 10.7519 29.5702 11.0222 29.4547 11.2524C29.4094 11.331 29.3934 11.409 29.4256 11.4742L29.6156 12.1833L29.5954 12.9339L29.5733 13.6777L29.5491 14.4958L29.496 16.1702L29.4511 17.8203L29.415 19.0622C29.4629 19.2412 29.504 19.422 29.5364 19.5978C29.6653 20.2717 29.6973 20.9419 29.6356 21.593C29.6026 21.9929 29.5383 22.3864 29.4341 22.7685C29.4003 22.9178 29.3527 23.0707 29.3033 23.2168C29.1442 23.7243 28.9207 24.2121 28.6499 24.661C28.4433 25.0188 28.2036 25.3635 27.9253 25.6741C27.9253 25.6741 27.9253 25.6741 27.9184 25.676C27.8763 25.7389 27.8254 25.7968 27.7657 25.8497C27.5911 26.0515 27.3971 26.2363 27.1925 26.4091C27.0563 26.5342 26.9164 26.6454 26.7678 26.7517C26.7389 26.7815 26.7013 26.8064 26.6706 26.8294C26.328 27.1204 25.9068 27.3661 25.4691 27.5498C25.4434 27.564 25.4227 27.5696 25.397 27.5838C25.1346 27.7058 24.8771 27.819 24.6073 27.9135C24.4871 27.9605 24.3581 28.0024 24.2342 28.0356L23.738 28.139L21.3504 28.646C21.3486 28.6391 21.3435 28.6478 21.3435 28.6478L20.1428 28.9031C20.0533 28.9271 19.9569 28.9529 19.8656 28.97C19.4902 29.0559 19.1211 29.1105 18.7428 29.1307C18.7359 29.1325 18.7359 29.1325 18.7359 29.1325C18.0487 29.1839 17.3632 29.1314 16.6987 28.9922C16.3309 28.9137 15.9644 28.8126 15.6112 28.6785C15.4633 28.6223 15.3205 28.5572 15.1758 28.4853C14.7715 28.2985 14.3962 28.0818 14.0396 27.8527C13.9873 27.8224 13.9418 27.7903 13.8963 27.7583C13.8439 27.728 13.7897 27.6909 13.7442 27.6588C13.3941 27.3985 13.0834 27.1202 12.8085 26.8101C12.5584 26.5377 12.3372 26.2355 12.1343 25.8914C12.058 25.7716 11.9903 25.6569 11.9259 25.5266C11.9172 25.5216 11.9066 25.5097 11.9029 25.4959C11.7584 25.2321 11.6172 24.9527 11.5034 24.6659C11.4012 24.4498 11.3197 24.2281 11.257 23.994C11.2193 23.9082 11.1934 23.8119 11.1694 23.7224L11.9402 21.3392L12.6963 19.0115L13.0398 17.9529L13.3522 16.9985L13.4556 16.6683L13.2656 15.9592C13.2369 15.7972 13.1995 15.6301 13.1521 15.4805C13.0161 15.0004 12.7943 14.5581 12.516 14.1531C12.2373 13.7186 11.904 13.3283 11.573 12.9743C11.1841 12.5694 10.7944 12.2163 10.4639 11.8917C9.97528 11.4176 9.61763 11.019 9.59289 10.6789C10.0572 10.429 10.5638 10.2269 11.0939 10.0848L22.1088 7.13341C24.9864 6.36235 27.9444 7.48819 29.6453 9.733C29.8274 9.97198 29.9994 10.2284 30.1457 10.4991Z" fill="#304FFE"/>
</g>
<g filter="url(#filter1_f_2118_19765)">
<path d="M30.8377 12.1719L30.8875 12.3577L30.085 13.163L29.5733 13.6765L29.0088 14.2409L27.8817 15.3767L26.7766 16.4845L25.6477 17.6134L25.2006 18.0652C25.2891 18.3956 25.2877 18.7207 25.21 19.0366C25.1036 19.4931 24.8341 19.9195 24.4554 20.3235C24.0698 20.7293 23.5661 21.1078 22.977 21.4427C22.977 21.4427 22.9752 21.4358 22.9702 21.4445C20.6891 22.7346 17.2658 23.342 15.3165 22.5657C14.7717 22.3501 14.3443 22.0219 14.0794 21.5837C13.9956 21.4365 13.9289 21.2699 13.8828 21.0978L12.5565 16.148C12.5357 16.0429 12.4392 15.9581 12.2876 15.888C11.8365 15.6916 10.8866 15.6436 9.83337 15.6233C9.01202 15.6146 8.13561 15.6207 7.39184 15.5987C6.80371 15.5792 6.29819 15.5375 5.98039 15.453C6.03974 15.1788 6.11975 14.8991 6.21033 14.6314C6.79598 12.9618 7.99068 11.5275 9.59285 10.6777C10.0572 10.4278 10.5638 10.2257 11.0939 10.0836L18.5289 8.09142C22.3992 7.74797 26.2109 8.34253 29.6453 9.73179C29.8273 9.97076 29.9994 10.2272 30.1457 10.4979C30.3913 10.919 30.5925 11.3669 30.7441 11.8501C30.7787 11.9516 30.8082 12.0617 30.8377 12.1719Z" fill="#4928F4"/>
</g>
<g filter="url(#filter2_f_2118_19765)">
<path d="M30.8377 12.1727L31.6512 15.2087L31.6252 15.7174L31.5387 17.4598L31.4444 19.2559L31.3983 20.2127L31.3562 21.102L31.3099 21.9482L31.2687 22.7857L31.2467 23.2269L31.2185 23.81C31.3587 24.3332 31.4685 24.7981 31.5392 25.1998C31.5434 25.2429 31.5476 25.2861 31.5587 25.3274C31.6151 25.7033 31.6431 26.0279 31.6237 26.3134C31.6278 26.3566 31.6251 26.4016 31.6206 26.4397C31.5744 26.9833 31.3908 27.3719 31.0468 27.6855C30.9652 27.7664 30.8661 27.8372 30.7602 27.9098C30.4285 28.1315 29.9839 28.3171 29.4286 28.5028C29.0229 28.641 28.5497 28.7751 28.0127 28.919L27.5377 29.0463L26.7093 29.2314L26.5628 29.2632L25.0523 29.6016L23.5212 29.9454L18.4747 31.0763L17.1657 31.368L16.9867 31.416C16.4479 31.553 15.9774 31.6421 15.5634 31.694C14.9611 31.7595 14.4731 31.7279 14.0749 31.5911C13.51 31.4105 13.106 31.0317 12.771 30.4427C12.6891 30.3023 12.6123 30.1532 12.5455 29.9866C12.3697 29.6057 12.2117 29.1537 12.0527 28.6429C12.025 28.5397 11.9973 28.4364 11.9609 28.3281C11.9522 28.3231 11.9591 28.3212 11.9591 28.3212L11.8521 27.9219C11.7917 27.7241 11.7364 27.5176 11.6792 27.3042L11.4166 26.1866L11.2252 25.3893L11.0055 24.4595L10.9705 24.3287L10.5649 22.6222L10.1593 20.9158L9.78135 19.3126L9.40392 17.7388L9.30701 17.322C9.24983 17.1086 8.49377 17.1784 7.66064 17.2909C6.99826 17.3799 6.27577 17.4923 5.83 17.5084C5.822 17.3409 5.81399 17.1733 5.81471 17.0108C5.80582 16.4819 5.86626 15.964 5.98042 15.4538C6.03978 15.1796 6.11979 14.8999 6.21037 14.6322C7.52214 13.5797 8.9346 12.6552 10.4639 11.8913C11.8027 11.2153 13.2404 10.6603 14.7687 10.2508C19.8356 8.89317 24.9762 9.35301 29.4547 11.252C29.8865 11.4314 30.3169 11.6334 30.7442 11.851C30.7787 11.9524 30.8082 12.0625 30.8377 12.1727Z" fill="#6200EA"/>
</g>
<g filter="url(#filter3_f_2118_19765)">
<path d="M31.275 13.804L32.1125 16.9295L31.9294 17.7607L31.5847 19.3656L31.3984 20.2124L31.2299 20.9881L31.1578 21.3247C31.215 21.5381 31.2703 21.7446 31.31 21.9479C31.3894 22.244 31.4512 22.5299 31.5007 22.797C31.5561 23.1142 31.5905 23.4075 31.6192 23.6802C31.6617 24.2517 31.6426 24.7586 31.5393 25.1995C31.5247 25.255 31.5101 25.3106 31.4936 25.3593C31.4511 25.5035 31.393 25.6445 31.3261 25.7805C31.2428 25.9652 31.1401 26.1328 31.0113 26.2854C30.8252 26.5271 30.5886 26.7455 30.3014 26.9405C29.9477 27.1902 29.5192 27.4083 28.997 27.6073C28.6551 27.7358 28.2751 27.8597 27.8552 27.9723L27.5697 28.0635L26.1599 28.5298L26.153 28.5317L24.6556 29.0288L23.1306 29.5334L21.0296 30.2291L18.4748 31.076L18.1017 31.1981C17.7506 31.2922 17.4147 31.3601 17.0869 31.4036C17.0506 31.406 17.0213 31.4065 16.9868 31.4157C16.4984 31.4654 16.0384 31.4558 15.6068 31.387C15.0833 31.3059 14.6033 31.1394 14.1706 30.9012C13.7883 30.6863 13.4363 30.4191 13.1215 30.0976C13.0493 30.0211 12.979 29.9514 12.9118 29.866C12.5965 29.5152 12.3095 29.1051 12.0528 28.6426C12.01 28.5656 11.9654 28.4816 11.9276 28.3958C11.8439 28.2485 11.7652 28.0925 11.6984 27.926C11.5046 27.5057 11.3379 27.0486 11.1863 26.5653L11.1844 26.5585C11.124 26.3607 11.0655 26.1697 11.0102 25.9632L10.457 25.2481L10.3756 25.1371L10.3066 25.0449L9.46013 23.951L9.32403 23.7735L8.50923 22.7153L7.60247 21.5342C7.60247 21.5342 7.60247 21.5342 7.59559 21.5361L6.67825 20.343L6.34764 19.9077L6.05434 18.8131C5.93813 18.3794 5.86506 17.9415 5.83011 17.5082C5.82211 17.3406 5.8141 17.1731 5.81483 17.0105C6.3096 16.5164 6.8393 16.0424 7.39198 15.5992C8.65237 14.5753 10.0603 13.6889 11.5731 12.9737C12.7 12.443 13.9009 11.9957 15.147 11.6619C20.1794 10.3134 25.2326 10.9148 29.5955 12.9333C29.7627 13.0065 29.923 13.0816 30.0852 13.1636C30.4844 13.3592 30.8804 13.5703 31.275 13.804Z" fill="#673AB7"/>
</g>
<g filter="url(#filter4_f_2118_19765)">
<path d="M31.8246 15.8553L32.7728 19.3939L32.5999 20.3182L32.2714 22.0664L32.2701 22.0889C32.3494 22.385 32.4076 22.6571 32.4515 22.9036C32.5948 23.7138 32.5367 24.268 32.303 24.6626C32.1385 24.9575 31.8913 25.164 31.5587 25.3269C31.5399 25.3393 31.5123 25.3467 31.4935 25.3591C31.3889 25.4093 31.2756 25.4544 31.1516 25.4876C30.7359 25.6433 30.2259 25.7504 29.6366 25.8641C29.5746 25.8807 29.5039 25.8922 29.4333 25.9038C29.0059 25.9888 28.5511 26.0811 28.0499 26.1933C27.7795 26.2584 27.4954 26.3271 27.2063 26.4046L27.1925 26.4083L26.512 26.6496L26.5051 26.6515L24.9719 27.1804L23.2257 27.7958L22.9697 27.8866L20.9243 28.597L19.8656 28.9692L18.8188 29.3308C18.6329 29.3806 18.4539 29.4286 18.2731 29.4697C18.2731 29.4697 18.2644 29.4646 18.2662 29.4715C17.4846 29.6662 16.7764 29.8043 16.1254 29.8533C15.5282 29.91 14.9851 29.8932 14.4974 29.7804C13.9996 29.685 13.5536 29.4799 13.1542 29.1737C12.7705 28.8707 12.4367 28.451 12.1528 27.9147C12.151 27.9078 12.151 27.9078 12.151 27.9078C11.931 27.4724 11.732 26.9501 11.5697 26.3443L11.4166 26.1861L10.5106 25.2557L10.3805 25.1282L10.3065 25.0447L9.36193 24.0804L8.89214 23.5938L8.30285 22.9917L7.28423 21.9439L6.74597 21.3946L6.06714 18.8611C6.56597 18.2995 7.09836 17.7805 7.66063 17.2905C8.33846 16.6809 9.06042 16.1259 9.8334 15.6236C10.6747 15.0735 11.574 14.5743 12.516 14.1522C13.47 13.7195 14.4736 13.3621 15.5269 13.0798C20.2082 11.8255 24.9523 12.3473 29.0089 14.2413C29.1917 14.3177 29.3713 14.4098 29.5491 14.495C30.2657 14.8563 30.9659 15.2664 31.6252 15.7169C31.6969 15.7641 31.7667 15.8044 31.8246 15.8553Z" fill="#8E24AA"/>
</g>
<g filter="url(#filter5_f_2118_19765)">
<path d="M32.4444 18.1693L33.7781 23.1466C33.5871 23.0945 33.3285 23.0384 33.0131 22.9901C32.8413 22.9549 32.6489 22.9253 32.4515 22.9044C32.1585 22.8575 31.8468 22.823 31.5006 22.7977C31.4243 22.7886 31.35 22.7864 31.2687 22.786C31.1319 22.771 30.99 22.7648 30.8481 22.7585C30.4088 22.7435 29.9299 22.7463 29.4341 22.7685C29.2459 22.782 29.0508 22.7974 28.8575 22.8197C28.2309 22.8769 27.5741 22.9865 26.9045 23.1585C26.8476 23.1664 26.7856 23.183 26.7305 23.1978L24.9649 23.6856L22.5591 24.345L22.5522 24.3469L17.407 25.7698C15.7685 26.2088 14.8685 26.8705 14.3051 27.1912C14.3051 27.1912 14.2983 27.1931 14.3001 27.1999C13.7041 27.5367 13.4768 27.4869 13.1211 26.3796C13.0243 26.0735 12.9104 25.676 12.7794 25.1872L12.3146 24.9945L11.5034 24.6658L11.0055 24.4598L10.9063 24.42L9.53109 23.8588L9.32394 23.7741L8.89217 23.5947L8.09846 23.2761L7.14443 22.8824L6.51725 20.5417C6.57134 20.4682 6.62038 20.4034 6.67816 20.3437C7.49192 19.3878 8.40219 18.5167 9.40394 17.7391C10.2947 17.043 11.2645 16.4216 12.2876 15.8892C12.5671 15.7479 12.8534 15.6048 13.1521 15.4805C14.0253 15.0768 14.9481 14.7483 15.9051 14.4919C20.0425 13.3833 24.2282 13.8039 27.8818 15.3779C28.4321 15.6141 28.9741 15.8747 29.496 16.1702C30.2044 16.5559 30.8876 16.9853 31.5387 17.4601C31.6683 17.5582 31.7979 17.6563 31.9293 17.7613C32.1044 17.8915 32.2744 18.0304 32.4444 18.1693Z" fill="#C2185B"/>
</g>
<g filter="url(#filter6_f_2118_19765)">
<path d="M33.1839 20.9287L33.789 23.1868C33.9089 23.6342 33.9856 24.0859 34.0174 24.5349C34.0632 25.2014 34.0121 25.8644 33.8742 26.5064C33.732 26.5814 33.5599 26.6275 33.3597 26.6517C32.9057 26.6921 32.3354 26.6015 31.7053 26.453C31.676 26.4535 31.6447 26.4471 31.6204 26.4389C31.4243 26.3955 31.2195 26.3471 31.011 26.2849C30.5926 26.183 30.1481 26.066 29.7072 25.9628C29.6135 25.9436 29.5198 25.9244 29.433 25.9034C28.9316 25.7943 28.4219 25.7095 27.9251 25.6729C27.9251 25.6729 27.9251 25.6729 27.9182 25.6748C27.8126 25.6662 27.7001 25.6594 27.5895 25.6596C27.1675 25.6546 26.7498 25.6927 26.3643 25.796L25.548 25.7786L21.9352 25.7063C21.9352 25.7063 21.9352 25.7063 21.9283 25.7081L19.7094 25.6607L19.7026 25.6626L18.7375 25.6408C16.149 26.3344 14.8539 27.862 13.9703 27.6486C13.625 27.5714 13.339 27.2201 13.0667 26.4519C12.9871 26.2371 12.9138 25.9911 12.8363 25.702L11.9257 25.5254L11.8876 25.5209L11.8807 25.5227L11.2249 25.3885L10.5104 25.2553L10.4567 25.2476L10.3231 25.217L8.79849 24.9245L7.63118 24.6987L6.99847 22.3374C7.08783 22.2027 7.18592 22.0731 7.28402 21.9436C7.38715 21.8053 7.49213 21.6738 7.59526 21.5355C7.60214 21.5337 7.60214 21.5337 7.60214 21.5337C8.2577 20.7308 8.97989 19.9839 9.78113 19.3118C10.7117 18.5164 11.7425 17.8196 12.8514 17.2495C13.0125 17.1621 13.1804 17.0728 13.352 16.9973C14.2798 16.5495 15.2591 16.1838 16.2848 15.9089C19.9128 14.9368 23.5603 15.2212 26.7764 16.4845C27.7093 16.8543 28.6037 17.3009 29.4509 17.8191C30.1479 18.2448 30.8165 18.7297 31.4442 19.2551C31.4915 19.294 31.5389 19.333 31.5844 19.3651C31.9387 19.6686 32.2742 19.9845 32.5997 20.3179C32.807 20.5132 32.9954 20.721 33.1839 20.9287Z" fill="#D81B60"/>
</g>
<g filter="url(#filter7_f_2118_19765)">
<path d="M34.0175 24.5347C34.0633 25.2013 34.0122 25.8643 33.8743 26.5063C33.8118 26.796 33.7318 27.0757 33.6362 27.3522C33.5785 27.5226 33.5121 27.688 33.4439 27.8464C33.1703 27.8165 32.7685 27.7765 32.2804 27.745C32.2804 27.745 32.2804 27.745 32.2786 27.7381C31.9099 27.7115 31.4912 27.6908 31.0468 27.6845C30.9205 27.6814 30.7942 27.6784 30.6611 27.6772C30.1373 27.6773 29.5965 27.6968 29.0824 27.7608C28.6509 27.8026 28.2336 27.8701 27.855 27.9716L27.5143 27.9669L27.5074 27.9688L25.7123 27.9333L24.6072 27.9121L23.3759 27.8879L23.369 27.8897L22.9696 27.8861L18.1273 27.7964L16.7335 27.7714L15.7088 27.8025L14.0396 27.8513L13.8339 27.8548C13.8339 27.8548 13.8339 27.8548 13.827 27.8566L12.1527 27.9142C12.1509 27.9073 12.1509 27.9073 12.1509 27.9073L11.852 27.921L11.6982 27.9253L10.4766 27.9648L10.3366 27.9655L9.14319 27.4219L8.24928 27.0048L7.49667 24.196C7.68498 23.8799 7.88386 23.5757 8.09836 23.2747C8.16068 23.1769 8.23173 23.0841 8.30278 22.9912C8.36695 22.9003 8.438 22.8074 8.50905 22.7146C9.00824 22.0717 9.55476 21.4678 10.1592 20.9148C10.925 20.1931 11.7718 19.553 12.6962 19.0102C12.8724 18.8966 13.0504 18.7898 13.2389 18.695C14.2923 18.1103 15.4377 17.6484 16.6631 17.3201C19.7404 16.4955 22.8533 16.6575 25.6476 17.6132C27.037 18.0895 28.3517 18.7554 29.5363 19.5965C30.1364 20.0186 30.7025 20.4793 31.2297 20.9874C31.2771 21.0263 31.3157 21.0603 31.3561 21.1011C31.6742 21.4069 31.9822 21.7302 32.2713 22.0659C32.5357 22.364 32.7794 22.6677 33.013 22.9887C33.3808 23.4805 33.7111 23.997 34.0175 24.5347Z" fill="#F50057"/>
</g>
<g filter="url(#filter8_f_2118_19765)">
<path d="M33.6363 27.353C33.5786 27.5234 33.5123 27.6887 33.444 27.8472C33.2426 28.307 33.0044 28.7398 32.7138 29.1423C32.4622 29.4975 32.1825 29.8307 31.873 30.135C31.7261 30.1374 31.5773 30.133 31.418 30.1167C30.9212 30.0801 30.3761 29.9458 29.8617 29.7885C29.0883 29.5456 28.3951 29.2443 28.0851 29.1061C27.9666 29.0493 27.9073 29.0209 27.9073 29.0209L26.7093 29.2312L26.5611 29.2562L25.0115 29.5312L23.4049 29.8141L21.0296 30.2292L17.2667 30.8907L17.2511 30.8875L15.7889 30.6078L14.3112 30.3249L13.1214 30.0977L12.8647 30.0484L12.5456 29.9864L11.4407 29.7733L9.97172 29.4955L9.51206 29.4047L8.88581 29.3806L8.06126 26.3033C8.28152 25.8311 8.52797 25.374 8.79876 24.9252C8.9738 24.6421 9.1626 24.3554 9.36198 24.0807C9.39407 24.0352 9.42615 23.9897 9.46008 23.9511C9.47839 23.9093 9.50728 23.8794 9.53113 23.8582C9.84876 23.419 10.1963 23.0086 10.5649 22.622C10.9877 22.162 11.4472 21.7289 11.9402 21.3386C12.4672 20.9096 13.0328 20.5146 13.6338 20.1691C14.6711 19.5517 15.8178 19.0673 17.0432 18.739C19.852 17.9864 22.6762 18.1446 25.2101 19.0373C26.8309 19.6065 28.3323 20.4733 29.6357 21.5924C30.0635 21.95 30.4643 22.3443 30.8482 22.758C30.9856 22.913 31.1231 23.068 31.2468 23.2267C31.3755 23.3767 31.4973 23.5285 31.6192 23.6803C31.8597 23.9995 32.0864 24.3225 32.303 24.6629C32.7078 25.2923 33.0612 25.9502 33.36 26.6523C33.459 26.884 33.5511 27.1176 33.6363 27.353Z" fill="#FF1744"/>
</g>
<g filter="url(#filter9_f_2118_19765)">
<path d="M32.6727 28.9613C32.6875 29.0164 32.7041 29.0783 32.7138 29.1421C32.4622 29.4973 32.1825 29.8305 31.873 30.1348C31.7437 30.258 31.6144 30.3812 31.4745 30.4925C31.3364 30.6106 31.1965 30.7219 31.0479 30.8281C30.7806 30.7669 30.4234 30.7003 30.0473 30.6461C29.5151 30.56 28.9471 30.5056 28.5313 30.5506C28.4293 30.5558 28.338 30.5729 28.2554 30.595L27.0876 30.753L27.0739 30.7567L25.6197 30.9471L24.1517 31.1412L23.4686 31.2357L18.0833 31.9556C17.746 32.046 17.3825 32.1212 16.9978 32.1727C16.5324 32.2531 16.0389 32.3115 15.5381 32.3424C15.0478 32.3853 14.5433 32.4024 14.0576 32.4071C13.553 32.4242 13.0498 32.4189 12.5829 32.4112C12.0398 32.3944 11.5329 32.3752 11.1055 32.3496C10.7542 32.333 10.453 32.3104 10.2193 32.2919C10.0161 32.0291 9.82982 31.7469 9.66924 31.4505C9.38079 30.9523 9.16069 30.4062 9.00574 29.828L8.69768 28.6783C8.82021 28.2544 8.96524 27.8318 9.14334 27.4226C9.45873 26.6445 9.85772 25.903 10.3233 25.2175C10.3366 25.1844 10.3586 25.1564 10.3756 25.1371L10.3806 25.1283C10.5424 24.8784 10.7166 24.6472 10.9064 24.4193C10.9265 24.3844 10.9485 24.3564 10.9705 24.3283C11.0585 24.2162 11.1534 24.1022 11.2571 23.9933C12.0626 23.0617 13.0101 22.2471 14.0795 21.5842C15.0924 20.9586 16.2098 20.4748 17.4214 20.1501C19.824 19.5064 22.2583 19.6141 24.4555 20.324C26.0772 20.8413 27.5818 21.6925 28.8576 22.819C29.0102 22.9478 29.1559 23.0785 29.3034 23.216C29.9942 23.8942 30.6191 24.6565 31.1517 25.4877C31.2138 25.5818 31.269 25.6777 31.3261 25.7804C31.4309 25.9515 31.5308 26.1314 31.6237 26.3131C31.6504 26.3576 31.6771 26.4021 31.7056 26.4535C31.9182 26.8614 32.1088 27.2973 32.2787 27.7387C32.2806 27.7456 32.2806 27.7456 32.2806 27.7456C32.4307 28.1407 32.5621 28.5482 32.6727 28.9613Z" fill="#FF5722"/>
</g>
<g filter="url(#filter10_f_2118_19765)">
<path d="M31.2543 29.3417C31.3189 29.5826 31.3752 29.8479 31.4178 30.1169C31.4372 30.2445 31.4566 30.3721 31.4742 30.4928C31.3362 30.611 31.1963 30.7222 31.0476 30.8285C30.7692 31.0285 30.4784 31.2097 30.1732 31.3653C29.9659 31.4725 29.7497 31.5747 29.5281 31.6562L29.5212 31.6581C29.2728 31.5844 28.9825 31.4925 28.6798 31.3818C28.1319 31.1818 27.5522 30.9461 27.0874 30.7533C27.0786 30.7483 27.0786 30.7483 27.0699 30.7432C26.5807 30.5423 26.2289 30.3857 26.2289 30.3857L25.5065 30.6088L24.115 31.0333L23.4684 31.236L20.8644 32.0371L18.6629 32.7155C18.5202 32.7611 18.3481 32.8072 18.1328 32.8575L18.1259 32.8594C17.8349 32.93 17.4852 33.0016 17.0973 33.0686C16.6475 33.1522 16.1545 33.2401 15.6528 33.3228C15.1631 33.395 14.6664 33.4691 14.1904 33.5376C13.6662 33.619 13.1677 33.6862 12.7399 33.7418C12.4053 33.7872 12.1138 33.8284 11.8792 33.8617C11.6274 33.6931 11.3944 33.512 11.1628 33.3085C10.8154 33.0031 10.4968 32.6679 10.2191 32.2922C10.0158 32.0294 9.82955 31.7473 9.66897 31.4509C9.70445 30.7847 9.8111 30.1363 9.97148 29.4957C10.0976 28.9749 10.2705 28.4637 10.4765 27.9658C10.6775 27.4766 10.9133 27.0076 11.186 26.5656L11.1841 26.5587C11.2597 26.4278 11.3372 26.3037 11.4164 26.1866C11.5612 25.9559 11.7166 25.7372 11.8807 25.5235L11.8876 25.5217C11.8908 25.5061 11.8977 25.5042 11.9027 25.4955C12.0329 25.3204 12.1736 25.1573 12.3144 24.9941C13.147 24.0258 14.1583 23.2014 15.3163 22.5665C16.082 22.1473 16.9131 21.8066 17.8011 21.5686C19.5498 21.1001 21.3145 21.0773 22.97 21.4454L22.9769 21.4435C24.3945 21.7499 25.7321 22.336 26.9043 23.1582C27.5443 23.5917 28.1303 24.0988 28.6497 24.6606C29.0087 25.0366 29.3389 25.4425 29.6364 25.8645C29.6612 25.9021 29.6842 25.9329 29.7072 25.9636C29.9165 26.2765 30.1157 26.6068 30.3011 26.9408C30.4313 27.1789 30.5496 27.4276 30.661 27.6781C30.6969 27.757 30.731 27.8291 30.76 27.9099C30.9561 28.3664 31.1215 28.846 31.2543 29.3417Z" fill="#FF6F00"/>
</g>
<g filter="url(#filter11_f_2118_19765)">
<path d="M29.8428 29.7186L29.8613 29.7875C29.924 30.0215 29.9827 30.3231 30.0469 30.6453C30.0889 30.8849 30.1329 31.1314 30.1731 31.3641C29.9657 31.4713 29.7496 31.5735 29.5279 31.655L29.521 31.6569C29.2687 31.7614 29.0176 31.8434 28.7491 31.9154L27.5444 32.2382L27.2625 32.2325L25.7956 32.1829L24.3081 32.1387L20.8642 32.0359L19.3767 31.9918C19.3767 31.9918 18.8662 32.3721 18.1326 32.8564L18.1257 32.8582C17.8436 33.0445 17.5358 33.245 17.2073 33.4511C16.7949 33.7018 16.3549 33.9599 15.9145 34.1886C15.4621 34.4279 15.0092 34.6377 14.5916 34.7865C14.4645 34.8354 14.3355 34.8773 14.2185 34.9086C13.7758 34.7985 13.3358 34.6434 12.9228 34.4516C12.5604 34.283 12.2131 34.0883 11.879 33.8606C11.6273 33.6919 11.3943 33.5109 11.1626 33.3073C11.1278 32.9846 11.1017 32.6669 11.105 32.3488C11.092 31.4742 11.2053 30.6027 11.4403 29.7723C11.5655 29.3034 11.722 28.8409 11.9271 28.3949C11.9285 28.3724 11.9436 28.3462 11.9606 28.3269C11.9518 28.3219 11.9587 28.32 11.9587 28.32C12.0169 28.179 12.0837 28.0431 12.1524 27.914C12.1506 27.9071 12.1506 27.9071 12.1506 27.9071C12.3517 27.5285 12.5633 27.1619 12.8081 26.8086C12.8943 26.6896 12.9735 26.5724 13.0666 26.4515C13.0817 26.4254 13.0987 26.4061 13.1207 26.378C14.3524 24.7789 16.095 23.5446 18.181 22.9856C20.5492 22.3511 22.9419 22.6618 24.9646 23.6841C25.9394 24.1829 26.834 24.8507 27.5893 25.6592C27.6491 25.717 27.7107 25.7816 27.7654 25.8481C27.8605 25.9555 27.9575 26.0697 28.0495 26.1926C28.4095 26.6274 28.7287 27.1026 28.9965 27.6064C29.025 27.6578 29.0535 27.7092 29.0821 27.7606C29.2054 28.0005 29.3237 28.2492 29.4282 28.5016C29.5921 28.893 29.7303 29.2987 29.8428 29.7186Z" fill="#FF9800"/>
</g>
<g filter="url(#filter12_f_2118_19765)">
<path d="M28.4248 30.0988C28.4617 30.2365 28.4954 30.3898 28.5309 30.55C28.5854 30.8084 28.6385 31.0893 28.6797 31.3808C28.7121 31.5566 28.7307 31.7361 28.7493 31.9155L24.9766 32.9264L24.2156 33.0049L21.2437 33.3142L20.8209 33.3611L19.851 33.4587C19.4448 33.5675 18.6116 33.9826 17.7283 34.4037C17.2635 34.6242 16.7936 34.8534 16.3628 35.0353C16.3095 35.0569 16.2563 35.0786 16.21 35.0984L16.2031 35.1002C15.6935 35.1261 15.1829 35.0932 14.687 35.0047C14.5327 34.9796 14.3766 34.9477 14.2186 34.9088C13.7759 34.7987 13.3359 34.6436 12.9229 34.4517C12.8939 34.371 12.8686 34.304 12.8594 34.2696C12.8114 34.0906 12.7722 33.9166 12.7398 33.7408C12.6493 33.2928 12.5969 32.8494 12.5826 32.4105C12.5662 31.7435 12.6242 31.0786 12.7708 30.4417C12.7945 30.3099 12.8251 30.1762 12.8644 30.0477C12.8772 29.9852 12.8987 29.9278 12.9115 29.8653C12.9819 29.6325 13.0679 29.4028 13.154 29.1732C13.3417 28.7171 13.5693 28.2724 13.8268 27.8566C13.8337 27.8547 13.8337 27.8547 13.8337 27.8547C13.8539 27.8198 13.874 27.7849 13.896 27.7569C13.9231 27.7201 13.9414 27.6783 13.9703 27.6484C14.0748 27.4876 14.1829 27.3406 14.2998 27.1986C14.298 27.1917 14.3049 27.1899 14.3049 27.1899C15.3459 25.8705 16.8037 24.8675 18.5592 24.3971C19.9223 24.0319 21.2813 24.0367 22.552 24.3455L22.5588 24.3437C23.6491 24.6123 24.6652 25.1 25.5479 25.7784C25.8912 26.0406 26.2125 26.3309 26.5048 26.651L26.5117 26.6491C26.5646 26.7087 26.6175 26.7684 26.6703 26.828C26.9857 27.1788 27.2653 27.5614 27.5072 27.9688L27.5141 27.9669C27.5302 27.9995 27.5532 28.0302 27.5693 28.0628C27.7313 28.3367 27.8813 28.6212 28.0125 28.918C28.036 28.9781 28.0613 29.0451 28.0848 29.1053C28.2215 29.4228 28.3326 29.7546 28.4248 30.0988Z" fill="#FFC107"/>
</g>
<g filter="url(#filter13_f_2118_19765)">
<path d="M26.9934 30.4011C27.0229 30.5113 27.0543 30.6283 27.07 30.7422L27.0718 30.7491C27.0737 30.7559 27.0737 30.7559 27.0737 30.7559C27.1927 31.2553 27.2549 31.7625 27.2628 32.2326C27.2702 32.2602 27.2688 32.2827 27.2624 32.3139L24.0474 33.1753L21.2439 33.3141L20.8725 33.3325L20.8211 33.361L18.0438 34.7545L17.9204 34.8171L17.7345 34.8669C17.2939 34.9849 16.8492 35.0599 16.4071 35.0898C16.3414 35.0926 16.2758 35.0954 16.2101 35.0983L16.2032 35.1001C15.6937 35.126 15.1831 35.0931 14.6872 35.0046C14.6531 34.9326 14.6191 34.8605 14.5919 34.7866C14.4644 34.5035 14.3607 34.1993 14.2777 33.8895C14.2463 33.7724 14.215 33.6554 14.1905 33.5365C14.1116 33.1592 14.0689 32.7796 14.0574 32.4064C14.0424 32.13 14.0499 31.855 14.0748 31.5901C14.0933 31.3564 14.1275 31.1259 14.1704 30.9004C14.2069 30.7061 14.259 30.5151 14.3111 30.324C14.365 30.1399 14.4277 29.9608 14.4973 29.7798C14.6712 29.3274 14.9007 28.8896 15.1757 28.4839C15.3342 28.2495 15.5153 28.0165 15.7088 27.8024C16.5368 26.8722 17.6383 26.1638 18.9394 25.8152C19.1941 25.7469 19.4456 25.6943 19.6958 25.6642L19.7096 25.6605C20.4683 25.5457 21.2121 25.5678 21.9285 25.7079C21.9354 25.706 21.9354 25.706 21.9354 25.706C23.0646 25.9273 24.1087 26.437 24.9718 27.1798C25.1156 27.3035 25.2632 27.4411 25.3969 27.5823C25.5077 27.6929 25.6134 27.8121 25.7123 27.9332C25.8659 28.1208 26.0162 28.324 26.1528 28.5309L26.1597 28.529C26.3037 28.7634 26.4408 28.9997 26.5609 29.2553L26.5628 29.2622C26.7399 29.6205 26.8864 30.0019 26.9934 30.4011Z" fill="#FFD54F"/>
</g>
<g filter="url(#filter14_f_2118_19765)">
<path d="M25.6141 30.9273L25.6196 30.9479C25.7284 31.3541 25.7872 31.7663 25.796 32.1845C25.8058 32.359 25.8019 32.5371 25.7824 32.712L22.6982 33.5384L21.0055 33.5272L19.5452 34.3833L17.7346 34.8684C17.294 34.9865 16.8493 35.0614 16.4072 35.0913C16.3879 35.0743 16.3755 35.0555 16.363 35.0367C16.1873 34.7665 16.0323 34.4908 15.9149 34.1902C15.8338 33.998 15.7647 33.7951 15.7075 33.5817C15.6854 33.4991 15.6614 33.4096 15.6531 33.3233C15.5732 32.9979 15.5366 32.6683 15.538 32.3433C15.524 32.1257 15.5325 31.9094 15.5634 31.6945C15.5651 31.5908 15.5825 31.4902 15.6067 31.3878C15.6472 31.126 15.7103 30.8657 15.7889 30.6085C15.8813 30.3476 15.9912 30.0968 16.1255 29.8542C16.2793 29.5474 16.4663 29.2538 16.6988 28.9923C17.0866 28.512 17.5672 28.1029 18.1274 27.7978C18.4972 27.5807 18.9024 27.4131 19.3361 27.2969C20.713 26.9279 22.0928 27.1485 23.2257 27.7968C23.2694 27.822 23.3218 27.8522 23.3691 27.8912L23.376 27.8893C23.5 27.9668 23.6172 28.046 23.7381 28.1391C24.0795 28.3944 24.387 28.6883 24.6555 29.0296C24.7861 29.1864 24.9047 29.3539 25.0114 29.5319C25.0257 29.5575 25.0381 29.5764 25.0524 29.602C25.2391 29.9136 25.3952 30.2481 25.5067 30.6092C25.5481 30.7088 25.5845 30.8171 25.6141 30.9273Z" fill="#FFE082"/>
</g>
<g filter="url(#filter15_f_2118_19765)">
<path d="M24.2026 31.3034C24.2782 31.5856 24.3157 31.8633 24.3083 32.1383C24.3132 32.4322 24.28 32.7214 24.2156 33.0043C24.2061 33.0512 24.1782 33.1398 24.1782 33.1398L18.0649 34.7778C18.0562 34.7728 18.0456 34.7609 18.0437 34.754C17.9261 34.6453 17.8222 34.533 17.7284 34.4032C17.5058 34.1234 17.331 33.8013 17.2075 33.4507C17.1716 33.3718 17.1477 33.2823 17.1255 33.1997C17.1144 33.1584 17.1015 33.1102 17.0974 33.067C17.0231 32.7623 16.9869 32.4621 16.9976 32.1714C17 31.9052 17.0286 31.654 17.0866 31.4023C17.0866 31.4023 17.0917 31.3936 17.0898 31.3867C17.1337 31.22 17.1845 31.0515 17.2508 30.8861C17.4664 30.3414 17.8143 29.8497 18.266 29.4704C18.2729 29.4686 18.2729 29.4686 18.2729 29.4686C18.416 29.3417 18.5697 29.2267 18.7358 29.1306C18.7358 29.1306 18.7358 29.1306 18.7426 29.1287C19.0335 28.9475 19.3648 28.8071 19.7159 28.713C20.1221 28.6042 20.5311 28.561 20.9241 28.5958C21.0641 28.5952 21.2028 28.6171 21.3433 28.6458C21.3433 28.6458 21.3433 28.6458 21.3502 28.644C22.0179 28.7676 22.6385 29.0736 23.1303 29.5321C23.2268 29.6169 23.3183 29.7104 23.4047 29.8127C23.4452 29.8535 23.4875 29.9012 23.521 29.9439C23.7753 30.2594 23.9768 30.626 24.115 31.0317C24.1311 31.0643 24.1404 31.0987 24.1514 31.14C24.1731 31.1932 24.1878 31.2483 24.2026 31.3034Z" fill="#FFECB3"/>
</g>
<path d="M21.6542 10.9444L13.393 13.158C10.7081 13.8774 9.14581 16.5834 9.86523 19.2682L12.0788 27.5294C12.7982 30.2143 15.5042 31.7766 18.1891 31.0572L26.4502 28.8436C29.1351 28.1242 30.6974 25.4182 29.978 22.7333L27.7644 14.4722C27.045 11.7873 24.339 10.225 21.6542 10.9444Z" stroke="white" stroke-width="1.5" stroke-miterlimit="10" stroke-linecap="round" stroke-linejoin="round"/>
<path d="M23.5432 15.1453C24.0152 15.0188 24.2953 14.5336 24.1688 14.0617C24.0423 13.5897 23.5572 13.3096 23.0852 13.436C22.6132 13.5625 22.3331 14.0477 22.4596 14.5196C22.586 14.9916 23.0712 15.2717 23.5432 15.1453Z" fill="white"/>
<path d="M21.0285 25.1309C23.3097 24.5197 24.6635 22.1748 24.0523 19.8936C23.441 17.6123 21.0962 16.2585 18.8149 16.8698C16.5337 17.481 15.1799 19.8259 15.7911 22.1071C16.4024 24.3884 18.7472 25.7422 21.0285 25.1309Z" stroke="white" stroke-width="1.5" stroke-miterlimit="10" stroke-linecap="round" stroke-linejoin="round"/>
</g>
<rect x="0.938138" y="10.0399" width="31" height="31" rx="10.5" transform="rotate(-15 0.938138 10.0399)" stroke="white" stroke-width="5"/>
<path d="M63.9745 37H47.7123C43.3667 37 39.8434 33.4768 39.8434 29.1303V12.8686C39.8434 8.52319 43.3667 5 47.7123 5H63.9745C68.3201 5 71.8434 8.52319 71.8434 12.8686V29.1303C71.8445 33.4768 68.3212 37 63.9745 37Z" fill="black"/>
<path d="M53.082 18.5694V17.5818C52.7453 17.5276 52.4051 17.498 52.0642 17.4932C48.7636 17.4864 45.8424 19.6625 44.851 22.8654C43.8596 26.0683 45.0297 29.5563 47.7381 31.4743C44.8962 28.3791 45.0583 23.5253 48.0998 20.6333C49.455 19.3458 51.2285 18.6111 53.082 18.5694Z" fill="#25F4EE"/>
<path d="M53.265 29.7517C55.11 29.7494 56.6262 28.2703 56.7079 26.3939V9.65316H59.7129C59.6514 9.30356 59.6222 8.94888 59.6257 8.59375H55.5158V25.3176C55.4474 27.203 53.9267 28.6967 52.073 28.7001C51.5194 28.6956 50.9735 28.5565 50.4828 28.2961C50.801 28.7447 51.2189 29.1104 51.7024 29.3634C52.1859 29.6163 52.7214 29.7494 53.265 29.7517ZM65.3248 15.3329V14.4026C64.2187 14.4026 63.1369 14.0704 62.2161 13.4475C63.0233 14.4033 64.1147 15.0652 65.3248 15.3329Z" fill="#25F4EE"/>
<path d="M62.5802 13.659C61.6237 12.6619 61.0966 11.3799 61.0975 10.0527H59.9413C60.0902 10.7866 60.401 11.4849 60.8547 12.105C61.3085 12.7251 61.8956 13.2538 62.5802 13.659ZM51.8817 21.4609C49.8738 21.4705 48.254 22.9687 48.2645 24.8075C48.2678 25.4111 48.4502 26.0025 48.7922 26.5185C49.1342 27.0345 49.6229 27.4557 50.2061 27.7369C49.0314 26.2515 49.3939 24.1744 51.0161 23.0975C51.6359 22.6864 52.3818 22.4655 53.1471 22.4665C53.5108 22.4707 53.8722 22.5229 54.2197 22.6208V18.5847C53.8653 18.5357 53.5062 18.5102 53.1471 18.508H52.9543V21.5769C52.6045 21.4896 52.2431 21.4513 51.8817 21.4609Z" fill="#FE2C55"/>
<path d="M64.825 15.9473V19.0259C62.8969 19.0221 61.0189 18.3947 59.4571 17.2325V25.3209C59.4488 29.3572 56.2638 32.6248 52.3373 32.6248C50.8791 32.6276 49.456 32.1651 48.2644 31.3011C50.9364 34.2548 55.432 34.4235 58.3065 31.6768C59.0215 30.9936 59.5919 30.1661 59.982 29.2461C60.372 28.3261 60.5734 27.3333 60.5735 26.3297V18.2637C62.1407 19.4177 64.0208 20.0368 65.9486 20.0336V16.0711C65.5706 16.069 65.1947 16.0284 64.825 15.9473Z" fill="#FE2C55"/>
<path d="M59.4859 25.2697V16.9449C61.1242 18.1335 63.0905 18.7708 65.1066 18.7665V15.5979C63.9156 15.3431 62.8386 14.7038 62.0378 13.7762C61.3983 13.3576 60.8498 12.8115 60.4259 12.1714C60.0019 11.5312 59.7112 10.8103 59.5717 10.0527H56.6125V26.4498C56.5354 28.3472 54.9543 29.8217 53.079 29.7448C52.5659 29.7237 52.0642 29.5852 51.6117 29.3397C51.1592 29.0942 50.7675 28.7481 50.4662 28.3274C48.8059 27.443 48.1684 25.3642 49.0426 23.6843C49.3295 23.1327 49.7592 22.6705 50.2859 22.3471C50.8125 22.0237 51.4161 21.8513 52.0321 21.8484C52.372 21.8517 52.7097 21.9044 53.0344 22.0066V18.7907C48.9362 18.861 45.6697 22.3274 45.7392 26.4739C45.7707 28.3517 46.4964 30.1494 47.7732 31.5126C49.0314 32.3725 50.5216 32.818 52.0397 32.7882C56.1467 32.7871 59.4772 29.4239 59.4859 25.2697Z" fill="white"/>
<rect x="37.3434" y="2.5" width="37" height="37" rx="10.5" stroke="white" stroke-width="5"/>
<path d="M102.669 30.5339L102.669 30.5351C102.504 31.0885 102.349 31.648 102.107 32.1769C101.85 32.7363 101.554 33.2697 101.14 33.7289C100.579 34.3504 99.9113 34.8232 99.1407 35.1492C98.5875 35.3832 98.0117 35.5324 97.4104 35.5627C96.5337 35.6066 95.6744 35.4832 94.8284 35.2617C94.3005 35.1238 93.7703 34.9959 93.2437 34.8524C89.4193 33.8104 85.5788 32.8282 81.7638 31.7511C81.2576 31.6081 80.7744 31.4122 80.3002 31.1875C79.3913 30.7566 78.6558 30.1228 78.1058 29.285C77.4647 28.3087 77.1426 27.2378 77.1832 26.0604C77.2095 25.2908 77.3645 24.5443 77.555 23.8046L77.5945 23.6574C77.6098 23.6003 80.9753 11.1268 81.0215 10.9624C81.1485 10.5108 81.3024 10.0701 81.5069 9.64701C81.7559 9.13142 82.0438 8.64118 82.4359 8.21943C82.8499 7.77381 83.3194 7.39916 83.8546 7.10527C84.6746 6.65495 85.5459 6.41461 86.4851 6.41562C87.3333 6.41658 88.1535 6.58624 88.9668 6.80496C88.9682 6.80512 88.9735 6.7977 88.9748 6.79375L101.289 10.0932C101.288 10.0975 101.287 10.1017 101.286 10.1059C101.745 10.238 102.209 10.3585 102.653 10.5384C103.139 10.7358 103.613 10.9635 104.042 11.2669C104.718 11.7452 105.254 12.3517 105.656 13.0775C106.112 13.8998 106.354 14.7744 106.354 15.7174C106.355 16.5587 106.186 17.3714 105.971 18.1779" fill="#FFFC00"/>
<path d="M89.3465 29.5606C89.399 29.5746 89.4495 29.5861 89.488 29.5945C89.5176 29.6052 89.5484 29.6147 89.5797 29.6231C90.6815 29.9183 91.5563 29.6005 92.3283 29.3198C92.8815 29.1191 93.4033 28.9294 93.9409 28.9827C94.2048 29.009 94.462 29.0553 94.705 29.1204C95.1429 29.2378 95.471 29.3977 95.7106 29.5142C95.858 29.5859 95.9852 29.6476 96.0888 29.6753C96.1973 29.7044 96.3355 29.716 96.4402 29.5451C96.523 29.4104 96.5922 29.2769 96.659 29.1484C96.8259 28.8273 96.9364 28.6336 97.0709 28.6485C98.5094 28.8079 99.4091 28.716 99.6726 28.3833C99.7002 28.3484 99.7204 28.3111 99.733 28.2724C99.7694 28.1619 99.7157 28.0421 99.6089 27.9938C98.5593 27.521 97.7372 26.6858 97.1654 25.5109C96.7224 24.6011 96.5967 23.8116 96.5837 23.7247C96.5832 23.7208 96.5825 23.7167 96.5816 23.7129C96.5079 23.3501 96.5503 23.0651 96.7072 22.8659C96.9965 22.4982 97.6359 22.4712 98.0588 22.4533C98.164 22.4489 98.2635 22.4448 98.3443 22.4357C98.7264 22.3932 99.3717 22.2601 99.4015 21.8458C99.4233 21.5436 99.0926 21.2405 98.7821 21.1573C98.6959 21.1342 98.6154 21.1287 98.5431 21.1413C98.1486 21.2099 97.8108 21.2078 97.5393 21.135C97.2016 21.0445 97.0726 20.8737 97.0429 20.827C97.1003 20.6514 97.1627 20.4662 97.2219 20.2912C97.222 20.291 97.2228 20.2889 97.2228 20.2889C97.6362 19.063 98.1509 17.5376 97.988 16.54C97.5006 13.5542 95.0085 12.6644 94.2566 12.4629C94.2365 12.4575 93.9296 12.3721 93.9296 12.3721C93.9158 12.3681 93.9008 12.3639 93.8852 12.3597C93.1312 12.1577 90.5227 11.681 88.6065 14.0246C87.9665 14.8076 87.6492 16.3874 87.3942 17.6571L87.382 17.7178C87.3474 17.8902 87.3145 18.0534 87.2813 18.2112C87.2352 18.235 87.0547 18.3116 86.7479 18.2421C86.4917 18.1629 86.2162 18.0011 85.9293 17.7617C85.8406 17.6875 85.7311 17.6477 85.655 17.6273C85.54 17.5965 85.417 17.5873 85.3086 17.6014L85.3029 17.602C84.9988 17.6251 84.7645 17.7713 84.7056 17.9752C84.651 18.1652 84.718 18.4891 85.3499 18.9539C85.4146 19.0016 85.4991 19.0553 85.5883 19.1119C85.946 19.3392 86.4856 19.682 86.5525 20.1448C86.5889 20.3959 86.483 20.6638 86.2378 20.9409C86.2351 20.9439 86.2326 20.9471 86.2299 20.9503C86.1503 21.051 84.2433 23.4132 81.4755 23.1348C81.3589 23.1232 81.2523 23.2002 81.2287 23.3139C81.2203 23.3547 81.2193 23.3976 81.226 23.4415C81.2873 23.8589 82.0206 24.3879 83.3463 24.9695C83.4708 25.0241 83.4698 25.2461 83.4536 25.6057C83.447 25.7542 83.4416 25.9001 83.4459 26.056C83.4497 26.2027 83.5214 26.293 83.6651 26.3315L83.6867 26.3373C83.7803 26.3624 83.9173 26.3811 84.0932 26.3936C84.4004 26.4156 84.7421 26.451 85.1589 26.5627C85.4019 26.6278 85.6477 26.7163 85.8897 26.8255C86.3813 27.0481 86.7385 27.4727 87.1165 27.9226C87.6459 28.5527 88.2448 29.2654 89.3465 29.5606Z" fill="white"/>
<path d="M93.7746 12.7889C93.0814 12.6031 90.6451 12.1474 88.8527 14.3367C88.2626 15.0576 87.9594 16.5688 87.7158 17.7827C87.6769 17.9752 87.6395 18.162 87.6022 18.3398L87.586 18.4163L87.52 18.4587C87.4934 18.4758 87.2476 18.6229 86.815 18.5245L86.808 18.523L86.8008 18.521C86.5205 18.4344 86.2249 18.2621 85.9215 18.0091C85.8768 17.9718 85.812 17.9421 85.7401 17.9229C85.6583 17.901 85.5672 17.8928 85.4874 17.9035L85.4755 17.9048C85.277 17.919 85.1169 18.0031 85.0862 18.1098C85.0689 18.1701 85.0563 18.4008 85.6327 18.8245C85.6891 18.8659 85.7649 18.9142 85.8529 18.9698C86.2367 19.2134 86.8165 19.5813 86.8967 20.1341C86.9418 20.4455 86.8206 20.7662 86.5367 21.0873C86.4138 21.2421 84.5052 23.5819 81.6969 23.2987C81.6941 23.3115 81.6936 23.3261 81.6965 23.3443C81.7137 23.4626 81.9053 23.9068 83.6356 24.6651C83.9065 24.7835 83.8919 25.1145 83.8747 25.4992C83.8688 25.637 83.8631 25.7762 83.8673 25.9227C83.8686 25.967 83.8703 25.9699 83.9148 25.9818C83.9209 25.9834 83.9281 25.9854 83.936 25.9875C84.016 26.0089 84.1418 26.0251 84.2899 26.0355C84.5594 26.0549 84.9258 26.0882 85.3735 26.2082C85.6233 26.2751 85.875 26.3656 86.1218 26.4773C86.6495 26.7159 87.0144 27.1498 87.4009 27.6091C87.92 28.2257 88.4564 28.8636 89.4633 29.1334C89.5073 29.1452 89.5506 29.1553 89.5942 29.1647L89.6057 29.1672L89.6168 29.1711C89.6409 29.1799 89.6655 29.1876 89.6909 29.1944C90.6977 29.4642 91.4814 29.1802 92.2391 28.9055C92.8035 28.701 93.3367 28.5077 93.913 28.565C94.1823 28.5917 94.4458 28.6391 94.6955 28.706C95.143 28.8259 95.4755 28.9875 95.7181 29.1055C95.8516 29.1704 95.9672 29.2263 96.0469 29.2477C96.1123 29.2652 96.1145 29.2617 96.1408 29.2188C96.2177 29.094 96.2833 28.9675 96.3469 28.8453C96.5247 28.5032 96.6781 28.2076 96.9717 28.2404C98.8492 28.4486 99.2375 28.1591 99.3116 28.0656C99.3232 28.0508 99.3303 28.0375 99.3344 28.0251C96.7607 26.8665 96.2779 23.8858 96.2488 23.6897C96.1631 23.2698 96.2186 22.9315 96.4138 22.6842C96.7596 22.2458 97.4456 22.2169 97.8994 22.1979C98.0037 22.1936 98.0936 22.1897 98.1632 22.182C98.7636 22.1155 98.9881 21.9466 98.998 21.8105C99.0092 21.6534 98.7877 21.4314 98.559 21.3701C98.5076 21.3563 98.4603 21.3524 98.4228 21.3589C98.0052 21.4313 97.6427 21.4276 97.3452 21.3479C96.8776 21.2226 96.7271 20.952 96.7113 20.9214L96.6756 20.8519L96.6998 20.778C96.7561 20.6053 96.817 20.4249 96.8799 20.2392C97.2757 19.0658 97.7685 17.6065 97.618 16.6871C97.1622 13.9052 94.838 13.0774 94.1367 12.8895C94.1195 12.8849 93.8154 12.8001 93.8154 12.8001C93.803 12.7967 93.7892 12.7928 93.7746 12.7889ZM93.8893 12.3608L93.8902 12.361C93.9061 12.3653 93.9211 12.3693 93.9354 12.3733C94.049 12.405 94.2359 12.457 94.2526 12.4617C94.6634 12.5718 95.47 12.8493 96.2498 13.4708C96.6957 13.8259 97.07 14.2449 97.3625 14.7161C97.7112 15.2777 97.9464 15.9178 98.0611 16.6189C98.2293 17.6455 97.7178 19.1617 97.3068 20.3802L97.306 20.3821C97.262 20.5126 97.216 20.6488 97.1717 20.7817C97.225 20.8255 97.3155 20.8809 97.4605 20.9198C97.6938 20.9823 97.9909 20.9829 98.3434 20.9218C98.447 20.9041 98.5581 20.9109 98.6743 20.942C98.861 20.9921 99.0432 21.0991 99.1874 21.2439C99.3688 21.4261 99.4604 21.6393 99.4458 21.8446C99.4361 21.9803 99.3665 22.2352 99.0102 22.4171C98.8141 22.5172 98.547 22.5865 98.2163 22.6231C98.1296 22.6326 98.0285 22.6368 97.9215 22.6413C97.55 22.657 96.9879 22.6806 96.7684 22.9587C96.6572 23.0997 96.6305 23.3173 96.689 23.6047C96.6905 23.6125 96.692 23.6201 96.6931 23.628C96.7052 23.7094 96.8233 24.448 97.2417 25.3056C97.4793 25.7933 97.7693 26.2253 98.1028 26.5898C98.5098 27.0347 98.9861 27.382 99.5185 27.6217C99.7276 27.7157 99.8322 27.9498 99.7614 28.1652C99.7408 28.2271 99.709 28.2859 99.6668 28.3398C99.6665 28.3401 99.6662 28.3404 99.6659 28.3407C99.5228 28.5212 99.2714 28.6397 98.8972 28.7034C98.4401 28.7811 97.7891 28.775 96.9627 28.6853C96.9024 28.7499 96.8101 28.928 96.7465 29.0498C96.6794 29.1795 96.61 29.3127 96.5249 29.4511C96.4328 29.6011 96.2551 29.7622 95.9327 29.6758C95.8105 29.6431 95.6773 29.5782 95.5229 29.5035C95.297 29.3934 94.988 29.2431 94.5813 29.1342C94.3558 29.0737 94.1169 29.0307 93.8713 29.0063C93.3979 28.9593 92.9339 29.1273 92.397 29.3219C91.6112 29.6067 90.7217 29.9291 89.5768 29.6223C89.5456 29.6139 89.5145 29.6045 89.4842 29.5941C89.4459 29.5857 89.3986 29.5745 89.3491 29.5613C88.2039 29.2544 87.595 28.5304 87.0574 27.8914L87.0566 27.8902C86.6888 27.4535 86.3713 27.0766 85.938 26.8806C85.7132 26.779 85.4848 26.6968 85.2592 26.6363C84.8707 26.5322 84.5499 26.4987 84.261 26.478C84.0724 26.4648 83.9286 26.4443 83.8217 26.4156L83.8112 26.413L83.8004 26.4101C83.5646 26.3469 83.4256 26.1727 83.4194 25.9312C83.4149 25.7722 83.4206 25.6255 83.4272 25.4772C83.4328 25.3485 83.4419 25.1423 83.4222 25.0555C82.6611 24.7196 82.0945 24.3997 81.7373 24.1039C81.4458 23.8626 81.2875 23.6345 81.2531 23.4073C81.2427 23.3392 81.2441 23.2719 81.2578 23.2066C81.3038 22.9851 81.5117 22.8342 81.74 22.8574C84.3217 23.1176 86.1088 20.9059 86.1835 20.8116C86.1884 20.8053 86.1936 20.7993 86.1989 20.7934C86.3933 20.5738 86.4786 20.3721 86.4528 20.1941C86.402 19.8438 85.9273 19.5425 85.6132 19.3431C85.5222 19.2856 85.4365 19.2312 85.3668 19.1799C85.0645 18.9578 84.8615 18.7503 84.7458 18.5454C84.6075 18.3011 84.6201 18.1059 84.6549 17.9853C84.7393 17.6935 85.0362 17.4936 85.4316 17.4628C85.567 17.4456 85.7132 17.4566 85.8548 17.4946C85.9513 17.5204 86.0906 17.5718 86.2091 17.6703C86.4627 17.8816 86.7023 18.0242 86.9221 18.0943C87.042 18.1201 87.1318 18.117 87.1921 18.1072C87.216 17.9909 87.24 17.8714 87.2651 17.7467L87.276 17.6934C87.5291 16.4317 87.8442 14.8616 88.5035 14.056C88.9552 13.5043 89.4807 13.0665 90.0656 12.7541C90.556 12.4924 91.0913 12.3172 91.6568 12.2332C92.6408 12.0874 93.478 12.2506 93.8893 12.3608Z" fill="#020202"/>
<rect x="3.06186" y="-1.76777" width="31" height="31" rx="10.5" transform="matrix(-0.965926 -0.258819 -0.258819 0.965926 113.249 12.5399)" stroke="white" stroke-width="5"/>
<defs>
<filter id="filter0_f_2118_19765" x="-0.407104" y="-3.1084" width="40.5529" height="42.2598" filterUnits="userSpaceOnUse" color-interpolation-filters="sRGB">
<feFlood flood-opacity="0" result="BackgroundImageFix"/>
<feBlend mode="normal" in="SourceGraphic" in2="BackgroundImageFix" result="shape"/>
<feGaussianBlur stdDeviation="5" result="effect1_foregroundBlur_2118_19765"/>
</filter>
<filter id="filter1_f_2118_19765" x="-4.01965" y="-2.00391" width="44.9071" height="34.9141" filterUnits="userSpaceOnUse" color-interpolation-filters="sRGB">
<feFlood flood-opacity="0" result="BackgroundImageFix"/>
<feBlend mode="normal" in="SourceGraphic" in2="BackgroundImageFix" result="shape"/>
<feGaussianBlur stdDeviation="5" result="effect1_foregroundBlur_2118_19765"/>
</filter>
<filter id="filter2_f_2118_19765" x="-4.18616" y="-0.530273" width="45.8374" height="42.2568" filterUnits="userSpaceOnUse" color-interpolation-filters="sRGB">
<feFlood flood-opacity="0" result="BackgroundImageFix"/>
<feBlend mode="normal" in="SourceGraphic" in2="BackgroundImageFix" result="shape"/>
<feGaussianBlur stdDeviation="5" result="effect1_foregroundBlur_2118_19765"/>
</filter>
<filter id="filter3_f_2118_19765" x="-4.18518" y="0.938477" width="46.2977" height="40.5088" filterUnits="userSpaceOnUse" color-interpolation-filters="sRGB">
<feFlood flood-opacity="0" result="BackgroundImageFix"/>
<feBlend mode="normal" in="SourceGraphic" in2="BackgroundImageFix" result="shape"/>
<feGaussianBlur stdDeviation="5" result="effect1_foregroundBlur_2118_19765"/>
</filter>
<filter id="filter4_f_2118_19765" x="-3.93286" y="2.39648" width="46.7057" height="37.4883" filterUnits="userSpaceOnUse" color-interpolation-filters="sRGB">
<feFlood flood-opacity="0" result="BackgroundImageFix"/>
<feBlend mode="normal" in="SourceGraphic" in2="BackgroundImageFix" result="shape"/>
<feGaussianBlur stdDeviation="5" result="effect1_foregroundBlur_2118_19765"/>
</filter>
<filter id="filter5_f_2118_19765" x="-3.48279" y="3.87012" width="47.2609" height="33.5127" filterUnits="userSpaceOnUse" color-interpolation-filters="sRGB">
<feFlood flood-opacity="0" result="BackgroundImageFix"/>
<feBlend mode="normal" in="SourceGraphic" in2="BackgroundImageFix" result="shape"/>
<feGaussianBlur stdDeviation="5" result="effect1_foregroundBlur_2118_19765"/>
</filter>
<filter id="filter6_f_2118_19765" x="-3.00159" y="5.32812" width="47.0353" height="32.3408" filterUnits="userSpaceOnUse" color-interpolation-filters="sRGB">
<feFlood flood-opacity="0" result="BackgroundImageFix"/>
<feBlend mode="normal" in="SourceGraphic" in2="BackgroundImageFix" result="shape"/>
<feGaussianBlur stdDeviation="5" result="effect1_foregroundBlur_2118_19765"/>
</filter>
<filter id="filter7_f_2118_19765" x="-2.5033" y="6.78809" width="46.5372" height="31.1836" filterUnits="userSpaceOnUse" color-interpolation-filters="sRGB">
<feFlood flood-opacity="0" result="BackgroundImageFix"/>
<feBlend mode="normal" in="SourceGraphic" in2="BackgroundImageFix" result="shape"/>
<feGaussianBlur stdDeviation="5" result="effect1_foregroundBlur_2118_19765"/>
</filter>
<filter id="filter8_f_2118_19765" x="-1.93872" y="8.25977" width="45.575" height="32.6309" filterUnits="userSpaceOnUse" color-interpolation-filters="sRGB">
<feFlood flood-opacity="0" result="BackgroundImageFix"/>
<feBlend mode="normal" in="SourceGraphic" in2="BackgroundImageFix" result="shape"/>
<feGaussianBlur stdDeviation="5" result="effect1_foregroundBlur_2118_19765"/>
</filter>
<filter id="filter9_f_2118_19765" x="-1.30237" y="9.72363" width="44.0162" height="32.6953" filterUnits="userSpaceOnUse" color-interpolation-filters="sRGB">
<feFlood flood-opacity="0" result="BackgroundImageFix"/>
<feBlend mode="normal" in="SourceGraphic" in2="BackgroundImageFix" result="shape"/>
<feGaussianBlur stdDeviation="5" result="effect1_foregroundBlur_2118_19765"/>
</filter>
<filter id="filter10_f_2118_19765" x="-0.331055" y="11.1904" width="41.8053" height="32.6709" filterUnits="userSpaceOnUse" color-interpolation-filters="sRGB">
<feFlood flood-opacity="0" result="BackgroundImageFix"/>
<feBlend mode="normal" in="SourceGraphic" in2="BackgroundImageFix" result="shape"/>
<feGaussianBlur stdDeviation="5" result="effect1_foregroundBlur_2118_19765"/>
</filter>
<filter id="filter11_f_2118_19765" x="1.104" y="12.6562" width="39.0691" height="32.252" filterUnits="userSpaceOnUse" color-interpolation-filters="sRGB">
<feFlood flood-opacity="0" result="BackgroundImageFix"/>
<feBlend mode="normal" in="SourceGraphic" in2="BackgroundImageFix" result="shape"/>
<feGaussianBlur stdDeviation="5" result="effect1_foregroundBlur_2118_19765"/>
</filter>
<filter id="filter12_f_2118_19765" x="2.57996" y="14.1182" width="36.1693" height="30.9902" filterUnits="userSpaceOnUse" color-interpolation-filters="sRGB">
<feFlood flood-opacity="0" result="BackgroundImageFix"/>
<feBlend mode="normal" in="SourceGraphic" in2="BackgroundImageFix" result="shape"/>
<feGaussianBlur stdDeviation="5" result="effect1_foregroundBlur_2118_19765"/>
</filter>
<filter id="filter13_f_2118_19765" x="4.04968" y="15.5869" width="33.2181" height="29.5215" filterUnits="userSpaceOnUse" color-interpolation-filters="sRGB">
<feFlood flood-opacity="0" result="BackgroundImageFix"/>
<feBlend mode="normal" in="SourceGraphic" in2="BackgroundImageFix" result="shape"/>
<feGaussianBlur stdDeviation="5" result="effect1_foregroundBlur_2118_19765"/>
</filter>
<filter id="filter14_f_2118_19765" x="5.53149" y="17.1182" width="30.2697" height="27.9736" filterUnits="userSpaceOnUse" color-interpolation-filters="sRGB">
<feFlood flood-opacity="0" result="BackgroundImageFix"/>
<feBlend mode="normal" in="SourceGraphic" in2="BackgroundImageFix" result="shape"/>
<feGaussianBlur stdDeviation="5" result="effect1_foregroundBlur_2118_19765"/>
</filter>
<filter id="filter15_f_2118_19765" x="6.99573" y="18.584" width="27.3135" height="26.1943" filterUnits="userSpaceOnUse" color-interpolation-filters="sRGB">
<feFlood flood-opacity="0" result="BackgroundImageFix"/>
<feBlend mode="normal" in="SourceGraphic" in2="BackgroundImageFix" result="shape"/>
<feGaussianBlur stdDeviation="5" result="effect1_foregroundBlur_2118_19765"/>
</filter>
</defs>
</svg>
