<svg width="240" height="22" viewBox="0 0 240 22" fill="none" xmlns="http://www.w3.org/2000/svg">
<path d="M6.94453 14.626L11.5529 1.35938H13.798L8.00801 17H6.40742L6.94453 14.626ZM2.63692 1.35938L7.20235 14.626L7.77168 17H6.1711L0.3918 1.35938H2.63692ZM14.9322 11.3174V11.0703C14.9322 10.2324 15.054 9.4554 15.2975 8.73926C15.541 8.01595 15.8919 7.38932 16.3502 6.85938C16.8085 6.32227 17.3635 5.9069 18.0152 5.61328C18.6669 5.3125 19.3974 5.16211 20.2066 5.16211C21.0231 5.16211 21.7571 5.3125 22.4088 5.61328C23.0676 5.9069 23.6262 6.32227 24.0846 6.85938C24.5501 7.38932 24.9046 8.01595 25.1481 8.73926C25.3915 9.4554 25.5133 10.2324 25.5133 11.0703V11.3174C25.5133 12.1553 25.3915 12.9323 25.1481 13.6484C24.9046 14.3646 24.5501 14.9912 24.0846 15.5283C23.6262 16.0583 23.0712 16.4736 22.4195 16.7744C21.775 17.068 21.0445 17.2148 20.2281 17.2148C19.4117 17.2148 18.6777 17.068 18.026 16.7744C17.3743 16.4736 16.8157 16.0583 16.3502 15.5283C15.8919 14.9912 15.541 14.3646 15.2975 13.6484C15.054 12.9323 14.9322 12.1553 14.9322 11.3174ZM16.9195 11.0703V11.3174C16.9195 11.8975 16.9876 12.4453 17.1236 12.9609C17.2597 13.4694 17.4638 13.9206 17.7359 14.3145C18.0152 14.7083 18.3626 15.0199 18.7779 15.249C19.1933 15.471 19.6767 15.582 20.2281 15.582C20.7724 15.582 21.2486 15.471 21.6568 15.249C22.0722 15.0199 22.416 14.7083 22.6881 14.3145C22.9602 13.9206 23.1643 13.4694 23.3004 12.9609C23.4436 12.4453 23.5152 11.8975 23.5152 11.3174V11.0703C23.5152 10.4974 23.4436 9.95671 23.3004 9.44824C23.1643 8.93262 22.9566 8.47786 22.6773 8.08398C22.4052 7.68294 22.0615 7.36784 21.6461 7.13867C21.2379 6.90951 20.7581 6.79492 20.2066 6.79492C19.6624 6.79492 19.1826 6.90951 18.7672 7.13867C18.359 7.36784 18.0152 7.68294 17.7359 8.08398C17.4638 8.47786 17.2597 8.93262 17.1236 9.44824C16.9876 9.95671 16.9195 10.4974 16.9195 11.0703ZM30.5147 5.37695V17H28.5166V5.37695H30.5147ZM28.3662 2.29395C28.3662 1.97168 28.4629 1.69954 28.6563 1.47754C28.8568 1.25553 29.1504 1.14453 29.5371 1.14453C29.9167 1.14453 30.2067 1.25553 30.4072 1.47754C30.6149 1.69954 30.7188 1.97168 30.7188 2.29395C30.7188 2.60189 30.6149 2.86686 30.4072 3.08887C30.2067 3.30371 29.9167 3.41113 29.5371 3.41113C29.1504 3.41113 28.8568 3.30371 28.6563 3.08887C28.4629 2.86686 28.3662 2.60189 28.3662 2.29395ZM38.7064 15.582C39.1791 15.582 39.616 15.4854 40.017 15.292C40.418 15.0986 40.7475 14.8337 41.0053 14.4971C41.2631 14.1533 41.4099 13.763 41.4457 13.3262H43.3363C43.3005 14.0137 43.0678 14.6546 42.6381 15.249C42.2156 15.8363 41.6605 16.3125 40.973 16.6777C40.2855 17.0358 39.53 17.2148 38.7064 17.2148C37.8327 17.2148 37.0701 17.0609 36.4184 16.7529C35.7738 16.445 35.2367 16.0225 34.807 15.4854C34.3845 14.9482 34.0658 14.3324 33.851 13.6377C33.6433 12.9359 33.5395 12.1947 33.5395 11.4141V10.9629C33.5395 10.1823 33.6433 9.44466 33.851 8.75C34.0658 8.04818 34.3845 7.42871 34.807 6.8916C35.2367 6.35449 35.7738 5.93197 36.4184 5.62402C37.0701 5.31608 37.8327 5.16211 38.7064 5.16211C39.616 5.16211 40.4109 5.34831 41.0912 5.7207C41.7716 6.08594 42.3051 6.58724 42.6918 7.22461C43.0857 7.85482 43.3005 8.57096 43.3363 9.37305H41.4457C41.4099 8.89323 41.2738 8.45996 41.0375 8.07324C40.8083 7.68652 40.4932 7.37858 40.0922 7.14941C39.6983 6.91309 39.2364 6.79492 38.7064 6.79492C38.0977 6.79492 37.5857 6.91667 37.1703 7.16016C36.7621 7.39648 36.4363 7.71875 36.1928 8.12695C35.9564 8.52799 35.7846 8.97559 35.6772 9.46973C35.5769 9.95671 35.5268 10.4544 35.5268 10.9629V11.4141C35.5268 11.9225 35.5769 12.4238 35.6772 12.918C35.7774 13.4121 35.9457 13.8597 36.182 14.2607C36.4255 14.6618 36.7514 14.984 37.1596 15.2275C37.5749 15.4639 38.0906 15.582 38.7064 15.582ZM50.7439 17.2148C49.9347 17.2148 49.2007 17.0788 48.5418 16.8066C47.8901 16.5273 47.3279 16.137 46.8553 15.6357C46.3898 15.1344 46.0317 14.54 45.7811 13.8525C45.5304 13.165 45.4051 12.4131 45.4051 11.5967V11.1455C45.4051 10.2002 45.5447 9.35872 45.824 8.62109C46.1033 7.8763 46.4829 7.24609 46.9627 6.73047C47.4425 6.21484 47.9868 5.82454 48.5955 5.55957C49.2042 5.2946 49.8344 5.16211 50.4861 5.16211C51.3169 5.16211 52.033 5.30534 52.6346 5.5918C53.2433 5.87826 53.741 6.2793 54.1277 6.79492C54.5145 7.30339 54.8009 7.90495 54.9871 8.59961C55.1733 9.28711 55.2664 10.0391 55.2664 10.8555V11.7471H46.5867V10.125H53.2791V9.97461C53.2505 9.45898 53.143 8.95768 52.9568 8.4707C52.7778 7.98372 52.4913 7.58268 52.0975 7.26758C51.7036 6.95247 51.1665 6.79492 50.4861 6.79492C50.035 6.79492 49.6196 6.8916 49.24 7.08496C48.8605 7.27116 48.5346 7.55046 48.2625 7.92285C47.9904 8.29525 47.7791 8.75 47.6287 9.28711C47.4783 9.82422 47.4031 10.4437 47.4031 11.1455V11.5967C47.4031 12.1481 47.4783 12.6673 47.6287 13.1543C47.7863 13.6341 48.0119 14.0566 48.3055 14.4219C48.6063 14.7871 48.9679 15.0736 49.3904 15.2812C49.8201 15.4889 50.3071 15.5928 50.8514 15.5928C51.5532 15.5928 52.1476 15.4495 52.6346 15.1631C53.1216 14.8766 53.5477 14.4935 53.9129 14.0137L55.116 14.9697C54.8654 15.3493 54.5467 15.7109 54.16 16.0547C53.7732 16.3984 53.297 16.6777 52.7313 16.8926C52.1727 17.1074 51.5102 17.2148 50.7439 17.2148ZM65.9029 5.37695V17H63.9049V5.37695H65.9029ZM63.7545 2.29395C63.7545 1.97168 63.8512 1.69954 64.0445 1.47754C64.2451 1.25553 64.5387 1.14453 64.9254 1.14453C65.3049 1.14453 65.595 1.25553 65.7955 1.47754C66.0032 1.69954 66.107 1.97168 66.107 2.29395C66.107 2.60189 66.0032 2.86686 65.7955 3.08887C65.595 3.30371 65.3049 3.41113 64.9254 3.41113C64.5387 3.41113 64.2451 3.30371 64.0445 3.08887C63.8512 2.86686 63.7545 2.60189 63.7545 2.29395ZM76.2109 13.917C76.2109 13.6305 76.1465 13.3656 76.0176 13.1221C75.8958 12.8714 75.6416 12.6458 75.2549 12.4453C74.8753 12.2376 74.3024 12.0586 73.5361 11.9082C72.8916 11.7721 72.3079 11.611 71.7852 11.4248C71.2695 11.2386 70.8291 11.013 70.4639 10.748C70.1058 10.4831 69.8301 10.1715 69.6367 9.81348C69.4434 9.4554 69.3467 9.03646 69.3467 8.55664C69.3467 8.09831 69.4469 7.66504 69.6475 7.25684C69.8551 6.84863 70.1452 6.48698 70.5176 6.17188C70.8971 5.85677 71.3519 5.6097 71.8818 5.43066C72.4118 5.25163 73.0026 5.16211 73.6543 5.16211C74.5853 5.16211 75.3802 5.32682 76.0391 5.65625C76.6979 5.98568 77.2028 6.42611 77.5537 6.97754C77.9046 7.52181 78.0801 8.12695 78.0801 8.79297H76.0928C76.0928 8.4707 75.9961 8.15918 75.8027 7.8584C75.6165 7.55046 75.3408 7.29622 74.9756 7.0957C74.6175 6.89518 74.1771 6.79492 73.6543 6.79492C73.1029 6.79492 72.6553 6.88086 72.3115 7.05273C71.9749 7.21745 71.7279 7.42871 71.5703 7.68652C71.4199 7.94434 71.3447 8.21647 71.3447 8.50293C71.3447 8.71777 71.3805 8.91113 71.4521 9.08301C71.5309 9.24772 71.667 9.40169 71.8604 9.54492C72.0537 9.68099 72.3258 9.8099 72.6768 9.93164C73.0277 10.0534 73.4753 10.1751 74.0195 10.2969C74.972 10.5117 75.7562 10.7695 76.3721 11.0703C76.988 11.3711 77.4463 11.7399 77.7471 12.1768C78.0479 12.6136 78.1982 13.1436 78.1982 13.7666C78.1982 14.2751 78.0908 14.7406 77.876 15.1631C77.6683 15.5856 77.3639 15.9508 76.9629 16.2588C76.569 16.5596 76.0964 16.7959 75.5449 16.9678C75.0007 17.1325 74.3883 17.2148 73.708 17.2148C72.6839 17.2148 71.8174 17.0322 71.1084 16.667C70.3994 16.3018 69.8623 15.8291 69.4971 15.249C69.1318 14.6689 68.9492 14.0566 68.9492 13.4121H70.9473C70.9759 13.9564 71.1335 14.3896 71.4199 14.7119C71.7064 15.027 72.0573 15.2526 72.4727 15.3887C72.888 15.5176 73.2998 15.582 73.708 15.582C74.2523 15.582 74.707 15.5104 75.0723 15.3672C75.4447 15.224 75.7275 15.027 75.9209 14.7764C76.1143 14.5257 76.2109 14.2393 76.2109 13.917ZM88.9529 7.61133V21.4688H86.9549V5.37695H88.7811L88.9529 7.61133ZM96.784 11.0918V11.3174C96.784 12.1624 96.6837 12.9466 96.4832 13.6699C96.2827 14.3861 95.9891 15.0091 95.6023 15.5391C95.2228 16.069 94.7537 16.4808 94.1951 16.7744C93.6365 17.068 92.9956 17.2148 92.2723 17.2148C91.5346 17.2148 90.8829 17.0931 90.3172 16.8496C89.7514 16.6061 89.2716 16.2516 88.8777 15.7861C88.4839 15.3206 88.1688 14.762 87.9324 14.1104C87.7033 13.4587 87.5457 12.7246 87.4598 11.9082V10.7051C87.5457 9.8457 87.7068 9.07585 87.9432 8.39551C88.1795 7.71517 88.491 7.13509 88.8777 6.65527C89.2716 6.16829 89.7479 5.79948 90.3064 5.54883C90.865 5.29102 91.5096 5.16211 92.24 5.16211C92.9705 5.16211 93.6186 5.30534 94.1844 5.5918C94.7501 5.87109 95.2264 6.27214 95.6131 6.79492C95.9998 7.31771 96.2898 7.94434 96.4832 8.6748C96.6837 9.39811 96.784 10.2038 96.784 11.0918ZM94.7859 11.3174V11.0918C94.7859 10.5117 94.7251 9.96745 94.6033 9.45898C94.4816 8.94336 94.2918 8.49219 94.034 8.10547C93.7833 7.71159 93.4611 7.40365 93.0672 7.18164C92.6733 6.95247 92.2042 6.83789 91.66 6.83789C91.1587 6.83789 90.7218 6.92383 90.3494 7.0957C89.9842 7.26758 89.6727 7.50033 89.4148 7.79395C89.157 8.0804 88.9458 8.40983 88.7811 8.78223C88.6235 9.14746 88.5053 9.52702 88.4266 9.9209V12.7031C88.5698 13.2044 88.7703 13.6771 89.0281 14.1211C89.2859 14.5579 89.6297 14.9124 90.0594 15.1846C90.4891 15.4495 91.0298 15.582 91.6814 15.582C92.2186 15.582 92.6805 15.471 93.0672 15.249C93.4611 15.0199 93.7833 14.7083 94.034 14.3145C94.2918 13.9206 94.4816 13.4694 94.6033 12.9609C94.7251 12.4453 94.7859 11.8975 94.7859 11.3174ZM99.1428 11.3174V11.0703C99.1428 10.2324 99.2645 9.4554 99.508 8.73926C99.7515 8.01595 100.102 7.38932 100.561 6.85938C101.019 6.32227 101.574 5.9069 102.226 5.61328C102.877 5.3125 103.608 5.16211 104.417 5.16211C105.234 5.16211 105.968 5.3125 106.619 5.61328C107.278 5.9069 107.837 6.32227 108.295 6.85938C108.761 7.38932 109.115 8.01595 109.359 8.73926C109.602 9.4554 109.724 10.2324 109.724 11.0703V11.3174C109.724 12.1553 109.602 12.9323 109.359 13.6484C109.115 14.3646 108.761 14.9912 108.295 15.5283C107.837 16.0583 107.282 16.4736 106.63 16.7744C105.986 17.068 105.255 17.2148 104.439 17.2148C103.622 17.2148 102.888 17.068 102.237 16.7744C101.585 16.4736 101.026 16.0583 100.561 15.5283C100.102 14.9912 99.7515 14.3646 99.508 13.6484C99.2645 12.9323 99.1428 12.1553 99.1428 11.3174ZM101.13 11.0703V11.3174C101.13 11.8975 101.198 12.4453 101.334 12.9609C101.47 13.4694 101.674 13.9206 101.946 14.3145C102.226 14.7083 102.573 15.0199 102.988 15.249C103.404 15.471 103.887 15.582 104.439 15.582C104.983 15.582 105.459 15.471 105.867 15.249C106.283 15.0199 106.627 14.7083 106.899 14.3145C107.171 13.9206 107.375 13.4694 107.511 12.9609C107.654 12.4453 107.726 11.8975 107.726 11.3174V11.0703C107.726 10.4974 107.654 9.95671 107.511 9.44824C107.375 8.93262 107.167 8.47786 106.888 8.08398C106.616 7.68294 106.272 7.36784 105.857 7.13867C105.448 6.90951 104.969 6.79492 104.417 6.79492C103.873 6.79492 103.393 6.90951 102.978 7.13867C102.57 7.36784 102.226 7.68294 101.946 8.08398C101.674 8.47786 101.47 8.93262 101.334 9.44824C101.198 9.95671 101.13 10.4974 101.13 11.0703ZM115.509 14.9375L118.496 5.37695H119.806L119.548 7.27832L116.508 17H115.23L115.509 14.9375ZM113.501 5.37695L116.046 15.0449L116.229 17H114.886L111.513 5.37695H113.501ZM122.664 14.9697L125.091 5.37695H127.068L123.695 17H122.363L122.664 14.9697ZM120.096 5.37695L123.018 14.7764L123.351 17H122.084L118.958 7.25684L118.7 5.37695H120.096ZM134.282 17.2148C133.473 17.2148 132.739 17.0788 132.08 16.8066C131.428 16.5273 130.866 16.137 130.394 15.6357C129.928 15.1344 129.57 14.54 129.319 13.8525C129.069 13.165 128.943 12.4131 128.943 11.5967V11.1455C128.943 10.2002 129.083 9.35872 129.362 8.62109C129.642 7.8763 130.021 7.24609 130.501 6.73047C130.981 6.21484 131.525 5.82454 132.134 5.55957C132.743 5.2946 133.373 5.16211 134.024 5.16211C134.855 5.16211 135.571 5.30534 136.173 5.5918C136.782 5.87826 137.279 6.2793 137.666 6.79492C138.053 7.30339 138.339 7.90495 138.525 8.59961C138.712 9.28711 138.805 10.0391 138.805 10.8555V11.7471H130.125V10.125H136.817V9.97461C136.789 9.45898 136.681 8.95768 136.495 8.4707C136.316 7.98372 136.03 7.58268 135.636 7.26758C135.242 6.95247 134.705 6.79492 134.024 6.79492C133.573 6.79492 133.158 6.8916 132.778 7.08496C132.399 7.27116 132.073 7.55046 131.801 7.92285C131.529 8.29525 131.317 8.75 131.167 9.28711C131.017 9.82422 130.941 10.4437 130.941 11.1455V11.5967C130.941 12.1481 131.017 12.6673 131.167 13.1543C131.325 13.6341 131.55 14.0566 131.844 14.4219C132.145 14.7871 132.506 15.0736 132.929 15.2812C133.358 15.4889 133.845 15.5928 134.39 15.5928C135.091 15.5928 135.686 15.4495 136.173 15.1631C136.66 14.8766 137.086 14.4935 137.451 14.0137L138.654 14.9697C138.404 15.3493 138.085 15.7109 137.698 16.0547C137.312 16.3984 136.835 16.6777 136.27 16.8926C135.711 17.1074 135.049 17.2148 134.282 17.2148ZM143.462 7.20312V17H141.475V5.37695H143.409L143.462 7.20312ZM147.093 5.3125L147.082 7.16016C146.918 7.12435 146.76 7.10286 146.61 7.0957C146.467 7.08138 146.302 7.07422 146.116 7.07422C145.657 7.07422 145.253 7.14583 144.902 7.28906C144.551 7.43229 144.254 7.63281 144.01 7.89062C143.767 8.14844 143.573 8.45638 143.43 8.81445C143.294 9.16536 143.204 9.55208 143.162 9.97461L142.603 10.2969C142.603 9.59505 142.671 8.9362 142.807 8.32031C142.95 7.70443 143.169 7.16016 143.462 6.6875C143.756 6.20768 144.128 5.83529 144.579 5.57031C145.038 5.29818 145.582 5.16211 146.212 5.16211C146.356 5.16211 146.52 5.18001 146.706 5.21582C146.893 5.24447 147.022 5.27669 147.093 5.3125ZM147.98 15.9473C147.98 15.6107 148.084 15.3278 148.292 15.0986C148.507 14.8623 148.815 14.7441 149.216 14.7441C149.617 14.7441 149.921 14.8623 150.129 15.0986C150.344 15.3278 150.451 15.6107 150.451 15.9473C150.451 16.2767 150.344 16.556 150.129 16.7852C149.921 17.0143 149.617 17.1289 149.216 17.1289C148.815 17.1289 148.507 17.0143 148.292 16.7852C148.084 16.556 147.98 16.2767 147.98 15.9473Z" fill="#281E30"/>
<path d="M168.543 13.0469C168.543 12.6816 168.485 12.3594 168.371 12.0801C168.263 11.7936 168.07 11.5358 167.791 11.3066C167.518 11.0775 167.139 10.859 166.652 10.6514C166.172 10.4437 165.563 10.2324 164.826 10.0176C164.052 9.78841 163.354 9.53418 162.731 9.25488C162.108 8.96842 161.574 8.64258 161.13 8.27734C160.686 7.91211 160.346 7.49316 160.11 7.02051C159.874 6.54785 159.755 6.00716 159.755 5.39844C159.755 4.78971 159.881 4.22754 160.131 3.71191C160.382 3.19629 160.74 2.7487 161.206 2.36914C161.678 1.98242 162.241 1.68164 162.892 1.4668C163.544 1.25195 164.271 1.14453 165.073 1.14453C166.247 1.14453 167.243 1.37012 168.059 1.82129C168.883 2.2653 169.509 2.84896 169.939 3.57227C170.369 4.28841 170.584 5.05469 170.584 5.87109H168.521C168.521 5.28385 168.396 4.76465 168.145 4.31348C167.894 3.85514 167.515 3.49707 167.006 3.23926C166.498 2.97428 165.853 2.8418 165.073 2.8418C164.335 2.8418 163.727 2.9528 163.247 3.1748C162.767 3.39681 162.409 3.69759 162.172 4.07715C161.943 4.45671 161.829 4.88997 161.829 5.37695C161.829 5.70638 161.897 6.00716 162.033 6.2793C162.176 6.54427 162.394 6.79134 162.688 7.02051C162.989 7.24967 163.368 7.46094 163.827 7.6543C164.292 7.84766 164.847 8.03385 165.492 8.21289C166.38 8.46354 167.146 8.74284 167.791 9.05078C168.435 9.35872 168.965 9.70605 169.38 10.0928C169.803 10.4723 170.115 10.9056 170.315 11.3926C170.523 11.8724 170.627 12.4167 170.627 13.0254C170.627 13.6628 170.498 14.2393 170.24 14.7549C169.982 15.2705 169.613 15.7109 169.133 16.0762C168.654 16.4414 168.077 16.7243 167.404 16.9248C166.738 17.1182 165.993 17.2148 165.17 17.2148C164.446 17.2148 163.734 17.1146 163.032 16.9141C162.337 16.7135 161.703 16.4128 161.13 16.0117C160.565 15.6107 160.11 15.1165 159.766 14.5293C159.43 13.9349 159.261 13.2474 159.261 12.4668H161.324C161.324 13.0039 161.428 13.4658 161.635 13.8525C161.843 14.2321 162.126 14.5472 162.484 14.7979C162.849 15.0485 163.261 15.2347 163.719 15.3564C164.185 15.471 164.668 15.5283 165.17 15.5283C165.893 15.5283 166.505 15.4281 167.006 15.2275C167.508 15.027 167.887 14.7406 168.145 14.3682C168.41 13.9958 168.543 13.5553 168.543 13.0469ZM175.306 0.5V17H173.318V0.5H175.306ZM174.833 10.748L174.006 10.7158C174.013 9.9209 174.131 9.18685 174.36 8.51367C174.59 7.83333 174.912 7.24251 175.327 6.74121C175.743 6.23991 176.237 5.85319 176.81 5.58105C177.39 5.30176 178.031 5.16211 178.732 5.16211C179.305 5.16211 179.821 5.24089 180.279 5.39844C180.738 5.54883 181.128 5.79232 181.45 6.12891C181.78 6.46549 182.03 6.90234 182.202 7.43945C182.374 7.9694 182.46 8.61751 182.46 9.38379V17H180.462V9.3623C180.462 8.75358 180.372 8.2666 180.193 7.90137C180.014 7.52897 179.753 7.26042 179.409 7.0957C179.065 6.92383 178.643 6.83789 178.142 6.83789C177.647 6.83789 177.196 6.94173 176.788 7.14941C176.387 7.3571 176.04 7.64355 175.746 8.00879C175.46 8.37402 175.234 8.79297 175.069 9.26562C174.912 9.73112 174.833 10.2253 174.833 10.748ZM192.639 15.0127V9.0293C192.639 8.57096 192.546 8.1735 192.36 7.83691C192.181 7.49316 191.909 7.22819 191.543 7.04199C191.178 6.85579 190.727 6.7627 190.19 6.7627C189.689 6.7627 189.248 6.84863 188.869 7.02051C188.496 7.19238 188.203 7.41797 187.988 7.69727C187.78 7.97656 187.676 8.27734 187.676 8.59961H185.689C185.689 8.18424 185.796 7.77246 186.011 7.36426C186.226 6.95605 186.534 6.58724 186.935 6.25781C187.343 5.92122 187.83 5.65625 188.396 5.46289C188.969 5.26237 189.606 5.16211 190.308 5.16211C191.153 5.16211 191.898 5.30534 192.542 5.5918C193.194 5.87826 193.703 6.31152 194.068 6.8916C194.44 7.46452 194.626 8.18424 194.626 9.05078V14.4648C194.626 14.8516 194.659 15.2633 194.723 15.7002C194.795 16.137 194.899 16.513 195.035 16.8281V17H192.961C192.861 16.7708 192.782 16.4665 192.725 16.0869C192.668 15.7002 192.639 15.3421 192.639 15.0127ZM192.983 9.95312L193.004 11.3496H190.996C190.43 11.3496 189.925 11.3962 189.481 11.4893C189.037 11.5752 188.664 11.7077 188.364 11.8867C188.063 12.0658 187.834 12.2913 187.676 12.5635C187.519 12.8285 187.44 13.14 187.44 13.498C187.44 13.8633 187.522 14.1963 187.687 14.4971C187.852 14.7979 188.099 15.0378 188.428 15.2168C188.765 15.3887 189.177 15.4746 189.663 15.4746C190.272 15.4746 190.809 15.3457 191.275 15.0879C191.74 14.8301 192.109 14.515 192.381 14.1426C192.661 13.7702 192.811 13.4085 192.832 13.0576L193.681 14.0137C193.631 14.3145 193.495 14.6475 193.273 15.0127C193.051 15.3779 192.754 15.7288 192.381 16.0654C192.016 16.3949 191.579 16.6706 191.071 16.8926C190.569 17.1074 190.004 17.2148 189.373 17.2148C188.586 17.2148 187.895 17.0609 187.3 16.7529C186.713 16.445 186.255 16.0332 185.925 15.5176C185.603 14.9948 185.442 14.4111 185.442 13.7666C185.442 13.1436 185.564 12.5957 185.807 12.123C186.051 11.6432 186.401 11.2458 186.86 10.9307C187.318 10.6084 187.87 10.3649 188.514 10.2002C189.159 10.0355 189.878 9.95312 190.673 9.95312H192.983ZM200.09 7.20312V17H198.102V5.37695H200.036L200.09 7.20312ZM203.721 5.3125L203.71 7.16016C203.545 7.12435 203.387 7.10286 203.237 7.0957C203.094 7.08138 202.929 7.07422 202.743 7.07422C202.285 7.07422 201.88 7.14583 201.529 7.28906C201.178 7.43229 200.881 7.63281 200.637 7.89062C200.394 8.14844 200.201 8.45638 200.057 8.81445C199.921 9.16536 199.832 9.55208 199.789 9.97461L199.23 10.2969C199.23 9.59505 199.298 8.9362 199.434 8.32031C199.578 7.70443 199.796 7.16016 200.09 6.6875C200.383 6.20768 200.756 5.83529 201.207 5.57031C201.665 5.29818 202.209 5.16211 202.84 5.16211C202.983 5.16211 203.148 5.18001 203.334 5.21582C203.52 5.24447 203.649 5.27669 203.721 5.3125ZM210.516 17.2148C209.707 17.2148 208.973 17.0788 208.314 16.8066C207.662 16.5273 207.1 16.137 206.627 15.6357C206.162 15.1344 205.804 14.54 205.553 13.8525C205.302 13.165 205.177 12.4131 205.177 11.5967V11.1455C205.177 10.2002 205.317 9.35872 205.596 8.62109C205.875 7.8763 206.255 7.24609 206.735 6.73047C207.214 6.21484 207.759 5.82454 208.367 5.55957C208.976 5.2946 209.606 5.16211 210.258 5.16211C211.089 5.16211 211.805 5.30534 212.406 5.5918C213.015 5.87826 213.513 6.2793 213.9 6.79492C214.286 7.30339 214.573 7.90495 214.759 8.59961C214.945 9.28711 215.038 10.0391 215.038 10.8555V11.7471H206.359V10.125H213.051V9.97461C213.022 9.45898 212.915 8.95768 212.729 8.4707C212.55 7.98372 212.263 7.58268 211.869 7.26758C211.475 6.95247 210.938 6.79492 210.258 6.79492C209.807 6.79492 209.391 6.8916 209.012 7.08496C208.632 7.27116 208.307 7.55046 208.034 7.92285C207.762 8.29525 207.551 8.75 207.401 9.28711C207.25 9.82422 207.175 10.4437 207.175 11.1455V11.5967C207.175 12.1481 207.25 12.6673 207.401 13.1543C207.558 13.6341 207.784 14.0566 208.077 14.4219C208.378 14.7871 208.74 15.0736 209.162 15.2812C209.592 15.4889 210.079 15.5928 210.623 15.5928C211.325 15.5928 211.919 15.4495 212.406 15.1631C212.893 14.8766 213.32 14.4935 213.685 14.0137L214.888 14.9697C214.637 15.3493 214.319 15.7109 213.932 16.0547C213.545 16.3984 213.069 16.6777 212.503 16.8926C211.945 17.1074 211.282 17.2148 210.516 17.2148ZM225.675 5.37695V17H223.677V5.37695H225.675ZM223.526 2.29395C223.526 1.97168 223.623 1.69954 223.816 1.47754C224.017 1.25553 224.311 1.14453 224.697 1.14453C225.077 1.14453 225.367 1.25553 225.567 1.47754C225.775 1.69954 225.879 1.97168 225.879 2.29395C225.879 2.60189 225.775 2.86686 225.567 3.08887C225.367 3.30371 225.077 3.41113 224.697 3.41113C224.311 3.41113 224.017 3.30371 223.816 3.08887C223.623 2.86686 223.526 2.60189 223.526 2.29395ZM234.081 5.37695V6.90234H227.797V5.37695H234.081ZM229.924 2.55176H231.912V14.1211C231.912 14.515 231.972 14.8122 232.094 15.0127C232.216 15.2132 232.373 15.3457 232.567 15.4102C232.76 15.4746 232.968 15.5068 233.19 15.5068C233.355 15.5068 233.526 15.4925 233.705 15.4639C233.892 15.4281 234.031 15.3994 234.124 15.3779L234.135 17C233.978 17.0501 233.77 17.0967 233.512 17.1396C233.261 17.1898 232.957 17.2148 232.599 17.2148C232.112 17.2148 231.664 17.1182 231.256 16.9248C230.848 16.7314 230.522 16.4092 230.279 15.958C230.042 15.4997 229.924 14.8838 229.924 14.1104V2.55176ZM239.126 1.35938L238.986 12.585H237.192L237.042 1.35938H239.126ZM236.977 16.001C236.977 15.6787 237.074 15.4066 237.267 15.1846C237.468 14.9626 237.762 14.8516 238.148 14.8516C238.528 14.8516 238.818 14.9626 239.018 15.1846C239.226 15.4066 239.33 15.6787 239.33 16.001C239.33 16.3089 239.226 16.5739 239.018 16.7959C238.818 17.0179 238.528 17.1289 238.148 17.1289C237.762 17.1289 237.468 17.0179 237.267 16.7959C237.074 16.5739 236.977 16.3089 236.977 16.001Z" fill="url(#paint0_linear_2134_19836)"/>
<defs>
<linearGradient id="paint0_linear_2134_19836" x1="97.9465" y1="-6.37255" x2="96.6426" y2="17.2797" gradientUnits="userSpaceOnUse">
<stop stop-color="#CF68FF"/>
<stop offset="0.403099" stop-color="#A24EE4"/>
<stop offset="1" stop-color="#4C32EC"/>
</linearGradient>
</defs>
</svg>
