<svg width="20" height="20" viewBox="0 0 20 20" fill="none" xmlns="http://www.w3.org/2000/svg">
<path d="M6.42103 18.1498L6.02676 18.7879L6.02676 18.7879L6.42103 18.1498ZM6.04645 17.9351L6.32258 17.2378L6.32258 17.2378L6.04645 17.9351ZM5.28262 17.9509L5.4708 18.6769L5.28262 17.9509ZM5.63834 17.8734L5.69612 18.6212L5.63834 17.8734ZM2.07068 14.739L1.34467 14.5508L2.07068 14.739ZM2.14816 14.383L2.89596 14.4403L2.14816 14.383ZM1.87107 13.601L1.23406 13.9969L1.23406 13.9969L1.87107 13.601ZM2.08579 13.9737L1.38902 14.2512L2.08579 13.9737ZM1.70694 16.8838L2.44188 16.7342L1.70694 16.8838ZM3.13784 18.3147L3.28741 17.5797L3.13784 18.3147ZM6.38176 10.9531C5.96755 10.9531 5.63176 11.2889 5.63176 11.7031C5.63176 12.1174 5.96755 12.4531 6.38176 12.4531V10.9531ZM13.7151 12.4531C14.1293 12.4531 14.4651 12.1174 14.4651 11.7031C14.4651 11.2889 14.1293 10.9531 13.7151 10.9531V12.4531ZM6.38176 7.28648C5.96755 7.28648 5.63176 7.62227 5.63176 8.03648C5.63176 8.4507 5.96755 8.78648 6.38176 8.78648V7.28648ZM13.7151 8.78648C14.1293 8.78648 14.4651 8.4507 14.4651 8.03648C14.4651 7.62227 14.1293 7.28648 13.7151 7.28648V8.78648ZM4.06996 4.04868C7.35687 0.761768 12.686 0.761768 15.9729 4.04868L17.0336 2.98802C13.1609 -0.884679 6.882 -0.884679 3.0093 2.98802L4.06996 4.04868ZM15.9729 4.04868C19.2598 7.33559 19.2598 12.6647 15.9729 15.9516L17.0336 17.0123C20.9063 13.1396 20.9063 6.86072 17.0336 2.98802L15.9729 4.04868ZM2.50808 13.2051C1.5232 11.6203 1.39988 9.8554 1.78791 8.20433C2.17854 6.54223 3.07993 5.03872 4.06996 4.04868L3.0093 2.98802C1.82831 4.16901 0.784203 5.91873 0.327695 7.86115C-0.131403 9.8146 -0.00349982 12.0055 1.23406 13.9969L2.50808 13.2051ZM15.9729 15.9516C15.0295 16.895 13.5281 17.7967 11.8508 18.1979C10.1839 18.5967 8.39905 18.4906 6.8153 17.5118L6.02676 18.7879C8.027 20.024 10.2421 20.1251 12.1997 19.6568C14.1469 19.191 15.8946 18.1513 17.0336 17.0123L15.9729 15.9516ZM6.8153 17.5118C6.65019 17.4098 6.47668 17.2988 6.32258 17.2378L5.77032 18.6324C5.7542 18.626 5.75878 18.6258 5.80963 18.6555C5.85852 18.684 5.92358 18.7241 6.02676 18.7879L6.8153 17.5118ZM5.4708 18.6769C5.56687 18.652 5.62249 18.6377 5.66442 18.6282C5.70359 18.6194 5.70708 18.6204 5.69612 18.6212L5.58055 17.1257C5.41695 17.1383 5.24691 17.1854 5.09445 17.2249L5.4708 18.6769ZM6.32258 17.2378C6.07239 17.1387 5.84885 17.1049 5.58055 17.1257L5.69612 18.6212C5.7319 18.6184 5.73902 18.6207 5.73425 18.62C5.72948 18.6192 5.73695 18.6192 5.77032 18.6324L6.32258 17.2378ZM2.79669 14.9272C2.83622 14.7746 2.88337 14.6044 2.89596 14.4403L1.40036 14.3256C1.40119 14.3147 1.40221 14.3182 1.39337 14.3572C1.3839 14.3991 1.36958 14.4547 1.34467 14.5508L2.79669 14.9272ZM1.23406 13.9969C1.29776 14.0994 1.33774 14.1638 1.36613 14.2123C1.39555 14.2625 1.39536 14.2671 1.38902 14.2512L2.78257 13.6962C2.72107 13.5418 2.60996 13.3691 2.50808 13.2051L1.23406 13.9969ZM2.89596 14.4403C2.91657 14.1717 2.88226 13.9465 2.78257 13.6962L1.38902 14.2512C1.40206 14.2839 1.40215 14.2916 1.4015 14.2873C1.40085 14.2831 1.40305 14.2904 1.40036 14.3256L2.89596 14.4403ZM1.34467 14.5508C1.19792 15.117 1.07797 15.5782 1.00804 15.949C0.938764 16.3164 0.900176 16.6804 0.972008 17.0333L2.44188 16.7342C2.42919 16.6718 2.42305 16.5399 2.48206 16.227C2.54042 15.9175 2.6446 15.514 2.79669 14.9272L1.34467 14.5508ZM5.09445 17.2249C4.50764 17.377 4.1041 17.4812 3.79463 17.5395C3.48168 17.5986 3.34976 17.5924 3.28741 17.5797L2.98827 19.0496C3.34123 19.1214 3.70522 19.0828 4.07259 19.0136C4.44344 18.9436 4.90463 18.8237 5.4708 18.6769L5.09445 17.2249ZM0.972008 17.0333C1.17872 18.0491 1.97254 18.8429 2.98827 19.0496L3.28741 17.5797C2.86145 17.493 2.52856 17.1602 2.44188 16.7342L0.972008 17.0333ZM6.38176 12.4531H13.7151V10.9531H6.38176V12.4531ZM6.38176 8.78648H13.7151V7.28648H6.38176V8.78648Z" fill="url(#paint0_linear_6604_17461)"/>
<defs>
<linearGradient id="paint0_linear_6604_17461" x1="8.29305" y1="-0.0651146" x2="2.28214" y2="12.6185" gradientUnits="userSpaceOnUse">
<stop stop-color="#CF68FF"/>
<stop offset="0.403099" stop-color="#A24EE4"/>
<stop offset="1" stop-color="#4C32EC"/>
</linearGradient>
</defs>
</svg>
