<svg width="60" height="29" viewBox="0 0 60 29" fill="none" xmlns="http://www.w3.org/2000/svg">
<path d="M35 10.7151C35 8.01454 35 6.66428 35.5256 5.63281C35.9879 4.72551 36.7255 3.98785 37.6328 3.52556C38.6643 3 40.0145 3 42.7151 3H49.7872C52.4877 3 53.838 3 54.8695 3.52556C55.7768 3.98785 56.5144 4.72551 56.9767 5.63281C57.5023 6.66428 57.5023 8.01454 57.5023 10.7151V17.7872C57.5023 20.4877 57.5023 21.838 56.9767 22.8695C56.5144 23.7768 55.7768 24.5144 54.8695 24.9767C53.838 25.5023 52.4877 25.5023 49.7872 25.5023H42.7151C40.0145 25.5023 38.6643 25.5023 37.6328 24.9767C36.7255 24.5144 35.9879 23.7768 35.5256 22.8695C35 21.838 35 20.4877 35 17.7872V10.7151Z" fill="url(#paint0_linear_6602_136975)"/>
<path d="M46.2514 19.8766C50.246 19.8766 53.4843 17.178 53.4843 13.8492C53.4843 10.5203 50.246 7.82178 46.2514 7.82178C42.2568 7.82178 39.0186 10.5203 39.0186 13.8492C39.0186 15.9592 40.3196 17.8159 42.2896 18.8927C42.2236 19.4287 42.0254 20.1439 41.4295 20.6802C42.5563 20.4774 43.4556 20.0698 44.1274 19.6125C44.799 19.7842 45.5123 19.8766 46.2514 19.8766Z" fill="white"/>
<path fill-rule="evenodd" clip-rule="evenodd" d="M30.9478 24.8941C37.2903 24.8941 42.432 19.9148 42.432 13.7725C42.432 7.63019 37.2903 2.65088 30.9478 2.65088C24.6053 2.65088 19.4636 7.63019 19.4636 13.7725C19.4636 17.1132 20.9846 20.1098 23.3924 22.1485V24.3991C23.3924 25.2787 24.2884 25.8687 25.0872 25.5151L27.5847 24.4096C28.6484 24.7246 29.7776 24.8941 30.9478 24.8941Z" fill="url(#paint1_linear_6602_136975)"/>
<path d="M28.1977 11.4079L24.8675 15.9624C24.5104 16.4507 25.1526 17.0373 25.6414 16.6694L28.485 14.5294C28.7745 14.3116 29.1802 14.3087 29.473 14.5223L32.0021 16.3672C32.4871 16.721 33.1802 16.6193 33.5334 16.1424L37.0259 11.4262C37.3881 10.9371 36.7411 10.3457 36.2515 10.7184L33.2451 13.0071C32.9556 13.2275 32.5477 13.2315 32.2535 13.0169L29.7327 11.178C29.2457 10.8227 28.5493 10.927 28.1977 11.4079Z" fill="white"/>
<path fill-rule="evenodd" clip-rule="evenodd" d="M14.1342 27.386C20.9646 27.386 26.5018 21.8489 26.5018 15.0185C26.5018 8.18803 20.9646 2.65088 14.1342 2.65088C7.30376 2.65088 1.7666 8.18803 1.7666 15.0185C1.7666 17.2366 2.35053 19.3183 3.37304 21.1183L1.7666 27.386L8.22854 25.8876C9.98343 26.8431 11.9954 27.386 14.1342 27.386ZM14.1342 25.4833C19.9138 25.4833 24.5991 20.7981 24.5991 15.0185C24.5991 9.23887 19.9138 4.55358 14.1342 4.55358C8.35459 4.55358 3.66931 9.23887 3.66931 15.0185C3.66931 17.25 4.36777 19.3184 5.55801 21.0169L4.62066 24.532L8.19768 23.6377C9.88447 24.8017 11.9297 25.4833 14.1342 25.4833Z" fill="#BFC8D0"/>
<path d="M24.7353 14.1345C24.7353 19.9891 19.9891 24.7353 14.1345 24.7353C11.9014 24.7353 9.82957 24.0448 8.12088 22.8657L4.4974 23.7716L5.44692 20.2108C4.24123 18.4902 3.53369 16.395 3.53369 14.1345C3.53369 8.27982 8.27982 3.53369 14.1345 3.53369C19.9891 3.53369 24.7353 8.27982 24.7353 14.1345Z" fill="url(#paint2_linear_6602_136975)"/>
<path fill-rule="evenodd" clip-rule="evenodd" d="M14.1342 26.5023C20.9646 26.5023 26.5018 20.9651 26.5018 14.1347C26.5018 7.30424 20.9646 1.76709 14.1342 1.76709C7.30376 1.76709 1.7666 7.30424 1.7666 14.1347C1.7666 16.3528 2.35053 18.4345 3.37304 20.2345L1.7666 26.5023L8.22854 25.0038C9.98343 25.9594 11.9954 26.5023 14.1342 26.5023ZM14.1342 24.5995C19.9138 24.5995 24.5991 19.9143 24.5991 14.1347C24.5991 8.35508 19.9138 3.66979 14.1342 3.66979C8.35459 3.66979 3.66931 8.35508 3.66931 14.1347C3.66931 16.3662 4.36777 18.4346 5.55801 20.1331L4.62066 23.6482L8.19768 22.7539C9.88447 23.9179 11.9297 24.5995 14.1342 24.5995Z" fill="white"/>
<path d="M11.0425 8.39303C10.7484 7.80241 10.2973 7.8547 9.84164 7.8547C9.02722 7.8547 7.75732 8.83022 7.75732 10.6458C7.75732 12.1337 8.41298 13.7625 10.6223 16.1989C12.7545 18.5503 15.5561 19.7667 17.8819 19.7253C20.2077 19.6839 20.6863 17.6825 20.6863 17.0066C20.6863 16.707 20.5003 16.5575 20.3723 16.5169C19.5797 16.1365 18.1179 15.4278 17.7853 15.2946C17.4527 15.1614 17.279 15.3415 17.1711 15.4395C16.8694 15.727 16.2715 16.5741 16.0668 16.7646C15.8621 16.9552 15.5569 16.8587 15.4299 16.7867C14.9625 16.5992 13.6952 16.0355 12.6851 15.0563C11.4359 13.8453 11.3625 13.4286 11.1272 13.0577C10.9389 12.761 11.0771 12.579 11.146 12.4995C11.4152 12.1889 11.7868 11.7094 11.9535 11.4711C12.1202 11.2328 11.9878 10.8711 11.9085 10.6458C11.567 9.67672 11.2777 8.86553 11.0425 8.39303Z" fill="white"/>
<defs>
<linearGradient id="paint0_linear_6602_136975" x1="46.2511" y1="3" x2="46.2511" y2="25.5023" gradientUnits="userSpaceOnUse">
<stop stop-color="#5AF575"/>
<stop offset="1" stop-color="#13BD2C"/>
</linearGradient>
<linearGradient id="paint1_linear_6602_136975" x1="30.9478" y1="2.65088" x2="27.2628" y2="25.4941" gradientUnits="userSpaceOnUse">
<stop stop-color="#00B1FF"/>
<stop offset="1" stop-color="#006BFF"/>
</linearGradient>
<linearGradient id="paint2_linear_6602_136975" x1="23.4102" y1="6.18389" x2="3.53369" y2="24.7353" gradientUnits="userSpaceOnUse">
<stop stop-color="#5BD066"/>
<stop offset="1" stop-color="#27B43E"/>
</linearGradient>
</defs>
</svg>
