<svg width="28" height="28" viewBox="0 0 28 28" fill="none" xmlns="http://www.w3.org/2000/svg">
<circle cx="14" cy="14" r="14" fill="#F0F4FC"/>
<path fill-rule="evenodd" clip-rule="evenodd" d="M19.5485 9.82619C19.9282 9.44652 19.9282 8.83094 19.5485 8.45126C19.1689 8.07158 18.5533 8.07158 18.1736 8.45126L14 12.6249L9.82631 8.45126C9.44664 8.07158 8.83106 8.07158 8.45138 8.45126C8.07171 8.83094 8.07171 9.44652 8.45138 9.82619L12.625 13.9998L8.45138 18.1735C8.07171 18.5532 8.07171 19.1687 8.45138 19.5484C8.83106 19.9281 9.44664 19.9281 9.82631 19.5484L14 15.3748L18.1736 19.5484C18.5533 19.9281 19.1689 19.9281 19.5485 19.5484C19.9282 19.1687 19.9282 18.5532 19.5485 18.1735L15.3749 13.9998L19.5485 9.82619Z" fill="#263449"/>
</svg>
