<svg width="25" height="24" viewBox="0 0 25 24" fill="none" xmlns="http://www.w3.org/2000/svg">
<path d="M6.58658 21.5657L6.28803 22.2537L6.58658 21.5657ZM3.8806 18.7309L3.18314 19.0067L3.8806 18.7309ZM21.1194 18.7309L21.8169 19.0067L21.1194 18.7309ZM18.4134 21.5657L18.712 22.2537L18.4134 21.5657ZM3.5 11.4645L4.24706 11.5309L4.28376 11.1177L3.95337 10.867L3.5 11.4645ZM20 6.96446V6.21446H20L20 6.96446ZM13.2678 5.85355L13.7981 6.38388L13.2678 5.85355ZM15.3891 3.73223L15.9194 4.26256L15.3891 3.73223ZM18.9246 3.73223L18.3943 4.26256L18.9246 3.73223ZM19.1835 6.96445L19.1835 7.71445L19.5663 7.71442L19.7909 7.40446L19.1835 6.96445ZM11.8891 5.85357L11.3588 6.3839L11.8891 5.85357ZM9.76778 3.73225L9.23745 4.26258L9.76778 3.73225ZM6.23225 3.73225L6.76258 4.26258L6.23225 3.73225ZM12.5 20.9645H13.25H12.5ZM3.46752 11.4398L3.00739 12.0321L3.46752 11.4398ZM21.4354 11.5116L21.0043 10.8979L21.4354 11.5116ZM11 21.2145C9.8244 21.2145 8.98204 21.214 8.31769 21.1665C7.6608 21.1196 7.23463 21.0294 6.88514 20.8777L6.28803 22.2537C6.8574 22.5008 7.47308 22.61 8.21075 22.6627C8.94097 22.7149 9.84589 22.7145 11 22.7145V21.2145ZM2.75003 14.1073C2.75003 15.3179 2.74965 16.2616 2.79918 17.0221C2.8491 17.7887 2.95201 18.4221 3.18314 19.0067L4.57806 18.4551C4.42859 18.0771 4.34122 17.619 4.29601 16.9246C4.25039 16.2242 4.25003 15.3375 4.25003 14.1073H2.75003ZM6.88514 20.8777C5.84904 20.4281 5.01518 19.5607 4.57806 18.4551L3.18314 19.0067C3.76097 20.4681 4.87384 21.6401 6.28803 22.2537L6.88514 20.8777ZM20.75 14.1073C20.75 15.3374 20.7496 16.2242 20.704 16.9246C20.6588 17.619 20.5714 18.0771 20.4219 18.4551L21.8169 19.0067C22.048 18.4221 22.1509 17.7887 22.2008 17.0221C22.2504 16.2616 22.25 15.3178 22.25 14.1073H20.75ZM14 22.7145C15.1541 22.7145 16.059 22.7149 16.7893 22.6627C17.5269 22.61 18.1426 22.5008 18.712 22.2537L18.1149 20.8777C17.7654 21.0294 17.3392 21.1196 16.6823 21.1665C16.018 21.214 15.1756 21.2145 14 21.2145V22.7145ZM20.4219 18.4551C19.9848 19.5607 19.151 20.4281 18.1149 20.8777L18.712 22.2537C20.1262 21.6401 21.239 20.4681 21.8169 19.0067L20.4219 18.4551ZM4.25003 14.1073C4.25003 12.6341 4.18176 12.2657 4.24706 11.5309L2.75294 11.3981C2.68076 12.2105 2.75003 12.8214 2.75003 14.1073H4.25003ZM20 7.71446C20.9665 7.71446 21.75 8.49796 21.75 9.46446H23.25C23.25 7.66954 21.7949 6.21446 20 6.21446V7.71446ZM5 6.21446C3.20507 6.21446 1.75 7.66954 1.75 9.46446H3.25C3.25 8.49796 4.0335 7.71446 5 7.71446V6.21446ZM13.7981 6.38388L15.9194 4.26256L14.8588 3.2019L12.7374 5.32322L13.7981 6.38388ZM15.9194 4.26256C16.6028 3.57915 17.7109 3.57915 18.3943 4.26256L19.455 3.2019C18.1857 1.9327 16.128 1.9327 14.8588 3.2019L15.9194 4.26256ZM12.7374 5.32322C12.4239 5.63678 11.9446 6.14706 11.7762 6.76812L13.2238 7.16083C13.2761 6.96806 13.4726 6.70934 13.7981 6.38388L12.7374 5.32322ZM18.3943 4.26256C19.0102 4.87851 19.0714 5.84078 18.5761 6.52443L19.7909 7.40446C20.7117 6.13337 20.6003 4.34725 19.455 3.2019L18.3943 4.26256ZM12.4194 5.32324L10.2981 3.20192L9.23745 4.26258L11.3588 6.3839L12.4194 5.32324ZM10.2981 3.20192C9.02891 1.93271 6.97112 1.93271 5.70192 3.20192L6.76258 4.26258C7.44599 3.57916 8.55403 3.57916 9.23745 4.26258L10.2981 3.20192ZM11.3588 6.3839C11.5598 6.58497 11.689 6.83942 11.7762 7.16083L13.2238 6.76812C13.0903 6.2757 12.8574 5.76118 12.4194 5.32324L11.3588 6.3839ZM5.70192 3.20192C4.55657 4.34726 4.44516 6.13339 5.36601 7.40447L6.58074 6.52445C6.08546 5.8408 6.14663 4.87853 6.76258 4.26258L5.70192 3.20192ZM11.75 6.96448L11.75 20.9645H13.25L13.25 6.96448H11.75ZM5.97338 7.71446L12.5 7.71448L12.5 6.21448L5.97338 6.21446L5.97338 7.71446ZM5 11.2145C4.59497 11.2145 4.22397 11.0778 3.92766 10.8476L3.00739 12.0321C3.55758 12.4595 4.25007 12.7145 5 12.7145V11.2145ZM3.92766 10.8476C3.51395 10.5262 3.25 10.0263 3.25 9.46446H1.75C1.75 10.5091 2.24367 11.4388 3.00739 12.0321L3.92766 10.8476ZM3.95337 10.867L3.92089 10.8424L3.01415 12.0373L3.04663 12.0619L3.95337 10.867ZM14 21.2145H12.5V22.7145H14V21.2145ZM12.5 21.2145H11V22.7145H12.5V21.2145ZM11.75 20.9645L11.75 21.9645H13.25L13.25 20.9645H11.75ZM20 11.2145H12.5V12.7145H20V11.2145ZM12.5 11.2145H5V12.7145H12.5V11.2145ZM21.75 9.46446C21.75 10.0564 21.4568 10.58 21.0043 10.8979L21.8665 12.1253C22.7017 11.5386 23.25 10.5656 23.25 9.46446H21.75ZM21.0043 10.8979C20.7202 11.0974 20.3749 11.2145 20 11.2145V12.7145C20.6934 12.7145 21.3381 12.4965 21.8665 12.1253L21.0043 10.8979ZM22.25 14.1073C22.25 12.7624 22.2505 12.2318 22.1826 11.4469L20.6882 11.5762C20.7495 12.2851 20.75 12.7495 20.75 14.1073H22.25ZM12.5 7.71448L18.9246 7.71446L18.9246 6.21446L12.5 6.21448L12.5 7.71448ZM18.9247 7.71446L19.1835 7.71445L19.1834 6.21445L18.9246 6.21446L18.9247 7.71446ZM18.9246 7.71446L20 7.71446L20 6.21446L18.9246 6.21446L18.9246 7.71446ZM5.97338 6.21446H5V7.71446H5.97338V6.21446ZM5 7.71446L8.75 7.71447L8.75 6.21447L5 6.21446L5 7.71446ZM8.75 7.71447L12.5 7.71448L12.5 6.21448L8.75 6.21447L8.75 7.71447ZM5.97337 7.71446L8.75 7.71447L8.75 6.21447L5.97338 6.21446L5.97337 7.71446ZM12.5 7.71448L19.1835 7.71445L19.1835 6.21445L12.5 6.21448L12.5 7.71448Z" fill="#362444" fill-opacity="0.8"/>
</svg>
