<svg width="40" height="33" viewBox="0 0 40 33" fill="none" xmlns="http://www.w3.org/2000/svg">
<path fill-rule="evenodd" clip-rule="evenodd" d="M31.502 0.75H8.49805C4.08781 0.75 0.5 4.34464 0.5 8.76327V21.1397C0.5 24.6655 2.81045 27.7363 6.15844 28.7192L10.0212 32.5896C10.2357 32.8043 10.5261 32.925 10.8293 32.925C11.1322 32.925 11.4229 32.8043 11.6372 32.5896L15.1806 29.0391H31.502C35.9122 29.0391 39.5 25.4445 39.5 21.0258V8.76327C39.5 4.34464 35.9122 0.75 31.502 0.75ZM11.6026 16.9179C11.6026 16.2856 12.1141 15.7731 12.7452 15.7731H27.2548C27.8858 15.7731 28.3973 16.2856 28.3973 16.9179C28.3973 17.5502 27.8858 18.0626 27.2548 18.0626H12.7452C12.1141 18.0626 11.6026 17.5502 11.6026 16.9179ZM12.7452 14.016H27.2548C27.8858 14.016 28.3973 13.5036 28.3973 12.8713C28.3973 12.2393 27.8858 11.7265 27.2548 11.7265H12.7452C12.1141 11.7265 11.6026 12.2393 11.6026 12.8713C11.6026 13.5036 12.1141 14.016 12.7452 14.016Z" fill="#00B900"/>
</svg>
