<svg width="24" height="24" viewBox="0 0 24 24" fill="none" xmlns="http://www.w3.org/2000/svg">
<path d="M11 11.9999C11 13.1045 10.1046 13.9999 9 13.9999C7.89543 13.9999 7 13.1045 7 11.9999C7 10.8954 7.89543 9.99994 9 9.99994C10.1046 9.99994 11 10.8954 11 11.9999ZM11 11.9999H16.882C16.9543 11.9999 17.0204 12.0408 17.0528 12.1055V12.1055C17.3343 12.6686 17.3343 13.3313 17.0528 13.8944L17 13.9999M14 13.9999L14.0528 13.8944C14.3343 13.3313 14.3343 12.6686 14.0528 12.1055L14 11.9999M2.47372 11.9999C2.47372 9.45265 2.47372 8.17901 3.02496 7.10448C3.10045 6.95732 3.1832 6.814 3.27289 6.67504C3.92785 5.6604 5.03085 5.02358 7.23686 3.74993C9.44287 2.47629 10.5459 1.83947 11.7521 1.77959C11.9173 1.77139 12.0828 1.77139 12.2479 1.77959C13.4541 1.83947 14.5571 2.47629 16.7631 3.74993C18.9692 5.02358 20.0722 5.6604 20.7271 6.67504C20.8168 6.814 20.8996 6.95732 20.9751 7.10448C21.5263 8.17901 21.5263 9.45265 21.5263 11.9999C21.5263 14.5472 21.5263 15.8209 20.9751 16.8954C20.8996 17.0425 20.8168 17.1859 20.7271 17.3248C20.0722 18.3395 18.9692 18.9763 16.7631 20.2499C14.5571 21.5236 13.4541 22.1604 12.2479 22.2203C12.0828 22.2285 11.9173 22.2285 11.7521 22.2203C10.5459 22.1604 9.44287 21.5236 7.23686 20.2499C5.03085 18.9763 3.92785 18.3395 3.27289 17.3248C3.1832 17.1859 3.10045 17.0425 3.02496 16.8954C2.47372 15.8209 2.47372 14.5472 2.47372 11.9999Z" stroke="#8327D8" stroke-width="1.5" stroke-linecap="round"/>
</svg>
