<svg width="40" height="40" viewBox="0 0 40 40" fill="none" xmlns="http://www.w3.org/2000/svg">
<path fill-rule="evenodd" clip-rule="evenodd" d="M19.9951 0.5H20.0049C30.7567 0.5 39.5 9.24819 39.5 20C39.5 30.7518 30.7567 39.5 20.0049 39.5C16.0391 39.5 12.3609 38.3203 9.27744 36.2776L1.78212 38.6737L4.21231 31.4294C1.87475 28.2192 0.5 24.2656 0.5 20C0.5 9.24575 9.24331 0.5 19.9951 0.5ZM27.5246 30.7883C29.0139 30.4666 30.881 29.3648 31.3514 28.0364C31.8219 26.7055 31.8219 25.5721 31.6854 25.3308C31.5752 25.1393 31.3145 25.0138 30.9255 24.8265C30.8242 24.7777 30.7142 24.7247 30.5958 24.6653C30.023 24.3801 27.237 23.0029 26.7105 22.8201C26.1937 22.6251 25.7013 22.6934 25.3113 23.2443C25.2371 23.3481 25.1631 23.4522 25.0895 23.5557C24.619 24.2174 24.1652 24.8557 23.7879 25.2625C23.4442 25.6281 22.8836 25.6744 22.4131 25.4794C22.3619 25.4581 22.3031 25.4343 22.2372 25.4077C21.4924 25.1069 19.8402 24.4396 17.8404 22.6593C16.1536 21.1578 15.008 19.2882 14.6765 18.7276C14.351 18.1652 14.6318 17.8354 14.8913 17.5306C14.8961 17.525 14.9009 17.5193 14.9056 17.5137C15.0729 17.3067 15.2353 17.1344 15.3984 16.9611C15.5158 16.8365 15.6336 16.7115 15.7539 16.5728C15.7718 16.5522 15.7891 16.5322 15.8061 16.5128C16.0616 16.219 16.2137 16.044 16.3852 15.6783C16.5802 15.3004 16.4413 14.9104 16.3023 14.6228C16.2067 14.4214 15.6162 12.9885 15.1092 11.7586C14.8923 11.2323 14.6907 10.7432 14.5498 10.4035C14.172 9.49919 13.8843 9.46507 13.3115 9.44069C13.294 9.43981 13.2762 9.43892 13.2583 9.43801C13.0772 9.42885 12.8778 9.41875 12.6583 9.41875C11.9124 9.41875 11.1348 9.63813 10.6644 10.1183C10.648 10.1351 10.6308 10.1525 10.613 10.1706C10.0112 10.7827 8.67052 12.1462 8.67052 14.8641C8.67052 17.5873 10.6027 20.2228 10.9602 20.7104C10.9701 20.7239 10.9788 20.7357 10.9861 20.7458C11.0077 20.7741 11.0482 20.8328 11.1072 20.9182C11.8372 21.9754 15.3927 27.1244 20.6947 29.3209C25.1748 31.1783 26.5057 31.0053 27.5246 30.7883Z" fill="url(#paint0_linear_345_20705)"/>
<defs>
<linearGradient id="paint0_linear_345_20705" x1="20" y1="0.5" x2="20" y2="39.5" gradientUnits="userSpaceOnUse">
<stop stop-color="#25D366"/>
<stop offset="1" stop-color="#1FBA62"/>
</linearGradient>
</defs>
</svg>
