<svg width="22" height="22" viewBox="0 0 22 22" fill="none" xmlns="http://www.w3.org/2000/svg">
<path fill-rule="evenodd" clip-rule="evenodd" d="M8 0C3.58172 0 0 3.58172 0 8V14C0 18.4183 3.58172 22 8 22H14C18.4183 22 22 18.4183 22 14V8C22 3.58172 18.4183 0 14 0H8ZM11 5C11.5523 5 12 5.44772 12 6V10H16C16.5523 10 17 10.4477 17 11C17 11.5523 16.5523 12 16 12H12V16C12 16.5523 11.5523 17 11 17C10.4477 17 10 16.5523 10 16V12H6C5.44771 12 5 11.5523 5 11C5 10.4477 5.44772 10 6 10H10V6C10 5.44771 10.4477 5 11 5Z" fill="#F6EFFF" fill-opacity="0.8"/>
</svg>
