<svg width="24" height="24" viewBox="0 0 24 24" fill="none" xmlns="http://www.w3.org/2000/svg">
<path d="M5.35143 8.35623L6.07759 8.54381L5.35143 8.35623ZM8.32952 5.55323L8.47078 6.2898L8.32952 5.55323ZM10.0864 12.9718L9.87479 12.2523L10.0864 12.9718ZM11.0281 13.9136L10.3086 13.702L11.0281 13.9136ZM15.6438 18.6486L15.8314 19.3747L15.6438 18.6486ZM18.4468 15.6705L19.1834 15.8117L18.4468 15.6705ZM19.9399 7.88527L19.2033 7.74401L19.9399 7.88527ZM16.1147 4.06015L15.9734 3.32357L16.1147 4.06015ZM6.47816 16.4612C6.18526 16.7541 6.18526 17.229 6.47816 17.5218C6.77105 17.8147 7.24592 17.8147 7.53882 17.5218L6.47816 16.4612ZM8.74221 16.3185C9.03511 16.0256 9.03511 15.5507 8.74221 15.2578C8.44932 14.9649 7.97445 14.9649 7.68155 15.2578L8.74221 16.3185ZM7.07986 19.4697C6.78696 19.7626 6.78696 20.2374 7.07985 20.5303C7.37275 20.8232 7.84762 20.8232 8.14051 20.5303L7.07986 19.4697ZM9.34391 19.3269C9.6368 19.034 9.6368 18.5592 9.34391 18.2663C9.05102 17.9734 8.57614 17.9734 8.28325 18.2663L9.34391 19.3269ZM3.46967 15.8595C3.17678 16.1524 3.17678 16.6273 3.46967 16.9201C3.76256 17.213 4.23744 17.213 4.53033 16.9201L3.46967 15.8595ZM5.73372 15.7168C6.02662 15.4239 6.02662 14.949 5.73373 14.6561C5.44083 14.3632 4.96596 14.3632 4.67307 14.6561L5.73372 15.7168ZM19.2033 7.74401L17.7102 15.5292L19.1834 15.8117L20.6764 8.02654L19.2033 7.74401ZM8.47078 6.2898L16.256 4.79673L15.9734 3.32357L8.18826 4.81665L8.47078 6.2898ZM6.07759 8.54381C6.37449 7.3945 7.3096 6.5125 8.47078 6.2898L8.18826 4.81665C6.45312 5.14942 5.06599 6.46259 4.62527 8.16864L6.07759 8.54381ZM9.87479 12.2523C7.61741 12.9162 5.48409 10.8413 6.07759 8.54381L4.62527 8.16864C3.74542 11.5746 6.90393 14.6895 10.298 13.6914L9.87479 12.2523ZM11.7477 14.1252C12.0845 12.9797 11.0203 11.9155 9.87479 12.2523L10.298 13.6914C10.3032 13.6899 10.305 13.69 10.3041 13.69C10.3033 13.69 10.3023 13.6899 10.3015 13.6897C10.3002 13.6893 10.3028 13.6898 10.3065 13.6935C10.3101 13.6972 10.3106 13.6997 10.3103 13.6985C10.3101 13.6977 10.3099 13.6966 10.3099 13.6959C10.31 13.695 10.3101 13.6968 10.3086 13.702L11.7477 14.1252ZM15.4562 17.9224C13.1587 18.5159 11.0838 16.3826 11.7477 14.1252L10.3086 13.702C9.3105 17.0961 12.4254 20.2546 15.8314 19.3747L15.4562 17.9224ZM17.7102 15.5292C17.4875 16.6904 16.6055 17.6255 15.4562 17.9224L15.8314 19.3747C17.5374 18.934 18.8506 17.5469 19.1834 15.8117L17.7102 15.5292ZM20.6764 8.02654C21.2113 5.23736 18.7626 2.78866 15.9734 3.32357L16.256 4.79673C18.0039 4.4615 19.5385 5.99608 19.2033 7.74401L20.6764 8.02654ZM7.53882 17.5218L8.74221 16.3185L7.68155 15.2578L6.47816 16.4612L7.53882 17.5218ZM8.14051 20.5303L9.34391 19.3269L8.28325 18.2663L7.07986 19.4697L8.14051 20.5303ZM4.53033 16.9201L5.73372 15.7168L4.67307 14.6561L3.46967 15.8595L4.53033 16.9201Z" fill="url(#paint0_linear_5167_107932)"/>
<defs>
<linearGradient id="paint0_linear_5167_107932" x1="10.5027" y1="3.21569" x2="5.25213" y2="14.2809" gradientUnits="userSpaceOnUse">
<stop stop-color="#CF68FF"/>
<stop offset="0.403099" stop-color="#A24EE4"/>
<stop offset="1" stop-color="#4C32EC"/>
</linearGradient>
</defs>
</svg>
