<svg width="22" height="22" viewBox="0 0 22 22" fill="none" xmlns="http://www.w3.org/2000/svg">
<path d="M1 2.06818C0.585786 2.06818 0.25 2.40397 0.25 2.81818C0.25 3.2324 0.585786 3.56818 1 3.56818V2.06818ZM21 19.9318C21.4142 19.9318 21.75 19.596 21.75 19.1818C21.75 18.7676 21.4142 18.4318 21 18.4318V19.9318ZM3.56818 1C3.56818 0.585786 3.2324 0.25 2.81818 0.25C2.40397 0.25 2.06818 0.585786 2.06818 1H3.56818ZM18.4319 21C18.4319 21.4142 18.7677 21.75 19.1819 21.75C19.5961 21.75 19.9319 21.4142 19.9319 21L18.4319 21ZM4.5 17.5L5.03033 18.0303H5.03033L4.5 17.5ZM21.0303 2.03033C21.3232 1.73744 21.3232 1.26256 21.0303 0.96967C20.7374 0.676777 20.2626 0.676777 19.9697 0.96967L21.0303 2.03033ZM2.81818 3.56818H9.18182V2.06818H2.81818V3.56818ZM18.4318 12.8182V19.1818H19.9318V12.8182H18.4318ZM19.1818 18.4318H12.8182V19.9318H19.1818V18.4318ZM3.56818 9.18182V2.81818H2.06818V9.18182H3.56818ZM12.8182 18.4318C10.44 18.4318 8.73173 18.4302 7.43176 18.2554C6.15336 18.0836 5.38263 17.7567 4.81298 17.187L3.75232 18.2477C4.64713 19.1425 5.78715 19.5478 7.23189 19.7421C8.65505 19.9334 10.4824 19.9318 12.8182 19.9318V18.4318ZM2.06818 9.18182C2.06818 11.5176 2.06659 13.345 2.25793 14.7681C2.45217 16.2128 2.85751 17.3529 3.75232 18.2477L4.81298 17.187C4.24332 16.6174 3.91643 15.8466 3.74455 14.5682C3.56977 13.2683 3.56818 11.56 3.56818 9.18182H2.06818ZM9.18182 3.56818C11.56 3.56818 13.2683 3.56977 14.5682 3.74455C15.8466 3.91643 16.6174 4.24332 17.187 4.81298L18.2477 3.75232C17.3529 2.85751 16.2128 2.45217 14.7681 2.25793C13.345 2.06659 11.5176 2.06818 9.18182 2.06818V3.56818ZM19.9318 12.8182C19.9318 10.4824 19.9334 8.65505 19.7421 7.23189C19.5478 5.78715 19.1425 4.64713 18.2477 3.75232L17.187 4.81298C17.7567 5.38263 18.0836 6.15336 18.2554 7.43176C18.4302 8.73174 18.4318 10.44 18.4318 12.8182H19.9318ZM1 3.56818H2.81818V2.06818H1V3.56818ZM21 18.4318H19.1818V19.9318H21V18.4318ZM2.06818 1V2.81818H3.56818V1H2.06818ZM19.9319 21L19.9318 19.1818L18.4318 19.1818L18.4319 21L19.9319 21ZM5.03033 18.0303L21.0303 2.03033L19.9697 0.96967L3.96967 16.9697L5.03033 18.0303ZM3.96967 16.9697L3.75232 17.187L4.81298 18.2477L5.03033 18.0303L3.96967 16.9697Z" fill="#F6A50B"/>
</svg>
