<svg width="53" height="53" viewBox="0 0 53 53" fill="none" xmlns="http://www.w3.org/2000/svg">
<path d="M48.5833 4.41675L6.625 46.3751" stroke="#361252" stroke-width="1.5" stroke-linecap="round"/>
<path fill-rule="evenodd" clip-rule="evenodd" d="M38.2134 9.30959C36.2046 5.95238 32.5339 3.66675 28.2732 3.66675H24.5126C17.5592 3.66675 12.1792 9.76105 13.0417 16.6608L13.2169 18.0627C13.5096 20.4044 12.6543 22.7433 10.92 24.3437C8.0652 26.9781 7.27205 31.171 8.9674 34.6661L9.19563 35.1366C9.53741 35.8412 9.9592 36.4906 10.447 37.076L11.5129 36.0101C11.1385 35.5448 10.8128 35.0335 10.5452 34.482L10.317 34.0115C8.91023 31.1113 9.56837 27.6321 11.9372 25.4461C14.0273 23.5174 15.0581 20.6987 14.7054 17.8767L14.5301 16.4747C13.7796 10.4703 18.4614 5.16675 24.5126 5.16675H28.2732C32.1199 5.16675 35.4139 7.30712 37.1143 10.4086L38.2134 9.30959ZM37.7712 11.873L38.9292 10.715C39.6901 12.5006 40.0124 14.5069 39.7677 16.5886L38.0674 18.2889C38.0791 18.0699 38.0986 17.8505 38.1261 17.6311L38.2688 16.4895C38.4712 14.8697 38.2789 13.3008 37.7712 11.873ZM12.5588 37.0854L11.4953 38.149C12.77 39.2627 14.3296 40.0258 16.0166 40.3397L17.3658 38.9905C15.5708 38.9028 13.8872 38.2169 12.5588 37.0854ZM19.4775 39.0001L17.765 40.7126L18.3073 41.6423C20.4076 45.2428 23.6168 47.1251 26.9051 47.1251C30.1934 47.1251 33.4027 45.2428 35.503 41.6423L36.1714 40.4964C39.2071 40.411 42.0109 38.8258 43.6475 36.2543C46.0232 32.5214 45.394 27.6244 42.1518 24.6134L42.0549 24.5234C40.4831 23.0637 39.5913 21.0358 39.5551 18.9225L38.1774 20.3003C38.509 22.3179 39.4996 24.1975 41.0341 25.6225L41.131 25.7126C43.8428 28.231 44.3691 32.3268 42.3821 35.4489C40.9744 37.6607 38.5344 39.0001 35.9127 39.0001H35.7527C35.7483 39 35.7439 39 35.7395 39C35.7349 39 35.7303 39 35.7256 39.0001H19.4775ZM19.603 40.8865L19.3776 40.5001H34.4327L34.2073 40.8865C32.3326 44.1002 29.5793 45.6251 26.9051 45.6251C24.2309 45.6251 21.4777 44.1002 19.603 40.8865Z" fill="#361252"/>
</svg>
