<svg width="13" height="16" viewBox="0 0 13 16" fill="none" xmlns="http://www.w3.org/2000/svg">
<path d="M5.60932 13.8499L5.33639 13.1513L5.60932 13.8499ZM2.22899 14.499L1.85399 15.1485H1.85399L2.22899 14.499ZM1.10097 11.247L0.359521 11.3599L1.10097 11.247ZM1.50955 9.07842L2.15907 9.45342L1.50955 9.07842ZM1.02276 10.1095L0.285729 9.97061H0.285728L1.02276 10.1095ZM7.28305 12.4118L7.93257 12.7868L7.28305 12.4118ZM6.63353 13.3489L7.12231 13.9177H7.12231L6.63353 13.3489ZM4.67492 3.59585L4.0254 3.22085L4.67492 3.59585ZM9.7989 6.55418L6.63354 12.0368L7.93257 12.7868L11.0979 7.30418L9.7989 6.55418ZM2.15907 9.45342L5.32444 3.97085L4.0254 3.22085L0.860033 8.70342L2.15907 9.45342ZM5.33639 13.1513C4.41903 13.5097 3.80659 13.747 3.33701 13.8567C2.88704 13.9618 2.71381 13.9129 2.60399 13.8495L1.85399 15.1485C2.43789 15.4856 3.05929 15.462 3.67828 15.3174C4.27766 15.1773 5.00854 14.8898 5.88225 14.5485L5.33639 13.1513ZM0.359521 11.3599C0.500757 12.2872 0.617187 13.064 0.795604 13.6531C0.979857 14.2614 1.27009 14.8114 1.85399 15.1485L2.60399 13.8495C2.49416 13.7861 2.36515 13.6605 2.23121 13.2183C2.09143 12.7567 1.99071 12.1077 1.84242 11.1341L0.359521 11.3599ZM0.860033 8.70342C0.59611 9.16055 0.367394 9.53717 0.285729 9.97061L1.75979 10.2483C1.78324 10.1239 1.84401 9.99912 2.15907 9.45342L0.860033 8.70342ZM1.84242 11.1341C1.74754 10.5111 1.73635 10.3728 1.75979 10.2483L0.285728 9.97061C0.204063 10.4041 0.280044 10.8381 0.359521 11.3599L1.84242 11.1341ZM6.63354 12.0368C6.31848 12.5825 6.24079 12.6975 6.14476 12.78L7.12231 13.9177C7.45685 13.6303 7.66865 13.2439 7.93257 12.7868L6.63354 12.0368ZM5.88225 14.5485C6.3739 14.3564 6.78777 14.2052 7.12231 13.9177L6.14476 12.78C6.04872 12.8625 5.92331 12.922 5.33639 13.1513L5.88225 14.5485ZM8.85333 3.02529C9.55211 3.42872 10.0101 3.69496 10.3234 3.93676C10.6195 4.16527 10.694 4.30389 10.7238 4.41523L12.1727 4.027C12.0239 3.4715 11.6688 3.08028 11.2398 2.74925C10.8281 2.43151 10.2654 2.10848 9.60334 1.72625L8.85333 3.02529ZM11.0979 7.30418C11.4802 6.64213 11.806 6.08105 12.0037 5.60001C12.2096 5.09883 12.3215 4.5825 12.1727 4.027L10.7238 4.41523C10.7536 4.52656 10.7585 4.68384 10.6163 5.02979C10.4658 5.39587 10.2023 5.85541 9.7989 6.55418L11.0979 7.30418ZM9.60334 1.72625C8.94128 1.34401 8.3802 1.01823 7.89916 0.820523C7.39798 0.61454 6.88165 0.502643 6.32615 0.651489L6.71438 2.10038C6.82571 2.07055 6.98299 2.06573 7.32894 2.20791C7.69502 2.35837 8.15456 2.62185 8.85333 3.02529L9.60334 1.72625ZM5.32444 3.97085C5.72787 3.27208 5.99411 2.81413 6.23591 2.50079C6.46442 2.20468 6.60304 2.13021 6.71438 2.10038L6.32615 0.651489C5.77065 0.800335 5.37943 1.15541 5.0484 1.58438C4.73066 1.99612 4.40763 2.5588 4.0254 3.22085L5.32444 3.97085ZM10.8234 6.27967L5.04992 2.94633L4.29992 4.24537L10.0734 7.5787L10.8234 6.27967Z" fill="#8327D8"/>
</svg>
