<svg width="16" height="16" viewBox="0 0 16 16" fill="none" xmlns="http://www.w3.org/2000/svg">
<path d="M7.68745 12.6797L7.41453 11.9812L7.68745 12.6797ZM4.98319 13.199L4.60819 13.8486L4.60819 13.8486L4.98319 13.199ZM4.08078 10.5974L3.33933 10.7104L4.08078 10.5974ZM4.40764 8.86258L5.05716 9.23758L4.40764 8.86258ZM4.01821 9.68742L3.28118 9.54856H3.28118L4.01821 9.68742ZM9.02644 11.5292L9.67596 11.9042L9.02644 11.5292ZM8.50683 12.2789L8.9956 12.8478H8.9956L8.50683 12.2789ZM6.93993 4.47652L6.29041 4.10152L6.93993 4.47652ZM10.9092 6.76819L8.37692 11.1542L9.67596 11.9042L12.2083 7.51819L10.9092 6.76819ZM5.05716 9.23758L7.58945 4.85152L6.29041 4.10152L3.75812 8.48758L5.05716 9.23758ZM7.41453 11.9812C6.67627 12.2696 6.19817 12.4544 5.83548 12.5391C5.4924 12.6193 5.39864 12.5729 5.35819 12.5495L4.60819 13.8486C5.12272 14.1456 5.66465 14.1194 6.17675 13.9998C6.66924 13.8847 7.26578 13.6497 7.96038 13.3783L7.41453 11.9812ZM3.33933 10.7104C3.45161 11.4476 3.54633 12.0817 3.69292 12.5658C3.84536 13.0691 4.09366 13.5515 4.60819 13.8486L5.35819 12.5495C5.31774 12.5262 5.23065 12.4682 5.12853 12.131C5.02057 11.7745 4.94157 11.2681 4.82223 10.4845L3.33933 10.7104ZM3.75812 8.48758C3.5521 8.84443 3.35233 9.1709 3.28118 9.54856L4.75524 9.82629C4.76817 9.75765 4.8 9.683 5.05716 9.23758L3.75812 8.48758ZM4.82223 10.4845C4.74479 9.97604 4.74231 9.89492 4.75524 9.82629L3.28118 9.54856C3.21002 9.92621 3.27729 10.303 3.33933 10.7104L4.82223 10.4845ZM8.37692 11.1542C8.11976 11.5997 8.07102 11.6646 8.01805 11.7101L8.9956 12.8478C9.28708 12.5973 9.46994 12.2611 9.67596 11.9042L8.37692 11.1542ZM7.96038 13.3783C8.34418 13.2284 8.70412 13.0982 8.9956 12.8478L8.01805 11.7101C7.96507 11.7556 7.89359 11.794 7.41453 11.9812L7.96038 13.3783ZM10.2077 4.14997C10.7704 4.47484 11.1262 4.68215 11.3671 4.868C11.5907 5.04056 11.6222 5.1262 11.6342 5.17084L13.083 4.78262C12.9521 4.2938 12.6399 3.95557 12.2835 3.68049C11.9443 3.4187 11.4836 3.1546 10.9577 2.85094L10.2077 4.14997ZM12.2083 7.51819C12.5119 6.99222 12.7788 6.5332 12.9417 6.13687C13.1128 5.72041 13.214 5.27143 13.083 4.78262L11.6342 5.17084C11.6461 5.21549 11.6616 5.30542 11.5543 5.56665C11.4386 5.84802 11.2341 6.2055 10.9092 6.76819L12.2083 7.51819ZM10.9577 2.85094C10.4317 2.54727 9.97268 2.28041 9.57635 2.11752C9.15988 1.94635 8.71091 1.84517 8.22209 1.97614L8.61032 3.42503C8.65497 3.41307 8.7449 3.39754 9.00613 3.50491C9.2875 3.62055 9.64497 3.8251 10.2077 4.14997L10.9577 2.85094ZM7.58945 4.85152C7.91432 4.28883 8.12163 3.93295 8.30748 3.69211C8.48003 3.46851 8.56567 3.437 8.61032 3.42503L8.22209 1.97614C7.73328 2.10712 7.39505 2.41924 7.11996 2.77571C6.85818 3.11494 6.59408 3.57555 6.29041 4.10152L7.58945 4.85152ZM11.9337 6.49367L7.31493 3.827L6.56493 5.12604L11.1837 7.79271L11.9337 6.49367Z" fill="#F6EFFF"/>
</svg>
