<svg width="25" height="24" viewBox="0 0 25 24" fill="none" xmlns="http://www.w3.org/2000/svg">
<path d="M11.3995 15.8995L6.03553 21.2635C5.64501 21.654 5.01185 21.654 4.62132 21.2635L3.20711 19.8492C2.81658 19.4587 2.81658 18.8256 3.20711 18.435L14.935 6.70711C15.3256 6.31658 15.9587 6.31658 16.3492 6.70711L17.7635 8.12132C18.154 8.51184 18.154 9.14501 17.7635 9.53553L14.935 12.364" stroke="#45BF58" stroke-width="1.5" stroke-linecap="round"/>
<path d="M13.5 8L16.5 11" stroke="#45BF58" stroke-width="1.5"/>
<path d="M18.5 13.5H23.5M21 11V16" stroke="#45BF58" stroke-width="1.5"/>
<path d="M8.5 3.5H13.5M11 1V6" stroke="#45BF58" stroke-width="1.5"/>
<path d="M18.5 3.5H23.5M21 1V6" stroke="#45BF58" stroke-width="1.5"/>
</svg>
