<svg width="24" height="24" viewBox="0 0 24 24" fill="none" xmlns="http://www.w3.org/2000/svg">
<path d="M0.750008 22C1.02001 22 1.27401 21.854 1.40801 21.609L1.42901 21.571C3.67201 17.52 7.946 15 12.582 15H14V19.25C14 19.551 14.181 19.823 14.458 19.941C14.733 20.057 15.057 19.999 15.272 19.788L23.772 11.538C23.918 11.397 24 11.203 24 11C24 10.797 23.918 10.603 23.772 10.462L15.272 2.21199C15.056 2.00199 14.733 1.94199 14.458 2.05899C14.181 2.17699 14 2.44899 14 2.74999V7.00198C6.25701 7.13598 7.62939e-06 13.476 7.62939e-06 21.25C7.62939e-06 21.593 0.232006 21.892 0.564007 21.977C0.626007 21.993 0.688007 22 0.750008 22ZM14.75 13.5H12.582C8.406 13.5 4.49301 15.329 1.81801 18.411C3.11201 12.742 8.195 8.49998 14.25 8.49998H14.75C15.164 8.49998 15.5 8.16398 15.5 7.74998V4.52299L22.173 11L15.5 17.477V14.25C15.5 13.836 15.164 13.5 14.75 13.5Z" fill="#361252"/>
</svg>
