<svg width="34" height="34" viewBox="0 0 34 34" fill="none" xmlns="http://www.w3.org/2000/svg">
<path fill-rule="evenodd" clip-rule="evenodd" d="M5.84375 10.625C5.84375 9.15799 7.03299 7.96875 8.5 7.96875H25.5C26.967 7.96875 28.1562 9.15799 28.1562 10.625V18.9804L26.3841 17.7989C25.9474 17.5078 25.3954 17.4503 24.9081 17.6452L20.3101 19.4844L13.5407 15.6162C13.0005 15.3075 12.33 15.3415 11.8237 15.7031L5.84375 19.9745V10.625ZM5.87804 23.8029C6.08269 25.0665 7.17868 26.0312 8.5 26.0312H25.5C26.967 26.0312 28.1562 24.842 28.1562 23.375V22.753C28.0344 22.7098 27.9159 22.6511 27.8034 22.5761L25.3135 20.9161L20.7794 22.7298C20.328 22.9103 19.8189 22.875 19.3968 22.6338L12.8456 18.8903L6.23885 23.6094C6.12465 23.691 6.00335 23.7553 5.87804 23.8029ZM8.5 4.78125C5.27259 4.78125 2.65625 7.39759 2.65625 10.625V23.375C2.65625 26.6024 5.27259 29.2188 8.5 29.2188H25.5C28.7274 29.2188 31.3438 26.6024 31.3438 23.375V10.625C31.3438 7.39759 28.7274 4.78125 25.5 4.78125H8.5Z" fill="white"/>
<circle cx="23.375" cy="12.75" r="2.125" fill="white"/>
</svg>
