<svg width="16" height="16" viewBox="0 0 16 16" fill="none" xmlns="http://www.w3.org/2000/svg">
<path d="M3.05879 5.18441L3.78495 5.37199L3.05879 5.18441ZM5.392 2.98837L5.53326 3.72495L5.392 2.98837ZM6.76843 8.80055L6.55683 8.08102L6.76843 8.80055ZM7.50625 9.53837L6.78672 9.32677L7.50625 9.53837ZM11.1224 13.248L11.31 13.9742L11.1224 13.248ZM13.3184 10.9148L14.055 11.0561L13.3184 10.9148ZM14.4882 4.81543L13.7516 4.67417L14.4882 4.81543ZM11.4914 1.81861L11.3501 1.08203L11.4914 1.81861ZM3.82669 11.4195C3.5338 11.7124 3.5338 12.1872 3.82669 12.4801C4.11959 12.773 4.59446 12.773 4.88735 12.4801L3.82669 11.4195ZM5.83016 11.5373C6.12305 11.2444 6.12305 10.7696 5.83016 10.4767C5.53727 10.1838 5.06239 10.1838 4.7695 10.4767L5.83016 11.5373ZM4.2981 13.7765C4.0052 14.0694 4.0052 14.5443 4.2981 14.8372C4.59099 15.13 5.06586 15.13 5.35876 14.8372L4.2981 13.7765ZM6.30157 13.8943C6.59446 13.6014 6.59446 13.1266 6.30157 12.8337C6.00867 12.5408 5.5338 12.5408 5.24091 12.8337L6.30157 13.8943ZM1.46967 10.9481C1.17678 11.241 1.17678 11.7158 1.46967 12.0087C1.76256 12.3016 2.23744 12.3016 2.53033 12.0087L1.46967 10.9481ZM3.47314 11.0659C3.76603 10.773 3.76603 10.2981 3.47314 10.0053C3.18025 9.71236 2.70537 9.71236 2.41248 10.0053L3.47314 11.0659ZM13.7516 4.67417L12.5819 10.7736L14.055 11.0561L15.2248 4.9567L13.7516 4.67417ZM5.53326 3.72495L11.6326 2.55519L11.3501 1.08203L5.25073 2.2518L5.53326 3.72495ZM3.78495 5.37199C4.00199 4.53183 4.68566 3.8875 5.53326 3.72495L5.25073 2.2518C3.82918 2.52443 2.69348 3.59992 2.33263 4.99682L3.78495 5.37199ZM6.55683 8.08102C4.91134 8.56492 3.35097 7.05199 3.78495 5.37199L2.33263 4.99682C1.6123 7.78529 4.19785 10.3383 6.98003 9.52008L6.55683 8.08102ZM8.22578 9.74996C8.52596 8.72921 7.57759 7.78084 6.55683 8.08102L6.98003 9.52008C6.86179 9.55485 6.75195 9.445 6.78672 9.32677L8.22578 9.74996ZM10.9348 12.5219C9.25482 12.9559 7.74188 11.3955 8.22578 9.74996L6.78672 9.32677C5.96856 12.109 8.52151 14.6945 11.31 13.9742L10.9348 12.5219ZM12.5819 10.7736C12.4193 11.6212 11.775 12.3048 10.9348 12.5219L11.31 13.9742C12.7069 13.6133 13.7824 12.4776 14.055 11.0561L12.5819 10.7736ZM15.2248 4.9567C15.6655 2.65876 13.648 0.641326 11.3501 1.08203L11.6326 2.55519C12.8893 2.31417 13.9926 3.41747 13.7516 4.67417L15.2248 4.9567ZM4.88735 12.4801L5.83016 11.5373L4.7695 10.4767L3.82669 11.4195L4.88735 12.4801ZM5.35876 14.8372L6.30157 13.8943L5.24091 12.8337L4.2981 13.7765L5.35876 14.8372ZM2.53033 12.0087L3.47314 11.0659L2.41248 10.0053L1.46967 10.9481L2.53033 12.0087Z" fill="#8327D8"/>
</svg>
