<svg width="96" height="96" viewBox="0 0 96 96" fill="none" xmlns="http://www.w3.org/2000/svg">
<path d="M32.5 91.9167L46.3089 67.4855C46.979 66.2999 47.5674 65.2589 48.094 64.338M48.094 64.338C49.7262 61.4836 50.7643 59.7831 51.8014 58.507C60.3886 47.9406 75.7029 45.8532 86.8048 53.7358C88.5665 54.9866 90.5262 56.9429 94.4225 60.8392M48.094 64.338L45.4167 63.5C39.2398 62.2646 36.1514 61.6469 33.3168 61.7071C25.7309 61.8682 18.5994 65.3561 13.8149 71.2452C12.0271 73.4457 10.6186 76.2628 7.80152 81.897L7.23409 83.0318L6.60853 84.0888M94.4225 60.8392C94.5 57.0959 94.5 52.8517 94.5 48C94.5 28.6264 94.5 18.9396 89.5663 12.1489C87.9729 9.95577 86.0442 8.02712 83.8511 6.43373C77.0604 1.5 67.3736 1.5 48 1.5C28.6264 1.5 18.9396 1.5 12.1489 6.43373C9.95577 8.02712 8.02712 9.95577 6.43373 12.1489C1.5 18.9396 1.5 28.6264 1.5 48C1.5 67.3736 1.5 77.0604 6.43373 83.8511C6.49155 83.9307 6.54982 84.0099 6.60853 84.0888M94.4225 60.8392C94.1906 72.0437 93.2645 78.761 89.5663 83.8511C87.9729 86.0442 86.0442 87.9729 83.8511 89.5663C77.0604 94.5 67.3736 94.5 48 94.5C28.6264 94.5 18.9396 94.5 12.1489 89.5663C10.0354 88.0307 8.16745 86.1838 6.60853 84.0888M32.5 32.5C32.5 38.2069 37.1264 42.8333 42.8333 42.8333C48.5403 42.8333 53.1667 38.2069 53.1667 32.5C53.1667 26.7931 48.5403 22.1667 42.8333 22.1667C37.1264 22.1667 32.5 26.7931 32.5 32.5Z" stroke="#2D264B" stroke-width="1.5" stroke-linecap="round"/>
</svg>
