<svg width="20" height="20" viewBox="0 0 20 20" fill="none" xmlns="http://www.w3.org/2000/svg">
<path d="M6.01486 17.4487L5.89753 18.1895H5.89753L6.01486 17.4487ZM2.5513 13.9851L3.29206 13.8678L2.5513 13.9851ZM17.4487 13.9851L18.1895 14.1025L18.1895 14.1025L17.4487 13.9851ZM13.9851 17.4487L14.1025 18.1895H14.1025L13.9851 17.4487ZM17.2666 8.71623C17.0179 8.38504 16.5477 8.31822 16.2165 8.56699C15.8853 8.81576 15.8185 9.28591 16.0673 9.6171L17.2666 8.71623ZM3.9327 9.6171C4.18147 9.28591 4.11465 8.81576 3.78346 8.56699C3.45227 8.31822 2.98212 8.38504 2.73335 8.71623L3.9327 9.6171ZM9.25 14.1667C9.25 14.5809 9.58579 14.9167 10 14.9167C10.4142 14.9167 10.75 14.5809 10.75 14.1667H9.25ZM6.07898 5.36736C5.82164 5.69193 5.87613 6.16367 6.2007 6.42102C6.52527 6.67836 6.997 6.62387 7.25435 6.2993L6.07898 5.36736ZM7.83154 4.36419L7.24386 3.89822H7.24386L7.83154 4.36419ZM12.1685 4.36419L12.7561 3.89822L12.1685 4.36419ZM12.7457 6.2993C13.003 6.62387 13.4747 6.67837 13.7993 6.42102C14.1239 6.16367 14.1784 5.69193 13.921 5.36736L12.7457 6.2993ZM9.79111 2.51657L9.67311 1.77592L9.67311 1.77592L9.79111 2.51657ZM10.2089 2.51657L10.3269 1.77592L10.3269 1.77592L10.2089 2.51657ZM16.75 11.6667V12.5H18.25V11.6667H16.75ZM12.5 16.75H7.5V18.25H12.5V16.75ZM3.25 12.5V11.6667H1.75V12.5H3.25ZM7.5 16.75C6.69717 16.75 6.38307 16.7477 6.13218 16.7079L5.89753 18.1895C6.29441 18.2523 6.75449 18.25 7.5 18.25V16.75ZM1.75 12.5C1.75 13.2455 1.74767 13.7056 1.81053 14.1025L3.29206 13.8678C3.25233 13.6169 3.25 13.3028 3.25 12.5H1.75ZM6.13218 16.7079C4.67022 16.4764 3.52362 15.3298 3.29206 13.8678L1.81053 14.1025C2.14374 16.2063 3.79373 17.8563 5.89753 18.1895L6.13218 16.7079ZM16.75 12.5C16.75 13.3028 16.7477 13.6169 16.7079 13.8678L18.1895 14.1025C18.2523 13.7056 18.25 13.2455 18.25 12.5H16.75ZM12.5 18.25C13.2455 18.25 13.7056 18.2523 14.1025 18.1895L13.8678 16.7079C13.6169 16.7477 13.3028 16.75 12.5 16.75V18.25ZM16.7079 13.8678C16.4764 15.3298 15.3298 16.4764 13.8678 16.7079L14.1025 18.1895C16.2063 17.8563 17.8563 16.2063 18.1895 14.1025L16.7079 13.8678ZM18.25 11.6667C18.25 10.5607 17.8839 9.53803 17.2666 8.71623L16.0673 9.6171C16.4962 10.1881 16.75 10.8966 16.75 11.6667H18.25ZM3.25 11.6667C3.25 10.8966 3.50384 10.1881 3.9327 9.6171L2.73335 8.71623C2.11607 9.53803 1.75 10.5607 1.75 11.6667H3.25ZM10.75 14.1667V3.33333H9.25V14.1667H10.75ZM7.25435 6.2993L8.41922 4.83016L7.24386 3.89822L6.07898 5.36736L7.25435 6.2993ZM11.5808 4.83016L12.7457 6.2993L13.921 5.36736L12.7561 3.89822L11.5808 4.83016ZM8.41922 4.83016C8.89509 4.23 9.21289 3.83104 9.47874 3.56416C9.74125 3.30064 9.85955 3.26513 9.90912 3.25723L9.67311 1.77592C9.15655 1.85822 8.75955 2.16071 8.41604 2.50555C8.07587 2.84703 7.69695 3.32677 7.24386 3.89822L8.41922 4.83016ZM12.7561 3.89822C12.303 3.32677 11.9241 2.84703 11.584 2.50555C11.2405 2.16071 10.8435 1.85822 10.3269 1.77592L10.0909 3.25723C10.1405 3.26513 10.2588 3.30064 10.5213 3.56416C10.7871 3.83104 11.1049 4.23 11.5808 4.83016L12.7561 3.89822ZM9.90912 3.25723C9.93959 3.25238 9.9699 3.25 10 3.25V1.75C9.89057 1.75 9.78135 1.75867 9.67311 1.77592L9.90912 3.25723ZM10 3.25C10.0301 3.25 10.0604 3.25238 10.0909 3.25723L10.3269 1.77592C10.2187 1.75867 10.1094 1.75 10 1.75V3.25ZM10.75 3.33333V2.5H9.25V3.33333H10.75Z" fill="#8327D8"/>
</svg>
