<svg width="24" height="24" viewBox="0 0 24 24" fill="none" xmlns="http://www.w3.org/2000/svg">
<rect x="0.75" y="0.75" width="22.5" height="22.5" rx="3.25" stroke="#9A85AD" stroke-width="1.5"/>
<path d="M10.2695 12.2842V15.1016C10.1589 15.235 9.98796 15.3799 9.75684 15.5361C9.52572 15.6891 9.22786 15.821 8.86328 15.9316C8.4987 16.0423 8.05762 16.0977 7.54004 16.0977C7.08105 16.0977 6.66276 16.0228 6.28516 15.873C5.90755 15.7201 5.58203 15.4971 5.30859 15.2041C5.03841 14.9111 4.83008 14.5531 4.68359 14.1299C4.53711 13.7035 4.46387 13.2168 4.46387 12.6699V12.2256C4.46387 11.6787 4.53385 11.1921 4.67383 10.7656C4.81706 10.3392 5.02051 9.97949 5.28418 9.68652C5.54785 9.39355 5.86198 9.17057 6.22656 9.01758C6.59115 8.86458 6.99642 8.78809 7.44238 8.78809C8.06087 8.78809 8.56868 8.889 8.96582 9.09082C9.36296 9.28939 9.66569 9.56608 9.87402 9.9209C10.0856 10.2725 10.2158 10.6761 10.2646 11.1318H8.84375C8.80794 10.891 8.73958 10.681 8.63867 10.502C8.53776 10.3229 8.3929 10.1829 8.2041 10.082C8.01855 9.98112 7.77767 9.93066 7.48145 9.93066C7.2373 9.93066 7.01921 9.98112 6.82715 10.082C6.63835 10.1797 6.47884 10.3245 6.34863 10.5166C6.21842 10.7087 6.11914 10.9463 6.05078 11.2295C5.98242 11.5127 5.94824 11.8415 5.94824 12.2158V12.6699C5.94824 13.041 5.98405 13.3698 6.05566 13.6562C6.12728 13.9395 6.23307 14.1787 6.37305 14.374C6.51628 14.5661 6.69206 14.7109 6.90039 14.8086C7.10872 14.9062 7.35124 14.9551 7.62793 14.9551C7.85905 14.9551 8.05111 14.9355 8.2041 14.8965C8.36035 14.8574 8.48568 14.8102 8.58008 14.7549C8.67773 14.6963 8.7526 14.641 8.80469 14.5889V13.3291H7.4668V12.2842H10.2695ZM13.0788 8.89062V16H11.6188V8.89062H13.0788ZM15.9857 8.89062V16H14.5209V8.89062H15.9857ZM18.8177 11.9277V13.0703H15.5853V11.9277H18.8177ZM19.1595 8.89062V10.0381H15.5853V8.89062H19.1595Z" fill="#9A85AD"/>
</svg>
