<svg width="24" height="24" viewBox="0 0 24 24" fill="none" xmlns="http://www.w3.org/2000/svg">
<path fill-rule="evenodd" clip-rule="evenodd" d="M11.9999 10C13.1044 10 13.9999 10.8954 13.9999 12C13.9999 13.1046 13.1044 14 11.9999 14C10.8953 14 9.99988 13.1046 9.99988 12C9.99988 10.8954 10.8953 10 11.9999 10Z" fill="#281E30"/>
<path fill-rule="evenodd" clip-rule="evenodd" d="M19.0001 10C20.1047 10 21.0001 10.8954 21.0001 12C21.0001 13.1046 20.1047 14 19.0001 14C17.8956 14 17.0001 13.1046 17.0001 12C17.0001 10.8954 17.8956 10 19.0001 10Z" fill="#281E30"/>
<path fill-rule="evenodd" clip-rule="evenodd" d="M5.00012 10C6.10469 10 7.00012 10.8954 7.00012 12C7.00012 13.1046 6.10469 14 5.00012 14C3.89555 14 3.00012 13.1046 3.00012 12C3.00012 10.8954 3.89555 10 5.00012 10Z" fill="#281E30"/>
</svg>
