<svg width="14" height="14" viewBox="0 0 14 14" fill="none" xmlns="http://www.w3.org/2000/svg">
<path d="M4.72244 12.186L4.45959 12.6113L4.72244 12.186ZM4.48407 12.0493L4.66815 11.5845L4.48407 12.0493ZM3.998 12.0594L4.12345 12.5434L3.998 12.0594ZM4.22436 12.0101L4.26288 12.5086L4.22436 12.0101ZM1.95403 10.0154L1.47003 9.89L1.95403 10.0154ZM2.00334 9.78888L2.50187 9.82713L2.00334 9.78888ZM1.82701 9.29128L1.40233 9.5552H1.40233L1.82701 9.29128ZM1.96365 9.52843L1.49913 9.71343L1.96365 9.52843ZM1.72256 11.3803L2.21252 11.2806L1.72256 11.3803ZM2.63313 12.2909L2.73285 11.8009L2.63313 12.2909ZM4.69745 7.58356C4.42131 7.58356 4.19745 7.80741 4.19745 8.08356C4.19745 8.3597 4.42131 8.58356 4.69745 8.58356V7.58356ZM9.36412 8.58356C9.64026 8.58356 9.86412 8.3597 9.86412 8.08356C9.86412 7.80741 9.64026 7.58356 9.36412 7.58356V8.58356ZM4.69745 5.25022C4.42131 5.25022 4.19745 5.47408 4.19745 5.75022C4.19745 6.02636 4.42131 6.25022 4.69745 6.25022V5.25022ZM9.36412 6.25022C9.64026 6.25022 9.86412 6.02636 9.86412 5.75022C9.86412 5.47408 9.64026 5.25022 9.36412 5.25022V6.25022ZM3.24237 3.2286C5.32517 1.1458 8.70205 1.1458 10.7848 3.2286L11.492 2.52149C9.01863 0.0481737 5.00859 0.0481737 2.53527 2.52149L3.24237 3.2286ZM10.7848 3.2286C12.8676 5.3114 12.8676 8.68828 10.7848 10.7711L11.492 11.4782C13.9653 9.00486 13.9653 4.99482 11.492 2.52149L10.7848 3.2286ZM2.25168 9.02737C1.62877 8.02502 1.55036 6.90834 1.79621 5.86223C2.04379 4.80878 2.61524 3.85573 3.24237 3.2286L2.53527 2.52149C1.78083 3.27593 1.11424 4.39311 0.822736 5.63345C0.529506 6.88113 0.610969 8.28179 1.40233 9.5552L2.25168 9.02737ZM10.7848 10.7711C10.1875 11.3684 9.23574 11.9401 8.17244 12.1945C7.11612 12.4472 5.98682 12.3796 4.98529 11.7607L4.45959 12.6113C5.73878 13.4018 7.15489 13.4661 8.40509 13.1671C9.64831 12.8697 10.7642 12.2059 11.492 11.4782L10.7848 10.7711ZM4.98529 11.7607C4.88125 11.6964 4.7686 11.6242 4.66815 11.5845L4.29998 12.5142C4.28809 12.5095 4.28982 12.5087 4.32193 12.5274C4.35272 12.5453 4.39382 12.5707 4.45959 12.6113L4.98529 11.7607ZM4.12345 12.5434C4.18472 12.5275 4.21972 12.5185 4.24597 12.5126C4.2704 12.5071 4.27141 12.508 4.26288 12.5086L4.18584 11.5116C4.07922 11.5198 3.96863 11.5505 3.87255 11.5754L4.12345 12.5434ZM4.66815 11.5845C4.50573 11.5201 4.36002 11.4981 4.18584 11.5116L4.26288 12.5086C4.2742 12.5077 4.28015 12.5077 4.28243 12.5078C4.28436 12.5078 4.28384 12.5079 4.282 12.5076C4.28016 12.5074 4.27969 12.5071 4.28154 12.5077C4.28374 12.5083 4.28942 12.51 4.29998 12.5142L4.66815 11.5845ZM2.43804 10.1409C2.46296 10.0448 2.49367 9.93407 2.50187 9.82713L1.5048 9.75064C1.50545 9.74214 1.50636 9.74315 1.50085 9.76751C1.49492 9.79374 1.48591 9.8287 1.47003 9.89L2.43804 10.1409ZM1.40233 9.5552C1.44294 9.62053 1.46819 9.66125 1.48607 9.69178C1.50464 9.72348 1.50382 9.7252 1.49913 9.71343L2.42817 9.34343C2.38808 9.24278 2.31587 9.13065 2.25168 9.02737L1.40233 9.5552ZM2.50187 9.82713C2.51525 9.65271 2.49289 9.50595 2.42817 9.34343L1.49913 9.71343C1.50326 9.72378 1.505 9.72941 1.50564 9.73162C1.50618 9.7335 1.50598 9.73315 1.50572 9.73146C1.50546 9.72977 1.50555 9.72937 1.50559 9.73133C1.50565 9.73363 1.50565 9.73953 1.5048 9.75064L2.50187 9.82713ZM1.47003 9.89C1.37672 10.25 1.30015 10.5443 1.25547 10.7813C1.21123 11.0159 1.186 11.251 1.23261 11.48L2.21252 11.2806C2.20534 11.2453 2.20076 11.1649 2.23815 10.9666C2.27512 10.7706 2.34117 10.5146 2.43804 10.1409L1.47003 9.89ZM3.87255 11.5754C3.49881 11.6723 3.24288 11.7383 3.04688 11.7753C2.84856 11.8127 2.76813 11.8081 2.73285 11.8009L2.53342 12.7808C2.76243 12.8274 2.99758 12.8022 3.23219 12.758C3.46911 12.7133 3.76347 12.6367 4.12345 12.5434L3.87255 11.5754ZM1.23261 11.48C1.36597 12.1353 1.87811 12.6475 2.53342 12.7808L2.73285 11.8009C2.47072 11.7476 2.26587 11.5427 2.21252 11.2806L1.23261 11.48ZM4.69745 8.58356H9.36412V7.58356H4.69745V8.58356ZM4.69745 6.25022H9.36412V5.25022H4.69745V6.25022Z" fill="#3B1F52" fill-opacity="0.6"/>
</svg>
