<svg width="46" height="46" viewBox="0 0 46 46" fill="none" xmlns="http://www.w3.org/2000/svg">
<path fill-rule="evenodd" clip-rule="evenodd" d="M0.424316 23.214C0.424316 10.8874 10.4482 0.868408 22.757 0.868408C35.0659 0.868408 45.0897 10.8874 45.0897 23.214C45.0897 35.5148 35.0659 45.5338 22.757 45.5338C10.4482 45.5338 0.424316 35.5148 0.424316 23.214ZM30.9486 25.4742C31.1857 25.2372 31.4875 24.8709 31.5522 24.7847C31.8971 24.3323 32.0696 23.7721 32.0696 23.214C32.0696 22.587 31.8755 22.0053 31.5091 21.5312C31.479 21.5012 31.4202 21.4372 31.3436 21.3538C31.2002 21.1977 30.9944 20.9737 30.7977 20.7771C29.0301 18.8811 24.4169 15.7784 22.0026 14.8304C21.6361 14.6817 20.7092 14.3563 20.2134 14.3348C19.7392 14.3348 19.2865 14.4425 18.8553 14.658C18.3164 14.9596 17.8853 15.4337 17.6482 15.9939C17.4973 16.3817 17.2601 17.5452 17.2601 17.5667C17.023 18.838 16.8937 20.9064 16.8937 23.1903C16.8937 25.3686 17.023 27.3487 17.217 28.6415C17.2224 28.6468 17.2409 28.7393 17.2697 28.8829C17.3573 29.3196 17.5397 30.2293 17.7344 30.6022C18.2086 31.5072 19.1356 32.0674 20.1272 32.0674H20.2134C20.8601 32.0458 22.2182 31.4856 22.2182 31.4641C24.5032 30.516 29.0085 27.5642 30.8193 25.6035L30.9486 25.4742Z" fill="#BFBFBF" fill-opacity="0.8"/>
</svg>
