<svg width="46" height="46" viewBox="0 0 46 46" fill="none" xmlns="http://www.w3.org/2000/svg">
<path fill-rule="evenodd" clip-rule="evenodd" d="M0.424194 23.214C0.424194 10.8874 10.448 0.868408 22.7569 0.868408C35.0657 0.868408 45.0896 10.8874 45.0896 23.214C45.0896 35.5148 35.0657 45.5338 22.7569 45.5338C10.448 45.5338 0.424194 35.5148 0.424194 23.214ZM30.9484 25.4742C31.1855 25.2372 31.4873 24.8709 31.552 24.7847C31.8969 24.3323 32.0694 23.7721 32.0694 23.214C32.0694 22.587 31.8753 22.0053 31.5089 21.5312C31.4788 21.5012 31.42 21.4372 31.3434 21.3538C31.2 21.1977 30.9942 20.9737 30.7975 20.7771C29.0299 18.8811 24.4167 15.7784 22.0024 14.8304C21.6359 14.6817 20.709 14.3563 20.2132 14.3348C19.739 14.3348 19.2863 14.4425 18.8551 14.658C18.3162 14.9596 17.8851 15.4337 17.648 15.9939C17.4971 16.3817 17.2599 17.5452 17.2599 17.5667C17.0228 18.838 16.8935 20.9064 16.8935 23.1903C16.8935 25.3686 17.0228 27.3487 17.2168 28.6415C17.2222 28.6468 17.2407 28.7393 17.2695 28.8829C17.3571 29.3196 17.5395 30.2293 17.7342 30.6022C18.2084 31.5072 19.1354 32.0674 20.127 32.0674H20.2132C20.8599 32.0458 22.218 31.4856 22.218 31.4641C24.503 30.516 29.0083 27.5642 30.8191 25.6035L30.9484 25.4742Z" fill="url(#paint0_linear_6401_9370)"/>
<defs>
<linearGradient id="paint0_linear_6401_9370" x1="45.0896" y1="45.5338" x2="-8.05822" y2="30.1241" gradientUnits="userSpaceOnUse">
<stop stop-color="#9610FF"/>
<stop offset="1" stop-color="#AF48FF"/>
</linearGradient>
</defs>
</svg>
