<svg width="20" height="20" viewBox="0 0 20 20" fill="none" xmlns="http://www.w3.org/2000/svg">
<path d="M15.431 10.6499L16.1738 10.7533L15.431 10.6499ZM15.2124 12.2208L15.9552 12.3241L15.2124 12.2208ZM4.78759 12.2208L5.53043 12.1174H5.53043L4.78759 12.2208ZM4.56898 10.6499L3.82614 10.7533L4.56898 10.6499ZM7.65302 18.1144L7.36143 18.8053H7.36143L7.65302 18.1144ZM5.39588 15.4673L6.09987 15.2086H6.09987L5.39588 15.4673ZM14.6041 15.4673L15.3081 15.7259L14.6041 15.4673ZM12.3469 18.1144L12.0553 17.4234L12.3469 18.1144ZM4.91328 7.42939C4.8741 7.01703 4.50806 6.71451 4.09571 6.75369C3.68335 6.79287 3.38083 7.15891 3.42001 7.57127L4.91328 7.42939ZM16.5799 7.57127C16.6191 7.15891 16.3166 6.79287 15.9043 6.75369C15.4919 6.71451 15.1259 7.01703 15.0867 7.42938L16.5799 7.57127ZM16.6666 6.58366C17.0809 6.58366 17.4166 6.24787 17.4166 5.83366C17.4166 5.41945 17.0809 5.08366 16.6666 5.08366V6.58366ZM3.33331 5.08366C2.9191 5.08366 2.58331 5.41945 2.58331 5.83366C2.58331 6.24787 2.9191 6.58366 3.33331 6.58366V5.08366ZM7.58331 15.0003C7.58331 15.4145 7.9191 15.7503 8.33331 15.7503C8.74753 15.7503 9.08331 15.4145 9.08331 15.0003H7.58331ZM9.08331 8.33366C9.08331 7.91945 8.74753 7.58366 8.33331 7.58366C7.9191 7.58366 7.58331 7.91945 7.58331 8.33366H9.08331ZM10.9166 15.0003C10.9166 15.4145 11.2524 15.7503 11.6666 15.7503C12.0809 15.7503 12.4166 15.4145 12.4166 15.0003H10.9166ZM12.4166 8.33366C12.4166 7.91945 12.0809 7.58366 11.6666 7.58366C11.2524 7.58366 10.9166 7.91945 10.9166 8.33366H12.4166ZM13.3333 5.83366V6.58366H14.0833V5.83366H13.3333ZM6.66665 5.83366H5.91665V6.58366H6.66665V5.83366ZM14.6881 10.5465L14.4695 12.1174L15.9552 12.3241L16.1738 10.7533L14.6881 10.5465ZM5.53043 12.1174L5.31182 10.5465L3.82614 10.7533L4.04475 12.3241L5.53043 12.1174ZM9.99998 17.5837C8.71445 17.5837 8.29087 17.5695 7.94461 17.4234L7.36143 18.8053C8.05457 19.0978 8.84919 19.0837 9.99998 19.0837V17.5837ZM4.04475 12.3241C4.27694 13.9925 4.40524 14.9457 4.69189 15.7259L6.09987 15.2086C5.88274 14.6176 5.77344 13.8635 5.53043 12.1174L4.04475 12.3241ZM7.94461 17.4234C7.21654 17.1161 6.52155 16.3563 6.09987 15.2086L4.69189 15.7259C5.21229 17.1423 6.1458 18.2924 7.36143 18.8053L7.94461 17.4234ZM14.4695 12.1174C14.2265 13.8635 14.1172 14.6176 13.9001 15.2086L15.3081 15.7259C15.5947 14.9457 15.723 13.9925 15.9552 12.3241L14.4695 12.1174ZM9.99998 19.0837C11.1508 19.0837 11.9454 19.0978 12.6385 18.8053L12.0553 17.4234C11.7091 17.5695 11.2855 17.5837 9.99998 17.5837V19.0837ZM13.9001 15.2086C13.4784 16.3563 12.7834 17.1161 12.0553 17.4234L12.6385 18.8053C13.8542 18.2924 14.7877 17.1423 15.3081 15.7259L13.9001 15.2086ZM5.31182 10.5465C5.12657 9.21539 4.98882 8.22435 4.91328 7.42939L3.42001 7.57127C3.49935 8.40629 3.64266 9.43491 3.82614 10.7533L5.31182 10.5465ZM16.1738 10.7533C16.3573 9.43491 16.5006 8.40629 16.5799 7.57127L15.0867 7.42938C15.0111 8.22435 14.8734 9.21539 14.6881 10.5465L16.1738 10.7533ZM16.6666 5.08366H3.33331V6.58366H16.6666V5.08366ZM9.08331 15.0003V8.33366H7.58331V15.0003H9.08331ZM12.4166 15.0003V8.33366H10.9166V15.0003H12.4166ZM12.5833 5.00033V5.83366H14.0833V5.00033H12.5833ZM13.3333 5.08366H6.66665V6.58366H13.3333V5.08366ZM7.41665 5.83366V5.00033H5.91665V5.83366H7.41665ZM9.99998 2.41699C11.4267 2.41699 12.5833 3.57359 12.5833 5.00033H14.0833C14.0833 2.74516 12.2551 0.916992 9.99998 0.916992V2.41699ZM9.99998 0.916992C7.74482 0.916992 5.91665 2.74516 5.91665 5.00033H7.41665C7.41665 3.57359 8.57324 2.41699 9.99998 2.41699V0.916992Z" fill="#E41717"/>
</svg>
