<svg width="40" height="40" viewBox="0 0 40 40" fill="none" xmlns="http://www.w3.org/2000/svg">
<circle cx="20" cy="20" r="20" fill="#FFE8E8"/>
<path d="M12.4167 20.0002C12.4167 19.5859 12.0809 19.2502 11.6667 19.2502C11.2525 19.2502 10.9167 19.5859 10.9167 20.0002H12.4167ZM14.9992 13.3335L15.4497 13.9331H15.4497L14.9992 13.3335ZM13.3334 14.9994L13.8882 15.504L13.9118 15.478L13.933 15.4499L13.3334 14.9994ZM13.4689 10.8368C13.4708 10.4226 13.1365 10.0854 12.7223 10.0835C12.3081 10.0817 11.9708 10.4159 11.9689 10.8301L13.4689 10.8368ZM12.7116 12.4883L11.9616 12.4849V12.4849L12.7116 12.4883ZM15.7782 15.5549L15.7816 16.3049L15.7782 15.5549ZM17.4363 16.2975C17.8505 16.2957 18.1848 15.9584 18.183 15.5442C18.1811 15.13 17.8438 14.7957 17.4296 14.7975L17.4363 16.2975ZM13.052 14.9191L12.4589 15.3781L12.4589 15.3781L13.052 14.9191ZM13.3474 15.2145L12.8884 15.8076L12.8884 15.8076L13.3474 15.2145ZM10.9167 20.0002C10.9167 25.0167 14.9834 29.0835 20 29.0835V27.5835C15.8119 27.5835 12.4167 24.1883 12.4167 20.0002H10.9167ZM20 29.0835C25.0166 29.0835 29.0834 25.0167 29.0834 20.0002H27.5834C27.5834 24.1883 24.1882 27.5835 20 27.5835V29.0835ZM29.0834 20.0002C29.0834 14.9836 25.0166 10.9168 20 10.9168V12.4168C24.1882 12.4168 27.5834 15.812 27.5834 20.0002H29.0834ZM20 10.9168C17.9556 10.9168 16.067 11.5931 14.5487 12.7339L15.4497 13.9331C16.7172 12.9808 18.2917 12.4168 20 12.4168V10.9168ZM14.5487 12.7339C13.8615 13.2502 13.25 13.8617 12.7337 14.5488L13.933 15.4499C14.3644 14.8756 14.8755 14.3645 15.4497 13.9331L14.5487 12.7339ZM11.9689 10.8301L11.9616 12.4849L13.4615 12.4916L13.4689 10.8368L11.9689 10.8301ZM15.7816 16.3049L17.4363 16.2975L17.4296 14.7975L15.7749 14.8049L15.7816 16.3049ZM11.9616 12.4849C11.9587 13.1271 11.9551 13.6721 12.003 14.1107C12.0526 14.5644 12.1648 14.9981 12.4589 15.3781L13.6451 14.46C13.5899 14.3886 13.529 14.2668 13.4942 13.9478C13.4577 13.6138 13.4585 13.1691 13.4615 12.4916L11.9616 12.4849ZM15.7749 14.8049C15.0974 14.808 14.6527 14.8088 14.3186 14.7723C13.9996 14.7375 13.8778 14.6766 13.8064 14.6213L12.8884 15.8076C13.2683 16.1016 13.7021 16.2139 14.1558 16.2635C14.5944 16.3113 15.1394 16.3078 15.7816 16.3049L15.7749 14.8049ZM12.4589 15.3781C12.5372 15.4793 12.6234 15.5739 12.7166 15.6612L13.7419 14.5664C13.7069 14.5336 13.6746 14.498 13.6451 14.46L12.4589 15.3781ZM12.7166 15.6612C12.7715 15.7126 12.8288 15.7615 12.8884 15.8076L13.8064 14.6213C13.7841 14.604 13.7625 14.5857 13.7419 14.5664L12.7166 15.6612ZM12.7785 14.4947L12.6744 14.6092L13.7841 15.6184L13.8882 15.504L12.7785 14.4947Z" fill="#E41717"/>
</svg>
