<svg width="21" height="22" viewBox="0 0 21 22" fill="none" xmlns="http://www.w3.org/2000/svg">
<path d="M6.75814 19.6213L6.32632 20.32L6.75814 19.6213ZM6.36654 19.3968L6.66896 18.633L6.36654 19.3968ZM5.56799 19.4133L5.77409 20.2085L5.56799 19.4133ZM5.93987 19.3323L6.00316 20.1513L5.93987 19.3323ZM2.21005 16.0554L1.4149 15.8493L2.21005 16.0554ZM2.29105 15.6832L3.11007 15.746L2.29105 15.6832ZM2.00137 14.8657L1.30369 15.2992L2.00137 14.8657ZM2.22585 15.2553L1.46272 15.5592L2.22585 15.2553ZM1.82978 18.2977L2.63471 18.1338L1.82978 18.2977ZM3.32572 19.7936L3.48953 18.9887L3.32572 19.7936ZM6.71709 12.0601C6.26343 12.0601 5.89566 12.4279 5.89566 12.8815C5.89566 13.3352 6.26343 13.703 6.71709 13.703V12.0601ZM14.3838 13.703C14.8374 13.703 15.2052 13.3352 15.2052 12.8815C15.2052 12.4279 14.8374 12.0601 14.3838 12.0601V13.703ZM6.71709 8.22679C6.26343 8.22679 5.89566 8.59455 5.89566 9.04822C5.89566 9.50188 6.26343 9.86965 6.71709 9.86965V8.22679ZM14.3838 9.86965C14.8374 9.86965 15.2052 9.50188 15.2052 9.04822C15.2052 8.59455 14.8374 8.22679 14.3838 8.22679V9.86965ZM4.32661 4.90555C7.74835 1.48382 13.2961 1.48382 16.7178 4.90555L17.8795 3.74388C13.8162 -0.319435 7.22825 -0.319435 3.16493 3.74388L4.32661 4.90555ZM16.7178 4.90555C20.1395 8.32729 20.1395 13.875 16.7178 17.2968L17.8795 18.4584C21.9428 14.3951 21.9428 7.80719 17.8795 3.74388L16.7178 4.90555ZM2.69905 14.4321C1.67569 12.7854 1.54687 10.9508 1.95078 9.23223C2.35752 7.50156 3.29633 5.93584 4.32661 4.90555L3.16493 3.74388C1.92551 4.9833 0.83039 6.81868 0.351492 8.85637C-0.130243 10.9061 0.00358802 13.2072 1.30369 15.2992L2.69905 14.4321ZM16.7178 17.2968C15.7364 18.2782 14.1728 19.2174 12.426 19.6352C10.6906 20.0504 8.83534 19.9393 7.18997 18.9225L6.32632 20.32C8.42785 21.6187 10.7543 21.7243 12.8082 21.233C14.8506 20.7444 16.6839 19.654 17.8795 18.4584L16.7178 17.2968ZM7.18997 18.9225C7.01906 18.8169 6.83399 18.6984 6.66896 18.633L6.06411 20.1605C6.04457 20.1528 6.04741 20.1514 6.10016 20.1821C6.15075 20.2116 6.21828 20.2533 6.32632 20.32L7.18997 18.9225ZM5.77409 20.2085C5.87474 20.1824 5.93225 20.1676 5.97538 20.1578C6.01551 20.1487 6.01718 20.1502 6.00316 20.1513L5.87659 18.5133C5.70143 18.5269 5.51975 18.5772 5.3619 18.6182L5.77409 20.2085ZM6.66896 18.633C6.40213 18.5274 6.16274 18.4912 5.87659 18.5133L6.00316 20.1513C6.02175 20.1499 6.03153 20.1499 6.03528 20.1499C6.03844 20.15 6.03759 20.1501 6.03457 20.1497C6.03154 20.1492 6.03077 20.1489 6.03381 20.1497C6.03742 20.1508 6.04676 20.1536 6.06411 20.1605L6.66896 18.633ZM3.00521 16.2615C3.04614 16.1035 3.0966 15.9217 3.11007 15.746L1.47203 15.6203C1.4731 15.6064 1.47458 15.608 1.46554 15.648C1.45579 15.6911 1.441 15.7486 1.4149 15.8493L3.00521 16.2615ZM1.30369 15.2992C1.37039 15.4066 1.41189 15.4735 1.44126 15.5236C1.47177 15.5757 1.47041 15.5785 1.46272 15.5592L2.98898 14.9513C2.92313 14.786 2.8045 14.6018 2.69905 14.4321L1.30369 15.2992ZM3.11007 15.746C3.13206 15.4594 3.09532 15.2183 2.98898 14.9513L1.46272 15.5592C1.46949 15.5762 1.47236 15.5854 1.4734 15.5891C1.47429 15.5922 1.47396 15.5916 1.47354 15.5888C1.47312 15.586 1.47325 15.5854 1.47333 15.5886C1.47342 15.5924 1.47343 15.6021 1.47203 15.6203L3.11007 15.746ZM1.4149 15.8493C1.26162 16.4407 1.13582 16.9243 1.06242 17.3135C0.989738 17.6989 0.948282 18.0852 1.02485 18.4615L2.63471 18.1338C2.62291 18.0759 2.61538 17.9437 2.67682 17.6179C2.73754 17.2959 2.84606 16.8755 3.00521 16.2615L1.4149 15.8493ZM5.3619 18.6182C4.7479 18.7773 4.32745 18.8858 4.00544 18.9465C3.67962 19.008 3.54749 19.0005 3.48953 18.9887L3.1619 20.5985C3.53814 20.6751 3.92445 20.6336 4.30987 20.5609C4.69911 20.4876 5.1827 20.3618 5.77409 20.2085L5.3619 18.6182ZM1.02485 18.4615C1.24395 19.538 2.08532 20.3794 3.1619 20.5985L3.48953 18.9887C3.0589 18.901 2.72235 18.5645 2.63471 18.1338L1.02485 18.4615ZM6.71709 13.703H14.3838V12.0601H6.71709V13.703ZM6.71709 9.86965H14.3838V8.22679H6.71709V9.86965Z" fill="white"/>
</svg>
