<svg width="30" height="29" viewBox="0 0 30 29" fill="none" xmlns="http://www.w3.org/2000/svg">
<g filter="url(#filter0_d_2288_27589)">
<path d="M13.6355 7.98868C14.1694 6.81932 15.8306 6.81932 16.3645 7.98867L17.4518 10.3702C17.6702 10.8486 18.1231 11.1776 18.6455 11.2375L21.2465 11.5357C22.5236 11.6821 23.037 13.262 22.0898 14.1311L20.1608 15.9012C19.7734 16.2567 19.6004 16.7891 19.7049 17.3044L20.2251 19.8702C20.4805 21.1301 19.1365 22.1065 18.0172 21.4743L15.7377 20.1867C15.2799 19.9281 14.7201 19.9281 14.2623 20.1867L11.9828 21.4743C10.8635 22.1065 9.51952 21.1301 9.77493 19.8702L10.2951 17.3044C10.3996 16.7891 10.2266 16.2567 9.83917 15.9012L7.91018 14.1311C6.96303 13.262 7.47639 11.6821 8.75349 11.5357L11.3545 11.2375C11.8769 11.1776 12.3298 10.8486 12.5482 10.3702L13.6355 7.98868Z" fill="url(#paint0_radial_2288_27589)"/>
</g>
<defs>
<filter id="filter0_d_2288_27589" x="0.422363" y="0.111572" width="29.1553" height="28.5605" filterUnits="userSpaceOnUse" color-interpolation-filters="sRGB">
<feFlood flood-opacity="0" result="BackgroundImageFix"/>
<feColorMatrix in="SourceAlpha" type="matrix" values="0 0 0 0 0 0 0 0 0 0 0 0 0 0 0 0 0 0 127 0" result="hardAlpha"/>
<feOffset/>
<feGaussianBlur stdDeviation="3.5"/>
<feComposite in2="hardAlpha" operator="out"/>
<feColorMatrix type="matrix" values="0 0 0 0 0.98775 0 0 0 0 1 0 0 0 0 0.3875 0 0 0 0.74 0"/>
<feBlend mode="normal" in2="BackgroundImageFix" result="effect1_dropShadow_2288_27589"/>
<feBlend mode="normal" in="SourceGraphic" in2="effect1_dropShadow_2288_27589" result="shape"/>
</filter>
<radialGradient id="paint0_radial_2288_27589" cx="0" cy="0" r="1" gradientUnits="userSpaceOnUse" gradientTransform="translate(15 15) rotate(90) scale(10)">
<stop stop-color="#FAFF10"/>
<stop offset="1" stop-color="#FFA114"/>
</radialGradient>
</defs>
</svg>
