<svg width="56" height="41" viewBox="0 0 56 41" fill="none" xmlns="http://www.w3.org/2000/svg">
<path d="M15.857 0.0921522C17.597 -0.0078478 19.335 0.0001522 21.075 0.0001522C21.087 0.0001522 29.892 0.0001522 29.892 0.0001522C31.666 0.0001522 33.404 -0.0078478 35.143 0.0921522C36.724 0.182152 38.264 0.374152 39.797 0.803152C43.024 1.70515 45.842 3.58915 47.879 6.26015C49.904 8.91415 51 12.1632 51 15.4992C51 18.8392 49.904 22.0862 47.879 24.7402C45.842 27.4102 43.024 29.2952 39.797 30.1972C38.264 30.6262 36.724 30.8172 35.143 30.9082C33.404 31.0082 31.666 30.9992 29.926 30.9992C29.914 30.9992 21.107 31.0002 21.107 31.0002C19.335 30.9992 17.597 31.0082 15.857 30.9082C14.277 30.8172 12.737 30.6262 11.204 30.1972C7.977 29.2952 5.159 27.4102 3.122 24.7402C1.097 22.0862 0 18.8392 0 15.5002C0 12.1632 1.097 8.91415 3.122 6.26015C5.159 3.58915 7.977 1.70515 11.204 0.803152C12.737 0.374152 14.277 0.182152 15.857 0.0921522Z" fill="#8327D8"/>
<g filter="url(#filter0_d_923_19127)">
<circle cx="35.5" cy="15.5" r="13.5" fill="white"/>
</g>
<defs>
<filter id="filter0_d_923_19127" x="15" y="0" width="41" height="41" filterUnits="userSpaceOnUse" color-interpolation-filters="sRGB">
<feFlood flood-opacity="0" result="BackgroundImageFix"/>
<feColorMatrix in="SourceAlpha" type="matrix" values="0 0 0 0 0 0 0 0 0 0 0 0 0 0 0 0 0 0 127 0" result="hardAlpha"/>
<feMorphology radius="1" operator="erode" in="SourceAlpha" result="effect1_dropShadow_923_19127"/>
<feOffset dy="5"/>
<feGaussianBlur stdDeviation="4"/>
<feComposite in2="hardAlpha" operator="out"/>
<feColorMatrix type="matrix" values="0 0 0 0 0.513725 0 0 0 0 0.152941 0 0 0 0 0.847059 0 0 0 0.32 0"/>
<feBlend mode="normal" in2="BackgroundImageFix" result="effect1_dropShadow_923_19127"/>
<feBlend mode="normal" in="SourceGraphic" in2="effect1_dropShadow_923_19127" result="shape"/>
</filter>
</defs>
</svg>
