<svg width="24" height="24" viewBox="0 0 24 24" fill="none" xmlns="http://www.w3.org/2000/svg">
<path d="M18.2923 16.2316C17.9994 15.9387 17.5246 15.9387 17.2317 16.2316C16.9388 16.5245 16.9388 16.9994 17.2317 17.2923L18.2923 16.2316ZM20.4697 20.5303C20.7626 20.8232 21.2374 20.8232 21.5303 20.5303C21.8232 20.2374 21.8232 19.7626 21.5303 19.4697L20.4697 20.5303ZM17.2317 17.2923L20.4697 20.5303L21.5303 19.4697L18.2923 16.2316L17.2317 17.2923ZM11.2857 16.8214C7.67614 16.8214 4.75 13.8953 4.75 10.2857H3.25C3.25 14.7237 6.84772 18.3214 11.2857 18.3214V16.8214ZM17.8215 10.2857C17.8215 13.8953 14.8953 16.8214 11.2857 16.8214V18.3214C15.7237 18.3214 19.3215 14.7237 19.3215 10.2857H17.8215ZM11.2857 3.75C14.8953 3.75 17.8215 6.67614 17.8215 10.2857H19.3215C19.3215 5.8477 15.7237 2.25 11.2857 2.25V3.75ZM11.2857 2.25C6.84772 2.25 3.25 5.8477 3.25 10.2857H4.75C4.75 6.67614 7.67614 3.75 11.2857 3.75V2.25Z" fill="#281E30"/>
</svg>
