<svg width="20" height="21" viewBox="0 0 20 21" fill="none" xmlns="http://www.w3.org/2000/svg">
<path d="M5.83329 14.6665C6.38885 13.5951 7.99996 12.1665 9.99996 12.1665C12 12.1665 13.6111 13.5951 14.1666 14.6665M18.3333 10.4998C18.3333 15.1022 14.6023 18.8332 9.99996 18.8332C5.39759 18.8332 1.66663 15.1022 1.66663 10.4998C1.66663 5.89746 5.39759 2.1665 9.99996 2.1665C14.6023 2.1665 18.3333 5.89746 18.3333 10.4998Z" stroke="#281E30" stroke-width="1.5" stroke-linecap="round"/>
<path d="M8.33329 7.16634C8.33329 7.62658 7.9602 7.99967 7.49996 7.99967C7.03972 7.99967 6.66663 7.62658 6.66663 7.16634C6.66663 6.7061 7.03972 6.33301 7.49996 6.33301C7.9602 6.33301 8.33329 6.7061 8.33329 7.16634Z" fill="#281E30"/>
<path d="M13.3333 7.16634C13.3333 7.62658 12.9602 7.99967 12.5 7.99967C12.0397 7.99967 11.6666 7.62658 11.6666 7.16634C11.6666 6.7061 12.0397 6.33301 12.5 6.33301C12.9602 6.33301 13.3333 6.7061 13.3333 7.16634Z" fill="#281E30"/>
</svg>
