<svg width="20" height="20" viewBox="0 0 20 20" fill="none" xmlns="http://www.w3.org/2000/svg">
<path d="M16.6667 10.7502C17.0809 10.7502 17.4167 10.4144 17.4167 10.0002C17.4167 9.58595 17.0809 9.25016 16.6667 9.25016V10.7502ZM3.33337 9.25016C2.91916 9.25016 2.58337 9.58595 2.58337 10.0002C2.58337 10.4144 2.91916 10.7502 3.33337 10.7502V9.25016ZM6.13875 14.6995C6.43295 14.9911 6.90781 14.989 7.1994 14.6948C7.49098 14.4006 7.48886 13.9257 7.19467 13.6341L6.13875 14.6995ZM5.19757 12.7107L5.72553 12.178L5.19757 12.7107ZM5.19757 7.28959L4.66961 6.7569L5.19757 7.28959ZM7.19467 6.36619C7.48886 6.0746 7.49098 5.59973 7.1994 5.30554C6.90782 5.01134 6.43295 5.00922 6.13875 5.30081L7.19467 6.36619ZM3.34995 10.2613L2.60597 10.3561L2.60597 10.3561L3.34995 10.2613ZM3.34995 9.73905L2.60597 9.64422L2.60597 9.64422L3.34995 9.73905ZM16.6667 9.25016H3.33337V10.7502H16.6667V9.25016ZM7.19467 13.6341L5.72553 12.178L4.66961 13.2434L6.13875 14.6995L7.19467 13.6341ZM5.72552 7.82228L7.19467 6.36619L6.13875 5.30081L4.66961 6.7569L5.72552 7.82228ZM5.72553 12.178C5.12719 11.585 4.72426 11.1841 4.453 10.8463C4.19123 10.5204 4.11436 10.3268 4.09393 10.1664L2.60597 10.3561C2.67573 10.9034 2.93687 11.354 3.28346 11.7856C3.62055 12.2053 4.09633 12.6752 4.66961 13.2434L5.72553 12.178ZM4.66961 6.7569C4.09633 7.32508 3.62055 7.79503 3.28346 8.21477C2.93687 8.64635 2.67573 9.09688 2.60597 9.64422L4.09393 9.83388C4.11436 9.67357 4.19123 9.47996 4.453 9.15402C4.72426 8.81624 5.12719 8.41529 5.72552 7.82228L4.66961 6.7569ZM4.09393 10.1664C4.07986 10.056 4.07986 9.9443 4.09393 9.83388L2.60597 9.64422C2.57584 9.88057 2.57584 10.1198 2.60597 10.3561L4.09393 10.1664Z" fill="#2D264B"/>
</svg>
