<svg width="20" height="21" viewBox="0 0 20 21" fill="none" xmlns="http://www.w3.org/2000/svg">
<path d="M5.95837 6.9585C5.95837 7.92499 6.74188 8.7085 7.70837 8.7085V10.2085C5.91345 10.2085 4.45837 8.75342 4.45837 6.9585H5.95837ZM7.70837 8.7085C8.67487 8.7085 9.45837 7.92499 9.45837 6.9585H10.9584C10.9584 8.75342 9.5033 10.2085 7.70837 10.2085V8.7085ZM9.45837 6.9585C9.45837 5.992 8.67487 5.2085 7.70837 5.2085V3.7085C9.5033 3.7085 10.9584 5.16357 10.9584 6.9585H9.45837ZM7.70837 5.2085C6.74188 5.2085 5.95837 5.992 5.95837 6.9585H4.45837C4.45837 5.16357 5.91345 3.7085 7.70837 3.7085V5.2085ZM10.2084 12.7085H5.20837V11.2085H10.2084V12.7085ZM5.20837 16.2085H10.2084V17.7085H5.20837V16.2085ZM10.2084 16.2085C11.1749 16.2085 11.9584 15.425 11.9584 14.4585H13.4584C13.4584 16.2534 12.0033 17.7085 10.2084 17.7085V16.2085ZM3.45837 14.4585C3.45837 15.425 4.24188 16.2085 5.20837 16.2085V17.7085C3.41345 17.7085 1.95837 16.2534 1.95837 14.4585H3.45837ZM5.20837 12.7085C4.24188 12.7085 3.45837 13.492 3.45837 14.4585H1.95837C1.95837 12.6636 3.41345 11.2085 5.20837 11.2085V12.7085ZM10.2084 11.2085C12.0033 11.2085 13.4584 12.6636 13.4584 14.4585H11.9584C11.9584 13.492 11.1749 12.7085 10.2084 12.7085V11.2085Z" fill="#281E30"/>
<path d="M11.2482 9.15737C11.3797 8.94622 11.6263 8.8335 11.875 8.8335C12.9105 8.8335 13.75 7.99403 13.75 6.9585C13.75 5.92296 12.9105 5.0835 11.875 5.0835C11.6263 5.0835 11.3797 4.97077 11.2482 4.75962C11.2424 4.75028 11.2366 4.74097 11.2307 4.73168C11.0118 4.38625 11.1227 3.89716 11.5292 3.85242C11.6427 3.83991 11.7581 3.8335 11.875 3.8335C13.6009 3.8335 15 5.23261 15 6.9585C15 8.68439 13.6009 10.0835 11.875 10.0835C11.7581 10.0835 11.6427 10.0771 11.5292 10.0646C11.1227 10.0198 11.0118 9.53074 11.2307 9.18532C11.2366 9.17603 11.2424 9.16671 11.2482 9.15737Z" fill="#281E30"/>
<path d="M13.7848 15.7642C13.8794 15.6064 14.0463 15.5002 14.2303 15.5002H14.375C15.4105 15.5002 16.25 14.6607 16.25 13.6252C16.25 12.5896 15.4105 11.7502 14.375 11.7502H14.2303C14.0463 11.7502 13.8794 11.6439 13.7848 11.4861C13.5538 11.1008 13.8044 10.5002 14.2536 10.5002H14.375C16.1009 10.5002 17.5 11.8993 17.5 13.6252C17.5 15.3511 16.1009 16.7502 14.375 16.7502H14.2536C13.8044 16.7502 13.5538 16.1495 13.7848 15.7642Z" fill="#281E30"/>
</svg>
