<svg width="20" height="20" viewBox="0 0 20 20" fill="none" xmlns="http://www.w3.org/2000/svg">
<path d="M17.4167 8.33317C17.4167 7.91896 17.0809 7.58317 16.6667 7.58317C16.2525 7.58317 15.9167 7.91896 15.9167 8.33317H17.4167ZM4.08337 8.33317C4.08337 7.91896 3.74759 7.58317 3.33337 7.58317C2.91916 7.58317 2.58337 7.91896 2.58337 8.33317H4.08337ZM8.15147 17.6056C7.74963 17.706 7.50531 18.1132 7.60577 18.5151C7.70623 18.9169 8.11343 19.1612 8.51528 19.0608L8.15147 17.6056ZM8.98948 18.1691L8.80757 17.4415L8.98948 18.1691ZM11.0106 18.1691L11.1925 17.4415L11.0106 18.1691ZM11.4848 19.0608C11.8867 19.1612 12.2939 18.9169 12.3943 18.5151C12.4948 18.1132 12.2505 17.706 11.8486 17.6056L11.4848 19.0608ZM8.51287 7.62166C8.11991 7.75264 7.90754 8.17738 8.03853 8.57034C8.16951 8.9633 8.59425 9.17567 8.98721 9.04468L8.51287 7.62166ZM8.94595 8.26787L8.70878 7.55636L8.94595 8.26787ZM11.0541 8.26787L10.817 8.97938H10.817L11.0541 8.26787ZM11.0129 9.04468C11.4058 9.17567 11.8306 8.9633 11.9616 8.57034C12.0925 8.17738 11.8802 7.75264 11.4872 7.62166L11.0129 9.04468ZM8.15147 4.6889C7.74963 4.78936 7.50531 5.19656 7.60577 5.59841C7.70623 6.00025 8.11343 6.24457 8.51528 6.14411L8.15147 4.6889ZM8.98948 5.25248L8.80757 4.52487L8.98948 5.25248ZM11.0106 5.25248L11.1925 4.52487L11.0106 5.25248ZM11.4848 6.14411C11.8867 6.24457 12.2939 6.00025 12.3943 5.59841C12.4948 5.19656 12.2505 4.78936 11.8486 4.6889L11.4848 6.14411ZM10 18.0447V18.7947V18.0447ZM12.5834 4.99984V8.33317H14.0834V4.99984H12.5834ZM7.41671 8.33317V4.99984H5.91671V8.33317H7.41671ZM10 10.9165C8.5733 10.9165 7.41671 9.75991 7.41671 8.33317H5.91671C5.91671 10.5883 7.74488 12.4165 10 12.4165V10.9165ZM12.5834 8.33317C12.5834 9.75991 11.4268 10.9165 10 10.9165V12.4165C12.2552 12.4165 14.0834 10.5883 14.0834 8.33317H12.5834ZM10 2.4165C11.4268 2.4165 12.5834 3.5731 12.5834 4.99984H14.0834C14.0834 2.74467 12.2552 0.916504 10 0.916504V2.4165ZM10 0.916504C7.74488 0.916504 5.91671 2.74467 5.91671 4.99984H7.41671C7.41671 3.5731 8.5733 2.4165 10 2.4165V0.916504ZM15.9167 8.33317C15.9167 11.6009 13.2677 14.2498 10 14.2498V15.7498C14.0962 15.7498 17.4167 12.4293 17.4167 8.33317H15.9167ZM10 14.2498C6.73236 14.2498 4.08337 11.6009 4.08337 8.33317H2.58337C2.58337 12.4293 5.90393 15.7498 10 15.7498V14.2498ZM9.25004 15.8332V17.4998H10.75V15.8332H9.25004ZM8.51528 19.0608L9.17138 18.8968L8.80757 17.4415L8.15147 17.6056L8.51528 19.0608ZM10.8287 18.8968L11.4848 19.0608L11.8486 17.6056L11.1925 17.4415L10.8287 18.8968ZM8.98721 9.04468L9.18312 8.97938L8.70878 7.55636L8.51287 7.62166L8.98721 9.04468ZM10.817 8.97938L11.0129 9.04468L11.4872 7.62166L11.2913 7.55636L10.817 8.97938ZM9.18312 8.97938C9.71339 8.80262 10.2867 8.80262 10.817 8.97938L11.2913 7.55636C10.4531 7.27697 9.54695 7.27697 8.70878 7.55636L9.18312 8.97938ZM8.51528 6.14411L9.17138 5.98009L8.80757 4.52487L8.15147 4.6889L8.51528 6.14411ZM10.8287 5.98009L11.4848 6.14411L11.8486 4.6889L11.1925 4.52487L10.8287 5.98009ZM9.17138 5.98009C9.71545 5.84407 10.2846 5.84407 10.8287 5.98009L11.1925 4.52487C10.4096 4.32914 9.5905 4.32914 8.80757 4.52487L9.17138 5.98009ZM10.75 15.8332V14.9998H9.25004V15.8332H10.75ZM9.17138 18.8968C9.44341 18.8287 9.72172 18.7947 10 18.7947V17.2947C9.59954 17.2947 9.19904 17.3437 8.80757 17.4415L9.17138 18.8968ZM10 18.7947C10.2784 18.7947 10.5567 18.8287 10.8287 18.8968L11.1925 17.4415C10.801 17.3437 10.4005 17.2947 10 17.2947V18.7947ZM9.25004 17.4998V18.0447H10.75V17.4998H9.25004Z" fill="#281E30"/>
</svg>
