<svg width="20" height="20" viewBox="0 0 20 20" fill="none" xmlns="http://www.w3.org/2000/svg">
<path d="M10.8333 13.3333C10.8333 13.7936 10.4602 14.1667 9.99996 14.1667C9.53972 14.1667 9.16663 13.7936 9.16663 13.3333C9.16663 12.8731 9.53972 12.5 9.99996 12.5C10.4602 12.5 10.8333 12.8731 10.8333 13.3333Z" fill="#E41717"/>
<path d="M10.75 5.83317C10.75 5.41896 10.4142 5.08317 9.99996 5.08317C9.58575 5.08317 9.24996 5.41896 9.24996 5.83317H10.75ZM9.24996 10.8332C9.24996 11.2474 9.58575 11.5832 9.99996 11.5832C10.4142 11.5832 10.75 11.2474 10.75 10.8332H9.24996ZM9.24996 5.83317V10.8332H10.75V5.83317H9.24996ZM17.5833 9.99984C17.5833 14.188 14.1881 17.5832 9.99996 17.5832V19.0832C15.0165 19.0832 19.0833 15.0164 19.0833 9.99984H17.5833ZM9.99996 17.5832C5.8118 17.5832 2.41663 14.188 2.41663 9.99984H0.916626C0.916626 15.0164 4.98337 19.0832 9.99996 19.0832V17.5832ZM2.41663 9.99984C2.41663 5.81168 5.8118 2.4165 9.99996 2.4165V0.916504C4.98337 0.916504 0.916626 4.98325 0.916626 9.99984H2.41663ZM9.99996 2.4165C14.1881 2.4165 17.5833 5.81168 17.5833 9.99984H19.0833C19.0833 4.98325 15.0165 0.916504 9.99996 0.916504V2.4165Z" fill="#E41717"/>
</svg>
