<svg width="20" height="21" viewBox="0 0 20 21" fill="none" xmlns="http://www.w3.org/2000/svg">
<path d="M6.01486 17.9487L5.89753 18.6895H5.89753L6.01486 17.9487ZM2.5513 14.4851L3.29206 14.3678L2.5513 14.4851ZM17.4487 14.4851L18.1895 14.6025L18.1895 14.6025L17.4487 14.4851ZM13.9851 17.9487L14.1025 18.6895H14.1025L13.9851 17.9487ZM17.2666 9.21623C17.0179 8.88504 16.5477 8.81822 16.2165 9.06699C15.8853 9.31576 15.8185 9.78591 16.0673 10.1171L17.2666 9.21623ZM3.9327 10.1171C4.18147 9.78591 4.11465 9.31576 3.78346 9.06699C3.45227 8.81822 2.98212 8.88504 2.73335 9.21623L3.9327 10.1171ZM9.25 14.6667C9.25 15.0809 9.58579 15.4167 10 15.4167C10.4142 15.4167 10.75 15.0809 10.75 14.6667H9.25ZM6.07898 5.86736C5.82164 6.19193 5.87613 6.66367 6.2007 6.92102C6.52527 7.17836 6.997 7.12387 7.25435 6.7993L6.07898 5.86736ZM7.83154 4.86419L7.24386 4.39822H7.24386L7.83154 4.86419ZM12.1685 4.86419L12.7561 4.39822L12.1685 4.86419ZM12.7457 6.7993C13.003 7.12387 13.4747 7.17837 13.7993 6.92102C14.1239 6.66367 14.1784 6.19193 13.921 5.86736L12.7457 6.7993ZM9.79111 3.01657L9.67311 2.27592L9.67311 2.27592L9.79111 3.01657ZM10.2089 3.01657L10.3269 2.27592L10.3269 2.27592L10.2089 3.01657ZM16.75 12.1667V13H18.25V12.1667H16.75ZM12.5 17.25H7.5V18.75H12.5V17.25ZM3.25 13V12.1667H1.75V13H3.25ZM7.5 17.25C6.69717 17.25 6.38307 17.2477 6.13218 17.2079L5.89753 18.6895C6.29441 18.7523 6.75449 18.75 7.5 18.75V17.25ZM1.75 13C1.75 13.7455 1.74767 14.2056 1.81053 14.6025L3.29206 14.3678C3.25233 14.1169 3.25 13.8028 3.25 13H1.75ZM6.13218 17.2079C4.67022 16.9764 3.52362 15.8298 3.29206 14.3678L1.81053 14.6025C2.14374 16.7063 3.79373 18.3563 5.89753 18.6895L6.13218 17.2079ZM16.75 13C16.75 13.8028 16.7477 14.1169 16.7079 14.3678L18.1895 14.6025C18.2523 14.2056 18.25 13.7455 18.25 13H16.75ZM12.5 18.75C13.2455 18.75 13.7056 18.7523 14.1025 18.6895L13.8678 17.2079C13.6169 17.2477 13.3028 17.25 12.5 17.25V18.75ZM16.7079 14.3678C16.4764 15.8298 15.3298 16.9764 13.8678 17.2079L14.1025 18.6895C16.2063 18.3563 17.8563 16.7063 18.1895 14.6025L16.7079 14.3678ZM18.25 12.1667C18.25 11.0607 17.8839 10.038 17.2666 9.21623L16.0673 10.1171C16.4962 10.6881 16.75 11.3966 16.75 12.1667H18.25ZM3.25 12.1667C3.25 11.3966 3.50384 10.6881 3.9327 10.1171L2.73335 9.21623C2.11607 10.038 1.75 11.0607 1.75 12.1667H3.25ZM10.75 14.6667V3.83333H9.25V14.6667H10.75ZM7.25435 6.7993L8.41922 5.33016L7.24386 4.39822L6.07898 5.86736L7.25435 6.7993ZM11.5808 5.33016L12.7457 6.7993L13.921 5.86736L12.7561 4.39822L11.5808 5.33016ZM8.41922 5.33016C8.89509 4.73 9.21289 4.33104 9.47874 4.06416C9.74125 3.80064 9.85955 3.76513 9.90912 3.75723L9.67311 2.27592C9.15655 2.35822 8.75955 2.66071 8.41604 3.00555C8.07587 3.34703 7.69695 3.82677 7.24386 4.39822L8.41922 5.33016ZM12.7561 4.39822C12.303 3.82677 11.9241 3.34703 11.584 3.00555C11.2405 2.66071 10.8435 2.35822 10.3269 2.27592L10.0909 3.75723C10.1405 3.76513 10.2588 3.80064 10.5213 4.06416C10.7871 4.33104 11.1049 4.73 11.5808 5.33016L12.7561 4.39822ZM9.90912 3.75723C9.93959 3.75238 9.9699 3.75 10 3.75V2.25C9.89057 2.25 9.78135 2.25867 9.67311 2.27592L9.90912 3.75723ZM10 3.75C10.0301 3.75 10.0604 3.75238 10.0909 3.75723L10.3269 2.27592C10.2187 2.25867 10.1094 2.25 10 2.25V3.75ZM10.75 3.83333V3H9.25V3.83333H10.75Z" fill="#281E30"/>
</svg>
