<svg width="20" height="20" viewBox="0 0 20 20" fill="none" xmlns="http://www.w3.org/2000/svg">
<path d="M15.431 10.6494L16.1739 10.7528L15.431 10.6494ZM15.2124 12.2203L15.9553 12.3236L15.2124 12.2203ZM4.78765 12.2203L5.5305 12.1169H5.53049L4.78765 12.2203ZM4.56904 10.6494L3.8262 10.7528L4.56904 10.6494ZM7.65308 18.1139L7.36149 18.8049H7.36149L7.65308 18.1139ZM5.39594 15.4668L6.09993 15.2081H6.09993L5.39594 15.4668ZM14.6041 15.4668L15.3081 15.7254L14.6041 15.4668ZM12.347 18.1139L12.0554 17.4229L12.347 18.1139ZM4.91334 7.4289C4.87417 7.01654 4.50812 6.71402 4.09577 6.7532C3.68341 6.79238 3.38089 7.15842 3.42007 7.57078L4.91334 7.4289ZM16.58 7.57078C16.6192 7.15842 16.3167 6.79238 15.9043 6.7532C15.492 6.71402 15.1259 7.01654 15.0867 7.4289L16.58 7.57078ZM16.6667 6.58317C17.0809 6.58317 17.4167 6.24738 17.4167 5.83317C17.4167 5.41896 17.0809 5.08317 16.6667 5.08317V6.58317ZM3.33337 5.08317C2.91916 5.08317 2.58337 5.41896 2.58337 5.83317C2.58337 6.24738 2.91916 6.58317 3.33337 6.58317V5.08317ZM7.58337 14.9998C7.58337 15.4141 7.91916 15.7498 8.33337 15.7498C8.74759 15.7498 9.08337 15.4141 9.08337 14.9998H7.58337ZM9.08337 8.33317C9.08337 7.91896 8.74759 7.58317 8.33337 7.58317C7.91916 7.58317 7.58337 7.91896 7.58337 8.33317H9.08337ZM10.9167 14.9998C10.9167 15.4141 11.2525 15.7498 11.6667 15.7498C12.0809 15.7498 12.4167 15.4141 12.4167 14.9998H10.9167ZM12.4167 8.33317C12.4167 7.91896 12.0809 7.58317 11.6667 7.58317C11.2525 7.58317 10.9167 7.91896 10.9167 8.33317H12.4167ZM13.3334 5.83317V6.58317H14.0834V5.83317H13.3334ZM6.66671 5.83317H5.91671V6.58317H6.66671V5.83317ZM14.6882 10.546L14.4696 12.1169L15.9553 12.3236L16.1739 10.7528L14.6882 10.546ZM5.53049 12.1169L5.31188 10.546L3.8262 10.7528L4.04481 12.3237L5.53049 12.1169ZM10 17.5832C8.71451 17.5832 8.29093 17.569 7.94467 17.4229L7.36149 18.8049C8.05464 19.0974 8.84925 19.0832 10 19.0832V17.5832ZM4.04481 12.3237C4.277 13.992 4.4053 14.9452 4.69195 15.7254L6.09993 15.2081C5.8828 14.6171 5.7735 13.8631 5.5305 12.1169L4.04481 12.3237ZM7.94467 17.4229C7.2166 17.1156 6.52161 16.3558 6.09993 15.2081L4.69195 15.7254C5.21236 17.1418 6.14586 18.2919 7.36149 18.8049L7.94467 17.4229ZM14.4696 12.1169C14.2266 13.8631 14.1173 14.6171 13.9001 15.2081L15.3081 15.7254C15.5948 14.9452 15.7231 13.992 15.9553 12.3236L14.4696 12.1169ZM10 19.0832C11.1508 19.0832 11.9454 19.0974 12.6386 18.8049L12.0554 17.4229C11.7092 17.569 11.2856 17.5832 10 17.5832V19.0832ZM13.9001 15.2081C13.4785 16.3558 12.7835 17.1156 12.0554 17.4229L12.6386 18.8049C13.8542 18.2919 14.7877 17.1418 15.3081 15.7254L13.9001 15.2081ZM5.31188 10.546C5.12663 9.2149 4.98888 8.22386 4.91334 7.4289L3.42007 7.57078C3.49941 8.40581 3.64273 9.43442 3.8262 10.7528L5.31188 10.546ZM16.1739 10.7528C16.3574 9.43442 16.5007 8.4058 16.58 7.57078L15.0867 7.4289C15.0112 8.22386 14.8734 9.2149 14.6882 10.546L16.1739 10.7528ZM16.6667 5.08317H3.33337V6.58317H16.6667V5.08317ZM9.08337 14.9998V8.33317H7.58337V14.9998H9.08337ZM12.4167 14.9998V8.33317H10.9167V14.9998H12.4167ZM12.5834 4.99984V5.83317H14.0834V4.99984H12.5834ZM13.3334 5.08317H6.66671V6.58317H13.3334V5.08317ZM7.41671 5.83317V4.99984H5.91671V5.83317H7.41671ZM10 2.4165C11.4268 2.4165 12.5834 3.5731 12.5834 4.99984H14.0834C14.0834 2.74467 12.2552 0.916504 10 0.916504V2.4165ZM10 0.916504C7.74488 0.916504 5.91671 2.74467 5.91671 4.99984H7.41671C7.41671 3.5731 8.5733 2.4165 10 2.4165V0.916504Z" fill="#2D264B"/>
</svg>
