<svg width="20" height="21" viewBox="0 0 20 21" fill="none" xmlns="http://www.w3.org/2000/svg">
<path d="M12.5833 5.49984C12.5833 6.92657 11.4267 8.08317 9.99996 8.08317V9.58317C12.2551 9.58317 14.0833 7.755 14.0833 5.49984H12.5833ZM9.99996 8.08317C8.57322 8.08317 7.41663 6.92657 7.41663 5.49984H5.91663C5.91663 7.755 7.7448 9.58317 9.99996 9.58317V8.08317ZM7.41663 5.49984C7.41663 4.0731 8.57322 2.9165 9.99996 2.9165V1.4165C7.7448 1.4165 5.91663 3.24467 5.91663 5.49984H7.41663ZM9.99996 2.9165C11.4267 2.9165 12.5833 4.0731 12.5833 5.49984H14.0833C14.0833 3.24467 12.2551 1.4165 9.99996 1.4165V2.9165ZM7.49996 12.0832H12.5V10.5832H7.49996V12.0832ZM12.5 17.2498H7.49996V18.7498H12.5V17.2498ZM7.49996 17.2498C6.07322 17.2498 4.91663 16.0932 4.91663 14.6665H3.41663C3.41663 16.9217 5.2448 18.7498 7.49996 18.7498V17.2498ZM15.0833 14.6665C15.0833 16.0932 13.9267 17.2498 12.5 17.2498V18.7498C14.7551 18.7498 16.5833 16.9217 16.5833 14.6665H15.0833ZM12.5 12.0832C13.9267 12.0832 15.0833 13.2398 15.0833 14.6665H16.5833C16.5833 12.4113 14.7551 10.5832 12.5 10.5832V12.0832ZM7.49996 10.5832C5.2448 10.5832 3.41663 12.4113 3.41663 14.6665H4.91663C4.91663 13.2398 6.07322 12.0832 7.49996 12.0832V10.5832Z" fill="#281E30"/>
</svg>
