<svg width="20" height="20" viewBox="0 0 20 20" fill="none" xmlns="http://www.w3.org/2000/svg">
<path d="M7.0458 15.6296L7.27757 14.9163L7.0458 15.6296ZM4.37064 12.9544L5.08393 12.7226L4.37064 12.9544ZM15.6294 12.9544L14.9162 12.7226L15.6294 12.9544ZM12.9543 15.6296L12.7225 14.9163L12.9543 15.6296ZM12.9543 4.37076L12.7225 5.08405L12.9543 4.37076ZM15.6294 7.04592L14.9162 7.27769L15.6294 7.04592ZM7.0458 4.37076L7.27757 5.08405L7.0458 4.37076ZM4.37064 7.04592L5.08393 7.27769L4.37064 7.04592ZM5.00004 10.7502C5.41425 10.7502 5.75004 10.4144 5.75004 10.0002C5.75004 9.58595 5.41425 9.25016 5.00004 9.25016V10.7502ZM0.833374 9.25016C0.41916 9.25016 0.083374 9.58595 0.083374 10.0002C0.083374 10.4144 0.41916 10.7502 0.833374 10.7502V9.25016ZM9.25004 5.00016C9.25004 5.41438 9.58583 5.75016 10 5.75016C10.4143 5.75016 10.75 5.41438 10.75 5.00016H9.25004ZM10.75 0.833496C10.75 0.419283 10.4143 0.0834961 10 0.0834961C9.58583 0.0834961 9.25004 0.419283 9.25004 0.833496H10.75ZM9.25004 19.1668C9.25004 19.581 9.58583 19.9168 10 19.9168C10.4143 19.9168 10.75 19.581 10.75 19.1668H9.25004ZM10.75 15.0002C10.75 14.5859 10.4143 14.2502 10 14.2502C9.58583 14.2502 9.25004 14.5859 9.25004 15.0002H10.75ZM19.1667 10.7502C19.5809 10.7502 19.9167 10.4144 19.9167 10.0002C19.9167 9.58595 19.5809 9.25016 19.1667 9.25016V10.7502ZM15 9.25016C14.5858 9.25016 14.25 9.58595 14.25 10.0002C14.25 10.4144 14.5858 10.7502 15 10.7502V9.25016ZM10 15.0835C8.3906 15.0835 7.76375 15.0742 7.27757 14.9163L6.81404 16.3429C7.58313 16.5927 8.50735 16.5835 10 16.5835V15.0835ZM3.41671 10.0002C3.41671 11.4929 3.40745 12.4171 3.65735 13.1862L5.08393 12.7226C4.92596 12.2365 4.91671 11.6096 4.91671 10.0002H3.41671ZM7.27757 14.9163C6.2374 14.5783 5.4219 13.7628 5.08393 12.7226L3.65735 13.1862C4.14369 14.683 5.31722 15.8565 6.81404 16.3429L7.27757 14.9163ZM15.0834 10.0002C15.0834 11.6096 15.0741 12.2365 14.9162 12.7226L16.3427 13.1862C16.5926 12.4171 16.5834 11.4929 16.5834 10.0002H15.0834ZM10 16.5835C11.4927 16.5835 12.417 16.5927 13.186 16.3429L12.7225 14.9163C12.2363 15.0742 11.6095 15.0835 10 15.0835V16.5835ZM14.9162 12.7226C14.5782 13.7628 13.7627 14.5783 12.7225 14.9163L13.186 16.3429C14.6829 15.8565 15.8564 14.683 16.3427 13.1862L14.9162 12.7226ZM10 4.91683C11.6095 4.91683 12.2363 4.92608 12.7225 5.08405L13.186 3.65747C12.417 3.40758 11.4927 3.41683 10 3.41683V4.91683ZM16.5834 10.0002C16.5834 8.50747 16.5926 7.58325 16.3427 6.81416L14.9162 7.27769C15.0741 7.76387 15.0834 8.39072 15.0834 10.0002H16.5834ZM12.7225 5.08405C13.7627 5.42202 14.5782 6.23752 14.9162 7.27769L16.3427 6.81416C15.8564 5.31734 14.6829 4.14381 13.186 3.65747L12.7225 5.08405ZM10 3.41683C8.50735 3.41683 7.58313 3.40758 6.81404 3.65747L7.27757 5.08405C7.76375 4.92608 8.3906 4.91683 10 4.91683V3.41683ZM4.91671 10.0002C4.91671 8.39072 4.92596 7.76387 5.08393 7.27769L3.65735 6.81416C3.40745 7.58325 3.41671 8.50747 3.41671 10.0002H4.91671ZM6.81404 3.65747C5.31722 4.14381 4.14369 5.31734 3.65735 6.81416L5.08393 7.27769C5.4219 6.23752 6.2374 5.42202 7.27757 5.08405L6.81404 3.65747ZM5.00004 9.25016H0.833374V10.7502H5.00004V9.25016ZM10.75 5.00016V0.833496H9.25004V5.00016H10.75ZM10.75 19.1668V15.0002H9.25004V19.1668H10.75ZM19.1667 9.25016H15V10.7502H19.1667V9.25016Z" fill="#281E30"/>
<path d="M8.41675 10.0003C8.41675 10.8748 9.12563 11.5837 10.0001 11.5837C10.8745 11.5837 11.5834 10.8748 11.5834 10.0003C11.5834 9.12587 10.8745 8.41699 10.0001 8.41699C9.12563 8.41699 8.41675 9.12587 8.41675 10.0003Z" stroke="#281E30" stroke-width="1.5"/>
</svg>
