<svg width="143" height="190" viewBox="0 0 143 190" fill="none" xmlns="http://www.w3.org/2000/svg">
<path d="M34.6996 1.5967C35.0291 1.34575 35.0928 0.875173 34.8419 0.545627C34.5909 0.216081 34.1204 0.152361 33.7908 0.403305L34.6996 1.5967ZM63.292 109.915L62.981 109.233L63.292 109.915ZM70.8042 75.7458L71.3512 76.2589L70.8042 75.7458ZM110.368 125.932L110.391 125.183L110.368 125.932ZM134.407 190L141.337 184.807L133.375 181.401L134.407 190ZM31.4055 2.27055C31.0828 2.53026 31.0318 3.00239 31.2915 3.32506C31.5512 3.64774 32.0233 3.69878 32.346 3.43907L31.4055 2.27055ZM27.8848 7.23717C28.1925 6.95985 28.2171 6.48561 27.9397 6.17794C27.6624 5.87026 27.1882 5.84565 26.8805 6.12298L27.8848 7.23717ZM22.5853 10.2322C22.2948 10.5275 22.2988 11.0024 22.5941 11.2928C22.8894 11.5833 23.3643 11.5793 23.6547 11.284L22.5853 10.2322ZM19.66 15.6159C19.9306 15.3023 19.8958 14.8287 19.5822 14.5581C19.2686 14.2875 18.795 14.3223 18.5244 14.6359L19.66 15.6159ZM14.7744 19.296C14.5263 19.6276 14.5939 20.0976 14.9256 20.3458C15.2572 20.594 15.7272 20.5263 15.9754 20.1947L14.7744 19.296ZM12.6345 25.018C12.8575 24.6689 12.7552 24.2052 12.4061 23.9823C12.057 23.7593 11.5933 23.8616 11.3704 24.2107L12.6345 25.018ZM8.35048 29.3708C8.15557 29.7363 8.29385 30.1906 8.65934 30.3855C9.02483 30.5804 9.47912 30.4421 9.67403 30.0766L8.35048 29.3708ZM7.13171 35.3532C7.29584 34.9729 7.12058 34.5315 6.74027 34.3674C6.35996 34.2033 5.91861 34.3785 5.75449 34.7588L7.13171 35.3532ZM3.621 40.3485C3.49021 40.7416 3.70279 41.1662 4.09581 41.297C4.48883 41.4278 4.91347 41.2152 5.04426 40.8222L3.621 40.3485ZM3.44493 46.4503C3.54017 46.0472 3.29059 45.6432 2.88747 45.548C2.48435 45.4527 2.08036 45.7023 1.98512 46.1054L3.44493 46.4503ZM0.876464 51.9877C0.81858 52.3979 1.10415 52.7773 1.5143 52.8352C1.92445 52.8931 2.30386 52.6075 2.36175 52.1973L0.876464 51.9877ZM1.81628 58.0173C1.83549 57.6035 1.51563 57.2525 1.10187 57.2333C0.688098 57.2141 0.3371 57.534 0.31789 57.9477L1.81628 58.0173ZM0.325228 63.9369C0.345555 64.3507 0.697416 64.6696 1.11113 64.6492C1.52484 64.6289 1.84375 64.277 1.82342 63.8633L0.325228 63.9369ZM2.39345 69.6896C2.3331 69.2798 1.95198 68.9965 1.54219 69.0569C1.13239 69.1172 0.849109 69.4984 0.909454 69.9081L2.39345 69.6896ZM2.07388 75.7919C2.17428 76.1938 2.58145 76.4381 2.98331 76.3377C3.38517 76.2373 3.62955 75.8302 3.52915 75.4283L2.07388 75.7919ZM5.22802 81.0212C5.0878 80.6314 4.65817 80.4291 4.26841 80.5694C3.87865 80.7096 3.67636 81.1392 3.81658 81.529L5.22802 81.0212ZM6.13202 87.0574C6.3116 87.4307 6.75976 87.5877 7.13303 87.4081C7.50629 87.2286 7.6633 86.7804 7.48373 86.4071L6.13202 87.0574ZM10.2913 91.5288C10.073 91.1768 9.61065 91.0684 9.25865 91.2868C8.90666 91.5051 8.7983 91.9674 9.01664 92.3194L10.2913 91.5288ZM12.4618 97.2424C12.7181 97.5678 13.1896 97.6239 13.5151 97.3677C13.8405 97.1115 13.8966 96.6399 13.6404 96.3145L12.4618 97.2424ZM17.508 100.677C17.2152 100.384 16.7403 100.384 16.4473 100.676C16.1543 100.969 16.1541 101.444 16.4468 101.737L17.508 100.677ZM20.9509 105.717C21.2781 105.971 21.7493 105.912 22.0033 105.584C22.2573 105.257 22.198 104.786 21.8708 104.532L20.9509 105.717ZM26.6964 107.788C26.338 107.58 25.8791 107.702 25.6714 108.061C25.4636 108.419 25.5857 108.878 25.944 109.086L26.6964 107.788ZM31.3573 111.729C31.7417 111.883 32.1784 111.697 32.3327 111.312C32.487 110.928 32.3005 110.491 31.9161 110.337L31.3573 111.729ZM37.448 112.088C37.0447 111.994 36.6411 112.244 36.5465 112.647C36.4519 113.051 36.7021 113.454 37.1053 113.549L37.448 112.088ZM43.0647 114.467C43.4777 114.498 43.8377 114.189 43.8688 113.775C43.8998 113.362 43.5902 113.002 43.1771 112.971L43.0647 114.467ZM48.9842 112.956C48.5713 112.989 48.2633 113.35 48.2962 113.763C48.3292 114.176 48.6906 114.484 49.1035 114.451L48.9842 112.956ZM55.0535 113.526C55.4571 113.433 55.7085 113.03 55.6151 112.626C55.5217 112.223 55.1189 111.971 54.7154 112.064L55.0535 113.526ZM60.2651 110.368C59.878 110.515 59.6837 110.949 59.831 111.336C59.9784 111.723 60.4117 111.917 60.7988 111.77L60.2651 110.368ZM66.4035 109.297C66.7778 109.119 66.9375 108.672 66.7601 108.298C66.5827 107.924 66.1355 107.764 65.7612 107.941L66.4035 109.297ZM71.1149 105.294C70.747 105.484 70.603 105.937 70.7933 106.305C70.9836 106.673 71.4362 106.816 71.8041 106.626L71.1149 105.294ZM77.0929 103.744C77.4518 103.537 77.5751 103.078 77.3683 102.72C77.1615 102.361 76.7029 102.237 76.344 102.444L77.0929 103.744ZM81.3672 99.3499C81.0219 99.5787 80.9274 100.044 81.1562 100.389C81.3849 100.735 81.8503 100.829 82.1956 100.6L81.3672 99.3499ZM87.1462 96.9963C87.4681 96.7356 87.5177 96.2633 87.257 95.9415C86.9962 95.6196 86.524 95.57 86.2021 95.8307L87.1462 96.9963ZM90.4782 91.8149C90.2032 92.1247 90.2314 92.5987 90.5411 92.8737C90.8509 93.1487 91.3249 93.1205 91.5999 92.8108L90.4782 91.8149ZM94.9826 87.5952C95.1351 87.2101 94.9465 86.7743 94.5614 86.6217C94.1763 86.4692 93.7405 86.6578 93.588 87.0429L94.9826 87.5952ZM93.7881 81.7432C93.9359 82.1302 94.3694 82.3241 94.7563 82.1763C95.1433 82.0285 95.3371 81.595 95.1894 81.2081L93.7881 81.7432ZM91.0667 76.3629C90.7236 76.1309 90.2573 76.221 90.0254 76.5642C89.7934 76.9073 89.8835 77.3736 90.2267 77.6056L91.0667 76.3629ZM84.9873 75.2281C85.3848 75.3446 85.8014 75.1167 85.9178 74.7192C86.0342 74.3216 85.8064 73.905 85.4088 73.7886L84.9873 75.2281ZM79.3153 72.7728C78.9015 72.7546 78.5513 73.0754 78.5331 73.4892C78.5149 73.903 78.8357 74.2532 79.2495 74.2714L79.3153 72.7728ZM73.5911 74.9296C73.9825 74.794 74.1898 74.3668 74.0542 73.9754C73.9186 73.584 73.4914 73.3767 73.1 73.5123L73.5911 74.9296ZM68.527 77.6966C68.328 78.0599 68.4613 78.5157 68.8245 78.7147C69.1878 78.9136 69.6436 78.7804 69.8426 78.4171L68.527 77.6966ZM67.889 83.5539C67.9922 83.1527 67.7506 82.7439 67.3494 82.6408C66.9482 82.5377 66.5394 82.7793 66.4363 83.1804L67.889 83.5539ZM65.4997 88.9132C65.4681 89.3262 65.7772 89.6867 66.1902 89.7184C66.6032 89.75 66.9637 89.4409 66.9953 89.0279L65.4997 88.9132ZM67.0289 94.5864C66.9921 94.1739 66.6278 93.8692 66.2152 93.906C65.8026 93.9429 65.498 94.3072 65.5348 94.7197L67.0289 94.5864ZM66.5432 100.436C66.6506 100.836 67.062 101.073 67.462 100.966C67.8621 100.858 68.0993 100.447 67.992 100.047L66.5432 100.436ZM69.9133 105.245C69.7339 104.871 69.2859 104.714 68.9125 104.893C68.5391 105.073 68.3819 105.521 68.5612 105.894L69.9133 105.245ZM71.5695 110.87C71.8168 111.202 72.2867 111.271 72.6189 111.024C72.9512 110.776 73.02 110.307 72.7727 109.974L71.5695 110.87ZM76.4825 114.084C76.1778 113.803 75.7033 113.823 75.4228 114.127C75.1422 114.432 75.1618 114.907 75.4666 115.187L76.4825 114.084ZM80.0593 118.735C80.407 118.96 80.8713 118.861 81.0966 118.513C81.3218 118.165 81.2226 117.701 80.875 117.476L80.0593 118.735ZM85.7573 120.145C85.3808 119.972 84.9356 120.137 84.7629 120.514C84.5902 120.891 84.7555 121.336 85.132 121.508L85.7573 120.145ZM90.5206 123.584C90.9151 123.711 91.3372 123.493 91.4633 123.098C91.5894 122.704 91.3717 122.282 90.9772 122.156L90.5206 123.584ZM96.3983 123.587C95.9932 123.5 95.5947 123.759 95.5083 124.164C95.4219 124.569 95.6803 124.967 96.0854 125.054L96.3983 123.587ZM101.755 126.015C102.166 126.068 102.542 125.778 102.595 125.368C102.648 124.957 102.358 124.581 101.947 124.528L101.755 126.015ZM107.536 125.052C107.123 125.027 106.767 125.342 106.742 125.755C106.717 126.169 107.031 126.524 107.445 126.55L107.536 125.052ZM113.335 126.851C113.748 126.885 114.11 126.579 114.145 126.166C114.179 125.753 113.873 125.39 113.46 125.356L113.335 126.851ZM119.521 126.241C119.116 126.153 118.717 126.411 118.629 126.816C118.542 127.22 118.799 127.619 119.204 127.707L119.521 126.241ZM124.838 129.41C125.222 129.564 125.659 129.378 125.814 128.994C125.968 128.61 125.782 128.173 125.398 128.018L124.838 129.41ZM130.849 130.904C130.507 130.671 130.04 130.759 129.806 131.101C129.573 131.444 129.661 131.91 130.003 132.144L130.849 130.904ZM134.373 135.985C134.647 136.295 135.121 136.324 135.431 136.049C135.742 135.775 135.77 135.301 135.496 134.991L134.373 135.985ZM138.998 140.097C138.806 139.73 138.352 139.588 137.985 139.78C137.618 139.972 137.476 140.425 137.668 140.792L138.998 140.097ZM139.817 146.246C139.93 146.645 140.345 146.876 140.744 146.763C141.142 146.65 141.373 146.235 141.26 145.836L139.817 146.246ZM142.436 151.86C142.388 151.449 142.016 151.154 141.605 151.202C141.193 151.25 140.898 151.622 140.946 152.033L142.436 151.86ZM141.248 157.957C141.244 158.371 141.577 158.71 141.991 158.714C142.406 158.717 142.744 158.384 142.748 157.97L141.248 157.957ZM142.384 164.057C142.428 163.645 142.13 163.276 141.718 163.231C141.306 163.187 140.937 163.485 140.892 163.897L142.384 164.057ZM140.007 169.796C139.929 170.202 140.196 170.595 140.603 170.673C141.01 170.75 141.403 170.483 141.48 170.076L140.007 169.796ZM140.131 176.003C140.236 175.602 139.998 175.192 139.597 175.086C139.197 174.98 138.786 175.219 138.68 175.62L140.131 176.003ZM136.968 181.345C136.837 181.738 137.049 182.163 137.442 182.294C137.835 182.426 138.26 182.214 138.391 181.821L136.968 181.345ZM136.282 187.523C136.438 187.139 136.254 186.702 135.87 186.545C135.487 186.389 135.049 186.573 134.893 186.957L136.282 187.523ZM33.7908 0.403305C32.9793 1.02128 32.1842 1.64377 31.4055 2.27055L32.346 3.43907C33.1142 2.8208 33.8986 2.2066 34.6996 1.5967L33.7908 0.403305ZM26.8805 6.12298C25.3788 7.47658 23.9476 8.84705 22.5853 10.2322L23.6547 11.284C24.9956 9.92066 26.405 8.57097 27.8848 7.23717L26.8805 6.12298ZM18.5244 14.6359C17.1956 16.1756 15.9464 17.7299 14.7744 19.296L15.9754 20.1947C17.1262 18.6568 18.3536 17.1296 19.66 15.6159L18.5244 14.6359ZM11.3704 24.2107C10.2775 25.9218 9.27187 27.643 8.35048 29.3708L9.67403 30.0766C10.5768 28.3838 11.5627 26.6964 12.6345 25.018L11.3704 24.2107ZM5.75449 34.7588C4.95107 36.6205 4.24109 38.4852 3.621 40.3485L5.04426 40.8222C5.6507 38.9999 6.34531 37.1754 7.13171 35.3532L5.75449 34.7588ZM1.98512 46.1054C1.51983 48.0749 1.15171 50.0374 0.876464 51.9877L2.36175 52.1973C2.63058 50.2924 2.99021 48.375 3.44493 46.4503L1.98512 46.1054ZM0.31789 57.9477C0.224193 59.9659 0.228308 61.9644 0.325228 63.9369L1.82342 63.8633C1.72884 61.9383 1.7248 59.9876 1.81628 58.0173L0.31789 57.9477ZM0.909454 69.9081C1.20379 71.9069 1.59384 73.8705 2.07388 75.7919L3.52915 75.4283C3.06104 73.5547 2.68059 71.6395 2.39345 69.6896L0.909454 69.9081ZM3.81658 81.529C4.49966 83.4277 5.2736 85.2731 6.13202 87.0574L7.48373 86.4071C6.64777 84.6695 5.89374 82.8717 5.22802 81.0212L3.81658 81.529ZM9.01664 92.3194C10.0828 94.0383 11.2336 95.6823 12.4618 97.2424L13.6404 96.3145C12.4473 94.799 11.3285 93.2009 10.2913 91.5288L9.01664 92.3194ZM16.4468 101.737C17.8753 103.167 19.3793 104.497 20.9509 105.717L21.8708 104.532C20.3501 103.352 18.8931 102.063 17.508 100.677L16.4468 101.737ZM25.944 109.086C27.6888 110.097 29.4961 110.982 31.3573 111.729L31.9161 110.337C30.1234 109.617 28.3806 108.764 26.6964 107.788L25.944 109.086ZM37.1053 113.549C39.0509 114.005 41.0403 114.315 43.0647 114.467L43.1771 112.971C41.2313 112.825 39.3189 112.527 37.448 112.088L37.1053 113.549ZM49.1035 114.451C51.0669 114.294 53.0527 113.989 55.0535 113.526L54.7154 112.064C52.7858 112.511 50.8731 112.805 48.9842 112.956L49.1035 114.451ZM60.7988 111.77C61.7322 111.415 62.6672 111.024 63.603 110.598L62.981 109.233C62.0738 109.646 61.1683 110.024 60.2651 110.368L60.7988 111.77ZM63.603 110.598C64.5621 110.161 65.4954 109.727 66.4035 109.297L65.7612 107.941C64.8601 108.368 63.9335 108.799 62.981 109.233L63.603 110.598ZM71.8041 106.626C73.698 105.647 75.4586 104.686 77.0929 103.744L76.344 102.444C74.7309 103.374 72.9903 104.324 71.1149 105.294L71.8041 106.626ZM82.1956 100.6C84.0629 99.3633 85.7073 98.1617 87.1462 96.9963L86.2021 95.8307C84.8053 96.9621 83.2002 98.1356 81.3672 99.3499L82.1956 100.6ZM91.5999 92.8108C93.2249 90.9805 94.3308 89.241 94.9826 87.5952L93.588 87.0429C93.0157 88.4879 92.0179 90.0807 90.4782 91.8149L91.5999 92.8108ZM95.1894 81.2081C94.4355 79.2342 92.9283 77.6213 91.0667 76.3629L90.2267 77.6056C91.9193 78.7498 93.1763 80.1414 93.7881 81.7432L95.1894 81.2081ZM85.4088 73.7886C83.4068 73.2023 81.3087 72.8603 79.3153 72.7728L79.2495 74.2714C81.1226 74.3536 83.1012 74.6758 84.9873 75.2281L85.4088 73.7886ZM73.1 73.5123C71.97 73.9038 70.9771 74.4651 70.2572 75.2327L71.3512 76.2589C71.8545 75.7223 72.6094 75.2698 73.5911 74.9296L73.1 73.5123ZM70.2572 75.2327C69.6423 75.8882 69.0598 76.7238 68.527 77.6966L69.8426 78.4171C70.3311 77.5253 70.8433 76.8003 71.3512 76.2589L70.2572 75.2327ZM66.4363 83.1804C65.9847 84.9371 65.6564 86.8694 65.4997 88.9132L66.9953 89.0279C67.1454 87.0704 67.4595 85.2247 67.889 83.5539L66.4363 83.1804ZM65.5348 94.7197C65.7023 96.597 66.028 98.5158 66.5432 100.436L67.992 100.047C67.5005 98.2157 67.1892 96.3826 67.0289 94.5864L65.5348 94.7197ZM68.5612 105.894C69.378 107.594 70.3732 109.263 71.5695 110.87L72.7727 109.974C71.6357 108.447 70.6899 106.861 69.9133 105.245L68.5612 105.894ZM75.4666 115.187C76.8313 116.443 78.3578 117.632 80.0593 118.735L80.875 117.476C79.2431 116.418 77.7838 115.281 76.4825 114.084L75.4666 115.187ZM85.132 121.508C86.8 122.273 88.5937 122.969 90.5206 123.584L90.9772 122.156C89.1051 121.557 87.3679 120.884 85.7573 120.145L85.132 121.508ZM96.0854 125.054C97.8787 125.436 99.7673 125.759 101.755 126.015L101.947 124.528C99.9979 124.276 98.1497 123.96 96.3983 123.587L96.0854 125.054ZM107.445 126.55C108.392 126.607 109.358 126.652 110.345 126.682L110.391 125.183C109.419 125.153 108.468 125.109 107.536 125.052L107.445 126.55ZM110.345 126.682C111.373 126.713 112.37 126.77 113.335 126.851L113.46 125.356C112.467 125.273 111.444 125.215 110.391 125.183L110.345 126.682ZM119.204 127.707C121.254 128.149 123.127 128.722 124.838 129.41L125.398 128.018C123.603 127.296 121.647 126.699 119.521 126.241L119.204 127.707ZM130.003 132.144C131.672 133.282 133.121 134.571 134.373 135.985L135.496 134.991C134.163 133.484 132.62 132.113 130.849 130.904L130.003 132.144ZM137.668 140.792C138.565 142.507 139.274 144.334 139.817 146.246L141.26 145.836C140.692 143.835 139.946 141.912 138.998 140.097L137.668 140.792ZM140.946 152.033C141.171 153.966 141.266 155.948 141.248 157.957L142.748 157.97C142.766 155.906 142.669 153.861 142.436 151.86L140.946 152.033ZM140.892 163.897C140.68 165.87 140.379 167.843 140.007 169.796L141.48 170.076C141.859 168.088 142.166 166.074 142.384 164.057L140.892 163.897ZM138.68 175.62C138.161 177.586 137.584 179.503 136.968 181.345L138.391 181.821C139.016 179.949 139.603 178.001 140.131 176.003L138.68 175.62Z" fill="#D4C9DE"/>
</svg>
