<svg width="40" height="40" viewBox="0 0 40 40" fill="none" xmlns="http://www.w3.org/2000/svg">
<rect x="40" y="40" width="40" height="40" rx="12" transform="rotate(-180 40 40)" fill="#281E30"/>
<g clip-path="url(#clip0_4617_81842)">
<path d="M8.75001 9.99999C9.02001 9.99999 9.27401 10.146 9.40801 10.391L9.42901 10.429C11.672 14.48 15.946 17 20.582 17H22V12.75C22 12.449 22.181 12.177 22.458 12.059C22.733 11.943 23.057 12.001 23.272 12.212L31.772 20.462C31.918 20.603 32 20.797 32 21C32 21.203 31.918 21.397 31.772 21.538L23.272 29.788C23.056 29.998 22.733 30.058 22.458 29.941C22.181 29.823 22 29.551 22 29.25V24.998C14.257 24.864 8.00001 18.524 8.00001 10.75C8.00001 10.407 8.23201 10.108 8.56401 10.023C8.62601 10.007 8.68801 9.99999 8.75001 9.99999ZM22.75 18.5H20.582C16.406 18.5 12.493 16.671 9.81801 13.589C11.112 19.258 16.195 23.5 22.25 23.5H22.75C23.164 23.5 23.5 23.836 23.5 24.25V27.477L30.173 21L23.5 14.523V17.75C23.5 18.164 23.164 18.5 22.75 18.5Z" fill="#F6EFFF"/>
</g>
<defs>
<clipPath id="clip0_4617_81842">
<rect width="24" height="24" fill="white" transform="translate(32 32) rotate(-180)"/>
</clipPath>
</defs>
</svg>
