<svg width="20" height="21" viewBox="0 0 20 21" fill="none" xmlns="http://www.w3.org/2000/svg">
<path d="M18.3333 2.16699L2.5 18.0003" stroke="#281E30" stroke-width="1.5" stroke-linecap="round"/>
<path fill-rule="evenodd" clip-rule="evenodd" d="M14.4873 3.28589C13.6079 2.15479 12.2338 1.41699 10.6692 1.41699H9.25015C6.34533 1.41699 4.09784 3.96291 4.45814 6.8453L4.52427 7.37434C4.61603 8.10844 4.34788 8.8417 3.80418 9.34342C2.57562 10.4771 2.23429 12.2815 2.96388 13.7857L3.05001 13.9632C3.13185 14.1319 3.22445 14.2932 3.32676 14.4464L4.42119 13.352C4.41387 13.3376 4.40668 13.3231 4.39961 13.3086L4.31349 13.131C3.87247 12.2218 4.0788 11.1311 4.82143 10.4458C5.72088 9.61578 6.16449 8.40273 6.01268 7.18829L5.94655 6.65925C5.69817 4.67214 7.24758 2.91699 9.25015 2.91699H10.6692C11.8172 2.91699 12.8165 3.4929 13.4145 4.35864L14.4873 3.28589ZM13.9869 5.90765L15.2357 4.65881C15.3456 4.97319 15.4238 5.30165 15.4665 5.64005L13.9129 7.19361C13.9162 7.16095 13.9199 7.12829 13.9239 7.09562L13.9778 6.66484C14.01 6.40746 14.012 6.15396 13.9869 5.90765ZM5.46357 14.4309L4.37628 15.5182C4.62067 15.689 4.88355 15.8327 5.16017 15.9464L6.37681 14.7297C6.05269 14.6883 5.74334 14.5856 5.46357 14.4309ZM8.47752 14.7503L6.60825 16.6196C7.47354 17.9915 8.77678 18.7503 10.153 18.7503C11.585 18.7503 12.938 17.9287 13.8008 16.4497L13.9276 16.2324C15.1247 16.1175 16.2117 15.4581 16.8648 14.4319C17.8823 12.8331 17.6128 10.7358 16.2242 9.4462L16.1877 9.41224C15.7359 8.99265 15.4609 8.42527 15.4041 7.82373L14.1723 9.05558C14.388 9.60153 14.7246 10.1006 15.1669 10.5114L15.2035 10.5453C16.0617 11.3423 16.2282 12.6385 15.5994 13.6265C15.1539 14.3265 14.3817 14.7503 13.5521 14.7503H13.5006C13.4915 14.7502 13.4825 14.7502 13.4735 14.7503H8.47752ZM10.153 17.2503C9.49068 17.2503 8.77655 16.946 8.19048 16.2503H12.1155C11.5294 16.946 10.8153 17.2503 10.153 17.2503Z" fill="#281E30"/>
</svg>
