<svg width="20" height="21" viewBox="0 0 20 21" fill="none" xmlns="http://www.w3.org/2000/svg">
<path d="M0.625006 18.8337C0.850006 18.8337 1.06167 18.712 1.17334 18.5078L1.19084 18.4762C3.06001 15.1003 6.62167 13.0003 10.485 13.0003H11.6667V16.542C11.6667 16.7928 11.8175 17.0195 12.0483 17.1178C12.2775 17.2145 12.5475 17.1662 12.7267 16.9903L19.81 10.1153C19.9317 9.99784 20 9.83617 20 9.667C20 9.49784 19.9317 9.33617 19.81 9.21867L12.7267 2.34367C12.5467 2.16867 12.2775 2.11867 12.0483 2.21617C11.8175 2.31451 11.6667 2.54117 11.6667 2.79201V6.33534C5.21417 6.447 5.72205e-06 11.7303 5.72205e-06 18.2087C5.72205e-06 18.4945 0.193338 18.7437 0.470005 18.8145C0.521671 18.8278 0.573339 18.8337 0.625006 18.8337ZM12.2917 11.7503H10.485C7.005 11.7503 3.74417 13.2745 1.51501 15.8428C2.59334 11.1187 6.82917 7.58367 11.875 7.58367H12.2917C12.6367 7.58367 12.9167 7.30367 12.9167 6.95867V4.26951L18.4775 9.667L12.9167 15.0645V12.3753C12.9167 12.0303 12.6367 11.7503 12.2917 11.7503Z" fill="#281E30"/>
</svg>
