<svg width="16" height="16" viewBox="0 0 16 16" fill="none" xmlns="http://www.w3.org/2000/svg">
<path fill-rule="evenodd" clip-rule="evenodd" d="M2.75 5C2.75 4.30964 3.30964 3.75 4 3.75H12C12.6904 3.75 13.25 4.30964 13.25 5V8.93195L12.416 8.37596C12.2105 8.23897 11.9508 8.21192 11.7215 8.30364L9.55769 9.16915L6.3721 7.34882C6.11787 7.20354 5.80234 7.21951 5.56407 7.3897L2.75 9.39975V5ZM2.76614 11.2014C2.86244 11.796 3.3782 12.25 4 12.25H12C12.6904 12.25 13.25 11.6904 13.25 11V10.7073C13.1927 10.687 13.1369 10.6593 13.084 10.624L11.9122 9.84288L9.77854 10.6964C9.56612 10.7813 9.32654 10.7647 9.1279 10.6512L6.04501 8.88953L2.93593 11.1103C2.88219 11.1487 2.8251 11.179 2.76614 11.2014ZM4 2.25C2.48122 2.25 1.25 3.48122 1.25 5V11C1.25 12.5188 2.48122 13.75 4 13.75H12C13.5188 13.75 14.75 12.5188 14.75 11V5C14.75 3.48122 13.5188 2.25 12 2.25H4Z" fill="#3B1F52" fill-opacity="0.6"/>
<circle cx="11" cy="6" r="1" fill="#3B1F52" fill-opacity="0.6"/>
</svg>
