<svg width="20" height="20" viewBox="0 0 20 20" fill="none" xmlns="http://www.w3.org/2000/svg">
<g clip-path="url(#clip0_4193_49745)">
<path d="M19.375 18.3337C19.15 18.3337 18.9383 18.212 18.8267 18.0078L18.8092 17.9762C16.94 14.6003 13.3783 12.5003 9.515 12.5003H8.33333V16.042C8.33333 16.2928 8.1825 16.5195 7.95166 16.6178C7.7225 16.7145 7.4525 16.6662 7.27333 16.4903L0.19 9.61534C0.0683333 9.49784 0 9.33617 0 9.167C0 8.99784 0.0683333 8.83617 0.19 8.71867L7.27333 1.84367C7.45333 1.66867 7.7225 1.61867 7.95166 1.71617C8.1825 1.81451 8.33333 2.04117 8.33333 2.29201V5.83534C14.7858 5.947 20 11.2303 20 17.7087C20 17.9945 19.8067 18.2437 19.53 18.3145C19.4783 18.3278 19.4267 18.3337 19.375 18.3337ZM7.70833 11.2503H9.515C12.995 11.2503 16.2558 12.7745 18.485 15.3428C17.4067 10.6187 13.1708 7.08367 8.125 7.08367H7.70833C7.36333 7.08367 7.08333 6.80367 7.08333 6.45867V3.76951L1.5225 9.167L7.08333 14.5645V11.8753C7.08333 11.5303 7.36333 11.2503 7.70833 11.2503Z" fill="#281E30"/>
</g>
<defs>
<clipPath id="clip0_4193_49745">
<rect width="20" height="20" fill="white"/>
</clipPath>
</defs>
</svg>
