<svg width="23" height="23" viewBox="0 0 23 23" fill="none" xmlns="http://www.w3.org/2000/svg">
<rect width="23" height="23" rx="6.9" fill="#3B1F52" fill-opacity="0.6"/>
<g clip-path="url(#clip0_4079_76493)">
<path d="M17.9684 17.249C17.8131 17.249 17.6671 17.1651 17.59 17.0242L17.5779 17.0024C16.2882 14.673 13.8307 13.224 11.165 13.224H10.3496V15.6678C10.3496 15.8409 10.2455 15.9973 10.0863 16.0651C9.92813 16.1318 9.74183 16.0985 9.61821 15.9771L4.73071 11.2334C4.64676 11.1523 4.59961 11.0408 4.59961 10.924C4.59961 10.8073 4.64676 10.6958 4.73071 10.6147L9.61821 5.87093C9.74241 5.75018 9.92813 5.71568 10.0863 5.78296C10.2455 5.85081 10.3496 6.00721 10.3496 6.18028V8.62518C14.8018 8.70223 18.3996 12.3477 18.3996 16.8178C18.3996 17.015 18.2662 17.1869 18.0753 17.2358C18.0397 17.245 18.004 17.249 17.9684 17.249ZM9.91836 12.3615H11.165C13.5662 12.3615 15.8161 13.4132 17.3543 15.1854C16.6102 11.9257 13.6875 9.48653 10.2059 9.48653H9.91836C9.68031 9.48653 9.48711 9.29333 9.48711 9.05528V7.19976L5.65013 10.924L9.48711 14.6483V12.7928C9.48711 12.5547 9.68031 12.3615 9.91836 12.3615Z" fill="#F6EFFF"/>
</g>
<defs>
<clipPath id="clip0_4079_76493">
<rect width="13.8" height="13.8" fill="white" transform="translate(4.59961 4.59961)"/>
</clipPath>
</defs>
</svg>
