<svg width="20" height="20" viewBox="0 0 20 20" fill="none" xmlns="http://www.w3.org/2000/svg">
<path d="M6.01486 17.449L5.89753 18.1898H5.89753L6.01486 17.449ZM2.5513 13.9855L3.29206 13.8681L2.5513 13.9855ZM17.4487 13.9855L18.1895 14.1028L18.1895 14.1028L17.4487 13.9855ZM13.9851 17.449L14.1025 18.1898H14.1025L13.9851 17.449ZM17.2666 8.71656C17.0179 8.38537 16.5477 8.31855 16.2165 8.56732C15.8853 8.81609 15.8185 9.28623 16.0673 9.61743L17.2666 8.71656ZM3.9327 9.61743C4.18147 9.28623 4.11465 8.81608 3.78346 8.56732C3.45227 8.31855 2.98212 8.38537 2.73335 8.71656L3.9327 9.61743ZM16.75 11.667V12.5003H18.25V11.667H16.75ZM12.5 16.7503H7.5V18.2503H12.5V16.7503ZM3.25 12.5003V11.667H1.75V12.5003H3.25ZM7.5 16.7503C6.69717 16.7503 6.38307 16.748 6.13218 16.7083L5.89753 18.1898C6.29441 18.2527 6.75449 18.2503 7.5 18.2503V16.7503ZM1.75 12.5003C1.75 13.2458 1.74767 13.7059 1.81053 14.1028L3.29206 13.8681C3.25233 13.6173 3.25 13.3032 3.25 12.5003H1.75ZM6.13218 16.7083C4.67022 16.4767 3.52362 15.3301 3.29206 13.8681L1.81053 14.1028C2.14374 16.2066 3.79373 17.8566 5.89753 18.1898L6.13218 16.7083ZM16.75 12.5003C16.75 13.3032 16.7477 13.6173 16.7079 13.8681L18.1895 14.1028C18.2523 13.7059 18.25 13.2458 18.25 12.5003H16.75ZM12.5 18.2503C13.2455 18.2503 13.7056 18.2527 14.1025 18.1898L13.8678 16.7083C13.6169 16.748 13.3028 16.7503 12.5 16.7503V18.2503ZM16.7079 13.8681C16.4764 15.3301 15.3298 16.4767 13.8678 16.7083L14.1025 18.1898C16.2063 17.8566 17.8563 16.2066 18.1895 14.1028L16.7079 13.8681ZM18.25 11.667C18.25 10.561 17.8839 9.53836 17.2666 8.71656L16.0673 9.61743C16.4962 10.1884 16.75 10.897 16.75 11.667H18.25ZM3.25 11.667C3.25 10.897 3.50384 10.1884 3.9327 9.61743L2.73335 8.71656C2.11607 9.53836 1.75 10.561 1.75 11.667H3.25Z" fill="#281E30"/>
<path d="M10.7502 2.50033C10.7502 2.08611 10.4144 1.75033 10.0002 1.75033C9.58595 1.75033 9.25016 2.08611 9.25016 2.50033L10.7502 2.50033ZM13.9212 11.2996C14.1785 10.9751 14.124 10.5033 13.7995 10.246C13.4749 9.98863 13.0032 10.0431 12.7458 10.3677L13.9212 11.2996ZM12.1686 12.3028L12.7563 12.7688L12.1686 12.3028ZM7.8317 12.3028L7.24402 12.7688L7.8317 12.3028ZM7.25451 10.3677C6.99717 10.0431 6.52543 9.98863 6.20086 10.246C5.87629 10.5033 5.8218 10.9751 6.07915 11.2996L7.25451 10.3677ZM10.2091 14.1504L10.3271 14.8911L10.3271 14.8911L10.2091 14.1504ZM9.79127 14.1504L9.67327 14.8911L9.67327 14.8911L9.79127 14.1504ZM9.25016 2.50033L9.25016 13.3337L10.7502 13.3337L10.7502 2.50033L9.25016 2.50033ZM12.7458 10.3677L11.5809 11.8368L12.7563 12.7688L13.9212 11.2996L12.7458 10.3677ZM8.41939 11.8368L7.25451 10.3677L6.07915 11.2996L7.24402 12.7688L8.41939 11.8368ZM11.5809 11.8368C11.1051 12.437 10.7873 12.836 10.5214 13.1028C10.2589 13.3664 10.1406 13.4019 10.091 13.4098L10.3271 14.8911C10.8436 14.8088 11.2406 14.5063 11.5841 14.1614C11.9243 13.82 12.3032 13.3402 12.7563 12.7688L11.5809 11.8368ZM7.24402 12.7688C7.69712 13.3402 8.07603 13.82 8.4162 14.1614C8.75971 14.5063 9.15671 14.8088 9.67327 14.8911L9.90928 13.4098C9.85971 13.4019 9.74141 13.3664 9.4789 13.1028C9.21306 12.836 8.89525 12.437 8.41939 11.8368L7.24402 12.7688ZM10.091 13.4098C10.0606 13.4146 10.0303 13.417 10.0002 13.417L10.0002 14.917C10.1096 14.917 10.2188 14.9083 10.3271 14.8911L10.091 13.4098ZM10.0002 13.417C9.97006 13.417 9.93975 13.4146 9.90928 13.4098L9.67327 14.8911C9.78151 14.9083 9.89073 14.917 10.0002 14.917L10.0002 13.417ZM9.25016 13.3337L9.25016 14.167L10.7502 14.167L10.7502 13.3337L9.25016 13.3337Z" fill="#281E30"/>
</svg>
