<svg width="20" height="21" viewBox="0 0 20 21" fill="none" xmlns="http://www.w3.org/2000/svg">
<path d="M15.4312 11.1499L16.174 11.2533L15.4312 11.1499ZM15.2125 12.7208L15.9554 12.8241L15.2125 12.7208ZM4.78778 12.7208L5.53062 12.6174H5.53062L4.78778 12.7208ZM4.56916 11.1499L3.82632 11.2533L4.56916 11.1499ZM7.6532 18.6144L7.36161 19.3053H7.36161L7.6532 18.6144ZM5.39606 15.9673L6.10005 15.7086H6.10005L5.39606 15.9673ZM14.6043 15.9673L15.3082 16.2259L14.6043 15.9673ZM12.3471 18.6144L12.0555 17.9234L12.3471 18.6144ZM4.91347 7.92939C4.87429 7.51703 4.50825 7.21451 4.09589 7.25369C3.68353 7.29287 3.38101 7.65891 3.42019 8.07127L4.91347 7.92939ZM16.5801 8.07127C16.6193 7.65891 16.3168 7.29287 15.9044 7.25369C15.4921 7.21451 15.126 7.51703 15.0869 7.92938L16.5801 8.07127ZM16.6668 7.08366C17.081 7.08366 17.4168 6.74787 17.4168 6.33366C17.4168 5.91945 17.081 5.58366 16.6668 5.58366V7.08366ZM3.3335 5.58366C2.91928 5.58366 2.5835 5.91945 2.5835 6.33366C2.5835 6.74787 2.91928 7.08366 3.3335 7.08366V5.58366ZM7.5835 15.5003C7.5835 15.9145 7.91928 16.2503 8.3335 16.2503C8.74771 16.2503 9.0835 15.9145 9.0835 15.5003H7.5835ZM9.0835 8.83366C9.0835 8.41945 8.74771 8.08366 8.3335 8.08366C7.91928 8.08366 7.5835 8.41945 7.5835 8.83366H9.0835ZM10.9168 15.5003C10.9168 15.9145 11.2526 16.2503 11.6668 16.2503C12.081 16.2503 12.4168 15.9145 12.4168 15.5003H10.9168ZM12.4168 8.83366C12.4168 8.41945 12.081 8.08366 11.6668 8.08366C11.2526 8.08366 10.9168 8.41945 10.9168 8.83366H12.4168ZM13.3335 6.33366V7.08366H14.0835V6.33366H13.3335ZM6.66683 6.33366H5.91683V7.08366H6.66683V6.33366ZM14.6883 11.0465L14.4697 12.6174L15.9554 12.8241L16.174 11.2533L14.6883 11.0465ZM5.53062 12.6174L5.312 11.0465L3.82632 11.2533L4.04494 12.8241L5.53062 12.6174ZM10.0002 18.0837C8.71463 18.0837 8.29105 18.0695 7.94479 17.9234L7.36161 19.3053C8.05476 19.5978 8.84937 19.5837 10.0002 19.5837V18.0837ZM4.04494 12.8241C4.27712 14.4925 4.40542 15.4457 4.69208 16.2259L6.10005 15.7086C5.88292 15.1176 5.77363 14.3635 5.53062 12.6174L4.04494 12.8241ZM7.94479 17.9234C7.21672 17.6161 6.52174 16.8563 6.10005 15.7086L4.69208 16.2259C5.21248 17.6423 6.14598 18.7924 7.36161 19.3053L7.94479 17.9234ZM14.4697 12.6174C14.2267 14.3635 14.1174 15.1176 13.9003 15.7086L15.3082 16.2259C15.5949 15.4457 15.7232 14.4925 15.9554 12.8241L14.4697 12.6174ZM10.0002 19.5837C11.151 19.5837 11.9456 19.5978 12.6387 19.3053L12.0555 17.9234C11.7093 18.0695 11.2857 18.0837 10.0002 18.0837V19.5837ZM13.9003 15.7086C13.4786 16.8563 12.7836 17.6161 12.0555 17.9234L12.6387 19.3053C13.8543 18.7924 14.7878 17.6423 15.3082 16.2259L13.9003 15.7086ZM5.312 11.0465C5.12675 9.71539 4.989 8.72435 4.91347 7.92939L3.42019 8.07127C3.49953 8.90629 3.64285 9.93491 3.82632 11.2533L5.312 11.0465ZM16.174 11.2533C16.3575 9.93491 16.5008 8.90629 16.5801 8.07127L15.0869 7.92938C15.0113 8.72435 14.8736 9.71539 14.6883 11.0465L16.174 11.2533ZM16.6668 5.58366H3.3335V7.08366H16.6668V5.58366ZM9.0835 15.5003V8.83366H7.5835V15.5003H9.0835ZM12.4168 15.5003V8.83366H10.9168V15.5003H12.4168ZM12.5835 5.50033V6.33366H14.0835V5.50033H12.5835ZM13.3335 5.58366H6.66683V7.08366H13.3335V5.58366ZM7.41683 6.33366V5.50033H5.91683V6.33366H7.41683ZM10.0002 2.91699C11.4269 2.91699 12.5835 4.07359 12.5835 5.50033H14.0835C14.0835 3.24516 12.2553 1.41699 10.0002 1.41699V2.91699ZM10.0002 1.41699C7.745 1.41699 5.91683 3.24516 5.91683 5.50033H7.41683C7.41683 4.07359 8.57343 2.91699 10.0002 2.91699V1.41699Z" fill="#E41717"/>
</svg>
